<svg width="24" height="20" viewBox="0 0 24 20" fill="none" xmlns="http://www.w3.org/2000/svg">
<path d="M21.7778 5.05495H16.5889L15.4778 1.97802H8.51944L7.40833 5.05495H2.22222C2.1 5.05495 2 5.15385 2 5.27473V17.8022C2 17.9231 2.1 18.022 2.22222 18.022H21.7778C21.9 18.022 22 17.9231 22 17.8022V5.27473C22 5.15385 21.9 5.05495 21.7778 5.05495ZM12 15.6044C9.54444 15.6044 7.55556 13.6374 7.55556 11.2088C7.55556 8.78022 9.54444 6.81319 12 6.81319C14.4556 6.81319 16.4444 8.78022 16.4444 11.2088C16.4444 13.6374 14.4556 15.6044 12 15.6044Z" fill="black"/>
<path d="M21.7778 3.07692H18L17.1 0.582418C17.0378 0.411726 16.9239 0.264181 16.7737 0.159938C16.6236 0.0556961 16.4446 -0.00016006 16.2611 3.44513e-07H7.73889C7.36389 3.44513e-07 7.02778 0.233517 6.90278 0.582418L6 3.07692H2.22222C0.994444 3.07692 0 4.06044 0 5.27473V17.8022C0 19.0165 0.994444 20 2.22222 20H21.7778C23.0056 20 24 19.0165 24 17.8022V5.27473C24 4.06044 23.0056 3.07692 21.7778 3.07692ZM22 17.8022C22 17.9231 21.9 18.022 21.7778 18.022H2.22222C2.1 18.022 2 17.9231 2 17.8022V5.27473C2 5.15385 2.1 5.05495 2.22222 5.05495H7.40833L8.51944 1.97802H15.4778L16.5889 5.05495H21.7778C21.9 5.05495 22 5.15385 22 5.27473V17.8022Z" fill="black"/>
</svg>
