<svg width="185" height="122" viewBox="0 0 185 122" fill="none" xmlns="http://www.w3.org/2000/svg">
<path d="M69.2394 30.6667C69.2394 18.4244 79.1637 8.5 91.406 8.5C103.648 8.5 113.573 18.4244 113.573 30.6667V48.156C113.573 60.3983 103.648 70.3226 91.406 70.3226C79.1637 70.3226 69.2394 60.3983 69.2394 48.156V30.6667Z" fill="#4351EC"/>
<path d="M47 19.685C47 13.5077 52.0077 8.5 58.185 8.5C64.3623 8.5 69.37 13.5077 69.37 19.685V72.5596C69.37 78.737 64.3623 83.7447 58.185 83.7447C52.0077 83.7447 47 78.737 47 72.5596V19.685Z" fill="#4351EC"/>
<path d="M47 53.1384C47 40.8399 57.0716 30.87 69.37 30.87C81.6685 30.87 91.7401 40.8399 91.7401 53.1384V75.305C91.7401 87.6035 81.6685 97.5734 69.37 97.5734C57.0716 97.5734 47 87.6035 47 75.305V53.1384Z" fill="#4351EC"/>
<path d="M113.703 19.685C113.703 13.5077 118.711 8.5 124.888 8.5C131.066 8.5 136.073 13.5077 136.073 19.685V72.5596C136.073 78.737 131.066 83.7447 124.888 83.7447C118.711 83.7447 113.703 78.737 113.703 72.5596V19.685Z" fill="#4351EC"/>
<path d="M91.7401 53.0367C91.7401 40.7944 101.664 30.87 113.907 30.87C126.149 30.87 136.073 40.7944 136.073 53.0367V75.4067C136.073 87.649 126.149 97.5734 113.907 97.5734C101.664 97.5734 91.7401 87.649 91.7401 75.4067V53.0367Z" fill="#4351EC"/>
<rect x="71.0068" y="33.9512" width="20.3364" height="31.318" rx="10.1682" transform="rotate(0.0172161 71.0068 33.9512)" fill="white"/>
<rect x="91.3447" y="33.957" width="20.3364" height="31.318" rx="10.1682" transform="rotate(0.0172161 91.3447 33.957)" fill="white"/>
<rect x="76.0654" y="41" width="11.3884" height="17.896" rx="5.69419" transform="rotate(0.209929 76.0654 41)" fill="black"/>
<rect x="96.4023" y="41.0742" width="11.3884" height="17.896" rx="5.69419" transform="rotate(0.209929 96.4023 41.0742)" fill="black"/>
<path d="M85.0078 52L85.0005 54" stroke="white" stroke-width="2" stroke-linecap="round"/>
<path d="M105.008 52.0732L105 54.0732" stroke="white" stroke-width="2" stroke-linecap="round"/>
<rect width="30.5729" height="16.2904" rx="8.14518" transform="matrix(0.879545 0.475817 0.475817 -0.879545 87.999 35.3281)" fill="#4351EC"/>
<rect x="94.6416" y="35.3281" width="30.5729" height="16.2904" rx="8.14518" transform="rotate(151.587 94.6416 35.3281)" fill="#4351EC"/>
<path d="M8.49479 91.7417C6.3235 92.2686 5.05361 89.3788 6.91031 88.1357L27.5188 74.3383C28.1086 73.9435 28.8637 73.8906 29.5025 74.1996L41.6075 80.0558C43.2966 80.8731 43.0313 83.357 41.2077 83.7997L8.49479 91.7417Z" fill="white" stroke="#FE4401" stroke-width="2" stroke-linecap="round"/>
<path d="M6.12634 88.2051C4.81186 90.0119 6.9999 92.287 8.85665 91.044L29.4652 77.2466C30.0549 76.8518 30.3915 76.1739 30.3493 75.4654L29.5468 62.0423C29.4347 60.1692 27.037 59.4681 25.9329 60.9855L6.12634 88.2051Z" fill="white" stroke="#FE4401" stroke-width="2" stroke-linecap="round"/>
<path d="M154.529 98.4234C156.218 99.8854 154.602 102.597 152.512 101.807L129.314 93.0369C128.65 92.7859 128.169 92.2019 128.049 91.5023L125.79 78.2463C125.475 76.3965 127.651 75.1705 129.071 76.3983L154.529 98.4234Z" fill="white" stroke="#FE4401" stroke-width="2" stroke-linecap="round"/>
<path d="M153.024 102.404C155.259 102.425 155.841 99.3227 153.751 98.5325L130.552 89.7625C129.889 89.5115 129.141 89.631 128.589 90.0767L118.125 98.5229C116.665 99.7016 117.486 102.061 119.363 102.079L153.024 102.404Z" fill="white" stroke="#FE4401" stroke-width="2" stroke-linecap="round"/>
<path d="M157.238 120.028C155.039 120.422 153.947 117.461 155.876 116.333L167.52 109.525C168.133 109.167 168.89 109.16 169.508 109.507L175.885 113.087C177.522 114.005 177.106 116.468 175.259 116.799L157.238 120.028Z" fill="white" stroke="#FE4401" stroke-width="2" stroke-linecap="round"/>
<path d="M154.814 115.884C153.392 117.607 155.437 120.01 157.366 118.883L169.01 112.074C169.622 111.716 170 111.06 170 110.35L170.009 103.038C170.011 101.161 167.66 100.315 166.466 101.763L154.814 115.884Z" fill="white" stroke="#FE4401" stroke-width="2" stroke-linecap="round"/>
</svg>
