<svg width="16" height="17" viewBox="0 0 16 17" fill="none" xmlns="http://www.w3.org/2000/svg">
<path d="M14 8.3335C14 11.6472 11.3137 14.3335 8 14.3335C4.68629 14.3335 2 11.6472 2 8.3335C2 5.01979 4.68629 2.3335 8 2.3335C11.3137 2.3335 14 5.01979 14 8.3335Z" fill="white"/>
<path d="M11.3333 6.3335L6.66665 11.0002L4.66663 9.00016M14 8.3335C14 11.6472 11.3137 14.3335 8 14.3335C4.68629 14.3335 2 11.6472 2 8.3335C2 5.01979 4.68629 2.3335 8 2.3335C11.3137 2.3335 14 5.01979 14 8.3335Z" stroke="#C8D1E2" stroke-width="0.521739" stroke-linecap="round" stroke-linejoin="round"/>
</svg>
