<svg width="24" height="24" viewBox="0 0 24 24" fill="none" xmlns="http://www.w3.org/2000/svg">
<path fill-rule="evenodd" clip-rule="evenodd" d="M18.384 11.1991C18.7655 9.76148 18.6409 8.23822 18.0309 6.88001C17.4208 5.52181 16.3616 4.40962 15.0276 3.72652C15.5359 3.38278 16.1144 3.15383 16.7221 3.0559C17.3298 2.95797 17.9518 2.99344 18.5441 3.15981C19.1364 3.32617 19.6845 3.61937 20.1496 4.01862C20.6147 4.41788 20.9853 4.91343 21.2354 5.47019C21.4854 6.02694 21.6087 6.63129 21.5964 7.24042C21.5842 7.84955 21.4368 8.44858 21.1646 8.99507C20.8924 9.54156 20.5022 10.0222 20.0215 10.4028C19.5407 10.7835 18.9825 11.0561 18.384 11.1991ZM21 19.6251H21.6C22.2365 19.6251 22.847 19.3749 23.2971 18.9295C23.7471 18.4842 24 17.8801 24 17.2502C24 15.9905 23.4943 14.7824 22.5941 13.8917C21.6939 13.0009 20.473 12.5005 19.2 12.5005H17.88C17.7168 12.8168 17.5278 13.1194 17.3148 13.4053C18.4326 14.024 19.3634 14.9266 20.0112 16.0199C20.659 17.1132 21.0003 18.3577 21 19.6251ZM2.4 7.15703C2.39982 6.40038 2.60839 5.65804 3.00322 5.01006C3.39805 4.36209 3.96415 3.83306 4.64048 3.48005C5.31681 3.12703 6.07771 2.96342 6.8411 3.00685C7.60449 3.05029 8.34142 3.29912 8.9724 3.72652C7.6371 4.40814 6.57679 5.5202 5.96673 6.87891C5.35667 8.23761 5.23336 9.76162 5.6172 11.1991C4.70016 10.9807 3.8841 10.4632 3.30049 9.72992C2.71688 8.99668 2.39968 8.09038 2.4 7.15703ZM6.12 12.5005H4.8C3.52696 12.5005 2.30606 13.0009 1.40589 13.8917C0.505713 14.7824 0 15.9905 0 17.2502C0 17.8801 0.252856 18.4842 0.702944 18.9295C1.15303 19.3749 1.76348 19.6251 2.4 19.6251H3C2.99968 18.3577 3.34102 17.1132 3.98881 16.0199C4.6366 14.9266 5.56739 14.024 6.6852 13.4053C6.47225 13.1194 6.28322 12.8168 6.12 12.5005Z" fill="black"/>
<path d="M10.2002 15.875H13.7998C14.811 15.875 15.7794 16.2731 16.4912 16.9775C17.2025 17.6815 17.5996 18.6341 17.5996 19.625C17.5996 19.9862 17.4548 20.3351 17.1934 20.5938C16.9317 20.8526 16.5747 20.9999 16.2002 21H7.7998C7.42531 20.9999 7.06834 20.8526 6.80664 20.5938C6.54523 20.3351 6.40039 19.9862 6.40039 19.625C6.40042 18.6341 6.79753 17.6815 7.50879 16.9775C8.22064 16.2731 9.189 15.875 10.2002 15.875ZM4.7998 13.501H4.81055C4.14753 14.0739 3.57847 14.7511 3.12891 15.5098C2.56846 16.4557 2.20829 17.5017 2.06738 18.583C1.81845 18.5231 1.58879 18.3994 1.40625 18.2188C1.14486 17.9601 1 17.6112 1 17.25C1.00007 16.259 1.39794 15.3065 2.10938 14.6025C2.82118 13.8982 3.78869 13.501 4.7998 13.501ZM19.2002 13.501C20.2113 13.501 21.1788 13.8982 21.8906 14.6025C22.6021 15.3065 22.9999 16.259 23 17.25C23 17.6112 22.8551 17.9601 22.5938 18.2188C22.411 18.3996 22.1809 18.5232 21.9316 18.583C21.7907 17.5017 21.4315 16.4556 20.8711 15.5098C20.4215 14.7511 19.8525 14.0739 19.1895 13.501H19.2002ZM12 6.37598C12.852 6.37598 13.6673 6.7107 14.2666 7.30371C14.8656 7.89641 15.2002 8.69861 15.2002 9.53223C15.2001 10.3657 14.8654 11.1672 14.2666 11.7598C13.6673 12.3528 12.8521 12.6875 12 12.6875C11.5785 12.6875 11.1614 12.6056 10.7725 12.4463C10.3835 12.2868 10.0301 12.0533 9.7334 11.7598C9.4368 11.4662 9.20194 11.1184 9.04199 10.7363C8.88207 10.3543 8.79985 9.9451 8.7998 9.53223C8.7998 9.11924 8.88203 8.70928 9.04199 8.32715C9.20196 7.94512 9.43683 7.59718 9.7334 7.30371C10.0301 7.01017 10.3835 6.77662 10.7725 6.61719C11.1613 6.45788 11.5785 6.37598 12 6.37598ZM6.78418 4.00488C6.80012 4.00579 6.81612 4.00765 6.83203 4.00879C6.08333 4.69659 5.47592 5.53158 5.05469 6.46973C4.63073 7.41405 4.41082 8.42768 4.39941 9.44727C4.28656 9.34173 4.17989 9.22912 4.08301 9.10742C3.63972 8.55049 3.40015 7.86325 3.40039 7.15723L3.40723 6.94238C3.44147 6.44465 3.59536 5.96035 3.85742 5.53027C4.15703 5.03865 4.58763 4.63548 5.10352 4.36621C5.61942 4.09702 6.20065 3.97171 6.78418 4.00488ZM17.167 4.01074C17.5389 3.98427 17.9135 4.02101 18.2734 4.12207C18.7259 4.24916 19.144 4.47346 19.498 4.77734C19.8521 5.08125 20.1337 5.45785 20.3232 5.87988C20.5127 6.30187 20.6059 6.75982 20.5967 7.2207C20.5874 7.68136 20.4757 8.13468 20.2695 8.54883C20.1019 8.88548 19.8732 9.18855 19.5977 9.44629C19.5852 8.42735 19.3671 7.41433 18.9434 6.4707C18.5223 5.53317 17.9148 4.69871 17.167 4.01074Z" stroke="black" stroke-width="2"/>
</svg>
