<svg width="24" height="24" viewBox="0 0 24 24" fill="none" xmlns="http://www.w3.org/2000/svg">
<path fill-rule="evenodd" clip-rule="evenodd" d="M12 5.37587C11.4484 5.37587 10.9023 5.48337 10.3927 5.69223C9.88316 5.90109 9.42016 6.20722 9.03015 6.59315C8.64015 6.97907 8.33078 7.43723 8.11971 7.94146C7.90864 8.44569 7.8 8.98613 7.8 9.5319C7.8 10.0777 7.90864 10.6181 8.11971 11.1223C8.33078 11.6266 8.64015 12.0847 9.03015 12.4707C9.42016 12.8566 9.88316 13.1627 10.3927 13.3716C10.9023 13.5804 11.4484 13.6879 12 13.6879C13.1139 13.6879 14.1822 13.2501 14.9698 12.4707C15.7575 11.6913 16.2 10.6342 16.2 9.5319C16.2 8.42966 15.7575 7.37255 14.9698 6.59315C14.1822 5.81374 13.1139 5.37587 12 5.37587ZM10.2 14.8754C8.92696 14.8754 7.70606 15.3758 6.80589 16.2665C5.90571 17.1573 5.4 18.3654 5.4 19.6251C5.4 20.255 5.65286 20.859 6.10294 21.3044C6.55303 21.7498 7.16348 22 7.8 22H16.2C16.8365 22 17.447 21.7498 17.8971 21.3044C18.3471 20.859 18.6 20.255 18.6 19.6251C18.6 18.3654 18.0943 17.1573 17.1941 16.2665C16.2939 15.3758 15.073 14.8754 13.8 14.8754H10.2ZM18.384 11.1991C18.7655 9.76148 18.6409 8.23822 18.0309 6.88001C17.4208 5.52181 16.3616 4.40962 15.0276 3.72652C15.5359 3.38278 16.1144 3.15383 16.7221 3.0559C17.3298 2.95797 17.9518 2.99344 18.5441 3.15981C19.1364 3.32617 19.6845 3.61937 20.1496 4.01862C20.6147 4.41788 20.9853 4.91343 21.2354 5.47019C21.4854 6.02694 21.6087 6.63129 21.5964 7.24042C21.5842 7.84955 21.4368 8.44858 21.1646 8.99507C20.8924 9.54156 20.5022 10.0222 20.0215 10.4028C19.5407 10.7835 18.9813 11.0549 18.3828 11.1979L18.384 11.1991ZM21 19.6251H21.6C22.2365 19.6251 22.847 19.3749 23.2971 18.9295C23.7471 18.4842 24 17.8801 24 17.2502C24 15.9905 23.4943 14.7824 22.5941 13.8917C21.6939 13.0009 20.473 12.5005 19.2 12.5005H17.88C17.7168 12.8168 17.5278 13.1194 17.3148 13.4053C18.4326 14.024 19.3634 14.9266 20.0112 16.0199C20.659 17.1132 21.0003 18.3577 21 19.6251ZM2.4 7.15703C2.39982 6.40038 2.60839 5.65804 3.00322 5.01006C3.39805 4.36209 3.96415 3.83306 4.64048 3.48005C5.31681 3.12703 6.07771 2.96342 6.8411 3.00685C7.60449 3.05029 8.34142 3.29912 8.9724 3.72652C7.6371 4.40814 6.57679 5.5202 5.96673 6.87891C5.35667 8.23761 5.23336 9.76162 5.6172 11.1991C4.70016 10.9807 3.8841 10.4632 3.30049 9.72992C2.71688 8.99668 2.39968 8.09038 2.4 7.15703ZM6.12 12.5005H4.8C3.52696 12.5005 2.30606 13.0009 1.40589 13.8917C0.505713 14.7824 0 15.9905 0 17.2502C0 17.8801 0.252856 18.4842 0.702944 18.9295C1.15303 19.3749 1.76348 19.6251 2.4 19.6251H3C2.99968 18.3577 3.34102 17.1132 3.98881 16.0199C4.6366 14.9266 5.56739 14.024 6.6852 13.4053C6.47225 13.1194 6.28322 12.8168 6.12 12.5005Z" fill="black"/>
</svg>
