<svg width="24" height="24" viewBox="0 0 24 24" fill="none" xmlns="http://www.w3.org/2000/svg">
<path d="M19.9521 3.40918L20.5196 2.29542L20.5196 2.2954L19.9521 3.40918ZM21.5908 5.04785L22.7046 4.4804L22.7046 4.48036L21.5908 5.04785ZM21.5908 15.9521L22.7046 16.5196L22.7046 16.5196L21.5908 15.9521ZM19.9521 17.5908L20.5196 18.7046L20.5196 18.7046L19.9521 17.5908ZM2.95996 22.04L3.84327 22.9245L3.84384 22.9239L2.95996 22.04ZM2.40918 5.04785L1.29542 4.48036L1.2954 4.4804L2.40918 5.04785ZM4.04785 3.40918L3.4804 2.2954L3.48036 2.29542L4.04785 3.40918ZM8 3V1.75V3ZM6.63388 18.3661L5.75 17.4822L6.63388 18.3661ZM16 3V4.25C17.0705 4.25 17.7983 4.2511 18.3608 4.29716C18.9086 4.34203 19.189 4.42325 19.3847 4.52295L19.9521 3.40918L20.5196 2.2954C19.9131 1.98642 19.2675 1.86305 18.5648 1.8055C17.8768 1.74915 17.0296 1.75 16 1.75V3ZM19.9521 3.40918L19.3847 4.52294C19.8551 4.76262 20.2374 5.14493 20.4771 5.61534L21.5908 5.04785L22.7046 4.48036C22.2252 3.53955 21.4604 2.77479 20.5196 2.29542L19.9521 3.40918ZM21.5908 5.04785L20.477 5.61531C20.5768 5.81101 20.658 6.09138 20.7028 6.63922C20.7489 7.20166 20.75 7.92946 20.75 9H22H23.25C23.25 7.97041 23.2509 7.12321 23.1945 6.43515C23.1369 5.73249 23.0136 5.08686 22.7046 4.4804L21.5908 5.04785ZM22 9H20.75V12H22H23.25V9H22ZM22 12H20.75C20.75 13.0705 20.7489 13.7983 20.7028 14.3608C20.658 14.9086 20.5768 15.189 20.477 15.3847L21.5908 15.9521L22.7046 16.5196C23.0136 15.9131 23.1369 15.2675 23.1945 14.5648C23.2509 13.8768 23.25 13.0296 23.25 12H22ZM21.5908 15.9521L20.4771 15.3847C20.2374 15.8551 19.8551 16.2374 19.3847 16.4771L19.9521 17.5908L20.5196 18.7046C21.4604 18.2252 22.2252 17.4604 22.7046 16.5196L21.5908 15.9521ZM19.9521 17.5908L19.3847 16.477C19.189 16.5768 18.9086 16.658 18.3608 16.7028C17.7983 16.7489 17.0705 16.75 16 16.75V18V19.25C17.0296 19.25 17.8768 19.2509 18.5648 19.1945C19.2675 19.1369 19.9131 19.0136 20.5196 18.7046L19.9521 17.5908ZM16 18V16.75H7.51777V18V19.25H16V18ZM6.63388 18.3661L5.75 17.4822L2.07608 21.1562L2.95996 22.04L3.84384 22.9239L7.51777 19.25L6.63388 18.3661ZM2.95996 22.04L2.07665 21.1556C2.51121 20.7216 3.25 21.0312 3.25 21.6416H2H0.75C0.75 23.254 2.69992 24.0664 3.84327 22.9245L2.95996 22.04ZM2 21.6416H3.25V9H2H0.75V21.6416H2ZM2 9H3.25C3.25 7.92946 3.25109 7.20166 3.29716 6.63922C3.34203 6.09138 3.42325 5.81101 3.52295 5.61531L2.40918 5.04785L1.2954 4.4804C0.986419 5.08686 0.86305 5.73249 0.805502 6.43515C0.749149 7.12321 0.75 7.97041 0.75 9H2ZM2.40918 5.04785L3.52294 5.61534C3.76262 5.14493 4.14493 4.76262 4.61534 4.52294L4.04785 3.40918L3.48036 2.29542C2.53955 2.77479 1.77479 3.53955 1.29542 4.48036L2.40918 5.04785ZM4.04785 3.40918L4.61531 4.52295C4.81101 4.42325 5.09138 4.34203 5.63922 4.29716C6.20166 4.25109 6.92946 4.25 8 4.25V3V1.75C6.97041 1.75 6.12321 1.74915 5.43515 1.8055C4.73249 1.86305 4.08686 1.98642 3.4804 2.2954L4.04785 3.40918ZM8 3V4.25H16V3V1.75H8V3ZM7.51777 18V16.75C6.85473 16.75 6.21884 17.0134 5.75 17.4822L6.63388 18.3661L7.51777 19.25V19.25V18Z" fill="#1C1D1F"/>
<path d="M7.2619 8.24203L17.2619 8.24203" stroke="#1C1D1F" stroke-width="2.5" stroke-linecap="round" stroke-linejoin="round"/>
<path d="M7.2619 13.0039L13.5119 13.0039" stroke="#1C1D1F" stroke-width="2.5" stroke-linecap="round" stroke-linejoin="round"/>
</svg>
