<svg width="24" height="24" viewBox="0 0 24 24" fill="none" xmlns="http://www.w3.org/2000/svg">
<g clip-path="url(#clip0_10899_50502)">
<g clip-path="url(#clip1_10899_50502)">
<path d="M15.165 22.125H5.08501V5.625H6.00001V3.75H5.08501C4.58773 3.75 4.11081 3.94754 3.75918 4.29917C3.40755 4.65081 3.21001 5.12772 3.21001 5.625V22.125C3.21001 22.6223 3.40755 23.0992 3.75918 23.4508C4.11081 23.8025 4.58773 24 5.08501 24H15.165C15.6623 24 16.1392 23.8025 16.4908 23.4508C16.8425 23.0992 17.04 22.6223 17.04 22.125V21.18H15.165V22.125Z" fill="#1C1D1F"/>
<path d="M14.79 -1.52588e-05C15.0361 -0.000985602 15.28 0.047207 15.5068 0.142563C15.7336 0.237922 15.939 0.378201 16.1104 0.554672L20.2354 4.49998C20.4118 4.67137 20.5521 4.87677 20.6475 5.1035C20.7428 5.33024 20.791 5.57434 20.79 5.8203V18.375C20.79 18.8723 20.5928 19.3495 20.2412 19.7012C19.8896 20.0528 19.4123 20.25 18.915 20.25H8.83496C8.3377 20.25 7.86041 20.0528 7.50879 19.7012C7.15718 19.3495 6.95996 18.8723 6.95996 18.375V1.87498C6.95982 1.38541 7.15121 0.9148 7.49316 0.564438C7.8351 0.214193 8.30069 0.0117325 8.79004 -1.52588e-05H14.79Z" fill="#1C1D1F"/>
</g>
</g>
<defs>
<clipPath id="clip0_10899_50502">
<rect width="24" height="24" fill="white"/>
</clipPath>
<clipPath id="clip1_10899_50502">
<rect width="24" height="24" fill="white"/>
</clipPath>
</defs>
</svg>
