<svg width="24" height="24" viewBox="0 0 24 24" fill="none" xmlns="http://www.w3.org/2000/svg">
<path d="M2 8.11111C2 6.55798 2 5.78141 2.25374 5.16884C2.59205 4.35208 3.24096 3.70316 4.05772 3.36485C4.67029 3.11111 5.44686 3.11111 7 3.11111H17C18.5531 3.11111 19.3297 3.11111 19.9423 3.36485C20.759 3.70316 21.408 4.35208 21.7463 5.16884C22 5.78141 22 6.55798 22 8.11112V8.94445C22 9.40469 21.6269 9.77778 21.1667 9.77778H20.8889C19.6616 9.77778 18.6667 10.7727 18.6667 12C18.6667 13.2273 19.6616 14.2222 20.8889 14.2222H21.1667C21.6269 14.2222 22 14.5953 22 15.0556V15.8889C22 17.442 22 18.2186 21.7463 18.8312C21.408 19.6479 20.759 20.2968 19.9423 20.6352C19.3297 20.8889 18.5531 20.8889 17 20.8889H7C5.44686 20.8889 4.67029 20.8889 4.05772 20.6352C3.24096 20.2968 2.59205 19.6479 2.25374 18.8312C2 18.2186 2 17.442 2 15.8889V15.0556C2 14.5953 2.3731 14.2222 2.83333 14.2222H3.11111C4.33841 14.2222 5.33333 13.2273 5.33333 12C5.33333 10.7727 4.33841 9.77778 3.11111 9.77778H2.83333C2.3731 9.77778 2 9.40469 2 8.94445V8.11111Z" stroke="#1C1D1F" stroke-width="2.22222"/>
<path d="M11.5075 10.5428C11.6943 10.0595 11.7877 9.81787 11.9395 9.78438C11.9794 9.77557 12.0206 9.77557 12.0605 9.78438C12.2123 9.81787 12.3057 10.0595 12.4925 10.5428C12.5987 10.8177 12.6518 10.9551 12.7512 11.0486C12.7791 11.0748 12.8094 11.0981 12.8416 11.1183C12.9565 11.1901 13.0999 11.2035 13.3867 11.2301C13.8722 11.2752 14.115 11.2978 14.1891 11.4415C14.2044 11.4712 14.2149 11.5034 14.22 11.5367C14.2446 11.6977 14.0661 11.8662 13.7092 12.2032L13.61 12.2968C13.4432 12.4543 13.3597 12.5331 13.3115 12.6314C13.2825 12.6904 13.2631 12.7539 13.254 12.8194C13.2389 12.9286 13.2633 13.0429 13.3122 13.2714L13.3296 13.3531C13.4172 13.763 13.4611 13.9679 13.4064 14.0687C13.3572 14.1592 13.2667 14.2171 13.1668 14.2221C13.0555 14.2276 12.8987 14.095 12.585 13.8297C12.3784 13.655 12.2751 13.5676 12.1604 13.5335C12.0556 13.5023 11.9444 13.5023 11.8396 13.5335C11.7249 13.5676 11.6216 13.655 11.415 13.8297C11.1013 14.095 10.9445 14.2276 10.8332 14.2221C10.7332 14.2171 10.6428 14.1592 10.5936 14.0687C10.5389 13.9679 10.5827 13.763 10.6704 13.3531L10.6878 13.2714C10.7367 13.0429 10.7611 12.9286 10.746 12.8194C10.7369 12.7539 10.7175 12.6904 10.6885 12.6314C10.6403 12.5331 10.5568 12.4543 10.3899 12.2968L10.2908 12.2032C9.9339 11.8662 9.75543 11.6977 9.78001 11.5367C9.7851 11.5034 9.79554 11.4712 9.81089 11.4415C9.88502 11.2978 10.1278 11.2752 10.6133 11.2301C10.9001 11.2035 11.0435 11.1901 11.1584 11.1183C11.1906 11.0981 11.2209 11.0748 11.2488 11.0486C11.3482 10.9551 11.4013 10.8177 11.5075 10.5428Z" fill="#1C1D1F" stroke="#1C1D1F" stroke-width="1.11111"/>
</svg>
