<svg width="137" height="83" viewBox="0 0 137 83" fill="none" xmlns="http://www.w3.org/2000/svg">
<path d="M75.2141 21.3933C75.2141 10.1207 84.3524 0.982422 95.625 0.982422C106.898 0.982422 116.036 10.1207 116.036 21.3933V37.4972C116.036 48.7698 106.898 57.9081 95.625 57.9081C84.3524 57.9081 75.2141 48.7698 75.2141 37.4972V21.3933Z" fill="#4351EC"/>
<path d="M54.7363 11.2815C54.7363 5.59346 59.3474 0.982422 65.0354 0.982422C70.7234 0.982422 75.3344 5.59347 75.3344 11.2815V59.9679C75.3344 65.6559 70.7234 70.267 65.0354 70.267C59.3474 70.267 54.7363 65.6559 54.7363 59.9679V11.2815Z" fill="#4351EC"/>
<path d="M54.7363 42.085C54.7363 30.7607 64.0101 21.5805 75.3344 21.5805C86.6587 21.5805 95.9325 30.7607 95.9325 42.085V62.4959C95.9325 73.8202 86.6587 83.0003 75.3344 83.0003C64.0101 83.0003 54.7363 73.8202 54.7363 62.4959V42.085Z" fill="#4351EC"/>
<path d="M116.156 11.2815C116.156 5.59346 120.767 0.982422 126.455 0.982422C132.143 0.982422 136.754 5.59347 136.754 11.2815V59.9679C136.754 65.6559 132.143 70.267 126.455 70.267C120.767 70.267 116.156 65.6559 116.156 59.9679V11.2815Z" fill="#4351EC"/>
<path d="M95.9325 41.9914C95.9325 30.7188 105.071 21.5805 116.343 21.5805C127.616 21.5805 136.754 30.7188 136.754 41.9914V62.5895C136.754 73.8621 127.616 83.0003 116.343 83.0003C105.071 83.0003 95.9325 73.8621 95.9325 62.5895V41.9914Z" fill="#4351EC"/>
<rect x="63.3496" y="15.9629" width="18.7255" height="28.8373" rx="9.36277" fill="white"/>
<rect x="82.0752" y="15.9629" width="18.7255" height="28.8373" rx="9.36277" fill="white"/>
<rect x="65.7363" y="25.9824" width="10.4863" height="16.4785" rx="5.24315" fill="black"/>
<rect x="84.4619" y="25.9824" width="10.4863" height="16.4785" rx="5.24315" fill="black"/>
<rect x="62.127" y="15.9824" width="40" height="0.1" fill="#4351EC"/>
<rect x="0.245117" y="39" width="38" height="6" rx="3" fill="#EAEBED"/>
<rect x="2.24512" y="41" width="34" height="42" rx="4" fill="#EAEBED"/>
<path d="M7.24512 47.5V79.5" stroke="#CACDD2" stroke-width="2" stroke-linecap="round"/>
<path d="M13.2451 47.5V79.5" stroke="#CACDD2" stroke-width="2" stroke-linecap="round"/>
<path d="M19.2451 47.5V79.5" stroke="#CACDD2" stroke-width="2" stroke-linecap="round"/>
<path d="M25.2451 47.5V79.5" stroke="#CACDD2" stroke-width="2" stroke-linecap="round"/>
<path d="M31.2451 47.5V79.5" stroke="#CACDD2" stroke-width="2" stroke-linecap="round"/>
<rect x="9.62793" y="27.1836" width="12" height="8" rx="4" fill="#9EA3A7"/>
<rect x="9.24512" y="34.5381" width="12" height="8" rx="4" transform="rotate(-61.4169 9.24512 34.5381)" fill="#9EA3A7"/>
<path d="M25.2451 23.6713C28.2451 21.0046 36.8451 19.5713 47.2451 35.1713" stroke="#FE4401" stroke-linecap="round"/>
<path d="M22.2455 26.3481L22.6046 26.0001" stroke="#FE4401" stroke-linecap="round"/>
</svg>
