<svg width="29" height="29" viewBox="0 0 29 29" fill="none" xmlns="http://www.w3.org/2000/svg">
<g id="File 05">
<path id="Icon" d="M18.0003 3.30005V7.50005C18.0003 8.27325 18.6271 8.90005 19.4003 8.90005H23.6003M10.3003 8.90005H13.1003M10.3003 13.1H18.7003M10.3003 17.3H18.7003M21.5003 5.40005C20.8772 4.84255 20.2307 4.18132 19.8225 3.75187C19.5509 3.46611 19.1756 3.30005 18.7813 3.30005H8.20001C6.65362 3.30005 5.40002 4.55364 5.40001 6.10003L5.3999 22.9C5.39989 24.4464 6.65349 25.7 8.19989 25.7L20.7999 25.7C22.3463 25.7 23.5999 24.4465 23.6 22.9001L23.6003 8.05752C23.6003 7.69954 23.4638 7.35542 23.2153 7.0977C22.7559 6.62114 21.9887 5.83699 21.5003 5.40005Z" stroke="black" stroke-width="2" stroke-linecap="round" stroke-linejoin="round"/>
</g>
</svg>
