<svg width="226" height="100" viewBox="0 0 226 100" fill="none" xmlns="http://www.w3.org/2000/svg">
<g opacity="0.5">
<path d="M126.886 36.4155C126.886 22.6084 138.093 11.4155 151.778 11.4155C165.463 11.4155 176.67 22.6084 176.67 36.4155V75C176.67 88.8071 165.463 100 151.778 100C138.093 100 126.886 88.8071 126.886 75V36.4155Z" fill="#4351EC"/>
<path d="M176.67 36.3014C176.67 22.5573 187.713 11.4155 201.335 11.4155C214.957 11.4155 226 22.5573 226 36.3014V75.1142C226 88.8582 214.957 100 201.335 100C187.713 100 176.67 88.8582 176.67 75.1142V36.3014Z" fill="#4351EC"/>
<path d="M126.886 36.9863C126.886 16.5593 143.299 0 163.545 0H189.342C209.588 0 226 16.5593 226 36.9863C226 57.4133 209.588 73.9726 189.342 73.9726H163.545C143.299 73.9726 126.886 57.4133 126.886 36.9863Z" fill="#4351EC"/>
<rect x="141.82" y="18.2656" width="22.6288" height="35.1598" rx="11.3144" fill="white"/>
<rect x="164.449" y="18.2656" width="22.6288" height="35.1598" rx="11.3144" fill="white"/>
<path d="M74.3675 24.8858C74.3675 11.1418 63.3244 0 49.7021 0C36.0798 0 25.0367 11.1418 25.0367 24.8858V44.5205C25.0367 58.2646 36.0798 69.4064 49.7021 69.4064C63.3244 69.4064 74.3675 58.2646 74.3675 44.5205V24.8858Z" fill="#4351EC"/>
<path d="M99.1138 12.5571C99.1138 5.62199 93.5416 0 86.6679 0C79.7943 0 74.2221 5.622 74.2221 12.5571V71.9178C74.2221 78.8529 79.7943 84.4749 86.6679 84.4749C93.5416 84.4749 99.1138 78.8529 99.1138 71.9178V12.5571Z" fill="#4351EC"/>
<path d="M99.1138 50.1142C99.1138 36.307 87.9069 25.1142 74.2221 25.1142C60.5373 25.1142 49.3304 36.307 49.3304 50.1142V75C49.3304 88.8071 60.5373 100 74.2221 100C87.9069 100 99.1138 88.8071 99.1138 75V50.1142Z" fill="#4351EC"/>
<path d="M24.8913 12.5571C24.8913 5.62199 19.3191 0 12.4455 0C5.57186 0 -0.000328064 5.622 -0.000328064 12.5571V71.9178C-0.000328064 78.8529 5.57186 84.4749 12.4455 84.4749C19.3191 84.4749 24.8913 78.8529 24.8913 71.9178V12.5571Z" fill="#4351EC"/>
<path d="M49.3304 50C49.3304 36.2559 38.2874 25.1142 24.665 25.1142C11.0427 25.1142 -0.000328064 36.2559 -0.000328064 50V75.1142C-0.000328064 88.8582 11.0427 100 24.665 100C38.2874 100 49.3304 88.8582 49.3304 75.1142V50Z" fill="#4351EC"/>
<rect width="22.6288" height="35.1598" rx="11.3144" transform="matrix(-1 0 0 1 88.7051 18.2656)" fill="white"/>
<rect width="22.6288" height="35.1598" rx="11.3144" transform="matrix(-1 0 0 1 66.0762 18.2656)" fill="white"/>
<rect width="12.6721" height="20.0913" rx="6.33606" transform="matrix(-1 0 0 1 88.4717 23.1641)" fill="black"/>
<rect width="12.6721" height="20.0913" rx="6.33606" transform="matrix(-1 0 0 1 65.8428 23.1641)" fill="black"/>
<rect x="61.6392" y="26.8242" width="2.41689" height="4.87698" rx="1.20844" fill="white"/>
<rect x="84.6006" y="26.8242" width="2.41689" height="4.87698" rx="1.20844" fill="white"/>
<rect x="145.299" y="24.5078" width="12.6721" height="20.0913" rx="6.33606" fill="black"/>
<rect x="167.928" y="24.5078" width="12.6721" height="20.0913" rx="6.33606" fill="black"/>
<rect x="8.93066" y="18.2891" width="48.3378" height="0.121925" fill="#4351EC"/>
<rect x="140.938" y="18.2891" width="48.3378" height="0.121925" fill="#4351EC"/>
<rect width="25.3807" height="18.2863" rx="9.14315" transform="matrix(-0.992414 0.122942 0.120806 0.992676 89.5786 34.9219)" fill="#4351EC"/>
<rect width="25.3807" height="18.2863" rx="9.14315" transform="matrix(-0.992414 -0.122942 -0.120806 0.992676 67.0322 38.0547)" fill="#4351EC"/>
<rect width="25.3807" height="18.2863" rx="9.14315" transform="matrix(0.992414 0.122942 -0.120806 0.992676 141.541 36.5781)" fill="#4351EC"/>
<rect width="25.3807" height="18.2863" rx="9.14315" transform="matrix(0.992414 -0.122942 0.120806 0.992676 163.483 39.2773)" fill="#4351EC"/>
<path d="M108.273 51.3385L65.8413 62.8097C63.9099 63.3318 63.8571 66.0526 65.7667 66.6493L87.9203 73.572C88.2834 73.6855 88.6714 73.6931 89.0387 73.5938L134.933 61.1865C136.939 60.6442 136.89 57.7813 134.866 57.3083L109.25 51.3217C108.928 51.2464 108.592 51.2522 108.273 51.3385Z" fill="white" stroke="#CACDD2" stroke-width="2" stroke-linecap="round"/>
<path d="M108.065 54.9214L88.2753 59.7624C87.2773 60.0065 87.2521 61.4165 88.2408 61.696L98.332 64.5494C98.4983 64.5964 98.6739 64.5996 98.8417 64.5585L120.208 59.3316C121.242 59.0789 121.218 57.602 120.178 57.3819L108.509 54.9144C108.363 54.8833 108.211 54.8857 108.065 54.9214Z" fill="#CACDD2"/>
</g>
</svg>
