<svg width="15" height="16" viewBox="0 0 15 16" fill="none" xmlns="http://www.w3.org/2000/svg">
<g id="Heart">
<path id="Icon" d="M13.0248 3.56672C12.7056 3.24734 12.3266 2.994 11.9094 2.82114C11.4923 2.64829 11.0451 2.55933 10.5936 2.55933C10.142 2.55933 9.6949 2.64829 9.27773 2.82114C8.86057 2.994 8.48155 3.24734 8.16233 3.56672L7.49983 4.22922L6.83733 3.56672C6.19252 2.92191 5.31798 2.55966 4.40608 2.55966C3.49418 2.55966 2.61964 2.92191 1.97483 3.56672C1.33002 4.21152 0.967773 5.08607 0.967773 5.99797C0.967773 6.90986 1.33002 7.78441 1.97483 8.42922L7.49983 13.9542L13.0248 8.42922C13.3442 8.10999 13.5976 7.73098 13.7704 7.31381C13.9433 6.89665 14.0322 6.44952 14.0322 5.99797C14.0322 5.54641 13.9433 5.09928 13.7704 4.68212C13.5976 4.26496 13.3442 3.88594 13.0248 3.56672Z" stroke="#747D8F" stroke-linecap="round" stroke-linejoin="round"/>
</g>
</svg>
