<svg width="15" height="16" viewBox="0 0 15 16" fill="none" xmlns="http://www.w3.org/2000/svg">
<g id="Heart" clip-path="url(#clip0_2280_10107)">
<path id="Icon" d="M13.0248 3.3321C12.7056 3.01273 12.3266 2.75938 11.9094 2.58653C11.4923 2.41367 11.0451 2.32471 10.5936 2.32471C10.142 2.32471 9.69489 2.41367 9.27773 2.58653C8.86057 2.75938 8.48155 3.01273 8.16233 3.3321L7.49983 3.9946L6.83733 3.3321C6.19252 2.68729 5.31798 2.32504 4.40608 2.32504C3.49418 2.32504 2.61964 2.68729 1.97483 3.3321C1.33002 3.97691 0.967773 4.85145 0.967773 5.76335C0.967773 6.67524 1.33002 7.54979 1.97483 8.1946L7.49983 13.7196L13.0248 8.1946C13.3442 7.87538 13.5976 7.49636 13.7704 7.07919C13.9433 6.66203 14.0322 6.2149 14.0322 5.76335C14.0322 5.31179 13.9433 4.86466 13.7704 4.4475C13.5976 4.03034 13.3442 3.65132 13.0248 3.3321Z" fill="#FF6637" stroke="#FF6637" stroke-width="2" stroke-linecap="round" stroke-linejoin="round"/>
</g>
<defs>
<clipPath id="clip0_2280_10107">
<rect width="15" height="15" fill="white" transform="translate(0 0.450928)"/>
</clipPath>
</defs>
</svg>
