<svg width="24" height="25" viewBox="0 0 24 25" fill="none" xmlns="http://www.w3.org/2000/svg">
<g id="mingcute:car-line">
<g id="Group">
<path id="Vector" d="M15.7641 4.51025C16.3211 4.51027 16.8672 4.66539 17.341 4.95822C17.8149 5.25106 18.1979 5.67005 18.4471 6.16825L19.8301 8.93325C20.0741 8.83325 20.3171 8.73225 20.5531 8.61525C20.7904 8.4967 21.0652 8.4773 21.3169 8.56132C21.5685 8.64533 21.7765 8.82589 21.8951 9.06325C22.0136 9.30062 22.033 9.57536 21.949 9.82704C21.865 10.0787 21.6844 10.2867 21.4471 10.4053C20.9531 10.6513 20.7271 10.7273 20.7271 10.7273L21.6831 12.6403C21.8921 13.0573 22.0001 13.5163 22.0001 13.9823V16.5103C22.0001 16.9323 21.911 17.3497 21.7387 17.735C21.5664 18.1203 21.3147 18.4649 21.0001 18.7463V20.0103C21.0001 20.4081 20.842 20.7896 20.5607 21.0709C20.2794 21.3522 19.8979 21.5103 19.5001 21.5103C19.1022 21.5103 18.7207 21.3522 18.4394 21.0709C18.1581 20.7896 18.0001 20.4081 18.0001 20.0103V19.5103H6.00007V20.0103C6.00007 20.4081 5.84204 20.7896 5.56073 21.0709C5.27943 21.3522 4.8979 21.5103 4.50007 21.5103C4.10225 21.5103 3.72072 21.3522 3.43941 21.0709C3.15811 20.7896 3.00007 20.4081 3.00007 20.0103V18.7463C2.38607 18.1963 2.00007 17.3983 2.00007 16.5103V13.9823C2.00026 13.5167 2.10879 13.0576 2.31707 12.6413L3.27307 10.7273C3.03078 10.627 2.79135 10.52 2.55507 10.4063C2.4372 10.3478 2.33203 10.2666 2.24559 10.1674C2.15914 10.0682 2.09313 9.95292 2.05132 9.82815C2.00952 9.70339 1.99275 9.5716 2.00197 9.44035C2.01119 9.30909 2.04623 9.18094 2.10507 9.06325C2.22605 8.82693 2.43521 8.64774 2.6873 8.56446C2.93938 8.48118 3.21413 8.50051 3.45207 8.61825C3.68807 8.73159 3.92741 8.83659 4.17007 8.93325L5.55307 6.16825C5.80226 5.67005 6.18524 5.25106 6.65911 4.95822C7.13298 4.66539 7.67902 4.51027 8.23607 4.51025H15.7641ZM18.8341 11.4143C17.1341 11.9513 14.7151 12.5103 12.0001 12.5103C9.28507 12.5103 6.86607 11.9503 5.16607 11.4143L4.10607 13.5343C4.03638 13.6733 4.00008 13.8267 4.00007 13.9823V16.5103C4.00007 16.7755 4.10543 17.0298 4.29297 17.2174C4.4805 17.4049 4.73486 17.5103 5.00007 17.5103H19.0001C19.2653 17.5103 19.5196 17.4049 19.7072 17.2174C19.8947 17.0298 20.0001 16.7755 20.0001 16.5103V13.9823C19.9999 13.827 19.9636 13.674 19.8941 13.5353L18.8341 11.4143ZM7.50007 13.5103C7.8979 13.5103 8.27943 13.6683 8.56073 13.9496C8.84204 14.2309 9.00007 14.6124 9.00007 15.0103C9.00007 15.4081 8.84204 15.7896 8.56073 16.0709C8.27943 16.3522 7.8979 16.5103 7.50007 16.5103C7.10225 16.5103 6.72072 16.3522 6.43941 16.0709C6.15811 15.7896 6.00007 15.4081 6.00007 15.0103C6.00007 14.6124 6.15811 14.2309 6.43941 13.9496C6.72072 13.6683 7.10225 13.5103 7.50007 13.5103ZM16.5001 13.5103C16.8979 13.5103 17.2794 13.6683 17.5607 13.9496C17.842 14.2309 18.0001 14.6124 18.0001 15.0103C18.0001 15.4081 17.842 15.7896 17.5607 16.0709C17.2794 16.3522 16.8979 16.5103 16.5001 16.5103C16.1022 16.5103 15.7207 16.3522 15.4394 16.0709C15.1581 15.7896 15.0001 15.4081 15.0001 15.0103C15.0001 14.6124 15.1581 14.2309 15.4394 13.9496C15.7207 13.6683 16.1022 13.5103 16.5001 13.5103ZM15.7641 6.51025H8.23607C8.05041 6.51035 7.86844 6.56214 7.71055 6.65981C7.55265 6.75748 7.42506 6.89717 7.34207 7.06325L6.07207 9.60025C7.62007 10.0653 9.70607 10.5103 12.0001 10.5103C14.2941 10.5103 16.3801 10.0653 17.9271 9.60025L16.6581 7.06325C16.5751 6.89717 16.4475 6.75748 16.2896 6.65981C16.1317 6.56214 15.9497 6.51035 15.7641 6.51025Z" fill="black"/>
</g>
</g>
</svg>
