<svg width="26" height="27" viewBox="0 0 26 27" fill="none" xmlns="http://www.w3.org/2000/svg">
<g id="uil:setting">
<path id="Vector" d="M21.5588 14.0483C21.3851 13.8506 21.2893 13.5965 21.2893 13.3333C21.2893 13.0702 21.3851 12.816 21.5588 12.6183L22.9455 11.0583C23.0983 10.8879 23.1931 10.6734 23.2165 10.4457C23.2399 10.218 23.1905 9.98874 23.0755 9.79083L20.9088 6.0425C20.7949 5.84482 20.6216 5.68812 20.4134 5.59474C20.2053 5.50137 19.973 5.47609 19.7496 5.5225L17.713 5.93417C17.4538 5.98772 17.184 5.94456 16.9545 5.81283C16.725 5.68111 16.5516 5.46994 16.4671 5.21917L15.8063 3.23667C15.7336 3.02149 15.5952 2.8346 15.4105 2.70241C15.2258 2.57022 15.0042 2.49941 14.7771 2.5H10.4438C10.2076 2.48767 9.97377 2.553 9.77815 2.68602C9.58254 2.81904 9.43584 3.01244 9.36046 3.23667L8.75379 5.21917C8.66929 5.46994 8.49593 5.68111 8.26641 5.81283C8.0369 5.94456 7.76711 5.98772 7.50796 5.93417L5.41712 5.5225C5.20539 5.49258 4.98953 5.52599 4.79675 5.61853C4.60397 5.71106 4.44288 5.85858 4.33379 6.0425L2.16712 9.79083C2.04921 9.98654 1.9962 10.2145 2.01566 10.4422C2.03511 10.6698 2.12605 10.8855 2.27546 11.0583L3.65129 12.6183C3.82497 12.816 3.92075 13.0702 3.92075 13.3333C3.92075 13.5965 3.82497 13.8506 3.65129 14.0483L2.27546 15.6083C2.12605 15.7812 2.03511 15.9969 2.01566 16.2245C1.9962 16.4522 2.04921 16.6801 2.16712 16.8758L4.33379 20.6242C4.44765 20.8219 4.621 20.9786 4.82915 21.0719C5.03729 21.1653 5.2696 21.1906 5.49296 21.1442L7.52962 20.7325C7.78878 20.679 8.05857 20.7221 8.28808 20.8538C8.51759 20.9856 8.69096 21.1967 8.77546 21.4475L9.43629 23.43C9.51167 23.6542 9.65837 23.8476 9.85399 23.9806C10.0496 24.1137 10.2834 24.179 10.5196 24.1667H14.853C15.0801 24.1673 15.3016 24.0964 15.4863 23.9643C15.671 23.8321 15.8094 23.6452 15.8821 23.43L16.543 21.4475C16.6275 21.1967 16.8008 20.9856 17.0303 20.8538C17.2598 20.7221 17.5296 20.679 17.7888 20.7325L19.8255 21.1442C20.0488 21.1906 20.2811 21.1653 20.4893 21.0719C20.6974 20.9786 20.8708 20.8219 20.9846 20.6242L23.1513 16.8758C23.2663 16.6779 23.3157 16.4487 23.2923 16.221C23.269 15.9932 23.1741 15.7788 23.0213 15.6083L21.5588 14.0483ZM19.9446 15.5L20.8113 16.475L19.4246 18.88L18.1463 18.62C17.3661 18.4605 16.5544 18.593 15.8654 18.9925C15.1765 19.3919 14.6581 20.0303 14.4088 20.7867L13.9971 22H11.2238L10.8338 20.765C10.5845 20.0087 10.0661 19.3702 9.37715 18.9708C8.68817 18.5714 7.87653 18.4388 7.09629 18.5983L5.81796 18.8583L4.40962 16.4642L5.27629 15.4892C5.80924 14.8933 6.10388 14.1219 6.10388 13.3225C6.10388 12.5231 5.80924 11.7517 5.27629 11.1558L4.40962 10.1808L5.79629 7.7975L7.07462 8.0575C7.85486 8.21699 8.6665 8.08446 9.35548 7.68505C10.0445 7.28564 10.5628 6.64717 10.8121 5.89083L11.2238 4.66667H13.9971L14.4088 5.90167C14.6581 6.65801 15.1765 7.29648 15.8654 7.69588C16.5544 8.09529 17.3661 8.22782 18.1463 8.06833L19.4246 7.80833L20.8113 10.2133L19.9446 11.1883C19.4177 11.7828 19.1267 12.5497 19.1267 13.3442C19.1267 14.1386 19.4177 14.9055 19.9446 15.5ZM12.6105 9C11.7534 9 10.9156 9.25415 10.203 9.7303C9.49037 10.2065 8.93496 10.8832 8.60698 11.675C8.279 12.4669 8.19319 13.3381 8.36039 14.1787C8.52759 15.0193 8.9403 15.7914 9.54633 16.3975C10.1524 17.0035 10.9245 17.4162 11.7651 17.5834C12.6057 17.7506 13.4769 17.6648 14.2688 17.3368C15.0606 17.0088 15.7373 16.4534 16.2135 15.7408C16.6896 15.0282 16.9438 14.1904 16.9438 13.3333C16.9438 12.1841 16.4872 11.0819 15.6746 10.2692C14.8619 9.45655 13.7597 9 12.6105 9ZM12.6105 15.5C12.1819 15.5 11.763 15.3729 11.4067 15.1349C11.0504 14.8968 10.7727 14.5584 10.6087 14.1625C10.4447 13.7666 10.4018 13.3309 10.4854 12.9106C10.569 12.4903 10.7754 12.1043 11.0784 11.8013C11.3814 11.4983 11.7675 11.2919 12.1878 11.2083C12.6081 11.1247 13.0437 11.1676 13.4396 11.3316C13.8355 11.4956 14.1739 11.7733 14.412 12.1296C14.6501 12.4859 14.7771 12.9048 14.7771 13.3333C14.7771 13.908 14.5489 14.4591 14.1425 14.8654C13.7362 15.2717 13.1851 15.5 12.6105 15.5Z" fill="#747D8F"/>
</g>
</svg>
