<svg width="17" height="17" viewBox="0 0 17 17" fill="none" xmlns="http://www.w3.org/2000/svg">
<path d="M6.8833 13.71C8.26953 13.71 9.54785 13.2617 10.5938 12.5146L14.5283 16.4492C14.7109 16.6318 14.9517 16.7231 15.209 16.7231C15.7485 16.7231 16.1304 16.3081 16.1304 15.7769C16.1304 15.5278 16.0474 15.2871 15.8647 15.1128L11.9551 11.1948C12.7769 10.1157 13.2666 8.7793 13.2666 7.32666C13.2666 3.81543 10.3945 0.943359 6.8833 0.943359C3.38037 0.943359 0.5 3.80713 0.5 7.32666C0.5 10.8379 3.37207 13.71 6.8833 13.71ZM6.8833 12.332C4.14404 12.332 1.87793 10.0659 1.87793 7.32666C1.87793 4.5874 4.14404 2.32129 6.8833 2.32129C9.62256 2.32129 11.8887 4.5874 11.8887 7.32666C11.8887 10.0659 9.62256 12.332 6.8833 12.332Z" fill="#878787"/>
</svg>
