<svg width="11" height="13" viewBox="0 0 11 13" fill="none" xmlns="http://www.w3.org/2000/svg">
<g id="Icon/Fill type/40" clip-path="url(#clip0_2280_11216)">
<path id="Vector" fill-rule="evenodd" clip-rule="evenodd" d="M5.49991 7.20429C5.33458 7.20775 5.17028 7.17522 5.01661 7.10859C4.86293 7.04196 4.72298 6.94258 4.60494 6.81625C4.48689 6.68992 4.39312 6.53918 4.32911 6.37285C4.26509 6.20652 4.23212 6.02793 4.23212 5.84754C4.23212 5.66714 4.26509 5.48856 4.32911 5.32223C4.39312 5.1559 4.48689 5.00516 4.60494 4.87883C4.72298 4.7525 4.86293 4.65312 5.01661 4.58649C5.17028 4.51986 5.33458 4.48733 5.49991 4.49079C5.82563 4.49761 6.13589 4.64355 6.36402 4.89725C6.59215 5.15094 6.71995 5.49215 6.71995 5.84754C6.71995 6.20293 6.59215 6.54413 6.36402 6.79783C6.13589 7.05153 5.82563 7.19747 5.49991 7.20429ZM4.52641 1.35179C2.56933 1.82829 1.19708 3.83779 1.27408 6.02379C1.33458 7.74079 2.30029 9.27679 5.17358 12.2903C5.35508 12.4803 5.64566 12.4813 5.82762 12.2908C8.79946 9.17429 9.73079 7.63829 9.73079 5.84729C9.73079 2.95229 7.2865 0.679788 4.52641 1.35229" fill="#878787"/>
</g>
<defs>
<clipPath id="clip0_2280_11216">
<rect width="11" height="12" fill="white" transform="translate(0 0.833496)"/>
</clipPath>
</defs>
</svg>
