<svg width="23" height="27" viewBox="0 0 23 27" fill="none" xmlns="http://www.w3.org/2000/svg">
<g id="Group">
<path id="Vector" d="M19 1.5H4C2.61929 1.5 1.5 2.57452 1.5 3.9V23.1C1.5 24.4255 2.61929 25.5 4 25.5H19C20.3807 25.5 21.5 24.4255 21.5 23.1V3.9C21.5 2.57452 20.3807 1.5 19 1.5Z" stroke="black" stroke-width="2" stroke-linecap="round" stroke-linejoin="round"/>
<path id="Vector_2" d="M7.75 25.4999V20.6999H15.25V25.4999M6.5 6.29993H6.5125M16.5 6.29993H16.5125M11.5 6.29993H11.5125M11.5 11.0999H11.5125M11.5 15.8999H11.5125M16.5 11.0999H16.5125M16.5 15.8999H16.5125M6.5 11.0999H6.5125M6.5 15.8999H6.5125" stroke="black" stroke-width="2" stroke-linecap="round" stroke-linejoin="round"/>
</g>
</svg>
