<svg width="226" height="111" viewBox="0 0 226 111" fill="none" xmlns="http://www.w3.org/2000/svg">
<g opacity="0.4">
<path d="M27.5576 27.4675C27.5576 12.2976 39.8552 0 55.0251 0C70.195 0 82.4926 12.2976 82.4926 27.4675V49.1392C82.4926 64.309 70.195 76.6067 55.0251 76.6067C39.8552 76.6067 27.5576 64.309 27.5576 49.1392V27.4675Z" fill="#FE4401"/>
<path d="M0 13.8598C0 6.20522 6.20523 0 13.8598 0C21.5143 0 27.7195 6.20523 27.7195 13.8598V79.3786C27.7195 87.0332 21.5143 93.2384 13.8598 93.2384C6.20523 93.2384 0 87.0332 0 79.3786V13.8598Z" fill="#FE4401"/>
<path d="M0 55.313C0 40.0736 12.48 27.7195 27.7195 27.7195C42.959 27.7195 55.439 40.0736 55.439 55.313V82.7806C55.439 98.0201 42.959 110.374 27.7195 110.374C12.48 110.374 0 98.0201 0 82.7806V55.313Z" fill="#FE4401"/>
<path d="M82.6546 13.8598C82.6546 6.20522 88.8598 0 96.5143 0C104.169 0 110.374 6.20523 110.374 13.8598V79.3786C110.374 87.0332 104.169 93.2384 96.5143 93.2384C88.8598 93.2384 82.6546 87.0332 82.6546 79.3786V13.8598Z" fill="#FE4401"/>
<path d="M55.439 55.187C55.439 40.0172 67.7367 27.7195 82.9066 27.7195C98.0765 27.7195 110.374 40.0172 110.374 55.187V82.9066C110.374 98.0765 98.0765 110.374 82.9066 110.374C67.7367 110.374 55.439 98.0765 55.439 82.9066V55.187Z" fill="#FE4401"/>
<path d="M115.414 40.1933C115.414 24.9538 127.894 12.5998 143.134 12.5998C158.373 12.5998 170.853 24.9538 170.853 40.1933V82.7806C170.853 98.02 158.373 110.374 143.134 110.374C127.894 110.374 115.414 98.02 115.414 82.7806V40.1933Z" fill="#FE4401"/>
<path d="M170.853 40.0673C170.853 24.8974 183.151 12.5998 198.321 12.5998C213.491 12.5998 225.788 24.8974 225.788 40.0673V82.9066C225.788 98.0765 213.491 110.374 198.321 110.374C183.151 110.374 170.853 98.0765 170.853 82.9066V40.0673Z" fill="#FE4401"/>
<path d="M115.414 40.8233C115.414 18.2772 133.691 0 156.237 0H184.965C207.511 0 225.788 18.2772 225.788 40.8233C225.788 63.3694 207.511 81.6466 184.965 81.6466H156.237C133.691 81.6466 115.414 63.3694 115.414 40.8233Z" fill="#FE4401"/>
<rect x="11.5918" y="20.1597" width="25.1996" height="38.8073" rx="12.5998" fill="white"/>
<rect x="36.791" y="20.1597" width="25.1996" height="38.8073" rx="12.5998" fill="white"/>
<rect x="132.045" y="20.1597" width="25.1996" height="38.8073" rx="12.5998" fill="white"/>
<rect x="157.244" y="20.1597" width="25.1996" height="38.8073" rx="12.5998" fill="white"/>
<rect x="11.5918" y="31.7515" width="14.1118" height="22.1756" rx="7.05588" fill="#4351EC"/>
<rect x="36.791" y="31.7514" width="14.1118" height="22.1756" rx="7.05588" fill="#4351EC"/>
<rect x="140.11" y="25.7039" width="14.1118" height="22.1756" rx="7.05588" fill="#4351EC"/>
<rect x="165.31" y="25.7039" width="14.1118" height="22.1756" rx="7.05588" fill="#4351EC"/>
</g>
</svg>
