<svg width="375" height="200" viewBox="0 0 375 200" fill="none" xmlns="http://www.w3.org/2000/svg">
<g clip-path="url(#clip0_6253_10116)">
<rect width="375" height="200" fill="#1C1D1F"/>
<g opacity="0.4">
<path d="M199.558 127.468C199.558 112.298 211.855 100 227.025 100C242.195 100 254.493 112.298 254.493 127.468V149.139C254.493 164.309 242.195 176.607 227.025 176.607C211.855 176.607 199.558 164.309 199.558 149.139V127.468Z" fill="#FE4401"/>
<path d="M172 113.86C172 106.205 178.205 100 185.86 100C193.514 100 199.72 106.205 199.72 113.86V179.379C199.72 187.033 193.514 193.238 185.86 193.238C178.205 193.238 172 187.033 172 179.379V113.86Z" fill="#FE4401"/>
<path d="M172 155.313C172 140.074 184.48 127.72 199.72 127.72C214.959 127.72 227.439 140.074 227.439 155.313V182.781C227.439 198.02 214.959 210.374 199.72 210.374C184.48 210.374 172 198.02 172 182.781V155.313Z" fill="#FE4401"/>
<path d="M254.655 113.86C254.655 106.205 260.86 100 268.514 100C276.169 100 282.374 106.205 282.374 113.86V179.379C282.374 187.033 276.169 193.238 268.514 193.238C260.86 193.238 254.655 187.033 254.655 179.379V113.86Z" fill="#FE4401"/>
<path d="M227.439 155.187C227.439 140.017 239.737 127.72 254.907 127.72C270.076 127.72 282.374 140.017 282.374 155.187V182.907C282.374 198.076 270.076 210.374 254.907 210.374C239.737 210.374 227.439 198.076 227.439 182.907V155.187Z" fill="#FE4401"/>
<path d="M287.414 140.193C287.414 124.954 299.894 112.6 315.134 112.6C330.373 112.6 342.853 124.954 342.853 140.193V182.781C342.853 198.02 330.373 210.374 315.134 210.374C299.894 210.374 287.414 198.02 287.414 182.781V140.193Z" fill="#FE4401"/>
<path d="M342.853 140.067C342.853 124.897 355.151 112.6 370.321 112.6C385.491 112.6 397.788 124.897 397.788 140.067V182.907C397.788 198.076 385.491 210.374 370.321 210.374C355.151 210.374 342.853 198.076 342.853 182.907V140.067Z" fill="#FE4401"/>
<path d="M287.414 140.823C287.414 118.277 305.691 100 328.237 100H356.965C379.511 100 397.788 118.277 397.788 140.823C397.788 163.369 379.511 181.647 356.965 181.647H328.237C305.691 181.647 287.414 163.369 287.414 140.823Z" fill="#FE4401"/>
<rect x="183.592" y="120.16" width="25.1996" height="38.8073" rx="12.5998" fill="white"/>
<rect x="208.791" y="120.16" width="25.1996" height="38.8073" rx="12.5998" fill="white"/>
<rect x="304.045" y="120.16" width="25.1996" height="38.8073" rx="12.5998" fill="white"/>
<rect x="329.244" y="120.16" width="25.1996" height="38.8073" rx="12.5998" fill="white"/>
<rect x="183.592" y="131.751" width="14.1118" height="22.1756" rx="7.05588" fill="#4351EC"/>
<rect x="208.791" y="131.751" width="14.1118" height="22.1756" rx="7.05588" fill="#4351EC"/>
<rect x="312.11" y="125.704" width="14.1118" height="22.1756" rx="7.05588" fill="#4351EC"/>
<rect x="337.31" y="125.704" width="14.1118" height="22.1756" rx="7.05588" fill="#4351EC"/>
</g>
</g>
<defs>
<clipPath id="clip0_6253_10116">
<rect width="375" height="200" fill="white"/>
</clipPath>
</defs>
</svg>
