<svg width="20" height="20" viewBox="0 0 20 20" fill="none" xmlns="http://www.w3.org/2000/svg">
<path d="M17.3668 3.84156C16.9412 3.41573 16.4358 3.07793 15.8796 2.84746C15.3234 2.61699 14.7272 2.49837 14.1251 2.49837C13.523 2.49837 12.9269 2.61699 12.3707 2.84746C11.8144 3.07793 11.3091 3.41573 10.8835 3.84156L10.0001 4.72489L9.11679 3.84156C8.25704 2.98181 7.09098 2.49881 5.87512 2.49881C4.65926 2.49881 3.4932 2.98181 2.63345 3.84156C1.77371 4.7013 1.29071 5.86736 1.29071 7.08322C1.29071 8.29908 1.77371 9.46515 2.63345 10.3249L3.51679 11.2082L10.0001 17.6916L16.4835 11.2082L17.3668 10.3249C17.7926 9.89926 18.1304 9.3939 18.3609 8.83768C18.5914 8.28147 18.71 7.68529 18.71 7.08322C18.71 6.48115 18.5914 5.88498 18.3609 5.32876C18.1304 4.77254 17.7926 4.26719 17.3668 3.84156Z" stroke="#CACDD2" stroke-width="1.66667" stroke-linecap="round" stroke-linejoin="round"/>
</svg>
