<svg width="91" height="60" viewBox="0 0 91 60" fill="none" xmlns="http://www.w3.org/2000/svg">
<g clip-path="url(#clip0_6253_10077)">
<rect x="0.5" width="90" height="60" rx="20" fill="#1C1D1F"/>
<g opacity="0.4">
<path d="M14.252 49.9908C14.252 43.5487 19.5276 38.3263 25.9698 38.3263C32.4119 38.3263 37.6876 43.5487 37.6876 49.9908V67.9936C37.6876 74.4358 32.4119 79.6582 25.9698 79.6582C19.5276 79.6582 14.252 74.4358 14.252 67.9936V49.9908Z" fill="#4351EC"/>
<path d="M37.6876 49.9375C37.6876 43.5248 42.8861 38.3263 49.2988 38.3263C55.7116 38.3263 60.9101 43.5248 60.9101 49.9375V68.0469C60.9101 74.4596 55.7116 79.6582 49.2988 79.6582C42.8861 79.6582 37.6876 74.4596 37.6876 68.0469V49.9375Z" fill="#4351EC"/>
<path d="M14.252 50.2571C14.252 40.7263 21.9782 33 31.5091 33H43.653C53.1838 33 60.9101 40.7263 60.9101 50.2571C60.9101 59.788 53.1838 67.5143 43.653 67.5143H31.5091C21.9782 67.5143 14.252 59.788 14.252 50.2571Z" fill="#4351EC"/>
<rect x="21.2832" y="42.6928" width="9.13242" height="14.0639" rx="4.56621" fill="white"/>
<rect x="30.416" y="42.6928" width="9.13242" height="14.0639" rx="4.56621" fill="white"/>
<rect x="24.6934" y="44.5349" width="5.11416" height="8.03653" rx="2.55708" fill="#FE4401"/>
<rect x="33.8262" y="44.5349" width="5.11416" height="8.03653" rx="2.55708" fill="#FE4401"/>
</g>
<g opacity="0.4">
<path d="M72.248 10.6673C72.248 17.1095 66.9724 22.3319 60.5302 22.3319C54.0881 22.3319 48.8124 17.1095 48.8124 10.6673L48.8124 -7.33548C48.8124 -13.7776 54.0881 -19 60.5302 -19C66.9724 -19 72.2481 -13.7776 72.248 -7.33547L72.248 10.6673Z" fill="#4351EC"/>
<path d="M48.8124 10.7206C48.8124 17.1333 43.6139 22.3319 37.2012 22.3319C30.7884 22.3319 25.5899 17.1333 25.5899 10.7206L25.5899 -7.38874C25.5899 -13.8015 30.7884 -19 37.2012 -19C43.6139 -19 48.8124 -13.8015 48.8124 -7.38874L48.8124 10.7206Z" fill="#4351EC"/>
<path d="M72.248 10.401C72.248 19.9319 64.5218 27.6581 54.9909 27.6581L42.847 27.6581C33.3162 27.6581 25.5899 19.9319 25.5899 10.401C25.5899 0.870166 33.3162 -6.85611 42.847 -6.85611L54.9909 -6.85611C64.5218 -6.85611 72.248 0.87017 72.248 10.401Z" fill="#4351EC"/>
<rect x="65.2168" y="17.9654" width="9.13242" height="14.0639" rx="4.56621" transform="rotate(-180 65.2168 17.9654)" fill="white"/>
<rect x="56.084" y="17.9654" width="9.13242" height="14.0639" rx="4.56621" transform="rotate(-180 56.084 17.9654)" fill="white"/>
<rect x="61.8066" y="16.1233" width="5.11416" height="8.03653" rx="2.55708" transform="rotate(-180 61.8066 16.1233)" fill="#FE4401"/>
<rect x="52.6738" y="16.1233" width="5.11416" height="8.03653" rx="2.55708" transform="rotate(-180 52.6738 16.1233)" fill="#FE4401"/>
</g>
</g>
<defs>
<clipPath id="clip0_6253_10077">
<rect x="0.5" width="90" height="60" rx="20" fill="white"/>
</clipPath>
</defs>
</svg>
