<svg width="25" height="24" viewBox="0 0 25 24" fill="none" xmlns="http://www.w3.org/2000/svg">
<g id="Group 303">
<path id="Rectangle 4213" d="M22.125 9.73331V4.13331C22.125 3.15322 22.125 2.66318 21.9343 2.28883C21.7665 1.95955 21.4988 1.69183 21.1695 1.52405C20.7951 1.33331 20.3051 1.33331 19.325 1.33331H3.925C2.94491 1.33331 2.45486 1.33331 2.08052 1.52405C1.75123 1.69183 1.48352 1.95955 1.31574 2.28883C1.125 2.66318 1.125 3.15322 1.125 4.13331V15.3333C1.125 16.3134 1.125 16.8035 1.31574 17.1778C1.48352 17.5071 1.75123 17.7748 2.08052 17.9426C2.45486 18.1333 2.94491 18.1333 3.925 18.1333H15.125" stroke="#7153DD" stroke-width="1.75" stroke-linecap="round"/>
<path id="Vector 406" d="M6.72461 12.5333H12.3246" stroke="#7153DD" stroke-width="1.75" stroke-linecap="round"/>
<path id="Vector 407" d="M6.72461 6.93335H16.5246" stroke="#7153DD" stroke-width="1.75" stroke-linecap="round"/>
<circle id="Ellipse 189" cx="20.7258" cy="15.3333" r="1.925" stroke="#7153DD" stroke-width="1.75"/>
<path id="Vector 480" d="M23.5258 22.3333C23.5258 22.3333 22.8258 20.9333 20.7258 20.9333C18.6258 20.9333 17.9258 22.3333 17.9258 22.3333" stroke="#7153DD" stroke-width="1.75" stroke-linecap="round"/>
</g>
</svg>
