<svg width="26" height="27" viewBox="0 0 26 27" fill="none" xmlns="http://www.w3.org/2000/svg">
<g id="mdi:book-check">
<path id="Vector" d="M18.1445 24.34L15.1654 21.09L16.422 19.8334L18.1445 21.5559L22.0337 17.6667L23.2904 19.1942L18.1445 24.34ZM6.4987 24.1667C5.92406 24.1667 5.37296 23.9384 4.96663 23.5321C4.5603 23.1258 4.33203 22.5747 4.33203 22V4.6667C4.33203 3.4642 5.2962 2.50003 6.4987 2.50003H7.58203V10.0834L10.2904 8.45836L12.9987 10.0834V2.50003H19.4987C20.0733 2.50003 20.6244 2.7283 21.0308 3.13463C21.4371 3.54096 21.6654 4.09206 21.6654 4.6667V14.785C20.4122 14.3434 19.0538 14.296 17.773 14.6494C16.4921 15.0028 15.3501 15.7399 14.5007 16.7616C13.6512 17.7833 13.135 19.0406 13.0214 20.3645C12.9078 21.6883 13.2023 23.0152 13.8654 24.1667H6.4987Z" fill="#007AFF"/>
</g>
</svg>
