<svg width="24" height="24" viewBox="0 0 24 24" fill="none" xmlns="http://www.w3.org/2000/svg">
<path d="M5.25 23C4.63125 23 4.10175 22.7848 3.6615 22.3543C3.22125 21.9238 3.00075 21.4057 3 20.8V3.2C3 2.595 3.2205 2.07727 3.6615 1.6468C4.1025 1.21633 4.632 1.00073 5.25 1H18.75C19.3687 1 19.8986 1.2156 20.3396 1.6468C20.7806 2.078 21.0007 2.59573 21 3.2V20.8C21 21.405 20.7799 21.9231 20.3396 22.3543C19.8994 22.7855 19.3695 23.0007 18.75 23H5.25ZM5.25 20.8H18.75V3.2H16.5V9.9375C16.5 10.1575 16.4062 10.3181 16.2187 10.4193C16.0312 10.5205 15.8437 10.5157 15.6562 10.405L14.2781 9.58C14.0906 9.47 13.8982 9.415 13.701 9.415C13.5037 9.415 13.3117 9.47 13.125 9.58L11.7469 10.405C11.5594 10.515 11.3674 10.5198 11.1709 10.4193C10.9744 10.3188 10.8757 10.1582 10.875 9.9375V3.2H5.25V20.8Z" fill="#FE4401"/>
</svg>
