<svg width="32" height="26" viewBox="0 0 32 26" fill="none" xmlns="http://www.w3.org/2000/svg">
<g id="Home">
<g id="Icon">
<path d="M4.31641 9.53814L16.0727 2.22314L27.8289 9.53814V21.0331C27.8289 21.5874 27.5537 22.119 27.0637 22.511C26.5738 22.9029 25.9093 23.1231 25.2164 23.1231H6.92891C6.23603 23.1231 5.57153 22.9029 5.08159 22.511C4.59165 22.119 4.31641 21.5874 4.31641 21.0331V9.53814Z" fill="#7153DD"/>
<path d="M12.1539 23.1231V12.6731H19.9914V23.1231" fill="#7153DD"/>
<path d="M12.1539 23.1231V12.6731H19.9914V23.1231M4.31641 9.53814L16.0727 2.22314L27.8289 9.53814V21.0331C27.8289 21.5874 27.5537 22.119 27.0637 22.511C26.5738 22.9029 25.9093 23.1231 25.2164 23.1231H6.92891C6.23603 23.1231 5.57153 22.9029 5.08159 22.511C4.59165 22.119 4.31641 21.5874 4.31641 21.0331V9.53814Z" stroke="white" stroke-width="0.312349" stroke-linecap="round" stroke-linejoin="round"/>
</g>
</g>
</svg>
