<svg width="26" height="26" viewBox="0 0 26 26" fill="none" xmlns="http://www.w3.org/2000/svg">
<g id="mdi:store-plus">
<path id="Vector" d="M4.33333 4.33334V6.50001H21.6667V4.33334M4.33333 7.58334L3.25 13V15.1667H4.33333V21.6667H14.0833C14.0292 21.2983 13.9967 20.9192 13.9967 20.5292C13.9967 19.2075 14.4083 17.9075 15.1667 16.8242V15.1667H16.835C17.9183 14.4408 19.1858 14.04 20.4858 14.04C21.255 14.04 22.0242 14.1808 22.75 14.4517V13L21.6667 7.58334M6.5 15.1667H13V19.5H6.5M19.5 16.25V19.5H16.25V21.6667H19.5V24.9167H21.6667V21.6667H24.9167V19.5H21.6667V16.25" fill="#FF5D5A"/>
</g>
</svg>
