<svg width="24" height="24" viewBox="0 0 24 24" fill="none" xmlns="http://www.w3.org/2000/svg">
<path d="M1 19.5V13.0714C1 12.5893 1.10083 12.1518 1.3025 11.7589C1.50417 11.3661 1.77 11.0179 2.1 10.7143V7.71429C2.1 6.82143 2.42083 6.0625 3.0625 5.4375C3.70417 4.8125 4.48333 4.5 5.4 4.5H9.8C10.2217 4.5 10.6158 4.57607 10.9825 4.72821C11.3492 4.88036 11.6883 5.09 12 5.35714C12.3117 5.08929 12.6508 4.87964 13.0175 4.72821C13.3842 4.57679 13.7783 4.50071 14.2 4.5H18.6C19.5167 4.5 20.2958 4.8125 20.9375 5.4375C21.5792 6.0625 21.9 6.82143 21.9 7.71429V10.7143C22.23 11.0179 22.4958 11.3661 22.6975 11.7589C22.8992 12.1518 23 12.5893 23 13.0714V19.5H20.8V17.3571H3.2V19.5H1ZM13.1 9.85714H19.7V7.71429C19.7 7.41071 19.5944 7.15643 19.3832 6.95143C19.172 6.74643 18.9109 6.64357 18.6 6.64286H14.2C13.8883 6.64286 13.6273 6.74571 13.4168 6.95143C13.2063 7.15714 13.1007 7.41143 13.1 7.71429V9.85714ZM4.3 9.85714H10.9V7.71429C10.9 7.41071 10.7944 7.15643 10.5832 6.95143C10.372 6.74643 10.1109 6.64357 9.8 6.64286H5.4C5.08833 6.64286 4.82727 6.74571 4.6168 6.95143C4.40633 7.15714 4.30073 7.41143 4.3 7.71429V9.85714ZM3.2 15.2143H20.8V13.0714C20.8 12.7679 20.6944 12.5136 20.4832 12.3086C20.272 12.1036 20.0109 12.0007 19.7 12H4.3C3.98833 12 3.72727 12.1029 3.5168 12.3086C3.30633 12.5143 3.20073 12.7686 3.2 13.0714V15.2143Z" fill="#FE4401"/>
</svg>
