<svg width="24" height="24" viewBox="0 0 24 24" fill="none" xmlns="http://www.w3.org/2000/svg">
<path d="M19.999 7H3.99902C2.89445 7 1.99902 7.89543 1.99902 9V19C1.99902 20.1046 2.89445 21 3.99902 21H19.999C21.1036 21 21.999 20.1046 21.999 19V9C21.999 7.89543 21.1036 7 19.999 7Z" stroke="#FE4401" stroke-width="2" stroke-linecap="round" stroke-linejoin="round"/>
<path d="M15.999 21V5C15.999 4.46957 15.7883 3.96086 15.4132 3.58579C15.0382 3.21071 14.5295 3 13.999 3H9.99902C9.46859 3 8.95988 3.21071 8.58481 3.58579C8.20974 3.96086 7.99902 4.46957 7.99902 5V21" stroke="#FE4401" stroke-width="2" stroke-linecap="round" stroke-linejoin="round"/>
</svg>
