<svg width="24" height="26" viewBox="0 0 24 26" fill="none" xmlns="http://www.w3.org/2000/svg">
<g id="Order_fill">
<path id="Subtract" d="M18.5879 25.3333C20.4735 25.3333 21.4171 25.3332 22.0029 24.7474C22.5884 24.1616 22.5879 23.2186 22.5879 21.3333V4.33334C22.5879 2.44806 22.5884 1.50509 22.0029 0.919281C21.4171 0.333494 20.4735 0.333344 18.5879 0.333344H6C4.11438 0.333344 3.17172 0.333494 2.58594 0.919281C2.00015 1.50507 2 2.44773 2 4.33334V21.3333C2 23.219 2.00015 24.1616 2.58594 24.7474C3.17172 25.3332 4.11438 25.3333 6 25.3333H18.5879ZM7.88281 7.21518C7.33055 7.21518 6.88284 6.76744 6.88281 6.21518C6.88303 5.66308 7.33066 5.21518 7.88281 5.21518H13.7656L13.8672 5.22006C14.3712 5.27133 14.7654 5.69765 14.7656 6.21518C14.7656 6.73284 14.3713 7.15898 13.8672 7.2103L13.7656 7.21518H7.88281ZM7.88281 13.097C7.33053 13.097 6.88281 12.6493 6.88281 12.097C6.88328 11.5451 7.33082 11.097 7.88281 11.097H16.7061L16.8086 11.1029C17.3124 11.1543 17.7056 11.5798 17.7061 12.097C17.7061 12.6146 17.3126 13.0407 16.8086 13.0921L16.7061 13.097H7.88281ZM7.88281 18.9798C7.33053 18.9798 6.88281 18.5321 6.88281 17.9798C6.88303 17.4277 7.33066 16.9798 7.88281 16.9798H16.7061L16.8086 16.9847C17.3125 17.0361 17.7058 17.4624 17.7061 17.9798C17.7061 18.4974 17.3126 18.9235 16.8086 18.9749L16.7061 18.9798H7.88281Z" fill="#FFEF5E"/>
</g>
</svg>
