<svg width="24" height="24" viewBox="0 0 24 24" fill="none" xmlns="http://www.w3.org/2000/svg">
<path d="M21.56 3.17752C21.4276 3.08473 21.2743 3.02612 21.1138 3.00693C20.9533 2.98774 20.7905 3.00855 20.64 3.06752L7.81 7.99752H4C2.9 7.99752 2 8.89752 2 9.99752V13.9975C2 15.0975 2.9 15.9975 4 15.9975H7.81L8.81 16.3875L8.34 17.7875C8.01 18.7875 8.51 19.8875 9.49 20.2775L12.63 21.5375C12.87 21.6275 13.12 21.6775 13.37 21.6775C13.66 21.6775 13.95 21.6175 14.21 21.4875C14.71 21.2575 15.09 20.8275 15.26 20.3075L15.68 19.0375L20.61 20.9375C20.73 20.9775 20.85 21.0075 20.97 21.0075C21.17 21.0075 21.37 20.9475 21.54 20.8275C21.81 20.6375 21.97 20.3275 21.97 20.0075V3.99752C21.97 3.66752 21.81 3.35752 21.54 3.17752H21.56ZM3.99 9.99752H6.99V13.9975H3.99V9.99752ZM13.38 19.6775L10.24 18.4175L10.68 17.0975L13.83 18.3075L13.38 19.6675V19.6775ZM19.99 18.5475L8.99 14.3175V9.68752L19.99 5.45753V18.5475Z" fill="#FE4401"/>
</svg>
