<svg width="109" height="53" viewBox="0 0 109 53" fill="none" xmlns="http://www.w3.org/2000/svg">
<path d="M13.9163 13.0629C13.9163 5.84848 19.7648 0 26.9793 0C34.1937 0 40.0422 5.84848 40.0422 13.0629V23.3695C40.0422 30.584 34.1937 36.4324 26.9793 36.4324C19.7648 36.4324 13.9163 30.584 13.9163 23.3695V13.0629Z" fill="#FE4401"/>
<path d="M0.810547 6.59139C0.810547 2.95107 3.76161 0 7.40194 0C11.0423 0 13.9933 2.95107 13.9933 6.59139V37.7507C13.9933 41.391 11.0423 44.3421 7.40194 44.3421C3.76161 44.3421 0.810547 41.391 0.810547 37.7507V6.59139Z" fill="#FE4401"/>
<path d="M0.810547 26.3057C0.810547 19.0581 6.74578 13.1828 13.9933 13.1828C21.2409 13.1828 27.1761 19.0581 27.1761 26.3057V39.3686C27.1761 46.6162 21.2409 52.4915 13.9933 52.4915C6.74578 52.4915 0.810547 46.6162 0.810547 39.3686V26.3057Z" fill="#FE4401"/>
<path d="M40.1192 6.59139C40.1192 2.95107 43.0703 0 46.7106 0C50.3509 0 53.302 2.95107 53.302 6.59139V37.7507C53.302 41.391 50.3509 44.3421 46.7106 44.3421C43.0703 44.3421 40.1192 41.391 40.1192 37.7507V6.59139Z" fill="#FE4401"/>
<path d="M27.1761 26.2457C27.1761 19.0313 33.0246 13.1828 40.2391 13.1828C47.4535 13.1828 53.302 19.0313 53.302 26.2457V39.4285C53.302 46.643 47.4535 52.4915 40.2391 52.4915C33.0246 52.4915 27.1761 46.643 27.1761 39.4285V26.2457Z" fill="#FE4401"/>
<path d="M55.6982 19.115C55.6982 11.8675 61.6335 5.99218 68.881 5.99218C76.1286 5.99218 82.0638 11.8675 82.0638 19.115V39.3686C82.0638 46.6162 76.1286 52.4915 68.881 52.4915C61.6335 52.4915 55.6982 46.6162 55.6982 39.3686V19.115Z" fill="#FE4401"/>
<path d="M82.0638 19.0551C82.0638 11.8407 87.9123 5.99218 95.1268 5.99218C102.341 5.99218 108.19 11.8407 108.19 19.0551V39.4285C108.19 46.643 102.341 52.4915 95.1268 52.4915C87.9123 52.4915 82.0638 46.643 82.0638 39.4285V19.0551Z" fill="#FE4401"/>
<path d="M55.6982 19.4147C55.6982 8.69224 64.3905 0 75.1129 0H88.7751C99.4975 0 108.19 8.69224 108.19 19.4147C108.19 30.1371 99.4975 38.8293 88.7751 38.8293H75.1129C64.3905 38.8293 55.6982 30.1371 55.6982 19.4147Z" fill="#FE4401"/>
<rect x="6.32227" y="9.5874" width="11.9844" height="18.4559" rx="5.99218" fill="white"/>
<rect x="18.3066" y="9.5874" width="11.9844" height="18.4559" rx="5.99218" fill="white"/>
<rect x="63.6074" y="9.5874" width="11.9844" height="18.4559" rx="5.99218" fill="white"/>
<rect x="75.5918" y="9.5874" width="11.9844" height="18.4559" rx="5.99218" fill="white"/>
<rect x="6.32227" y="15.1003" width="6.71124" height="10.5462" rx="3.35562" fill="#4351EC"/>
<rect x="18.3066" y="15.1003" width="6.71124" height="10.5462" rx="3.35562" fill="#4351EC"/>
<rect x="67.4424" y="12.2241" width="6.71124" height="10.5462" rx="3.35562" fill="#4351EC"/>
<rect x="79.4268" y="12.2241" width="6.71124" height="10.5462" rx="3.35562" fill="#4351EC"/>
<rect x="5" y="9" width="26" height="0.1" fill="#FE4401"/>
<rect x="63" y="9" width="26" height="0.1" fill="#FE4401"/>
</svg>
