<svg width="51" height="24" viewBox="0 0 51 24" fill="none" xmlns="http://www.w3.org/2000/svg">
<path d="M6.94424 5.9726C6.94424 2.67403 9.61827 0 12.9168 0C16.2154 0 18.8895 2.67403 18.8895 5.9726V10.6849C18.8895 13.9835 16.2154 16.6575 12.9168 16.6575C9.61827 16.6575 6.94424 13.9835 6.94424 10.6849V5.9726Z" fill="black"/>
<path d="M0.952057 3.0137C0.952057 1.34928 2.30134 0 3.96576 0C5.63018 0 6.97945 1.34928 6.97945 3.0137V17.2603C6.97945 18.9247 5.63018 20.274 3.96576 20.274C2.30134 20.274 0.952057 18.9247 0.952057 17.2603V3.0137Z" fill="black"/>
<path d="M0.952057 12.0274C0.952057 8.71369 3.66575 6.0274 6.97945 6.0274C10.2932 6.0274 13.0069 8.71369 13.0069 12.0274V18C13.0069 21.3137 10.2932 24 6.97945 24C3.66575 24 0.952057 21.3137 0.952057 18V12.0274Z" fill="black"/>
<path d="M18.9247 3.0137C18.9247 1.34928 20.2739 0 21.9384 0C23.6028 0 24.9521 1.34928 24.9521 3.0137V17.2603C24.9521 18.9247 23.6028 20.274 21.9384 20.274C20.2739 20.274 18.9247 18.9247 18.9247 17.2603V3.0137Z" fill="black"/>
<path d="M13.0069 12C13.0069 8.70142 15.6809 6.0274 18.9795 6.0274C22.278 6.0274 24.9521 8.70142 24.9521 12V18.0274C24.9521 21.326 22.278 24 18.9795 24C15.6809 24 13.0069 21.326 13.0069 18.0274V12Z" fill="black"/>
<path d="M26.0479 8.73973C26.0479 5.42602 28.7616 2.73973 32.0753 2.73973C35.389 2.73973 38.1027 5.42602 38.1027 8.73973V18C38.1027 21.3137 35.389 24 32.0753 24C28.7616 24 26.0479 21.3137 26.0479 18V8.73973Z" fill="black"/>
<path d="M38.1027 8.71233C38.1027 5.41375 40.7768 2.73973 44.0753 2.73973C47.3739 2.73973 50.0479 5.41375 50.0479 8.71233V18.0274C50.0479 21.326 47.3739 24 44.0753 24C40.7768 24 38.1027 21.326 38.1027 18.0274V8.71233Z" fill="black"/>
<path d="M26.0479 8.87671C26.0479 3.97424 30.0222 0 34.9247 0H41.1712C46.0737 0 50.0479 3.97424 50.0479 8.87671C50.0479 13.7792 46.0737 17.7534 41.1712 17.7534H34.9247C30.0222 17.7534 26.0479 13.7792 26.0479 8.87671Z" fill="black"/>
<rect width="10.9589" height="8.43836" transform="translate(3.47281 4.38354)" fill="black"/>
<rect x="3.47281" y="4.38354" width="5.47945" height="8.43836" rx="2.73973" fill="white"/>
<rect x="8.95227" y="4.38354" width="5.47945" height="8.43836" rx="2.73973" fill="white"/>
<rect width="10.9589" height="8.43836" transform="translate(29.6646 4.38354)" fill="black"/>
<rect x="29.6646" y="4.38354" width="5.47945" height="8.43836" rx="2.73973" fill="white"/>
<rect x="35.1441" y="4.38354" width="5.47945" height="8.43836" rx="2.73973" fill="white"/>
<rect x="3.47281" y="6.90411" width="3.06849" height="4.82192" rx="1.53425" fill="black"/>
<rect x="8.95227" y="6.90411" width="3.06849" height="4.82192" rx="1.53425" fill="black"/>
<rect x="31.418" y="5.58905" width="3.06849" height="4.82192" rx="1.53425" fill="black"/>
<rect x="36.8974" y="5.58905" width="3.06849" height="4.82192" rx="1.53425" fill="black"/>
</svg>
