<svg width="169" height="83" viewBox="0 0 169 83" fill="none" xmlns="http://www.w3.org/2000/svg">
<path d="M21.0876 20.4109C21.0876 9.13825 30.2259 0 41.4985 0C52.7711 0 61.9093 9.13825 61.9093 20.4109V36.5148C61.9093 47.7874 52.7711 56.9257 41.4985 56.9257C30.2259 56.9257 21.0876 47.7874 21.0876 36.5148V20.4109Z" fill="#4351EC"/>
<path d="M0.609863 10.2991C0.609863 4.61104 5.22091 0 10.9089 0C16.5969 0 21.208 4.61104 21.208 10.2991V58.9855C21.208 64.6735 16.5969 69.2845 10.9089 69.2845C5.22091 69.2845 0.609863 64.6735 0.609863 58.9855V10.2991Z" fill="#4351EC"/>
<path d="M0.609863 41.1026C0.609863 29.7783 9.88366 20.5981 21.208 20.5981C32.5323 20.5981 41.8061 29.7783 41.8061 41.1026V61.5134C41.8061 72.8377 32.5323 82.0179 21.208 82.0179C9.88366 82.0179 0.609863 72.8377 0.609863 61.5134V41.1026Z" fill="#4351EC"/>
<path d="M62.0297 10.2991C62.0297 4.61104 66.6407 0 72.3287 0C78.0167 0 82.6278 4.61104 82.6278 10.2991V58.9855C82.6278 64.6735 78.0167 69.2845 72.3287 69.2845C66.6407 69.2845 62.0297 64.6735 62.0297 58.9855V10.2991Z" fill="#4351EC"/>
<path d="M41.8061 41.009C41.8061 29.7364 50.9443 20.5981 62.2169 20.5981C73.4895 20.5981 82.6278 29.7364 82.6278 41.009V61.6071C82.6278 72.8797 73.4895 82.0179 62.2169 82.0179C50.9443 82.0179 41.8061 72.8797 41.8061 61.6071V41.009Z" fill="#4351EC"/>
<path d="M86.3726 29.8673C86.3726 18.5429 95.6464 9.36278 106.971 9.36278C118.295 9.36278 127.569 18.5429 127.569 29.8673V61.5134C127.569 72.8377 118.295 82.0179 106.971 82.0179C95.6464 82.0179 86.3726 72.8377 86.3726 61.5134V29.8673Z" fill="#4351EC"/>
<path d="M127.569 29.7736C127.569 18.501 136.707 9.36278 147.98 9.36278C159.252 9.36278 168.39 18.501 168.39 29.7736V61.6071C168.39 72.8797 159.252 82.0179 147.98 82.0179C136.707 82.0179 127.569 72.8797 127.569 61.6071V29.7736Z" fill="#4351EC"/>
<path d="M86.3726 30.3354C86.3726 13.5816 99.9542 0 116.708 0H138.055C154.809 0 168.39 13.5816 168.39 30.3354C168.39 47.0892 154.809 60.6708 138.055 60.6708H116.708C99.9542 60.6708 86.3726 47.0892 86.3726 30.3354Z" fill="#4351EC"/>
<rect x="9.22314" y="14.9803" width="18.7255" height="28.8373" rx="9.36277" fill="white"/>
<rect x="27.9487" y="14.9803" width="18.7255" height="28.8373" rx="9.36277" fill="white"/>
<rect x="98.7314" y="14.9803" width="18.7255" height="28.8373" rx="9.36277" fill="white"/>
<rect x="117.457" y="14.9803" width="18.7255" height="28.8373" rx="9.36277" fill="white"/>
<rect x="15.0005" y="19" width="10.4863" height="16.4785" rx="5.24315" fill="black"/>
<rect x="33.7261" y="18.9999" width="10.4863" height="16.4785" rx="5.24315" fill="black"/>
<rect x="104.723" y="20.1001" width="10.4863" height="16.4785" rx="5.24315" fill="black"/>
<rect x="123.449" y="20.1001" width="10.4863" height="16.4785" rx="5.24315" fill="black"/>
<rect x="8.00049" y="15" width="40" height="0.1" fill="#4351EC"/>
<rect x="98.0005" y="15" width="40" height="0.1" fill="#4351EC"/>
<rect x="8.5" y="28.6414" width="21" height="15" rx="7.5" transform="rotate(7 8.5 28.6414)" fill="#4351EC"/>
<rect x="27.1567" y="31.2123" width="21" height="15" rx="7.5" transform="rotate(-7 27.1567 31.2123)" fill="#4351EC"/>
<rect x="98.5005" y="30.0001" width="21" height="15" rx="7.5" transform="rotate(7 98.5005 30.0001)" fill="#4351EC"/>
<rect x="116.657" y="32.2133" width="21" height="15" rx="7.5" transform="rotate(-7 116.657 32.2133)" fill="#4351EC"/>
</svg>
