<svg width="24" height="25" viewBox="0 0 24 25" fill="none" xmlns="http://www.w3.org/2000/svg">
<g id="lucide:baggage-claim">
<g id="Group">
<path id="Vector" d="M22 18.5103H6C5.46957 18.5103 4.96086 18.2995 4.58579 17.9245C4.21071 17.5494 4 17.0407 4 16.5103V7.51025C4 6.97982 3.78929 6.47111 3.41421 6.09604C3.03914 5.72097 2.53043 5.51025 2 5.51025" stroke="black" stroke-width="2" stroke-linecap="round" stroke-linejoin="round"/>
<path id="Vector_2" d="M17 14.5103V4.51025C17 3.97982 16.7893 3.47111 16.4142 3.09604C16.0391 2.72097 15.5304 2.51025 15 2.51025H14C13.4696 2.51025 12.9609 2.72097 12.5858 3.09604C12.2107 3.47111 12 3.97982 12 4.51025V14.5103" stroke="black" stroke-width="2" stroke-linecap="round" stroke-linejoin="round"/>
<path id="Vector_3" d="M20 6.51025H9C8.44772 6.51025 8 6.95797 8 7.51025V13.5103C8 14.0625 8.44772 14.5103 9 14.5103H20C20.5523 14.5103 21 14.0625 21 13.5103V7.51025C21 6.95797 20.5523 6.51025 20 6.51025Z" stroke="black" stroke-width="2" stroke-linecap="round" stroke-linejoin="round"/>
<path id="Vector_4" d="M18 22.5103C19.1046 22.5103 20 21.6148 20 20.5103C20 19.4057 19.1046 18.5103 18 18.5103C16.8954 18.5103 16 19.4057 16 20.5103C16 21.6148 16.8954 22.5103 18 22.5103Z" stroke="black" stroke-width="2" stroke-linecap="round" stroke-linejoin="round"/>
<path id="Vector_5" d="M9 22.5103C10.1046 22.5103 11 21.6148 11 20.5103C11 19.4057 10.1046 18.5103 9 18.5103C7.89543 18.5103 7 19.4057 7 20.5103C7 21.6148 7.89543 22.5103 9 22.5103Z" stroke="black" stroke-width="2" stroke-linecap="round" stroke-linejoin="round"/>
</g>
</g>
</svg>
