<svg width="22" height="22" viewBox="0 0 22 22" fill="none" xmlns="http://www.w3.org/2000/svg">
<path d="M21 17H5C4.46957 17 3.96086 16.7893 3.58579 16.4142C3.21071 16.0391 3 15.5304 3 15V6C3 5.46957 2.78929 4.96086 2.41421 4.58579C2.03914 4.21071 1.53043 4 1 4" stroke="#1C1D1F" stroke-width="2" stroke-linecap="round" stroke-linejoin="round"/>
<path d="M16 13V3C16 2.46957 15.7893 1.96086 15.4142 1.58579C15.0391 1.21071 14.5304 1 14 1H13C12.4696 1 11.9609 1.21071 11.5858 1.58579C11.2107 1.96086 11 2.46957 11 3V13" stroke="#1C1D1F" stroke-width="2" stroke-linecap="round" stroke-linejoin="round"/>
<path d="M19 5H8C7.44772 5 7 5.44772 7 6V12C7 12.5523 7.44772 13 8 13H19C19.5523 13 20 12.5523 20 12V6C20 5.44772 19.5523 5 19 5Z" stroke="#1C1D1F" stroke-width="2" stroke-linecap="round" stroke-linejoin="round"/>
<path d="M17 21C18.1046 21 19 20.1046 19 19C19 17.8954 18.1046 17 17 17C15.8954 17 15 17.8954 15 19C15 20.1046 15.8954 21 17 21Z" stroke="#1C1D1F" stroke-width="2" stroke-linecap="round" stroke-linejoin="round"/>
<path d="M8 21C9.10457 21 10 20.1046 10 19C10 17.8954 9.10457 17 8 17C6.89543 17 6 17.8954 6 19C6 20.1046 6.89543 21 8 21Z" stroke="#1C1D1F" stroke-width="2" stroke-linecap="round" stroke-linejoin="round"/>
</svg>
