<svg width="24" height="24" viewBox="0 0 24 24" fill="none" xmlns="http://www.w3.org/2000/svg">
<path d="M22.5039 1.13174C22.8133 0.954937 23.1937 0.955851 23.502 1.13467C23.8102 1.31358 24 1.64347 24 1.99991V17.9999C24 18.3588 23.8076 18.69 23.4961 18.8681L16.4961 22.8681C16.2058 23.034 15.8518 23.044 15.5527 22.8944L8.03125 19.1337L1.49609 22.8681C1.18663 23.0449 0.80634 23.044 0.498047 22.8651C0.189754 22.6862 0 22.3564 0 21.9999V5.99991C3.07501e-05 5.64108 0.192356 5.30977 0.503906 5.13174L7.50391 1.13174L7.61523 1.07706C7.88161 0.965974 8.18551 0.974512 8.44727 1.10538L15.9688 4.86612L22.5039 1.13174ZM9 17.4999L15 20.4999V6.49991L9 3.49991V17.4999Z" fill="#1C1D1F"/>
</svg>
