<svg width="24" height="24" viewBox="0 0 24 24" fill="none" xmlns="http://www.w3.org/2000/svg">
<path d="M18 8.00015H19C20.0609 8.00015 21.0783 8.42158 21.8284 9.17173C22.5786 9.92187 23 10.9393 23 12.0002C23 13.061 22.5786 14.0784 21.8284 14.8286C21.0783 15.5787 20.0609 16.0002 19 16.0002H18" stroke="#1C1D1F" stroke-width="2" stroke-linecap="round" stroke-linejoin="round"/>
<path d="M2.00055 8.00015H18.0005V17.0002C18.0005 18.061 17.5791 19.0784 16.829 19.8286C16.0788 20.5787 15.0614 21.0002 14.0005 21.0002H6.00055C4.93968 21.0002 3.92227 20.5787 3.17212 19.8286C2.42198 19.0784 2.00055 18.061 2.00055 17.0002V8.00015Z" stroke="#1C1D1F" stroke-width="2" stroke-linecap="round" stroke-linejoin="round"/>
<path d="M6 0.999847V3.99985" stroke="#1C1D1F" stroke-width="2" stroke-linecap="round" stroke-linejoin="round"/>
<path d="M10.0011 0.999847V3.99985" stroke="#1C1D1F" stroke-width="2" stroke-linecap="round" stroke-linejoin="round"/>
<path d="M14.0005 0.999847V3.99985" stroke="#1C1D1F" stroke-width="2" stroke-linecap="round" stroke-linejoin="round"/>
</svg>
