<svg width="29" height="29" viewBox="0 0 29 29" fill="none" xmlns="http://www.w3.org/2000/svg">
<g id="person_outline" clip-path="url(#clip0_1959_9296)">
<path id="Vector" d="M14.4998 7.38329C15.8532 7.38329 16.9498 8.47996 16.9498 9.83329C16.9498 11.1866 15.8532 12.2833 14.4998 12.2833C13.1465 12.2833 12.0498 11.1866 12.0498 9.83329C12.0498 8.47996 13.1465 7.38329 14.4998 7.38329ZM14.4998 17.8833C17.9648 17.8833 21.6165 19.5866 21.6165 20.3333V21.6166H7.38317V20.3333C7.38317 19.5866 11.0348 17.8833 14.4998 17.8833ZM14.4998 5.16663C11.9215 5.16663 9.83317 7.25496 9.83317 9.83329C9.83317 12.4116 11.9215 14.5 14.4998 14.5C17.0782 14.5 19.1665 12.4116 19.1665 9.83329C19.1665 7.25496 17.0782 5.16663 14.4998 5.16663ZM14.4998 15.6666C11.3848 15.6666 5.1665 17.23 5.1665 20.3333V23.8333H23.8332V20.3333C23.8332 17.23 17.6148 15.6666 14.4998 15.6666Z" fill="black"/>
</g>
<defs>
<clipPath id="clip0_1959_9296">
<rect width="28" height="28" fill="white" transform="translate(0.5 0.5)"/>
</clipPath>
</defs>
</svg>
