<svg width="24" height="24" viewBox="0 0 24 24" fill="none" xmlns="http://www.w3.org/2000/svg">
<path d="M20.0176 3.00531L20.1115 3L20.2267 3.00709L20.3064 3.02126L20.4154 3.05226L20.5101 3.09301L20.5987 3.1435L20.6784 3.20285L20.7511 3.26929L20.7971 3.32155L20.8698 3.42431L20.9158 3.50935C20.9572 3.59793 20.9838 3.69124 20.9956 3.78927L21 3.88317C21 3.9499 20.9929 4.01486 20.9787 4.07805L20.9477 4.18701L15.1615 20.2001C15.0518 20.4389 14.8759 20.6412 14.6547 20.783C14.4334 20.9248 14.1762 21.0001 13.9134 21C13.6768 21.0005 13.444 20.9398 13.2378 20.8239C13.0315 20.7079 12.8587 20.5407 12.7361 20.3383L12.6785 20.2258L9.70925 14.289L3.80079 11.3339C3.58217 11.2339 3.39363 11.0782 3.25403 10.8825C3.11443 10.6868 3.02867 10.4579 3.00531 10.2186L3 10.0866C3 9.59055 3.26663 9.13701 3.74498 8.87303L3.869 8.81102L19.8289 3.04783L19.9228 3.02126L20.0176 3.00531Z" stroke="black" stroke-width="2"/>
</svg>
