<svg width="24" height="24" viewBox="0 0 24 24" fill="none" xmlns="http://www.w3.org/2000/svg">
<path d="M17.17 6.00757H3.31001C2.88475 6.00757 2.54001 6.3664 2.54001 6.80905V17.2283C2.54001 17.6709 2.88475 18.0298 3.31001 18.0298H17.17C17.5953 18.0298 17.94 17.6709 17.94 17.2283V6.80905C17.94 6.3664 17.5953 6.00757 17.17 6.00757Z" stroke="#27282C" stroke-width="2" stroke-linecap="round" stroke-linejoin="round"/>
<path d="M6.39001 4.40454V7.61046M10.625 11.2171H6.39001M14.09 14.423H6.39001M14.09 4.40454V7.61046" stroke="#27282C" stroke-width="2" stroke-linecap="round"/>
<circle cx="17.3896" cy="17.228" r="5.61036" fill="#FF3030"/>
<path d="M19.2906 15.8232C19.3241 15.7909 19.3508 15.7522 19.3692 15.7094C19.3876 15.6667 19.3973 15.6207 19.3977 15.5741C19.3982 15.5276 19.3893 15.4814 19.3717 15.4383C19.3541 15.3952 19.3281 15.356 19.2952 15.3231C19.2623 15.2901 19.2231 15.2641 19.18 15.2464C19.137 15.2288 19.0908 15.2199 19.0442 15.2203C18.9977 15.2206 18.9517 15.2303 18.9089 15.2487C18.8661 15.267 18.8274 15.2937 18.795 15.3272L17.3896 16.7321L15.9847 15.3272C15.9526 15.2927 15.9139 15.2651 15.8709 15.2459C15.8278 15.2268 15.7814 15.2165 15.7343 15.2156C15.6873 15.2148 15.6405 15.2235 15.5968 15.2411C15.5532 15.2587 15.5135 15.285 15.4802 15.3183C15.4469 15.3516 15.4207 15.3912 15.403 15.4349C15.3854 15.4786 15.3767 15.5253 15.3776 15.5724C15.3784 15.6195 15.3887 15.6659 15.4079 15.7089C15.427 15.7519 15.4547 15.7907 15.4891 15.8228L16.8931 17.2282L15.4882 18.6331C15.4262 18.6996 15.3925 18.7875 15.3941 18.8783C15.3957 18.9692 15.4325 19.0558 15.4968 19.1201C15.561 19.1843 15.6477 19.2211 15.7385 19.2227C15.8294 19.2243 15.9173 19.1906 15.9838 19.1287L17.3896 17.7237L18.7945 19.1291C18.861 19.1911 18.9489 19.2248 19.0398 19.2232C19.1306 19.2216 19.2173 19.1848 19.2815 19.1205C19.3458 19.0563 19.3826 18.9696 19.3842 18.8788C19.3858 18.7879 19.3521 18.7 19.2901 18.6336L17.8861 17.2282L19.2906 15.8232Z" fill="white"/>
</svg>
