<svg width="24" height="24" viewBox="0 0 24 24" fill="none" xmlns="http://www.w3.org/2000/svg">
<path d="M15.7205 7.79594C15.4261 7.46064 15.1235 7.12534 14.8046 6.80639L14.5674 6.58559L14.6819 6.48745C15.0818 6.14414 15.3668 5.68642 15.4985 5.17604C15.6301 4.66567 15.602 4.1272 15.4179 3.6333C15.1513 3.07635 14.729 2.60853 14.2022 2.28636C13.6754 1.96418 13.0666 1.80143 12.4493 1.81777V3.45338C12.7403 3.44933 13.0271 3.52299 13.2801 3.66674C13.5331 3.8105 13.7432 4.01916 13.8886 4.27119C14.0277 4.59831 13.8886 4.95815 13.5043 5.34252C13.447 5.40794 13.3816 5.44883 13.3244 5.50608C10.8709 3.53517 8.18035 2.42295 6.86368 3.73962C6.72623 3.88099 6.61295 4.044 6.52838 4.22212V4.3039L6.38117 4.73734L2.77464 15.4506C2.63822 15.8543 2.59996 16.2847 2.66301 16.7062C2.72606 17.1277 2.88862 17.528 3.13721 17.8741C3.38581 18.2203 3.7133 18.5022 4.09254 18.6965C4.47179 18.8909 4.89188 18.9921 5.31802 18.9917C5.59628 18.9892 5.87235 18.9422 6.13583 18.8527L17.3561 15.1317C17.494 15.0803 17.6155 14.9928 17.7078 14.8782L17.8795 14.7309C19.049 13.5533 18.2966 11.288 16.7264 9.08808C17.6588 8.54395 18.7323 8.29052 19.8096 8.36023V6.72461C18.3681 6.6453 16.938 7.01999 15.7205 7.79594ZM5.6615 17.2989C5.47587 17.3603 5.27681 17.3689 5.08654 17.3238C4.89628 17.2787 4.72231 17.1816 4.58404 17.0433C4.44577 16.905 4.34865 16.7311 4.30352 16.5408C4.2584 16.3505 4.26704 16.1515 4.32848 15.9658L5.44069 12.6128C6.23444 14.1265 7.4541 15.3746 8.94909 16.203L5.6615 17.2989ZM11.3862 15.3934C10.1502 15.0661 9.02276 14.4179 8.11798 13.5145C7.2132 12.6112 6.56325 11.4848 6.23397 10.2494L7.05178 7.79594L7.10084 7.86954C7.1908 8.04946 7.3053 8.23756 7.41979 8.42565C7.53428 8.61375 7.55064 8.66282 7.63242 8.78549C7.7142 8.90816 7.90229 9.17804 8.0495 9.38249C8.19671 9.58694 8.20488 9.61147 8.29484 9.72597C8.3848 9.84046 8.6465 10.1758 8.83459 10.3966L9.07176 10.6828C9.34981 11.0017 9.64422 11.3125 9.95499 11.6315C10.2658 11.9504 10.5111 12.1549 10.7728 12.4493L11.0427 12.6783L11.6806 13.1935L11.9832 13.4225C12.2121 13.586 12.4329 13.7496 12.6619 13.8968L12.9155 14.0603C13.2099 14.2403 13.5043 14.412 13.7905 14.5592H13.8314L11.3862 15.3934ZM16.7101 13.5697H16.661C16.0967 13.8804 13.7496 13.1035 11.1081 10.4538C10.83 10.1758 10.5683 9.90588 10.3312 9.63601L10.094 9.34977L9.66058 8.82638L9.42342 8.49926C9.3171 8.34387 9.20261 8.19667 9.10447 8.04946L8.89184 7.70598L8.65468 7.32161C8.58925 7.20712 8.54018 7.10081 8.48294 6.99449C8.42569 6.88818 8.36027 6.78186 8.3112 6.66737C8.26675 6.57179 8.22851 6.47345 8.19671 6.37296C8.15581 6.26664 8.10675 6.16033 8.07403 6.06219C8.04132 5.96405 8.03314 5.90681 8.00861 5.80867C7.98408 5.71053 7.96772 5.62875 7.95136 5.54697C7.94675 5.47617 7.94675 5.40514 7.95136 5.33434C7.94348 5.26915 7.94348 5.20325 7.95136 5.13807L8.04132 4.88455C8.33573 4.59014 9.86503 4.88455 11.9096 6.43838C11.5631 6.59524 11.1926 6.69204 10.8137 6.72461V8.36023C11.6824 8.31026 12.5252 8.04617 13.2671 7.59149L13.6597 7.96768C14.0031 8.31116 14.3221 8.66282 14.6247 9.01447C14.1565 9.861 13.9839 10.8394 14.134 11.795L15.7696 11.4761C15.7218 11.1726 15.7218 10.8636 15.7696 10.5601C16.02 10.9381 16.2414 11.3345 16.432 11.746C16.89 12.8255 16.8573 13.4306 16.7101 13.5697Z" fill="#27282C"/>
<ellipse cx="17.5002" cy="16.5384" rx="5.4998" ry="5.72464" fill="#0065FF"/>
<path d="M20 15L16.5625 18L15 16.6364" stroke="white" stroke-linecap="round" stroke-linejoin="round"/>
</svg>
