<svg width="28" height="28" viewBox="0 0 28 28" fill="none" xmlns="http://www.w3.org/2000/svg">
<path d="M20.9989 2.75095C20.9566 2.75095 20.9255 2.73302 20.9086 2.71619C20.8951 2.70262 20.8808 2.67974 20.8757 2.64929C20.8751 2.64551 20.8746 2.64163 20.8743 2.63763C20.8746 2.63363 20.8751 2.62972 20.8757 2.62595C20.8808 2.5955 20.8951 2.57262 20.9086 2.55905C20.9255 2.54222 20.9566 2.52429 20.9989 2.52429C21.0411 2.52429 21.0722 2.54222 21.0891 2.55906C21.1027 2.57262 21.1169 2.5955 21.122 2.62595C21.1226 2.62972 21.1231 2.63361 21.1234 2.63761C21.1231 2.64161 21.1226 2.64551 21.122 2.64929C21.1169 2.67974 21.1027 2.70262 21.0891 2.71618C21.0722 2.73302 21.0411 2.75095 20.9989 2.75095ZM25.6655 7.41762C25.6233 7.41762 25.5921 7.39969 25.5753 7.38285C25.5617 7.36929 25.5474 7.34641 25.5424 7.31595C25.5418 7.31218 25.5413 7.30829 25.541 7.30429C25.5413 7.30029 25.5418 7.29639 25.5424 7.29262C25.5474 7.26217 25.5617 7.23929 25.5753 7.22572C25.5921 7.20888 25.6233 7.19095 25.6655 7.19095C25.7077 7.19095 25.7389 7.20888 25.7558 7.22572C25.7693 7.23929 25.7836 7.26217 25.7886 7.29262C25.7893 7.29639 25.7897 7.30029 25.7901 7.30429C25.7897 7.30829 25.7893 7.31218 25.7886 7.31595C25.7836 7.34641 25.7693 7.36929 25.7558 7.38285C25.7389 7.39969 25.7077 7.41762 25.6655 7.41762ZM24.4989 15.5843C24.4566 15.5843 24.4255 15.5664 24.4086 15.5495C24.3951 15.536 24.3808 15.5131 24.3757 15.4826C24.3751 15.4788 24.3746 15.475 24.3743 15.471C24.3746 15.467 24.3751 15.4631 24.3757 15.4593C24.3808 15.4288 24.3951 15.406 24.4086 15.3924C24.4255 15.3756 24.4566 15.3576 24.4989 15.3576C24.5411 15.3576 24.5722 15.3756 24.5891 15.3924C24.6026 15.406 24.6169 15.4288 24.622 15.4593C24.6226 15.4631 24.6231 15.4669 24.6234 15.4709C24.6231 15.4749 24.6226 15.4788 24.622 15.4826C24.6169 15.5131 24.6026 15.536 24.5891 15.5495C24.5722 15.5664 24.5411 15.5843 24.4989 15.5843ZM12.8322 3.91762C12.79 3.91762 12.7588 3.89969 12.742 3.88285C12.7284 3.86929 12.7141 3.84641 12.7091 3.81595C12.7085 3.81218 12.708 3.80829 12.7077 3.80429C12.708 3.80028 12.7085 3.79639 12.7091 3.79262C12.7141 3.76217 12.7284 3.73929 12.742 3.72572C12.7588 3.70888 12.79 3.69095 12.8322 3.69095C12.8744 3.69095 12.9056 3.70888 12.9224 3.72572C12.936 3.73929 12.9503 3.76217 12.9553 3.79262C12.9559 3.79639 12.9564 3.80028 12.9567 3.80429C12.9564 3.80829 12.9559 3.81218 12.9553 3.81595C12.9503 3.84641 12.936 3.86929 12.9224 3.88285C12.9056 3.89969 12.8744 3.91762 12.8322 3.91762Z" fill="black" stroke="black" stroke-width="2"/>
</svg>
