<svg width="22" height="21" viewBox="0 0 22 21" fill="none" xmlns="http://www.w3.org/2000/svg">
<path d="M15 13V13.5M10.25 15.25H11.75L11 16L10.25 15.25Z" stroke="#1C1D1F" stroke-width="2" stroke-linecap="round" stroke-linejoin="round"/>
<path d="M3.42 10.247C3.14064 11.3278 2.99952 12.4397 3 13.556C3 17.728 6.582 20 11 20C15.418 20 19 17.728 19 13.556C18.995 12.4351 18.829 11.3207 18.507 10.247M7 13V13.5" stroke="#1C1D1F" stroke-width="2" stroke-linecap="round" stroke-linejoin="round"/>
<path d="M7.49998 7.5C7.11598 8.55 6.41698 9.528 5.15598 10C3.22498 10.722 1.57998 9.703 1.49998 9C1.38698 8.006 2.67698 2.47 5.49998 2C7.42298 1.679 9.15098 2.845 9.15098 4.235C10.4158 3.91392 11.7425 3.92839 13 4.277C13 2.887 14.844 1.679 16.767 2C19.59 2.47 20.88 8.006 20.767 9C20.687 9.703 19.042 10.722 17.111 10C15.85 9.528 15.256 8.55 14.872 7.5" stroke="#1C1D1F" stroke-width="2" stroke-linecap="round" stroke-linejoin="round"/>
</svg>
