<svg width="24" height="24" viewBox="0 0 24 24" fill="none" xmlns="http://www.w3.org/2000/svg">
<path d="M16 14V14.5M11.25 16.25H12.75L12 17L11.25 16.25Z" stroke="#9EA3A7" stroke-width="2" stroke-linecap="round" stroke-linejoin="round"/>
<path d="M4.42 11.247C4.14064 12.3278 3.99952 13.4397 4 14.556C4 18.728 7.582 21 12 21C16.418 21 20 18.728 20 14.556C19.995 13.4351 19.829 12.3207 19.507 11.247M8 14V14.5" stroke="#9EA3A7" stroke-width="2" stroke-linecap="round" stroke-linejoin="round"/>
<path d="M8.5 8.50003C8.116 9.55003 7.417 10.528 6.156 11C4.225 11.722 2.58 10.703 2.5 10C2.387 9.00603 3.677 3.47003 6.5 3.00003C8.423 2.67903 10.151 3.84503 10.151 5.23503C11.4158 4.91395 12.7425 4.92842 14 5.27703C14 3.88703 15.844 2.67903 17.767 3.00003C20.59 3.47003 21.88 9.00603 21.767 10C21.687 10.703 20.042 11.722 18.111 11C16.85 10.528 16.256 9.55003 15.872 8.50003" stroke="#9EA3A7" stroke-width="2" stroke-linecap="round" stroke-linejoin="round"/>
</svg>
