<svg width="25" height="25" viewBox="0 0 25 25" fill="none" xmlns="http://www.w3.org/2000/svg">
<g id="lucide:dog">
<g id="Group">
<path id="Vector" d="M16.25 14.5103V15.0103M11.5 16.7603H13L12.25 17.5103L11.5 16.7603Z" stroke="black" stroke-width="2" stroke-linecap="round" stroke-linejoin="round"/>
<path id="Vector_2" d="M4.67 11.7573C4.39064 12.8381 4.24952 13.95 4.25 15.0663C4.25 19.2383 7.832 21.5103 12.25 21.5103C16.668 21.5103 20.25 19.2383 20.25 15.0663C20.245 13.9454 20.079 12.831 19.757 11.7573M8.25 14.5103V15.0103" stroke="black" stroke-width="2" stroke-linecap="round" stroke-linejoin="round"/>
<path id="Vector_3" d="M8.74998 9.01022C8.36598 10.0602 7.66698 11.0382 6.40598 11.5102C4.47498 12.2322 2.82998 11.2132 2.74998 10.5102C2.63698 9.51622 3.92698 3.98022 6.74998 3.51022C8.67298 3.18922 10.401 4.35522 10.401 5.74522C11.6658 5.42414 12.9925 5.43862 14.25 5.78722C14.25 4.39722 16.094 3.18922 18.017 3.51022C20.84 3.98022 22.13 9.51622 22.017 10.5102C21.937 11.2132 20.292 12.2322 18.361 11.5102C17.1 11.0382 16.506 10.0602 16.122 9.01022" stroke="black" stroke-width="2" stroke-linecap="round" stroke-linejoin="round"/>
</g>
</g>
</svg>
