<svg width="31" height="31" viewBox="0 0 31 31" fill="none" xmlns="http://www.w3.org/2000/svg">
<path d="M8.24643 26.5011L19.5696 15.844L24.8982 21.1725M8.24643 26.5011H21.5678C23.775 26.5011 25.5643 24.7118 25.5643 22.5047V15.844M8.24643 26.5011C6.03926 26.5011 4.25 24.7118 4.25 22.5047V9.18326C4.25 6.9761 6.03926 5.18683 8.24643 5.18683H16.9054M24.2321 11.619L24.2321 7.85112M24.2321 7.85112L24.2321 4.08325M24.2321 7.85112L20.4643 7.85112M24.2321 7.85112L28 7.85112M12.2429 11.1815C12.2429 12.2851 11.3482 13.1797 10.2446 13.1797C9.14106 13.1797 8.24643 12.2851 8.24643 11.1815C8.24643 10.0779 9.14106 9.18326 10.2446 9.18326C11.3482 9.18326 12.2429 10.0779 12.2429 11.1815Z" stroke="#747D8F" stroke-width="2" stroke-linecap="round" stroke-linejoin="round"/>
</svg>
