<svg width="24" height="25" viewBox="0 0 24 25" fill="none" xmlns="http://www.w3.org/2000/svg">
<path d="M3 6.21628V11.1254H7.90909" stroke="#9EA3A7" stroke-width="1.63636" stroke-linecap="round" stroke-linejoin="round"/>
<path d="M21 19.3072V14.3981H16.0909" stroke="#9EA3A7" stroke-width="1.63636" stroke-linecap="round" stroke-linejoin="round"/>
<path d="M18.9464 10.3072C18.5314 9.13455 17.8262 8.08615 16.8964 7.25979C15.9667 6.43344 14.8428 5.85608 13.6296 5.58157C12.4164 5.30707 11.1534 5.34437 9.95848 5.68999C8.76358 6.03562 7.6757 6.67831 6.79636 7.55809L3 11.1254M21 14.3981L17.2036 17.9654C16.3243 18.8451 15.2364 19.4878 14.0415 19.8335C12.8466 20.1791 11.5836 20.2164 10.3704 19.9419C9.1572 19.6674 8.03329 19.09 7.10356 18.2637C6.17384 17.4373 5.46859 16.3889 5.05364 15.2163" stroke="#9EA3A7" stroke-width="1.63636" stroke-linecap="round" stroke-linejoin="round"/>
</svg>
