<svg width="24" height="24" viewBox="0 0 24 24" fill="none" xmlns="http://www.w3.org/2000/svg">
<g clip-path="url(#clip0_10899_50507)">
<path d="M10.9863 0.524338C11.5826 0.197422 12.3047 0.196103 12.9023 0.520432L21.9424 5.42668C22.593 5.77973 22.9953 6.46287 22.9883 7.20305L22.8975 16.828C22.8906 17.5516 22.4938 18.2155 21.8594 18.5634L12.9053 23.4726C12.3063 23.801 11.5804 23.801 10.9814 23.4726L2.03809 18.5693C1.3979 18.2181 1 17.5455 1 16.8154V7.18449C1 6.45427 1.39786 5.78174 2.03809 5.43059L10.9863 0.524338ZM13.168 5.49992C12.8471 5.49918 12.5587 5.61673 12.3291 5.83977C12.0972 6.06526 11.9706 6.35689 11.9805 6.68645C11.9901 7.00544 12.1217 7.28457 12.3477 7.50285L13.4297 8.54778H8.37207C7.86722 8.54837 7.41954 8.72817 7.05664 9.07805C6.69284 9.42882 6.50013 9.86917 6.5 10.373V16.3368L6.50586 16.456C6.53174 16.728 6.64743 16.9732 6.85059 17.1689C7.08113 17.3908 7.37051 17.4991 7.68457 17.4999C7.99981 17.5006 8.29041 17.3928 8.52148 17.1698C8.75348 16.9458 8.87207 16.6564 8.87207 16.3368V10.873H13.4307L12.3311 11.9345C12.1006 12.1563 11.9695 12.4448 11.9805 12.7753C11.9907 13.0786 12.1076 13.3493 12.3145 13.5673L12.3223 13.5741L12.3291 13.582C12.5517 13.7976 12.8299 13.9205 13.1436 13.9296C13.4672 13.9389 13.7559 13.8201 13.9854 13.5986L17.1553 10.5361L17.1562 10.537C17.2724 10.4263 17.3694 10.2904 17.4277 10.1288C17.4763 9.99422 17.4992 9.85464 17.5 9.71379C17.5007 9.56938 17.4771 9.42581 17.4258 9.28801C17.3671 9.13065 17.2721 8.99764 17.1582 8.88762L14.002 5.83977C13.773 5.61821 13.4868 5.50069 13.168 5.49992Z" fill="#1C1D1F"/>
</g>
<defs>
<clipPath id="clip0_10899_50507">
<rect width="24" height="24" fill="white"/>
</clipPath>
</defs>
</svg>
