<svg width="24" height="24" viewBox="0 0 24 24" fill="none" xmlns="http://www.w3.org/2000/svg">
<path d="M11 2C15.9706 2 20 6.02944 20 11C20 13.125 19.2619 15.0766 18.0303 16.6162L21.707 20.293C22.0972 20.6835 22.0974 21.3166 21.707 21.707C21.3166 22.0974 20.6835 22.0972 20.293 21.707L16.6162 18.0303C15.0766 19.2619 13.125 20 11 20C6.02944 20 2 15.9706 2 11C2 6.02944 6.02944 2 11 2ZM11.5068 17.9795C11.5764 17.9745 11.6459 17.9709 11.7148 17.9639C11.6459 17.9709 11.5764 17.9745 11.5068 17.9795ZM17.9189 12.0615C17.9031 12.1655 17.8856 12.2687 17.8652 12.3711C17.8856 12.2687 17.9031 12.1655 17.9189 12.0615ZM17.9189 12.0615C17.9363 11.9475 17.9511 11.8326 17.9629 11.7168C17.9511 11.8326 17.9363 11.9475 17.9189 12.0615Z" fill="black"/>
</svg>
