<svg width="26" height="24" viewBox="0 0 26 24" fill="none" xmlns="http://www.w3.org/2000/svg">
<path d="M18 8.66669H18.8333C19.7174 8.66669 20.5652 9.01788 21.1904 9.643C21.8155 10.2681 22.1667 11.116 22.1667 12C22.1667 12.8841 21.8155 13.7319 21.1904 14.357C20.5652 14.9822 19.7174 15.3334 18.8333 15.3334H18" stroke="#9EA3A7" stroke-width="1.66667" stroke-linecap="round" stroke-linejoin="round"/>
<path d="M4.66667 8.66669H18V16.1667C18 17.0507 17.6488 17.8986 17.0237 18.5237C16.3986 19.1488 15.5507 19.5 14.6667 19.5H8.00001C7.11595 19.5 6.2681 19.1488 5.64298 18.5237C5.01786 17.8986 4.66667 17.0507 4.66667 16.1667V8.66669Z" stroke="#9EA3A7" stroke-width="1.66667" stroke-linecap="round" stroke-linejoin="round"/>
<path d="M8 2.83331V5.33331" stroke="#9EA3A7" stroke-width="1.66667" stroke-linecap="round" stroke-linejoin="round"/>
<path d="M11.3333 2.83331V5.33331" stroke="#9EA3A7" stroke-width="1.66667" stroke-linecap="round" stroke-linejoin="round"/>
<path d="M14.6667 2.83331V5.33331" stroke="#9EA3A7" stroke-width="1.66667" stroke-linecap="round" stroke-linejoin="round"/>
<path d="M1.75 22H24.25" stroke="#9EA3A7" stroke-width="2" stroke-linecap="round"/>
</svg>
