<svg width="26" height="24" viewBox="0 0 26 24" fill="none" xmlns="http://www.w3.org/2000/svg">
<path d="M18 8.66666H18.8333C19.7174 8.66666 20.5652 9.01785 21.1904 9.64297C21.8155 10.2681 22.1667 11.1159 22.1667 12C22.1667 12.884 21.8155 13.7319 21.1904 14.357C20.5652 14.9821 19.7174 15.3333 18.8333 15.3333H18" stroke="#1C1D1F" stroke-width="1.66667" stroke-linecap="round" stroke-linejoin="round"/>
<path d="M4.66669 8.66666H18V16.1667C18 17.0507 17.6488 17.8986 17.0237 18.5237C16.3986 19.1488 15.5507 19.5 14.6667 19.5H8.00002C7.11597 19.5 6.26812 19.1488 5.643 18.5237C5.01788 17.8986 4.66669 17.0507 4.66669 16.1667V8.66666Z" stroke="#1C1D1F" stroke-width="1.66667" stroke-linecap="round" stroke-linejoin="round"/>
<path d="M8 2.83334V5.33334" stroke="#1C1D1F" stroke-width="1.66667" stroke-linecap="round" stroke-linejoin="round"/>
<path d="M11.3333 2.83334V5.33334" stroke="#1C1D1F" stroke-width="1.66667" stroke-linecap="round" stroke-linejoin="round"/>
<path d="M14.6667 2.83334V5.33334" stroke="#1C1D1F" stroke-width="1.66667" stroke-linecap="round" stroke-linejoin="round"/>
<path d="M1.75 22H24.25" stroke="#1C1D1F" stroke-width="2" stroke-linecap="round"/>
</svg>
