<svg width="25" height="25" viewBox="0 0 25 25" fill="none" xmlns="http://www.w3.org/2000/svg">
<g id="material-symbols:local-cafe-outline-rounded">
<path id="Vector" d="M5.75 21.5103C5.46667 21.5103 5.22934 21.4143 5.038 21.2223C4.84667 21.0303 4.75067 20.7929 4.75 20.5103C4.74934 20.2276 4.84534 19.9903 5.038 19.7983C5.23067 19.6063 5.468 19.5103 5.75 19.5103H19.75C20.0333 19.5103 20.271 19.6063 20.463 19.7983C20.655 19.9903 20.7507 20.2276 20.75 20.5103C20.7493 20.7929 20.6533 21.0306 20.462 21.2233C20.2707 21.4159 20.0333 21.5116 19.75 21.5103H5.75ZM8.75 17.5103C7.65 17.5103 6.70834 17.1186 5.925 16.3353C5.14167 15.5519 4.75 14.6103 4.75 13.5103V5.51025C4.75 4.96025 4.946 4.48959 5.338 4.09825C5.73 3.70692 6.20067 3.51092 6.75 3.51025H20.75C21.3 3.51025 21.771 3.70625 22.163 4.09825C22.555 4.49025 22.7507 4.96092 22.75 5.51025V8.51025C22.75 9.06025 22.5543 9.53125 22.163 9.92325C21.7717 10.3153 21.3007 10.5109 20.75 10.5103H18.75V13.5103C18.75 14.6103 18.3583 15.5519 17.575 16.3353C16.7917 17.1186 15.85 17.5103 14.75 17.5103H8.75ZM8.75 15.5103H14.75C15.3 15.5103 15.771 15.3146 16.163 14.9233C16.555 14.5319 16.7507 14.0609 16.75 13.5103V5.51025H6.75V13.5103C6.75 14.0603 6.946 14.5313 7.338 14.9233C7.73 15.3153 8.20067 15.5109 8.75 15.5103ZM18.75 8.51025H20.75V5.51025H18.75V8.51025ZM8.75 15.5103H6.75H16.75H8.75Z" fill="black"/>
</g>
</svg>
