<svg width="26" height="24" viewBox="0 0 26 24" fill="none" xmlns="http://www.w3.org/2000/svg">
<path d="M18 8.66675H18.8333C19.7174 8.66675 20.5652 9.01794 21.1904 9.64306C21.8155 10.2682 22.1667 11.116 22.1667 12.0001C22.1667 12.8841 21.8155 13.732 21.1904 14.3571C20.5652 14.9822 19.7174 15.3334 18.8333 15.3334H18" stroke="#1C1D1F" stroke-width="1.66667" stroke-linecap="round" stroke-linejoin="round"/>
<path d="M4.66699 8.66675H18.0003V16.1667C18.0003 17.0508 17.6491 17.8986 17.024 18.5238C16.3989 19.1489 15.551 19.5001 14.667 19.5001H8.00033C7.11627 19.5001 6.26842 19.1489 5.6433 18.5238C5.01818 17.8986 4.66699 17.0508 4.66699 16.1667V8.66675Z" stroke="#1C1D1F" stroke-width="1.66667" stroke-linecap="round" stroke-linejoin="round"/>
<path d="M8 2.83325V5.33325" stroke="#1C1D1F" stroke-width="1.66667" stroke-linecap="round" stroke-linejoin="round"/>
<path d="M11.333 2.83325V5.33325" stroke="#1C1D1F" stroke-width="1.66667" stroke-linecap="round" stroke-linejoin="round"/>
<path d="M14.667 2.83325V5.33325" stroke="#1C1D1F" stroke-width="1.66667" stroke-linecap="round" stroke-linejoin="round"/>
<path d="M1.75 22H24.25" stroke="#1C1D1F" stroke-width="2" stroke-linecap="round"/>
</svg>
