<svg width="9" height="10" viewBox="0 0 9 10" fill="none" xmlns="http://www.w3.org/2000/svg">
<g id="Icon/Fill type/37">
<path id="Vector" fill-rule="evenodd" clip-rule="evenodd" d="M4.39778 1.58059L5.17578 3.33716C5.2383 3.47836 5.35933 3.57634 5.49941 3.59906L7.23896 3.88071C7.59134 3.93771 7.73243 4.42091 7.477 4.69771L6.21823 6.06497C6.16834 6.11919 6.13102 6.1861 6.10947 6.25995C6.08792 6.3338 6.0828 6.41238 6.09453 6.48893L6.39175 8.41948C6.45193 8.81103 6.0835 9.10906 5.76822 8.92465L4.21223 8.01303C4.15058 7.97687 4.08196 7.95798 4.01229 7.95798C3.94263 7.95798 3.87401 7.97687 3.81236 8.01303L2.25637 8.92465C1.94076 9.10906 1.57232 8.81103 1.6325 8.41948L1.92973 6.48893C1.94143 6.41238 1.93629 6.33381 1.91474 6.25997C1.89319 6.18612 1.85589 6.11921 1.80602 6.06497L0.547253 4.69771C0.292156 4.42091 0.432911 3.93771 0.785634 3.88071L2.52484 3.59906C2.66493 3.57634 2.78629 3.47836 2.84881 3.33716L3.62647 1.58059C3.78428 1.22444 4.23998 1.22444 4.39778 1.58059Z" fill="#151515"/>
</g>
</svg>
