<svg width="16" height="15" viewBox="0 0 16 15" fill="none" xmlns="http://www.w3.org/2000/svg">
<path id="Icon" d="M14.2613 2.51817C13.8996 2.15622 13.47 1.86909 12.9972 1.67319C12.5244 1.47729 12.0177 1.37646 11.5059 1.37646C10.9942 1.37646 10.4874 1.47729 10.0146 1.67319C9.54185 1.86909 9.1123 2.15622 8.75051 2.51817L7.99968 3.26901L7.24884 2.51817C6.51806 1.78739 5.52691 1.37684 4.49343 1.37684C3.45995 1.37684 2.46879 1.78739 1.73801 2.51817C1.00723 3.24896 0.59668 4.24011 0.59668 5.27359C0.59668 6.30707 1.00723 7.29823 1.73801 8.02901L7.99968 14.2907L14.2613 8.02901C14.6233 7.66722 14.9104 7.23767 15.1063 6.76488C15.3022 6.2921 15.4031 5.78535 15.4031 5.27359C15.4031 4.76183 15.3022 4.25508 15.1063 3.7823C14.9104 3.30951 14.6233 2.87996 14.2613 2.51817Z" stroke="black" stroke-linecap="round" stroke-linejoin="round"/>
</svg>
