<svg width="24" height="25" viewBox="0 0 24 25" fill="none" xmlns="http://www.w3.org/2000/svg">
<path d="M3 6.3335H5M5 6.3335H21M5 6.3335V20.3335C5 20.8639 5.21071 21.3726 5.58579 21.7477C5.96086 22.1228 6.46957 22.3335 7 22.3335H17C17.5304 22.3335 18.0391 22.1228 18.4142 21.7477C18.7893 21.3726 19 20.8639 19 20.3335V6.3335M8 6.3335V4.3335C8 3.80306 8.21071 3.29436 8.58579 2.91928C8.96086 2.54421 9.46957 2.3335 10 2.3335H14C14.5304 2.3335 15.0391 2.54421 15.4142 2.91928C15.7893 3.29436 16 3.80306 16 4.3335V6.3335M10 11.3335V17.3335M14 11.3335V17.3335" stroke="#1E1E1E" stroke-width="2" stroke-linecap="round" stroke-linejoin="round"/>
</svg>
