<svg width="24" height="24" viewBox="0 0 24 24" fill="none" xmlns="http://www.w3.org/2000/svg">
<path d="M16 1C16.5523 1 17 1.44772 17 2V3H19C20.6569 3 22 4.34315 22 6V20C22 21.6569 20.6569 23 19 23H5C3.34315 23 2 21.6569 2 20V6C2 4.34315 3.34315 3 5 3H7V2C7 1.44772 7.44772 1 8 1C8.55228 1 9 1.44772 9 2V3H15V2C15 1.44772 15.4477 1 16 1ZM4 20C4 20.5523 4.44772 21 5 21H19C19.5523 21 20 20.5523 20 20V11H4V20ZM14.293 12.293C14.6835 11.9024 15.3165 11.9024 15.707 12.293C16.0976 12.6835 16.0976 13.3165 15.707 13.707L13.4141 16L15.707 18.293C16.0976 18.6835 16.0976 19.3165 15.707 19.707C15.3165 20.0976 14.6835 20.0976 14.293 19.707L12 17.4141L9.70703 19.707C9.31651 20.0976 8.68349 20.0976 8.29297 19.707C7.90244 19.3165 7.90244 18.6835 8.29297 18.293L10.5859 16L8.29297 13.707C7.90244 13.3165 7.90244 12.6835 8.29297 12.293C8.68349 11.9024 9.31651 11.9024 9.70703 12.293L12 14.5859L14.293 12.293ZM5 5C4.44772 5 4 5.44772 4 6V9H20V6C20 5.44772 19.5523 5 19 5H17V6C17 6.55228 16.5523 7 16 7C15.4477 7 15 6.55228 15 6V5H9V6C9 6.55228 8.55228 7 8 7C7.44772 7 7 6.55228 7 6V5H5Z" fill="#FE4401"/>
</svg>
