<svg width="26" height="27" viewBox="0 0 26 27" fill="none" xmlns="http://www.w3.org/2000/svg">
<g id="mdi:book-check">
<path id="Vector" d="M18.1455 24.34L15.1663 21.09L16.423 19.8333L18.1455 21.5558L22.0347 17.6667L23.2913 19.1942L18.1455 24.34ZM6.49967 24.1667C5.92504 24.1667 5.37394 23.9384 4.96761 23.5321C4.56128 23.1257 4.33301 22.5746 4.33301 22V4.66667C4.33301 3.46417 5.29717 2.5 6.49967 2.5H7.58301V10.0833L10.2913 8.45833L12.9997 10.0833V2.5H19.4997C20.0743 2.5 20.6254 2.72827 21.0317 3.1346C21.4381 3.54093 21.6663 4.09203 21.6663 4.66667V14.785C20.4132 14.3433 19.0548 14.296 17.7739 14.6494C16.4931 15.0027 15.3511 15.7398 14.5017 16.7615C13.6522 17.7833 13.136 19.0406 13.0224 20.3644C12.9088 21.6883 13.2033 23.0152 13.8663 24.1667H6.49967Z" fill="#007AFF"/>
</g>
</svg>
