<svg width="25" height="24" viewBox="0 0 25 24" fill="none" xmlns="http://www.w3.org/2000/svg">
<g id="Group 303">
<path id="Rectangle 4213" d="M22.125 9.73301V4.13301C22.125 3.15292 22.125 2.66287 21.9343 2.28852C21.7665 1.95924 21.4988 1.69152 21.1695 1.52375C20.7951 1.33301 20.3051 1.33301 19.325 1.33301H3.925C2.94491 1.33301 2.45486 1.33301 2.08052 1.52375C1.75123 1.69152 1.48352 1.95924 1.31574 2.28852C1.125 2.66287 1.125 3.15292 1.125 4.13301V15.333C1.125 16.3131 1.125 16.8031 1.31574 17.1775C1.48352 17.5068 1.75123 17.7745 2.08052 17.9423C2.45486 18.133 2.94491 18.133 3.925 18.133H15.125" stroke="#7153DD" stroke-width="1.75" stroke-linecap="round"/>
<path id="Vector 406" d="M6.72461 12.5332H12.3246" stroke="#7153DD" stroke-width="1.75" stroke-linecap="round"/>
<path id="Vector 407" d="M6.72461 6.93262H16.5246" stroke="#7153DD" stroke-width="1.75" stroke-linecap="round"/>
<circle id="Ellipse 189" cx="20.7248" cy="15.3332" r="1.925" stroke="#7153DD" stroke-width="1.75"/>
<path id="Vector 480" d="M23.5248 22.3326C23.5248 22.3326 22.8248 20.9326 20.7248 20.9326C18.6248 20.9326 17.9248 22.3326 17.9248 22.3326" stroke="#7153DD" stroke-width="1.75" stroke-linecap="round"/>
</g>
</svg>
