<svg width="24" height="24" viewBox="0 0 24 24" fill="none" xmlns="http://www.w3.org/2000/svg">
<path d="M18 8H19C20.0609 8 21.0783 8.42143 21.8284 9.17157C22.5786 9.92172 23 10.9391 23 12C23 13.0609 22.5786 14.0783 21.8284 14.8284C21.0783 15.5786 20.0609 16 19 16H18" stroke="#FE4401" stroke-width="2" stroke-linecap="round" stroke-linejoin="round"/>
<path d="M2.00098 8H18.001V17C18.001 18.0609 17.5795 19.0783 16.8294 19.8284C16.0793 20.5786 15.0618 21 14.001 21H6.00098C4.94011 21 3.92269 20.5786 3.17255 19.8284C2.4224 19.0783 2.00098 18.0609 2.00098 17V8Z" stroke="#FE4401" stroke-width="2" stroke-linecap="round" stroke-linejoin="round"/>
<path d="M6 1V4" stroke="#FE4401" stroke-width="2" stroke-linecap="round" stroke-linejoin="round"/>
<path d="M10.001 1V4" stroke="#FE4401" stroke-width="2" stroke-linecap="round" stroke-linejoin="round"/>
<path d="M14.001 1V4" stroke="#FE4401" stroke-width="2" stroke-linecap="round" stroke-linejoin="round"/>
</svg>
