<svg width="32" height="26" viewBox="0 0 32 26" fill="none" xmlns="http://www.w3.org/2000/svg">
<g id="Home">
<g id="Icon">
<path d="M4.31738 9.53766L16.0736 2.22266L27.8299 9.53766V21.0327C27.8299 21.587 27.5546 22.1186 27.0647 22.5105C26.5748 22.9025 25.9103 23.1227 25.2174 23.1227H6.92988C6.237 23.1227 5.57251 22.9025 5.08257 22.5105C4.59263 22.1186 4.31738 21.587 4.31738 21.0327V9.53766Z" fill="#7153DD"/>
<path d="M12.1549 23.1227V12.6727H19.9924V23.1227" fill="#7153DD"/>
<path d="M12.1549 23.1227V12.6727H19.9924V23.1227M4.31738 9.53766L16.0736 2.22266L27.8299 9.53766V21.0327C27.8299 21.587 27.5546 22.1186 27.0647 22.5105C26.5748 22.9025 25.9103 23.1227 25.2174 23.1227H6.92988C6.237 23.1227 5.57251 22.9025 5.08257 22.5105C4.59263 22.1186 4.31738 21.587 4.31738 21.0327V9.53766Z" stroke="white" stroke-width="0.312349" stroke-linecap="round" stroke-linejoin="round"/>
</g>
</g>
</svg>
