<svg width="28" height="29" viewBox="0 0 28 29" fill="none" xmlns="http://www.w3.org/2000/svg">
<g id="fluent:document-one-page-sparkle-20-filled" clip-path="url(#clip0_2280_10397)">
<path id="Vector" d="M20.8288 0.728192L21.316 2.22759C21.4672 2.6838 21.7231 3.09829 22.0632 3.4379C22.4033 3.77751 22.8182 4.03281 23.2746 4.18339L24.774 4.67059L24.8034 4.67899C24.9191 4.7197 25.0192 4.7953 25.0901 4.89536C25.1609 4.99541 25.199 5.11499 25.199 5.23759C25.199 5.36019 25.1609 5.47977 25.0901 5.57983C25.0192 5.67988 24.9191 5.75548 24.8034 5.79619L23.304 6.28339C22.8476 6.43397 22.4327 6.68927 22.0926 7.02888C21.7525 7.36849 21.4966 7.78298 21.3454 8.23919L20.8582 9.73719C20.8175 9.85284 20.7419 9.953 20.6418 10.0238C20.5418 10.0947 20.4222 10.1328 20.2996 10.1328C20.177 10.1328 20.0574 10.0947 19.9574 10.0238C19.8573 9.953 19.7817 9.85284 19.741 9.73719L19.2524 8.23919C19.1024 7.78196 18.8473 7.36625 18.5076 7.02539C18.1677 6.68387 17.7525 6.42685 17.2952 6.27499L15.7958 5.78779C15.6802 5.74708 15.58 5.67148 15.5092 5.57143C15.4383 5.47137 15.4002 5.35179 15.4002 5.22919C15.4002 5.10659 15.4383 4.98701 15.5092 4.88696C15.58 4.7869 15.6802 4.7113 15.7958 4.67059L17.2952 4.18339C17.7459 4.02874 18.1546 3.77161 18.4892 3.43224C18.8237 3.09287 19.0749 2.6805 19.223 2.22759L19.7102 0.729592C19.7506 0.61346 19.8262 0.512789 19.9264 0.441548C20.0266 0.370307 20.1465 0.332031 20.2695 0.332031C20.3925 0.332031 20.5124 0.370307 20.6126 0.441548C20.7128 0.512789 20.7884 0.61206 20.8288 0.728192ZM27.6958 11.833L26.6234 11.4858C26.298 11.377 26.0024 11.194 25.7599 10.9513C25.5174 10.7085 25.3347 10.4127 25.2262 10.0872L24.8762 9.01759C24.8472 8.9349 24.7933 8.86325 24.7218 8.81256C24.6503 8.76187 24.5648 8.73464 24.4772 8.73464C24.3896 8.73464 24.3041 8.76187 24.2326 8.81256C24.1612 8.86325 24.1072 8.9349 24.0782 9.01759L23.731 10.0872C23.6245 10.4106 23.4448 10.7051 23.2059 10.9477C22.9669 11.1903 22.6752 11.3744 22.3534 11.4858L21.2824 11.833C21.2003 11.8626 21.1294 11.9168 21.0793 11.9882C21.0291 12.0596 21.0022 12.1447 21.0022 12.232C21.0022 12.3192 21.0291 12.4044 21.0793 12.4758C21.1294 12.5472 21.2003 12.6014 21.2824 12.631L22.3534 12.9796C22.6798 13.0884 22.9763 13.2719 23.2193 13.5154C23.4623 13.7589 23.6452 14.0558 23.7534 14.3824L24.1006 15.452C24.1296 15.5347 24.1836 15.6063 24.255 15.657C24.3265 15.7077 24.412 15.7349 24.4996 15.7349C24.5872 15.7349 24.6727 15.7077 24.7442 15.657C24.8157 15.6063 24.8696 15.5347 24.8986 15.452L25.2472 14.3824C25.3558 14.0567 25.5387 13.7608 25.7815 13.5181C26.0242 13.2753 26.3201 13.0924 26.6458 12.9838L27.7168 12.6366C27.7989 12.607 27.8698 12.5528 27.9199 12.4814C27.9701 12.41 27.997 12.3248 27.997 12.2376C27.997 12.1503 27.9701 12.0652 27.9199 11.9938C27.8698 11.9224 27.7989 11.8682 27.7168 11.8386L27.6958 11.833ZM8.39961 3.13339H16.0016L15.3296 3.34899C14.9393 3.4837 14.601 3.73743 14.3624 4.07446C14.1238 4.4115 13.9969 4.81487 13.9996 5.22779C13.9996 5.64779 14.1256 6.04119 14.3636 6.37719C14.6016 6.71319 14.9376 6.98059 15.3576 7.12059L16.8444 7.61059C17.0544 7.68199 17.2504 7.79399 17.5024 8.01799C17.6564 8.17199 17.7824 8.35399 17.9084 8.67739L17.9952 8.93919C17.9302 8.87398 17.853 8.82223 17.7679 8.78691C17.6829 8.7516 17.5917 8.73341 17.4996 8.73339H10.4996C10.314 8.73339 10.1359 8.80714 10.0046 8.93842C9.87336 9.06969 9.79961 9.24774 9.79961 9.43339C9.79961 9.61904 9.87336 9.79709 10.0046 9.92837C10.1359 10.0596 10.314 10.1334 10.4996 10.1334H17.4996C17.6676 10.1335 17.8301 10.0732 17.9573 9.96343C18.0846 9.85368 18.1681 9.70182 18.1926 9.53559L18.4138 10.2062C18.5398 10.5562 18.7638 10.8782 19.1418 11.1736C19.3378 11.3136 19.5478 11.4116 19.7718 11.4676C19.6598 11.7056 19.6038 11.973 19.6038 12.239C19.6038 12.617 19.7158 12.9824 19.9398 13.2918C20.1652 13.5998 20.4732 13.8238 20.8512 13.9638L21.9166 14.3138C22.0286 14.3558 22.1406 14.4258 22.2246 14.5098C22.3086 14.5812 22.3604 14.6722 22.3996 14.7646V22.7334C22.3996 23.476 22.1046 24.1882 21.5795 24.7133C21.0544 25.2384 20.3422 25.5334 19.5996 25.5334H8.39961C7.657 25.5334 6.94481 25.2384 6.41971 24.7133C5.89461 24.1882 5.59961 23.476 5.59961 22.7334V5.93339C5.59961 5.19079 5.89461 4.47859 6.41971 3.95349C6.94481 3.42839 7.657 3.13339 8.39961 3.13339ZM9.79961 19.2334C9.79961 19.419 9.87336 19.5971 10.0046 19.7284C10.1359 19.8596 10.314 19.9334 10.4996 19.9334H17.4996C17.6853 19.9334 17.8633 19.8596 17.9946 19.7284C18.1259 19.5971 18.1996 19.419 18.1996 19.2334C18.1996 19.0477 18.1259 18.8697 17.9946 18.7384C17.8633 18.6071 17.6853 18.5334 17.4996 18.5334H10.4996C10.314 18.5334 10.1359 18.6071 10.0046 18.7384C9.87336 18.8697 9.79961 19.0477 9.79961 19.2334ZM17.4996 13.6334H10.4996C10.314 13.6334 10.1359 13.7071 10.0046 13.8384C9.87336 13.9697 9.79961 14.1477 9.79961 14.3334C9.79961 14.519 9.87336 14.6971 10.0046 14.8284C10.1359 14.9596 10.314 15.0334 10.4996 15.0334H17.4996C17.6853 15.0334 17.8633 14.9596 17.9946 14.8284C18.1259 14.6971 18.1996 14.519 18.1996 14.3334C18.1996 14.1477 18.1259 13.9697 17.9946 13.8384C17.8633 13.7071 17.6853 13.6334 17.4996 13.6334Z" fill="#FA0004"/>
</g>
<defs>
<clipPath id="clip0_2280_10397">
<rect width="28" height="28" fill="white" transform="translate(0 0.333008)"/>
</clipPath>
</defs>
</svg>
