<svg width="24" height="26" viewBox="0 0 24 26" fill="none" xmlns="http://www.w3.org/2000/svg">
<g id="Order_fill">
<path id="Subtract" d="M18.5879 25.333C20.4735 25.333 21.4171 25.3329 22.0029 24.7471C22.5884 24.1613 22.5879 23.2183 22.5879 21.333V4.33301C22.5879 2.44773 22.5884 1.50476 22.0029 0.918945C21.4171 0.333158 20.4735 0.333008 18.5879 0.333008H6C4.11438 0.333008 3.17172 0.333158 2.58594 0.918945C2.00015 1.50473 2 2.44739 2 4.33301V21.333C2 23.2186 2.00015 24.1613 2.58594 24.7471C3.17172 25.3329 4.11438 25.333 6 25.333H18.5879ZM7.88281 7.21484C7.33055 7.21484 6.88284 6.7671 6.88281 6.21484C6.88303 5.66275 7.33066 5.21484 7.88281 5.21484H13.7656L13.8672 5.21973C14.3712 5.271 14.7654 5.69732 14.7656 6.21484C14.7656 6.73251 14.3713 7.15865 13.8672 7.20996L13.7656 7.21484H7.88281ZM7.88281 13.0967C7.33053 13.0967 6.88281 12.649 6.88281 12.0967C6.88328 11.5448 7.33082 11.0967 7.88281 11.0967H16.7061L16.8086 11.1025C17.3124 11.1539 17.7056 11.5795 17.7061 12.0967C17.7061 12.6143 17.3126 13.0404 16.8086 13.0918L16.7061 13.0967H7.88281ZM7.88281 18.9795C7.33053 18.9795 6.88281 18.5318 6.88281 17.9795C6.88303 17.4274 7.33066 16.9795 7.88281 16.9795H16.7061L16.8086 16.9844C17.3125 17.0357 17.7058 17.462 17.7061 17.9795C17.7061 18.4971 17.3126 18.9232 16.8086 18.9746L16.7061 18.9795H7.88281Z" fill="#FFEF5E"/>
</g>
</svg>
