<svg width="225" height="173" viewBox="0 0 225 173" fill="none" xmlns="http://www.w3.org/2000/svg">
<path d="M179.672 93.4165C185.961 81.1211 181.092 66.0554 168.797 59.7665C156.501 53.4775 141.436 58.3468 135.147 70.6422L126.162 88.2075C119.873 100.503 124.743 115.569 137.038 121.858C149.334 128.146 164.399 123.277 170.688 110.982L179.672 93.4165Z" fill="#4351EC"/>
<path d="M207.65 93.8117C210.823 87.6076 208.366 80.0056 202.162 76.8323C195.958 73.659 188.356 76.116 185.183 82.3201L158.021 135.424C154.847 141.628 157.304 149.23 163.508 152.404C169.712 155.577 177.314 153.12 180.488 146.916L207.65 93.8117Z" fill="#4351EC"/>
<path d="M190.465 127.41C196.782 115.058 191.789 99.8715 179.437 93.5537C167.085 87.2359 151.848 92.0752 145.53 104.427L134.143 126.69C127.825 139.042 132.819 154.229 145.171 160.547C157.523 166.864 172.76 162.025 179.077 149.673L190.465 127.41Z" fill="#4351EC"/>
<path d="M140.657 59.5458C143.83 53.3417 141.373 45.7397 135.169 42.5664C128.965 39.3931 121.363 41.85 118.19 48.0542L91.0276 101.158C87.8543 107.362 90.3112 114.964 96.5154 118.138C102.72 121.311 110.321 118.854 113.495 112.65L140.657 59.5458Z" fill="#4351EC"/>
<path d="M145.582 104.325C151.871 92.0295 147.002 76.9638 134.707 70.6749C122.411 64.386 107.346 69.2552 101.057 81.5507L89.565 104.018C83.2761 116.313 88.1453 131.379 100.441 137.668C112.736 143.957 127.802 139.088 134.091 126.792L145.582 104.325Z" fill="#4351EC"/>
<rect width="22.9414" height="35.3297" rx="11.4707" transform="matrix(-0.8903 -0.455375 -0.455375 0.8903 180.593 86.415)" fill="white"/>
<rect width="22.9414" height="35.3297" rx="11.4707" transform="matrix(-0.8903 -0.455375 -0.455375 0.8903 160.168 75.9678)" fill="white"/>
<rect width="12.8472" height="20.1884" rx="6.42358" transform="matrix(-0.8903 -0.455375 -0.455375 0.8903 173.556 88.3477)" fill="black"/>
<rect width="12.8472" height="20.1884" rx="6.42358" transform="matrix(-0.8903 -0.455375 -0.455375 0.8903 153.133 77.9004)" fill="black"/>
<rect x="147.664" y="79.2314" width="2.45027" height="4.90055" rx="1.22514" transform="rotate(27.0891 147.664 79.2314)" fill="white"/>
<rect x="168.389" y="89.832" width="2.45027" height="4.90055" rx="1.22514" transform="rotate(27.0891 168.389 89.832)" fill="white"/>
<rect width="25.7279" height="18.377" rx="9.18852" transform="matrix(-0.93916 -0.343481 -0.343481 0.93916 174.868 102.285)" fill="#4351EC"/>
<rect width="25.7279" height="18.377" rx="9.18852" transform="matrix(-0.828167 -0.560481 -0.560481 0.828167 153.083 94.6807)" fill="#4351EC"/>
<rect x="31.6197" y="46.6226" width="79.6339" height="105.362" rx="3.67541" fill="white" stroke="#CACDD2" stroke-width="2.45027"/>
<g clip-path="url(#clip0_7077_18720)">
<rect x="38.9707" y="53.9736" width="39.2044" height="39.2044" rx="2.45027" fill="#CACDD2"/>
<path d="M67.0088 75.937C67.0088 71.2499 63.2092 67.4502 58.5221 67.4502C53.8349 67.4502 50.0353 71.2499 50.0353 75.937V82.633C50.0353 87.3201 53.8349 91.1197 58.5221 91.1197C63.2092 91.1197 67.0088 87.3201 67.0088 82.633V75.937Z" fill="#4351EC"/>
<path d="M75.5234 71.7325C75.5234 69.3675 73.6062 67.4502 71.2411 67.4502C68.8761 67.4502 66.9588 69.3675 66.9588 71.7325V91.9762C66.9588 94.3413 68.8761 96.2585 71.2411 96.2585C73.6062 96.2585 75.5234 94.3413 75.5234 91.9762V71.7325Z" fill="#4351EC"/>
<path d="M75.5234 84.5405C75.5234 79.8319 71.6674 76.0148 66.9588 76.0148C62.2502 76.0148 58.3942 79.8319 58.3942 84.5405V93.0273C58.3942 97.7359 62.2502 101.553 66.9588 101.553C71.6674 101.553 75.5234 97.7359 75.5234 93.0273V84.5405Z" fill="#4351EC"/>
<path d="M49.9853 71.7325C49.9853 69.3675 48.068 67.4502 45.7029 67.4502C43.3379 67.4502 41.4206 69.3675 41.4206 71.7325V91.9762C41.4206 94.3413 43.3379 96.2585 45.7029 96.2585C48.068 96.2585 49.9853 94.3413 49.9853 91.9762V71.7325Z" fill="#4351EC"/>
<path d="M58.3942 84.5016C58.3942 79.8145 54.5945 76.0148 49.9074 76.0148C45.2203 76.0148 41.4206 79.8145 41.4206 84.5016V93.0662C41.4206 97.7534 45.2203 101.553 49.9074 101.553C54.5945 101.553 58.3942 97.7534 58.3942 93.0662V84.5016Z" fill="#4351EC"/>
<rect width="7.78603" height="11.9905" rx="3.89302" transform="matrix(-1 0 0 1 66.2051 73.6807)" fill="white"/>
<rect width="7.78603" height="11.9905" rx="3.89302" transform="matrix(-1 0 0 1 58.418 73.6807)" fill="white"/>
<rect width="4.36018" height="6.85171" rx="2.18009" transform="matrix(-1 0 0 1 64.377 75.3516)" fill="black"/>
<rect width="4.36018" height="6.85171" rx="2.18009" transform="matrix(-1 0 0 1 56.5918 75.3516)" fill="black"/>
<rect x="55.1445" y="76.5986" width="0.831594" height="1.66319" rx="0.415797" fill="white"/>
<rect x="63.0449" y="76.5986" width="0.831594" height="1.66319" rx="0.415797" fill="white"/>
<rect width="8.73174" height="6.23696" rx="3.11848" transform="matrix(-0.992546 0.121869 0.121869 0.992546 66.9268 79.3594)" fill="#4351EC"/>
<rect width="8.73174" height="6.23696" rx="3.11848" transform="matrix(-0.992546 -0.121869 -0.121869 0.992546 59.168 80.4297)" fill="#4351EC"/>
</g>
<path d="M83.0752 56.4238H105.128" stroke="#CACDD2" stroke-width="2.45027" stroke-linecap="round"/>
<path d="M83.0752 61.3242H105.128" stroke="#CACDD2" stroke-width="2.45027" stroke-linecap="round"/>
<path d="M83.0752 66.2227H105.128" stroke="#CACDD2" stroke-width="2.45027" stroke-linecap="round"/>
<path d="M83.0752 71.123H105.128" stroke="#CACDD2" stroke-width="2.45027" stroke-linecap="round"/>
<path d="M83.0752 76.0244H105.128" stroke="#CACDD2" stroke-width="2.45027" stroke-linecap="round"/>
<path d="M83.0752 80.9248H105.128" stroke="#CACDD2" stroke-width="2.45027" stroke-linecap="round"/>
<path d="M83.0752 85.8252H105.128" stroke="#CACDD2" stroke-width="2.45027" stroke-linecap="round"/>
<path d="M83.0752 90.7256H105.128" stroke="#CACDD2" stroke-width="2.45027" stroke-linecap="round"/>
<rect x="38.9707" y="98.0762" width="67.3825" height="6.12568" rx="3.06284" fill="#CACDD2"/>
<rect x="38.9707" y="109.103" width="67.3825" height="6.12568" rx="3.06284" fill="#CACDD2"/>
<rect x="38.9707" y="120.129" width="67.3825" height="6.12568" rx="3.06284" fill="#CACDD2"/>
<rect x="38.9707" y="131.155" width="67.3825" height="6.12568" rx="3.06284" fill="#CACDD2"/>
<circle cx="109.416" cy="96.2393" r="9.18852" fill="#4351EC"/>
<path d="M39.7726 97.1163C39.7726 102.191 35.6587 106.305 30.584 106.305C25.5093 106.305 23.3701 102.191 23.3701 97.1163C23.3701 92.0416 25.5093 87.9277 30.584 87.9277C35.6587 87.9277 39.7726 92.0416 39.7726 97.1163Z" fill="#4351EC"/>
<rect x="12.8799" y="44.7979" width="4" height="9" transform="rotate(-44.3793 12.8799 44.7979)" fill="#FE4401"/>
<rect x="150.092" y="21.7217" width="4" height="9" transform="rotate(-70.0768 150.092 21.7217)" fill="#87986C"/>
<rect x="144.183" y="10.4551" width="4" height="9" transform="rotate(-140.605 144.183 10.4551)" fill="#87986C"/>
<rect x="158.138" y="26.9609" width="4" height="9" transform="rotate(13.1382 158.138 26.9609)" fill="#ADC4FA"/>
<rect x="187.809" y="30.9609" width="4" height="9" transform="rotate(75.5973 187.809 30.9609)" fill="#ADC4FA"/>
<rect x="209.825" y="42.2246" width="4" height="9" transform="rotate(117.991 209.825 42.2246)" fill="#87986C"/>
<rect x="197.907" y="49.8281" width="4" height="9" transform="rotate(42.0293 197.907 49.8281)" fill="#87986C"/>
<rect x="221.723" y="38.001" width="4" height="9" transform="rotate(42.0293 221.723 38.001)" fill="#ADC4FA"/>
<rect x="6.33203" y="56.2422" width="4" height="9" transform="rotate(42.0293 6.33203 56.2422)" fill="#87986C"/>
<rect x="18.3135" y="64.1973" width="4" height="9" transform="rotate(42.0293 18.3135 64.1973)" fill="#ADC4FA"/>
<rect x="26.2207" y="24" width="4" height="9" transform="rotate(15.0683 26.2207 24)" fill="#87986C"/>
<rect x="194.624" y="6.5459" width="4" height="9" transform="rotate(-55.214 194.624 6.5459)" fill="#ADC4FA"/>
<rect x="224.115" y="65.8838" width="4" height="9" transform="rotate(116.326 224.115 65.8838)" fill="#87986C"/>
<rect x="206.135" y="14.2607" width="4" height="9" transform="rotate(71.0217 206.135 14.2607)" fill="#FE4401"/>
<rect x="120.964" y="17.2236" width="4" height="9" transform="rotate(74.1653 120.964 17.2236)" fill="#ADC4FA"/>
<rect x="158.918" y="8.04492" width="4" height="9" transform="rotate(110.042 158.918 8.04492)" fill="#ADC4FA"/>
<rect x="81.3311" y="19.2236" width="4" height="9" transform="rotate(42.0293 81.3311 19.2236)" fill="#ADC4FA"/>
<rect x="89.9619" y="33.8047" width="4" height="9" transform="rotate(-76.5627 89.9619 33.8047)" fill="#ADC4FA"/>
<rect x="83.0918" y="11.7324" width="4" height="9" transform="rotate(-43.8596 83.0918 11.7324)" fill="#87986C"/>
<rect x="41.9502" y="23.0732" width="4" height="9" transform="rotate(-56.306 41.9502 23.0732)" fill="#87986C"/>
<rect x="51.3311" y="3.22363" width="4" height="9" transform="rotate(42.0293 51.3311 3.22363)" fill="#FE4401"/>
<rect x="10.209" y="29" width="4" height="9" transform="rotate(67.7575 10.209 29)" fill="#ADC4FA"/>
<defs>
<clipPath id="clip0_7077_18720">
<rect width="39.2044" height="39.2044" fill="white" transform="translate(38.9707 53.9736)"/>
</clipPath>
</defs>
</svg>
