<svg width="102" height="53" viewBox="0 0 102 53" fill="none" xmlns="http://www.w3.org/2000/svg">
<path d="M11.9466 11.4092C11.9466 5.10809 17.0547 0 23.3559 0C29.657 0 34.7651 5.10809 34.7651 11.4092V20.411C34.7651 26.7122 29.657 31.8203 23.3559 31.8203C17.0547 31.8203 11.9466 26.7122 11.9466 20.411V11.4092Z" fill="#FE4401"/>
<path d="M0.5 5.75695C0.5 2.57748 3.07748 0 6.25695 0C9.43643 0 12.0139 2.57748 12.0139 5.75695V32.9716C12.0139 36.1511 9.43643 38.7286 6.25695 38.7286C3.07748 38.7286 0.5 36.1511 0.5 32.9716V5.75695Z" fill="#FE4401"/>
<path d="M0.5 22.9755C0.5 16.6454 5.68386 11.5139 12.0139 11.5139C18.344 11.5139 23.5278 16.6454 23.5278 22.9755V34.3847C23.5278 40.7148 18.344 45.8463 12.0139 45.8463C5.68386 45.8463 0.5 40.7148 0.5 34.3847V22.9755Z" fill="#FE4401"/>
<path d="M34.8324 5.75695C34.8324 2.57748 37.4099 0 40.5893 0C43.7688 0 46.3463 2.57748 46.3463 5.75695V32.9716C46.3463 36.1511 43.7688 38.7286 40.5893 38.7286C37.4099 38.7286 34.8324 36.1511 34.8324 32.9716V5.75695Z" fill="#FE4401"/>
<path d="M23.5278 22.9231C23.5278 16.622 28.6359 11.5139 34.9371 11.5139C41.2382 11.5139 46.3463 16.622 46.3463 22.9231V34.4371C46.3463 40.7382 41.2382 45.8463 34.9371 45.8463C28.6359 45.8463 23.5278 40.7382 23.5278 34.4371V22.9231Z" fill="#FE4401"/>
<path d="M48.4395 16.6952C48.4395 10.3651 53.6233 5.2336 59.9534 5.2336C66.2834 5.2336 71.4673 10.3651 71.4673 16.6952V34.3847C71.4673 40.7148 66.2834 45.8463 59.9534 45.8463C53.6233 45.8463 48.4395 40.7148 48.4395 34.3847V16.6952Z" fill="#FE4401"/>
<path d="M71.4673 16.6428C71.4673 10.3417 76.5754 5.2336 82.8765 5.2336C89.1777 5.2336 94.2857 10.3417 94.2857 16.6428V34.4371C94.2857 40.7382 89.1777 45.8463 82.8765 45.8463C76.5754 45.8463 71.4673 40.7382 71.4673 34.4371V16.6428Z" fill="#FE4401"/>
<path d="M48.4395 16.9568C48.4395 7.59184 56.0313 0 65.3963 0H77.3289C86.6939 0 94.2857 7.59184 94.2857 16.9568C94.2857 26.3219 86.6939 33.9137 77.3289 33.9137H65.3963C56.0313 33.9137 48.4395 26.3219 48.4395 16.9568Z" fill="#FE4401"/>
<rect x="5.31543" y="8.37378" width="10.4672" height="16.1195" rx="5.2336" fill="white"/>
<rect x="15.7822" y="8.37378" width="10.4672" height="16.1195" rx="5.2336" fill="white"/>
<rect x="55.3477" y="8.37378" width="10.4672" height="16.1195" rx="5.2336" fill="white"/>
<rect x="65.8145" y="8.37378" width="10.4672" height="16.1195" rx="5.2336" fill="white"/>
<rect x="5.31543" y="13.1887" width="5.86163" height="9.21113" rx="2.93081" fill="#4351EC"/>
<rect x="15.7822" y="13.1887" width="5.86163" height="9.21113" rx="2.93081" fill="#4351EC"/>
<rect x="58.6982" y="10.6768" width="5.86163" height="9.21113" rx="2.93081" fill="#4351EC"/>
<rect x="69.165" y="10.6768" width="5.86163" height="9.21113" rx="2.93081" fill="#4351EC"/>
<rect x="93.4824" y="2.29712" width="10.9615" height="48.2308" rx="4.38462" transform="rotate(30 93.4824 2.29712)" fill="#4351EC"/>
<path d="M73.8465 50.7583C72.385 51.6021 70.558 50.5473 70.558 48.8597L70.558 43.1639C70.558 41.4763 72.385 40.4215 73.8465 41.2653L78.7792 44.1132C80.2407 44.957 80.2407 47.0666 78.7792 47.9104L73.8465 50.7583Z" fill="#ADC4FA"/>
</svg>
