<svg width="24" height="24" viewBox="0 0 24 24" fill="none" xmlns="http://www.w3.org/2000/svg">
<path d="M5.03742 19.2V13.8C5.03742 11.8904 5.77098 10.0591 7.07672 8.70883C8.38245 7.35857 10.1534 6.6 12 6.6C13.8466 6.6 15.6175 7.35857 16.9233 8.70883C18.229 10.0591 18.9626 11.8904 18.9626 13.8V19.2H19.8329V21H4.1671V19.2H5.03742ZM6.77807 19.2H17.2219V13.8C17.2219 12.3678 16.6718 10.9943 15.6925 9.98162C14.7132 8.96893 13.3849 8.4 12 8.4C10.6151 8.4 9.28684 8.96893 8.30754 9.98162C7.32823 10.9943 6.77807 12.3678 6.77807 13.8V19.2ZM11.1297 3H12.8703V5.7H11.1297V3ZM18.7694 5.5272L20 6.7998L18.1549 8.7087L16.9234 7.4361L18.7694 5.5272ZM4 6.7998L5.23064 5.5272L7.07659 7.4352L5.84682 8.7096L4 6.7998ZM7.64839 13.8C7.64839 12.6065 8.10686 11.4619 8.92295 10.618C9.73903 9.77411 10.8459 9.3 12 9.3V11.1C11.3075 11.1 10.6434 11.3845 10.1538 11.8908C9.66412 12.3972 9.38903 13.0839 9.38903 13.8H7.64839Z" fill="#FE4401"/>
</svg>
