<svg width="25" height="25" viewBox="0 0 25 25" fill="none" xmlns="http://www.w3.org/2000/svg">
<g id="material-symbols:wifi" clip-path="url(#clip0_2280_11230)">
<path id="Vector" d="M12.5 21.5103C11.8 21.5103 11.2083 21.2686 10.725 20.7853C10.2417 20.3019 10 19.7103 10 19.0103C10 18.3103 10.2417 17.7186 10.725 17.2353C11.2083 16.7519 11.8 16.5103 12.5 16.5103C13.2 16.5103 13.7917 16.7519 14.275 17.2353C14.7583 17.7186 15 18.3103 15 19.0103C15 19.7103 14.7583 20.3019 14.275 20.7853C13.7917 21.2686 13.2 21.5103 12.5 21.5103ZM6.85 15.8603L4.75 13.7103C5.73333 12.7269 6.88767 11.9479 8.213 11.3733C9.53833 10.7986 10.9673 10.5109 12.5 10.5103C14.0327 10.5096 15.462 10.8013 16.788 11.3853C18.114 11.9693 19.268 12.7609 20.25 13.7603L18.15 15.8603C17.4167 15.1269 16.5667 14.5519 15.6 14.1353C14.6333 13.7186 13.6 13.5103 12.5 13.5103C11.4 13.5103 10.3667 13.7186 9.4 14.1353C8.43333 14.5519 7.58333 15.1269 6.85 15.8603ZM2.6 11.6103L0.5 9.51025C2.03333 7.94359 3.825 6.71859 5.875 5.83525C7.925 4.95192 10.1333 4.51025 12.5 4.51025C14.8667 4.51025 17.075 4.95192 19.125 5.83525C21.175 6.71859 22.9667 7.94359 24.5 9.51025L22.4 11.6103C21.1167 10.3269 19.6293 9.32292 17.938 8.59825C16.2467 7.87359 14.434 7.51092 12.5 7.51025C10.566 7.50959 8.75367 7.87225 7.063 8.59825C5.37233 9.32425 3.88467 10.3283 2.6 11.6103Z" fill="black"/>
</g>
<defs>
<clipPath id="clip0_2280_11230">
<rect width="24" height="24" fill="white" transform="translate(0.5 0.510254)"/>
</clipPath>
</defs>
</svg>
