<svg width="12" height="11" viewBox="0 0 12 11" fill="none" xmlns="http://www.w3.org/2000/svg">
<path d="M6.00402 8.78241L3.33587 10.3058C3.218 10.3769 3.09478 10.4074 2.96619 10.3972C2.8376 10.3871 2.72509 10.3465 2.62865 10.2754C2.53221 10.2043 2.45721 10.1155 2.40363 10.0091C2.35005 9.90263 2.33934 9.7832 2.37148 9.65076L3.0787 6.7715L0.715944 4.83676C0.608789 4.74536 0.541925 4.64115 0.51535 4.52416C0.488776 4.40716 0.496705 4.293 0.539139 4.18169C0.581572 4.07038 0.645865 3.97897 0.732017 3.90748C0.818169 3.83598 0.936039 3.79027 1.08563 3.77037L4.20383 3.51139L5.40931 0.799702C5.46289 0.677829 5.54604 0.586424 5.65877 0.525487C5.7715 0.46455 5.88658 0.434082 6.00402 0.434082C6.12146 0.434082 6.23655 0.46455 6.34927 0.525487C6.462 0.586424 6.54515 0.677829 6.59873 0.799702L7.80422 3.51139L10.9224 3.77037C11.0724 3.79068 11.1903 3.83638 11.276 3.90748C11.3618 3.97857 11.426 4.06997 11.4689 4.18169C11.5118 4.29341 11.5199 4.40777 11.4933 4.52476C11.4668 4.64176 11.3997 4.74576 11.2921 4.83676L8.92934 6.7715L9.63656 9.65076C9.66871 9.78279 9.65799 9.90223 9.60442 10.0091C9.55084 10.1159 9.47583 10.2047 9.37939 10.2754C9.28295 10.346 9.17044 10.3867 9.04186 10.3972C8.91327 10.4078 8.79004 10.3773 8.67217 10.3058L6.00402 8.78241Z" fill="#FFEF5E"/>
</svg>
