<svg width="160" height="160" viewBox="0 0 160 160" fill="none" xmlns="http://www.w3.org/2000/svg">
<path d="M42.9157 42.7951C42.9157 22.4737 59.3894 6 79.7108 6C100.032 6 116.506 22.4737 116.506 42.7951V71.826C116.506 92.1474 100.032 108.621 79.7108 108.621C59.3894 108.621 42.9157 92.1474 42.9157 71.826V42.7951Z" fill="#FE4401"/>
<path d="M6 24.5663C6 14.3124 14.3124 6 24.5663 6C34.8202 6 43.1326 14.3124 43.1326 24.5663V112.334C43.1326 122.588 34.8202 130.901 24.5663 130.901C14.3124 130.901 6 122.588 6 112.334V24.5663Z" fill="#FE4401"/>
<path d="M6 80.0965C6 59.6819 22.7181 43.1326 43.1326 43.1326C63.5472 43.1326 80.2653 59.6819 80.2653 80.0965V116.892C80.2653 137.306 63.5472 153.855 43.1326 153.855C22.7181 153.855 6 137.306 6 116.892V80.0965Z" fill="#FE4401"/>
<path d="M116.723 24.5663C116.723 14.3124 125.035 6 135.289 6C145.543 6 153.855 14.3124 153.855 24.5663V112.334C153.855 122.588 145.543 130.901 135.289 130.901C125.035 130.901 116.723 122.588 116.723 112.334V24.5663Z" fill="#FE4401"/>
<path d="M80.2653 79.9277C80.2653 59.6063 96.739 43.1326 117.06 43.1326C137.382 43.1326 153.855 59.6063 153.855 79.9277V117.06C153.855 137.382 137.382 153.855 117.06 153.855C96.739 153.855 80.2653 137.382 80.2653 117.06V79.9277Z" fill="#FE4401"/>
<rect x="21.5261" y="34.0044" width="33.7569" height="51.9857" rx="16.8785" fill="white"/>
<rect x="55.283" y="34.0044" width="33.7569" height="51.9857" rx="16.8785" fill="white"/>
<rect x="21.5261" y="49.5273" width="18.9039" height="29.7061" rx="9.45194" fill="#4351EC"/>
<rect x="55.283" y="49.5273" width="18.9039" height="29.7061" rx="9.45194" fill="#4351EC"/>
</svg>
