<svg width="51" height="24" viewBox="0 0 51 24" fill="none" xmlns="http://www.w3.org/2000/svg">
<path d="M6.94434 5.9726C6.94434 2.67403 9.61836 0 12.9169 0C16.2155 0 18.8895 2.67403 18.8895 5.9726V10.6849C18.8895 13.9835 16.2155 16.6575 12.9169 16.6575C9.61836 16.6575 6.94434 13.9835 6.94434 10.6849V5.9726Z" fill="#FE4401"/>
<path d="M0.952148 3.0137C0.952148 1.34928 2.30143 0 3.96585 0C5.63027 0 6.97955 1.34928 6.97955 3.0137V17.2603C6.97955 18.9247 5.63027 20.274 3.96585 20.274C2.30143 20.274 0.952148 18.9247 0.952148 17.2603V3.0137Z" fill="#FE4401"/>
<path d="M0.952148 12.0274C0.952148 8.71369 3.66584 6.0274 6.97955 6.0274C10.2933 6.0274 13.0069 8.71369 13.0069 12.0274V18C13.0069 21.3137 10.2933 24 6.97955 24C3.66584 24 0.952148 21.3137 0.952148 18V12.0274Z" fill="#FE4401"/>
<path d="M18.9248 3.0137C18.9248 1.34928 20.274 0 21.9384 0C23.6029 0 24.9521 1.34928 24.9521 3.0137V17.2603C24.9521 18.9247 23.6029 20.274 21.9384 20.274C20.274 20.274 18.9248 18.9247 18.9248 17.2603V3.0137Z" fill="#FE4401"/>
<path d="M13.0069 12C13.0069 8.70142 15.681 6.0274 18.9795 6.0274C22.2781 6.0274 24.9521 8.70142 24.9521 12V18.0274C24.9521 21.326 22.2781 24 18.9795 24C15.681 24 13.0069 21.326 13.0069 18.0274V12Z" fill="#FE4401"/>
<path d="M26.0479 8.73973C26.0479 5.42602 28.7615 2.73973 32.0752 2.73973C35.389 2.73973 38.1026 5.42602 38.1026 8.73973V18C38.1026 21.3137 35.389 24 32.0752 24C28.7615 24 26.0479 21.3137 26.0479 18V8.73973Z" fill="#FE4401"/>
<path d="M38.1026 8.71233C38.1026 5.41375 40.7767 2.73973 44.0752 2.73973C47.3738 2.73973 50.0479 5.41375 50.0479 8.71233V18.0274C50.0479 21.326 47.3738 24 44.0752 24C40.7767 24 38.1026 21.326 38.1026 18.0274V8.71233Z" fill="#FE4401"/>
<path d="M26.0479 8.87671C26.0479 3.97424 30.0221 0 34.9246 0H41.1711C46.0736 0 50.0479 3.97424 50.0479 8.87671C50.0479 13.7792 46.0736 17.7534 41.1711 17.7534H34.9246C30.0221 17.7534 26.0479 13.7792 26.0479 8.87671Z" fill="#FE4401"/>
<rect x="3.47266" y="4.38379" width="5.47945" height="8.43836" rx="2.73973" fill="white"/>
<rect x="8.95215" y="4.38379" width="5.47945" height="8.43836" rx="2.73973" fill="white"/>
<rect x="29.6641" y="4.38379" width="5.47945" height="8.43836" rx="2.73973" fill="white"/>
<rect x="35.1436" y="4.38379" width="5.47945" height="8.43836" rx="2.73973" fill="white"/>
<rect x="3.47266" y="6.9043" width="3.06849" height="4.82192" rx="1.53425" fill="#5361DB"/>
<rect x="8.95215" y="6.9043" width="3.06849" height="4.82192" rx="1.53425" fill="#5361DB"/>
<rect x="31.4189" y="5.58887" width="3.06849" height="4.82192" rx="1.53425" fill="#5361DB"/>
<rect x="36.8984" y="5.58887" width="3.06849" height="4.82192" rx="1.53425" fill="#5361DB"/>
</svg>
