<svg width="24" height="24" viewBox="0 0 24 24" fill="none" xmlns="http://www.w3.org/2000/svg">
<path d="M13.8887 20.7295C14.7294 20.7295 15.2549 21.6416 14.833 22.3691C14.2475 23.3786 13.1687 23.9999 12.002 24C10.8352 24 9.75643 23.3786 9.1709 22.3691C8.74905 21.6417 9.2736 20.7296 10.1143 20.7295H13.8887ZM12 0C16.82 0 20.7275 3.90902 20.7275 8.73047V14.1865C20.7277 15.3918 21.7043 16.3691 22.9092 16.3691C24.3637 16.3692 24.3637 18.5508 22.9092 18.5508H1.09082C-0.363607 18.5507 -0.363607 16.3692 1.09082 16.3691C2.29572 16.3691 3.27232 15.3918 3.27246 14.1865V8.73047C3.27246 3.90903 7.18006 2.07521e-05 12 0ZM11.999 2.1875C8.38406 2.1875 5.45313 5.11927 5.45313 8.73535V14.1914C5.45311 14.9864 5.24041 15.732 4.86914 16.374H19.1279C18.7567 15.732 18.544 14.9864 18.5439 14.1914V8.73535C18.5439 5.11939 15.6138 2.1877 11.999 2.1875Z" fill="#9EA3A7"/>
<mask id="mask0_11865_30864" style="mask-type:luminance" maskUnits="userSpaceOnUse" x="0" y="0" width="24" height="24">
<path d="M13.8887 20.7295C14.7294 20.7295 15.2549 21.6416 14.833 22.3691C14.2475 23.3786 13.1687 23.9999 12.002 24C10.8352 24 9.75643 23.3786 9.1709 22.3691C8.74905 21.6417 9.2736 20.7296 10.1143 20.7295H13.8887ZM12 0C16.82 0 20.7275 3.90902 20.7275 8.73047V14.1865C20.7277 15.3918 21.7043 16.3691 22.9092 16.3691C24.3637 16.3692 24.3637 18.5508 22.9092 18.5508H1.09082C-0.363607 18.5507 -0.363607 16.3692 1.09082 16.3691C2.29572 16.3691 3.27232 15.3918 3.27246 14.1865V8.73047C3.27246 3.90903 7.18006 2.07521e-05 12 0ZM11.999 2.1875C8.38406 2.1875 5.45313 5.11927 5.45313 8.73535V14.1914C5.45311 14.9864 5.24041 15.732 4.86914 16.374H19.1279C18.7567 15.732 18.544 14.9864 18.5439 14.1914V8.73535C18.5439 5.11939 15.6138 2.1877 11.999 2.1875Z" fill="white"/>
</mask>
<g mask="url(#mask0_11865_30864)">
</g>
</svg>
