<svg width="30" height="30" viewBox="0 0 30 30" fill="none" xmlns="http://www.w3.org/2000/svg">
<path d="M25.9405 10.2281C25.9405 10.334 25.9197 10.4388 25.8791 10.5367C25.8386 10.6345 25.7792 10.7234 25.7044 10.7982C25.6295 10.8731 25.5406 10.9325 25.4428 10.973C25.345 11.0135 25.2401 11.0344 25.1343 11.0344C25.0284 11.0344 24.9235 11.0135 24.8257 10.973C24.7279 10.9325 24.639 10.8731 24.5642 10.7982C24.4893 10.7234 24.4299 10.6345 24.3894 10.5367C24.3489 10.4388 24.328 10.334 24.328 10.2281C24.328 10.0143 24.413 9.80922 24.5642 9.65802C24.7154 9.50682 24.9204 9.42188 25.1343 9.42188C25.3481 9.42188 25.5532 9.50682 25.7044 9.65802C25.8556 9.80922 25.9405 10.0143 25.9405 10.2281ZM27.9468 12.1781C27.9468 12.4218 27.85 12.6555 27.6777 12.8278C27.5054 13.0001 27.2717 13.0969 27.028 13.0969C26.7843 13.0969 26.5507 13.0001 26.3784 12.8278C26.2061 12.6555 26.1093 12.4218 26.1093 12.1781C26.1093 11.9345 26.2061 11.7008 26.3784 11.5285C26.5507 11.3562 26.7843 11.2594 27.028 11.2594C27.2717 11.2594 27.5054 11.3562 27.6777 11.5285C27.85 11.7008 27.9468 11.9345 27.9468 12.1781ZM27.5099 23.0334C26.293 25.9706 22.9968 28.125 20.0155 28.125H4.61426C4.61426 28.125 18.178 23.8312 21.4686 17.7187C23.1561 14.5875 28.1249 15.8062 28.1249 19.9312C28.1267 20.9958 27.9177 22.0501 27.5099 23.0334ZM24.2061 15.1687C24.5169 15.1687 24.815 15.0453 25.0348 14.8255C25.2545 14.6057 25.378 14.3077 25.378 13.9969C25.378 13.6861 25.2545 13.388 25.0348 13.1682C24.815 12.9485 24.5169 12.825 24.2061 12.825C23.8953 12.825 23.5973 12.9485 23.3775 13.1682C23.1577 13.388 23.0343 13.6861 23.0343 13.9969C23.0343 14.3077 23.1577 14.6057 23.3775 14.8255C23.5973 15.0453 23.8953 15.1687 24.2061 15.1687Z" fill="#26C9FC"/>
<path d="M7.42663 12.1436C10.0704 11.7705 11.3594 10.0268 12.0991 8.25488C13.0957 8.25488 12.8463 11.0083 12.1216 11.7705C11.6004 12.318 9.94663 13.7411 7.6685 14.0243C7.031 13.5939 7.031 12.6564 7.42663 12.1436Z" fill="#007ACF"/>
<path d="M16.7791 9.38224C18.0804 9.33818 18.867 9.80693 19.2401 10.3929C19.5989 10.9502 19.7301 11.6241 19.6066 12.2754C19.6066 12.2754 19.376 12.2163 19.2513 12.3119C19.1266 12.4066 18.9513 12.7882 19.0057 13.0226C19.061 13.2569 19.2841 13.1866 19.2841 13.2569C19.2841 13.3263 19.0826 13.6413 19.2841 13.7838C19.4857 13.9263 19.526 13.8607 19.6432 13.9085C19.7604 13.9554 19.7716 14.0472 19.9066 14.0772C20.0426 14.1054 20.0941 14.0472 20.2001 14.0772C20.306 14.1054 20.3313 14.1832 20.486 14.1869C20.6407 14.1907 20.6501 14.1607 20.7673 14.1607C20.8845 14.1607 20.8226 14.231 21.086 14.231C21.3495 14.231 21.4713 13.8476 21.5388 13.346C21.5913 12.9569 21.5913 12.6429 21.5913 12.4638C21.5913 12.0532 21.6945 11.9407 21.5913 11.2497C21.0926 7.87849 18.341 7.30286 15.7695 7.30286C15.7695 7.30286 14.2882 7.22786 13.557 7.30286C13.3172 7.32649 13.0848 7.39849 12.8737 7.51451C12.6626 7.63053 12.4773 7.78816 12.3288 7.97786C11.4326 9.60443 11.9576 11.5347 12.5163 13.1904C12.6045 13.4126 12.5173 13.6497 12.4291 13.8719L6.65039 26.1035L9.48445 25.1004L9.57258 24.1113L14.3848 16.9488C14.6191 16.6207 15.0551 16.7454 15.146 16.9919C15.7226 18.5491 17.2704 20.6763 18.6401 21.8847L20.3173 21.2988C19.4285 19.9432 17.7279 17.7391 17.7279 15.8716V14.5122C17.7279 13.0179 16.9807 11.5685 16.481 10.1904C16.3966 9.85286 16.151 9.46661 16.7791 9.38224Z" fill="#0092E7"/>
<path d="M19.6065 12.2757C19.6383 12.1061 19.6524 11.792 19.6524 11.792L21.6343 11.8951C21.6343 11.8951 21.5911 12.2326 21.5911 12.4642C21.5911 12.6432 21.5911 12.9573 21.5386 13.3454C21.4711 13.8479 21.3493 14.2314 21.0858 14.2314C20.9274 14.2314 20.8871 14.2061 20.8543 14.1864C20.8291 14.1678 20.7982 14.1589 20.7671 14.1611C20.7146 14.1611 20.6827 14.1676 20.6508 14.1732C20.5966 14.1849 20.5412 14.1896 20.4858 14.1873C20.4189 14.1865 20.3538 14.1652 20.2993 14.1264C20.2687 14.1053 20.2352 14.0889 20.1999 14.0776C20.1565 14.0668 20.1112 14.0665 20.0677 14.0767C20.0146 14.0884 19.9596 14.0884 19.9064 14.0767C19.8485 14.0642 19.796 14.0336 19.7564 13.9895C19.7253 13.9547 19.6869 13.9272 19.644 13.9089C19.6018 13.892 19.569 13.8901 19.5371 13.8864C19.4771 13.8817 19.4152 13.877 19.2839 13.7842C19.1321 13.6764 19.2099 13.4692 19.2568 13.3454C19.2697 13.3173 19.2792 13.2877 19.2849 13.2573C19.2849 13.232 19.2558 13.2245 19.2155 13.2151C19.1452 13.1982 19.0411 13.1729 19.0055 13.0229C18.9511 12.7886 19.1274 12.407 19.2511 12.3123C19.3758 12.2167 19.6074 12.2748 19.6074 12.2748M6.48426 12.0901C6.2602 12.062 6.04457 12.0339 5.85145 12.0339C5.30207 12.0339 4.87739 12.3264 4.68707 12.5832C4.63082 12.6582 4.66551 12.7773 4.66551 12.7773C4.52957 12.842 4.28114 13.0557 4.37489 13.3923C4.3702 13.3717 4.07489 13.6736 4.24739 13.9454C4.35051 14.0917 4.48364 14.1067 4.53707 14.0954C4.53707 14.0954 4.54364 14.1948 4.68707 14.3157C4.76395 14.372 5.00582 14.387 5.14082 14.2501C5.16832 14.2214 5.19551 14.1907 5.22239 14.1582C5.36301 13.9951 5.52895 13.8039 5.96114 13.8095C5.78957 13.9454 5.45582 14.2501 5.7202 14.5642C5.85145 14.7217 6.15614 14.7104 6.36426 14.5351L6.87332 14.0739C7.06832 14.0739 7.26614 14.057 7.4527 14.0411L7.67207 14.0232C7.42645 13.4982 7.28395 12.5645 7.42645 12.1436C7.12364 12.1717 6.79645 12.1295 6.48426 12.0901ZM18.6399 21.8851C18.3399 21.6207 17.7277 20.9757 17.7277 20.9757L19.554 20.1667C19.554 20.1667 20.0996 20.9664 20.3171 21.2992L18.6399 21.8851ZM7.83707 23.5923L6.6502 26.1039L9.48426 25.1007L9.57239 24.1117L7.83707 23.5923Z" fill="#FFC83D"/>
<path d="M21.6279 23.013L23.906 22.2283C24.1867 22.126 24.4182 21.9212 24.5539 21.655C24.6896 21.3889 24.7194 21.0812 24.6373 20.7939C24.5877 20.6468 24.5094 20.511 24.4069 20.3943C24.3044 20.2777 24.1798 20.1826 24.0402 20.1146C23.9007 20.0466 23.749 20.0069 23.594 19.998C23.439 19.9891 23.2837 20.0111 23.1373 20.0627L2.0623 27.3189C1.9674 27.3485 1.88637 27.4113 1.8341 27.4959C1.78184 27.5804 1.76185 27.681 1.77782 27.7791C1.79379 27.8772 1.84464 27.9662 1.92102 28.0298C1.9974 28.0934 2.09418 28.1273 2.19355 28.1252H4.80917C6.16997 28.1203 7.52018 27.8857 8.80292 27.4314L19.8635 23.6205L21.4873 24.4127C21.5486 24.4418 21.6171 24.4522 21.6844 24.4428C21.7516 24.4333 21.8145 24.4043 21.8654 24.3594C21.9163 24.3145 21.9529 24.2556 21.9707 24.1901C21.9885 24.1246 21.9866 24.0553 21.9654 23.9908L21.6279 23.013Z" fill="#D73B9A"/>
<path d="M15.2435 3.29986L15.0747 3.21549C14.9524 3.15329 14.8415 3.07088 14.7466 2.97174L14.4091 2.64361C14.2869 2.52633 14.1352 2.44435 13.9701 2.40639C13.805 2.36842 13.6328 2.37589 13.4716 2.42799C13.256 2.50299 13.0216 2.50299 12.806 2.42799C12.663 2.35541 12.5008 2.32993 12.3425 2.35519C12.1842 2.38045 12.038 2.45516 11.9247 2.56861L11.5122 2.97174C11.4185 3.07111 11.306 3.15361 11.1841 3.21549L11.0153 3.29986C10.8613 3.37364 10.7362 3.49663 10.6598 3.64942C10.5834 3.80221 10.56 3.97609 10.5935 4.14361L10.8185 5.39986C10.832 5.45828 10.8639 5.51084 10.9094 5.54986C10.9553 5.58736 11.0716 5.61549 11.0716 5.61549L15.206 5.64361C15.206 5.64361 15.3213 5.61736 15.3653 5.57799C15.4095 5.53889 15.4392 5.48605 15.4497 5.42799L15.6841 4.17174C15.7195 3.99803 15.6953 3.81745 15.6153 3.65922C15.5353 3.50099 15.4043 3.37438 15.2435 3.29986Z" fill="#F1A11E"/>
<path fill-rule="evenodd" clip-rule="evenodd" d="M15.2059 5.12756V5.64319C15.2649 5.6399 15.321 5.61683 15.3652 5.57771C15.4095 5.53858 15.4392 5.48568 15.4497 5.42756L15.4844 5.24288C15.6194 5.33886 15.7143 5.4812 15.751 5.64271C15.7878 5.80423 15.7637 5.97362 15.6836 6.11856C15.6034 6.2635 15.4726 6.37383 15.3162 6.42851C15.1599 6.48319 14.9889 6.47838 14.8358 6.415C14.6828 6.35162 14.5585 6.23411 14.4865 6.08489C14.4146 5.93567 14.4002 5.7652 14.4459 5.60601C14.4917 5.44681 14.5945 5.31004 14.7346 5.22179C14.8748 5.13354 15.0426 5.1 15.2059 5.12756ZM10.7875 5.22694L10.8184 5.39944C10.8322 5.45762 10.8642 5.50989 10.9097 5.54867C10.9552 5.58744 11.0119 5.6107 11.0715 5.61506V5.12381C11.2362 5.10355 11.4025 5.1446 11.5387 5.23914C11.675 5.33367 11.7717 5.47507 11.8104 5.63635C11.8491 5.79764 11.827 5.96751 11.7484 6.11357C11.6699 6.25963 11.5402 6.37164 11.3843 6.42824C11.2284 6.48484 11.0572 6.48206 10.9032 6.42043C10.7492 6.3588 10.6233 6.24264 10.5495 6.0941C10.4757 5.94557 10.4592 5.77507 10.5031 5.61512C10.547 5.45518 10.6482 5.317 10.7875 5.22694Z" fill="#FDBB11"/>
<path fill-rule="evenodd" clip-rule="evenodd" d="M11.0584 5.61474L11.0715 5.61568V5.03443C11.0526 4.9751 11.0496 4.91185 11.0627 4.85099C11.0759 4.79013 11.1048 4.73378 11.1465 4.68755H11.2496C11.3005 4.64129 11.3409 4.5848 11.3684 4.52179C11.3959 4.45877 11.4097 4.39066 11.409 4.32193V3.94693C11.4093 3.90489 11.4219 3.86386 11.4452 3.82888C11.4685 3.7939 11.5016 3.7665 11.5403 3.75005C12.0588 3.62335 12.5908 3.56039 13.1246 3.56255C13.6553 3.56115 14.1841 3.62411 14.6996 3.75005C14.7468 3.76055 14.7891 3.78659 14.8197 3.82399C14.8503 3.86139 14.8674 3.90799 14.8684 3.9563V4.30318C14.8613 4.37292 14.8694 4.44335 14.8921 4.50969C14.9147 4.57602 14.9514 4.63669 14.9996 4.68755L15.0746 4.75318C15.1191 4.79098 15.1541 4.83863 15.1768 4.89234C15.1996 4.94605 15.2096 5.00433 15.2059 5.06255V5.39349L15.084 7.22818C15.058 7.5581 14.9083 7.86602 14.6649 8.09028C14.4216 8.31454 14.1024 8.43858 13.7715 8.43755H12.4778C12.1468 8.43858 11.8277 8.31454 11.5843 8.09028C11.3409 7.86602 11.1913 7.5581 11.1653 7.22818L11.0584 5.61474Z" fill="#FFC83D"/>
<path d="M13.125 7.04037C12.9198 7.0403 12.7175 6.99213 12.5344 6.89974C12.4781 6.89974 12.4125 6.89974 12.45 6.99349C12.5244 7.10565 12.6254 7.19766 12.744 7.26131C12.8626 7.32495 12.9951 7.35826 13.1297 7.35826C13.2643 7.35826 13.3968 7.32495 13.5154 7.26131C13.634 7.19766 13.735 7.10565 13.8094 6.99349C13.8094 6.93724 13.8094 6.86224 13.725 6.89974C13.5379 6.9904 13.3329 7.03843 13.125 7.04037Z" fill="#990839"/>
<path d="M12.975 5.68155L12.7594 6.36593C12.751 6.3995 12.7502 6.4345 12.757 6.46842C12.7638 6.50235 12.778 6.53435 12.7986 6.56213C12.8192 6.58991 12.8457 6.61278 12.8762 6.62911C12.9067 6.64544 12.9404 6.65481 12.975 6.65655H13.2844C13.3188 6.65519 13.3524 6.64595 13.3827 6.62955C13.4129 6.61315 13.439 6.59002 13.4589 6.56195C13.4789 6.53387 13.4921 6.5016 13.4976 6.46762C13.5031 6.43364 13.5007 6.39885 13.4906 6.36593L13.2844 5.68155C13.2758 5.64701 13.2559 5.61632 13.2279 5.59439C13.1998 5.57246 13.1653 5.56055 13.1297 5.56055C13.0941 5.56055 13.0595 5.57246 13.0315 5.59439C13.0034 5.61632 12.9836 5.64701 12.975 5.68155Z" fill="#ED9200"/>
<path d="M14.1091 5.23155C14.2385 5.23188 14.3641 5.2754 14.466 5.35522C14.5679 5.43504 14.6402 5.54658 14.6716 5.67217C14.6742 5.68891 14.6733 5.70602 14.669 5.7224C14.6646 5.73878 14.6569 5.75408 14.6463 5.76731C14.6358 5.78055 14.6225 5.79143 14.6075 5.79926C14.5925 5.80709 14.576 5.8117 14.5591 5.8128H13.6216C13.608 5.81162 13.5948 5.80777 13.5827 5.80147C13.5707 5.79517 13.56 5.78654 13.5512 5.77608C13.5425 5.76562 13.536 5.75354 13.5319 5.74053C13.5279 5.72753 13.5265 5.71385 13.5278 5.7003C13.5542 5.56634 13.6269 5.44595 13.7332 5.36024C13.8395 5.27453 13.9725 5.22897 14.1091 5.23155ZM12.1872 5.23155C12.0577 5.23188 11.9321 5.2754 11.8302 5.35522C11.7283 5.43504 11.656 5.54658 11.6247 5.67217C11.6203 5.68909 11.6199 5.7068 11.6236 5.72389C11.6272 5.74098 11.6348 5.75699 11.6457 5.77063C11.6567 5.78428 11.6706 5.7952 11.6865 5.80252C11.7024 5.80984 11.7197 5.81336 11.7372 5.8128H12.6747C12.6882 5.81162 12.7014 5.80777 12.7135 5.80147C12.7256 5.79517 12.7363 5.78654 12.745 5.77608C12.7537 5.76562 12.7603 5.75354 12.7643 5.74053C12.7683 5.72753 12.7697 5.71385 12.7684 5.7003C12.7404 5.56717 12.6672 5.44782 12.5613 5.36241C12.4554 5.27701 12.3232 5.23078 12.1872 5.23155Z" fill="white"/>
<path d="M11.9715 5.45063C12.0417 5.38203 12.1359 5.34366 12.234 5.34375C12.3236 5.35502 12.406 5.39819 12.4663 5.46535C12.5266 5.53251 12.5606 5.61915 12.5622 5.70938C12.5669 5.74359 12.5669 5.77829 12.5622 5.8125H11.859C11.8543 5.77829 11.8543 5.74359 11.859 5.70938C11.8614 5.61177 11.9018 5.51894 11.9715 5.45063ZM14.3209 5.45063C14.2517 5.38293 14.159 5.34464 14.0622 5.34375C13.9692 5.35071 13.8823 5.39201 13.8181 5.4596C13.754 5.52719 13.7173 5.61623 13.7153 5.70938V5.8125H14.4278C14.4325 5.77829 14.4325 5.74359 14.4278 5.70938C14.4269 5.61256 14.3886 5.51985 14.3209 5.45063Z" fill="#7D4533"/>
<path d="M12.0186 5.81199C12.0186 5.66855 12.0411 5.51855 12.2164 5.51855C12.3926 5.51855 12.4414 5.67605 12.4414 5.81199H12.0186ZM13.8626 5.81199C13.8626 5.66855 13.8851 5.51855 14.0604 5.51855C14.2367 5.51855 14.2845 5.67605 14.2845 5.81199H13.8626Z" fill="black"/>
<path d="M12.1684 5.56855C12.1684 5.58596 12.1614 5.60265 12.1491 5.61496C12.1368 5.62727 12.1201 5.63418 12.1027 5.63418C12.0853 5.63418 12.0686 5.62727 12.0563 5.61496C12.044 5.60265 12.0371 5.58596 12.0371 5.56855C12.0371 5.55115 12.044 5.53446 12.0563 5.52215C12.0686 5.50984 12.0853 5.50293 12.1027 5.50293C12.1201 5.50293 12.1368 5.50984 12.1491 5.52215C12.1614 5.53446 12.1684 5.55115 12.1684 5.56855ZM13.9777 5.56855C13.9777 5.58596 13.9708 5.60265 13.9585 5.61496C13.9462 5.62727 13.9295 5.63418 13.9121 5.63418C13.8947 5.63418 13.878 5.62727 13.8657 5.61496C13.8534 5.60265 13.8465 5.58596 13.8465 5.56855C13.8465 5.55115 13.8534 5.53446 13.8657 5.52215C13.878 5.50984 13.8947 5.50293 13.9121 5.50293C13.9295 5.50293 13.9462 5.50984 13.9585 5.52215C13.9708 5.53446 13.9777 5.55115 13.9777 5.56855Z" fill="white"/>
<path d="M11.7849 4.95237C11.9608 4.83038 12.1753 4.77733 12.3877 4.8033C12.4032 4.80561 12.4189 4.8048 12.4341 4.80092C12.4492 4.79705 12.4634 4.79019 12.4759 4.78074C12.4883 4.7713 12.4987 4.75946 12.5065 4.74593C12.5143 4.73239 12.5194 4.71743 12.5213 4.70193C12.5232 4.68643 12.5221 4.6707 12.5178 4.65566C12.5136 4.64062 12.5064 4.62658 12.4967 4.61436C12.4869 4.60214 12.4748 4.592 12.4611 4.58452C12.4474 4.57704 12.4323 4.57237 12.4168 4.5708C12.1473 4.5376 11.875 4.60467 11.6518 4.75924C11.6262 4.77689 11.6086 4.804 11.603 4.83459C11.5974 4.86518 11.6041 4.89676 11.6218 4.92237C11.6394 4.94798 11.6666 4.96552 11.6971 4.97115C11.7277 4.97678 11.7593 4.97002 11.7849 4.95237ZM14.6059 4.75924C14.3824 4.60671 14.1115 4.53981 13.8427 4.5708C13.8133 4.57588 13.7869 4.59203 13.7689 4.61594C13.751 4.63986 13.7428 4.66972 13.7462 4.69943C13.7495 4.72914 13.7641 4.75645 13.787 4.77576C13.8098 4.79507 13.8391 4.80492 13.869 4.8033C14.0823 4.77949 14.2971 4.83269 14.4746 4.9533C14.5003 4.96966 14.5315 4.97534 14.5613 4.96913C14.5912 4.96292 14.6174 4.94531 14.6345 4.92005C14.6516 4.89478 14.6582 4.86385 14.6528 4.83383C14.6475 4.8038 14.6306 4.77704 14.6059 4.75924Z" fill="#D37034"/>
</svg>
