<svg width="30" height="30" viewBox="0 0 30 30" fill="none" xmlns="http://www.w3.org/2000/svg">
<path d="M5.58301 18.0775L3.77832 15.2486L4.27285 13.3033L8.44707 10.5447L14.2127 9.83691L20.7564 10.6854L23.9064 11.9229C23.9064 11.9229 26.276 13.9736 26.3111 14.3979C26.3463 14.8221 25.6736 17.051 25.6385 17.1564C25.6033 17.2619 25.1439 19.5611 23.7635 20.0557C22.383 20.5502 13.5072 21.8252 13.3643 21.7525C13.2213 21.6799 5.58301 18.0775 5.58301 18.0775Z" fill="#2F2F2F"/>
<path d="M4.62891 17.1939C4.62891 17.1939 4.68281 16.5939 4.88672 15.9963C5.15859 15.1947 7.67109 11.7119 14.7094 11.7119C21.7477 11.7119 25.6383 15.1783 25.2492 16.9104C24.8602 18.6424 20.0156 22.9947 20.0156 22.9947C20.0156 22.9947 11.5266 21.6869 11.3859 21.6518C11.243 21.6143 4.62891 17.1939 4.62891 17.1939Z" fill="#F7B03A"/>
<path d="M7.90327 15.131C7.69702 15.1756 7.51655 15.3092 7.5353 15.5482C7.5517 15.7873 7.77202 15.8998 7.96889 15.867C8.27592 15.8154 8.38608 15.5974 8.34623 15.3842C8.30639 15.1896 8.09077 15.0888 7.90327 15.131ZM7.70639 16.2443C7.91264 16.5701 7.60092 17.0224 6.97748 17.2193C6.35405 17.4162 5.92045 17.3178 5.8478 16.8912C5.77514 16.4646 6.33061 16.1951 6.61655 16.0967C6.90248 15.9982 7.49311 15.9092 7.70639 16.2443ZM11.0462 13.8865C11.0603 14.2029 11.5126 14.3787 12.1525 14.2967C12.7923 14.2146 13.1345 13.8631 13.1017 13.5443C13.0689 13.2256 12.6189 13.1013 12.1033 13.1342C11.5876 13.167 11.0298 13.4857 11.0462 13.8865ZM13.2423 13.0592C13.2423 13.3428 13.5775 13.4365 14.0111 13.4107C14.5267 13.3826 14.6673 13.181 14.6908 12.9935C14.7142 12.806 14.4048 12.5107 13.9689 12.5435C13.5376 12.5763 13.2423 12.7474 13.2423 13.0592ZM17.5408 15.7123C17.508 16.0709 17.754 16.4646 18.7197 16.3849C19.6853 16.3053 19.8751 15.8201 19.8751 15.649C19.8751 15.4779 19.7158 14.9576 18.7947 14.9435C18.2392 14.9342 17.59 15.1709 17.5408 15.7123ZM22.0384 15.5084C22.0197 15.6912 22.0783 16.1646 22.9478 16.1388C23.815 16.1154 23.7095 15.8201 23.7095 15.6888C23.7095 15.5576 23.4142 15.0748 22.8001 15.0092C22.3103 14.9553 22.0712 15.2037 22.0384 15.5084ZM23.1517 16.7763C23.1353 16.9967 23.3884 17.1701 23.9298 17.1373C24.3892 17.1092 24.5884 16.8678 24.5767 16.6873C24.5603 16.4248 24.3072 16.2935 23.9134 16.3099C23.5689 16.324 23.1775 16.467 23.1517 16.7763ZM13.2095 18.9724C13.2189 19.1599 13.6197 19.3826 14.2665 19.3826C14.9134 19.3826 15.0353 19.1131 15.0353 18.9162C15.0353 18.7193 14.8314 18.499 14.2337 18.4732C13.6994 18.4498 13.1931 18.6537 13.2095 18.9724Z" fill="#FFE36A"/>
<path d="M6.49463 18.3256C6.51807 18.2693 6.54619 18.0232 6.66572 17.817C6.77119 17.6365 6.95869 17.4889 7.17432 17.4889C7.55166 17.4889 8.40244 17.6365 8.59932 17.9061C8.74229 18.1029 8.73057 18.8318 8.15635 19.0193C7.58213 19.2092 6.49463 18.3256 6.49463 18.3256ZM8.24541 14.5568C8.25713 14.7068 8.49854 15.0068 8.81963 14.9834C9.13838 14.96 10.0642 14.5334 10.1556 14.3436C10.2446 14.1561 9.86963 13.7295 9.62354 13.7295C9.37744 13.7295 8.22197 14.2475 8.24541 14.5568ZM17.6813 17.0811C17.5853 17.2756 17.4845 17.8498 17.9017 18.0068C18.3188 18.1615 19.9337 18.2365 19.9337 17.7701C19.9337 17.3037 19.4743 16.9686 19.3032 16.9428C19.1298 16.917 17.829 16.7857 17.6813 17.0811ZM19.5728 16.3193C19.3079 16.7295 19.7907 17.217 20.147 17.3834C20.9157 17.7443 21.3024 17.6834 21.572 17.4818C22.0313 17.1373 21.8743 16.7928 20.8923 16.3357C20.1915 16.0076 19.7532 16.0404 19.5728 16.3193Z" fill="#D64C12"/>
<path d="M15.251 13.8751C15.244 14.3087 16.2143 14.747 16.9127 14.768C17.6112 14.7891 17.794 14.461 17.8455 14.3063C17.8971 14.1516 17.651 13.6196 17.3745 13.3923C17.0979 13.1649 16.3901 12.9305 16.0713 12.9727C15.7526 13.0126 15.2604 13.322 15.251 13.8751Z" fill="#7F594B"/>
<path d="M9.54591 16.1529C9.59278 16.4459 10.0404 16.6451 10.8279 16.6967C11.7818 16.7576 12.3865 16.3264 12.4076 16.1436C12.4287 15.9584 11.8733 15.4873 10.9006 15.4873C9.71934 15.485 9.50606 15.8951 9.54591 16.1529Z" fill="#FE8D00"/>
<path d="M9.20879 17.8972C9.17832 18.4199 9.54629 18.6355 10.0596 18.6144C10.5729 18.5933 11.5361 18.1128 11.7307 17.5574C11.8525 17.2128 11.2783 16.6034 10.4369 16.6339C9.95176 16.6527 9.23457 17.4402 9.20879 17.8972Z" fill="#7F594B"/>
<path d="M18.2368 14.8076C18.4431 14.9201 19.2118 14.7045 19.8165 14.5826C20.4212 14.4608 21.0376 14.3975 21.129 14.203C21.2204 14.0084 21.0564 13.1881 20.154 13.1155C19.2517 13.0428 18.7384 13.3826 18.5228 13.617C18.3072 13.8537 18.1642 14.1397 18.1525 14.2217C18.1431 14.3061 18.0939 14.7303 18.2368 14.8076ZM21.9095 16.3475C22.2025 16.2959 22.0126 15.4147 21.7759 15.1475C21.5392 14.8803 20.8736 14.7584 20.4517 14.81C20.0322 14.8615 19.7439 14.974 19.7228 15.2108C19.7017 15.4475 20.4517 15.8459 20.8408 16.0217C21.2322 16.1928 21.7337 16.378 21.9095 16.3475Z" fill="#FE8D00"/>
<path d="M11.836 17.0113C12.0775 17.0957 12.64 16.9316 12.647 16.5754C12.654 16.2191 12.3329 15.8863 12.0165 15.959C11.8571 15.9941 11.5243 16.409 11.5314 16.5684C11.5384 16.7301 11.7118 16.9691 11.836 17.0113ZM13.0173 14.8738C13.0384 15.1574 13.6689 15.4527 13.8868 15.2652C14.0931 15.0871 13.9735 14.3301 13.7064 14.3301C13.3735 14.3301 13.0079 14.7566 13.0173 14.8738ZM13.6126 16.2355C13.6173 16.3363 13.765 16.8004 14.1282 16.7934C14.4915 16.7863 14.9837 16.416 14.9837 16.2285C14.9837 16.041 14.4118 15.4387 14.1423 15.4457C13.9595 15.4504 13.6056 16.041 13.6126 16.2355Z" fill="#92A51E"/>
<path d="M14.8078 14.895C14.7656 15.1457 14.9531 15.1715 15.1195 15.1996C15.2859 15.2278 15.4968 15.2793 15.7148 15.5629C15.9328 15.8465 16.1461 16.4348 16.1718 16.4981C16.2515 16.702 16.6148 16.8098 16.875 16.5567C17.1351 16.3036 16.6218 15.1879 16.1648 14.8317C15.7054 14.4754 14.8875 14.4309 14.8078 14.895Z" fill="#FBE0BC"/>
<path d="M14.6907 15.4894C14.7259 15.7214 15.2556 16.148 15.6259 15.9605C15.9962 15.773 15.5977 15.0816 15.436 15.0066C15.3352 14.9574 14.6392 15.1519 14.6907 15.4894ZM16.8446 14.9175C16.6782 14.9105 16.5399 14.9691 16.547 15.2503C16.554 15.5339 16.6618 15.8527 17.0321 15.8738C17.4024 15.8949 17.4376 15.4097 17.4376 15.3511C17.4376 15.2925 17.2126 14.9316 16.8446 14.9175ZM16.9524 16.4527C16.8142 16.4199 16.1485 16.7058 16.1345 16.9753C16.1204 17.2425 16.3665 17.4464 16.786 17.498C17.2056 17.5496 17.4892 17.5496 17.5477 17.3457C17.604 17.1418 17.3649 16.5535 16.9524 16.4527Z" fill="#92A51E"/>
<path d="M19.9733 18.8929C19.9991 19.05 20.5522 19.296 20.7303 19.2468C20.9061 19.1976 21.3397 18.2929 21.9889 18.1078C22.6381 17.9203 22.8538 18 22.9428 17.9015C23.0319 17.8031 22.903 17.3507 22.6874 17.2734C22.4717 17.196 21.8905 17.0859 21.1639 17.5101C20.4186 17.9414 19.9428 18.7171 19.9733 18.8929ZM13.0475 16.6617C12.7288 16.6804 12.2999 17.1539 12.1147 17.5851C11.8311 18.239 11.7421 18.7828 11.8194 18.921C11.8991 19.0593 12.4639 19.2515 12.6936 19.0968C12.7522 19.057 12.8108 18.3304 13.0967 17.7796C13.2913 17.407 13.6171 17.2593 13.6756 17.2007C13.7342 17.1421 13.5678 16.6335 13.0475 16.6617ZM10.3053 13.3429C10.2186 13.425 9.9819 13.8046 10.0592 14.4726C10.1202 14.9812 10.1905 15.2906 10.3546 15.3656C10.4811 15.4242 11.3858 15.5132 11.4655 15.2765C11.5452 15.0398 10.985 14.3835 10.9241 14.264C10.8631 14.1445 10.835 13.4578 10.8256 13.371C10.8163 13.282 10.4436 13.214 10.3053 13.3429Z" fill="#FBE0AF"/>
<path d="M28.7506 13.2676C28.3263 12.4192 27.867 12.1004 27.4779 12.1004C27.0888 12.1004 25.7459 12.7379 25.7459 12.7379C25.7459 12.7379 22.7342 9.50357 15.0959 9.39341C7.70369 9.2856 4.56072 12.3442 4.56072 12.3442C4.56072 12.3442 3.49666 11.5333 2.4701 11.6387C1.44588 11.7465 0.562283 14.4348 1.02166 15.2129C1.48103 15.9911 2.15369 15.9559 2.68338 16.2395C3.21306 16.5231 3.70994 16.8418 3.81541 17.0176C3.92088 17.1934 4.23963 21.1215 5.23103 22.8887C6.22244 24.6583 8.0951 27.0278 14.9576 27.1684C21.8201 27.309 23.6717 24.5387 24.506 22.959C25.4974 21.084 25.9568 17.6176 25.9568 17.6176C25.9568 17.6176 26.6646 16.9801 27.4428 16.6637C28.3029 16.3122 28.6803 16.2395 28.9287 15.8856C29.1748 15.5293 29.1748 14.1161 28.7506 13.2676ZM15.2037 19.8817C7.8115 19.809 4.23728 17.4747 4.3451 14.8239C4.41541 13.0918 7.88181 10.2254 14.674 10.2958C21.5388 10.3684 25.8162 12.8434 25.781 15.1403C25.7435 17.4395 22.4553 19.952 15.2037 19.8817Z" fill="#6A6E70"/>
<path opacity="0.6" d="M14.9322 13.4175C15.6799 13.3378 15.3401 12.0792 15.9541 10.8651C17.358 8.08311 20.1166 7.80186 20.0393 5.42764C19.9549 2.83077 15.9283 1.56983 14.7026 2.56592C14.3088 2.88702 16.5658 3.25498 16.2096 4.73624C15.851 6.21749 13.1205 6.31827 12.4572 8.69249C11.6674 11.5097 14.4471 13.4667 14.9322 13.4175Z" fill="#EAEAEA"/>
</svg>
