<svg width="30" height="30" viewBox="0 0 30 30" fill="none" xmlns="http://www.w3.org/2000/svg">
<path d="M12.9372 4.581C13.044 4.6302 13.1379 4.70078 13.2119 4.78767C13.2859 4.87455 13.3383 4.97559 13.3652 5.0835C13.3943 5.202 14.1923 8.373 14.1923 10.5C14.1923 11.925 13.4783 13.1955 12.3669 14.019C11.9631 14.319 11.7692 14.646 11.7692 14.919V15.648C11.7692 15.683 11.7714 15.716 11.7757 15.747C11.8306 16.119 12.0293 17.5005 12.2151 18.933C12.3976 20.3385 12.5769 21.8715 12.5769 22.5C12.5769 23.2956 12.2365 24.0587 11.6307 24.6213C11.0248 25.1839 10.203 25.5 9.34615 25.5C8.4893 25.5 7.66754 25.1839 7.06165 24.6213C6.45577 24.0587 6.11538 23.2956 6.11538 22.5C6.11538 21.87 6.29469 20.34 6.47723 18.933C6.663 17.5005 6.86169 16.119 6.91662 15.747L6.92308 15.648V14.919C6.92308 14.646 6.72923 14.319 6.32538 14.019C5.75593 13.5975 5.29611 13.0622 4.98008 12.453C4.66406 11.8438 4.49997 11.1762 4.5 10.5C4.5 8.3805 5.29154 5.226 5.32708 5.085C5.36907 4.91826 5.47067 4.76965 5.6153 4.66341C5.75992 4.55717 5.93905 4.49957 6.12346 4.5C6.57577 4.5 6.94246 4.8405 6.94246 5.2605V9.7575C6.93609 9.8588 6.95215 9.96023 6.98964 10.0555C7.02714 10.1508 7.08527 10.238 7.16045 10.3116C7.23563 10.3853 7.32627 10.4438 7.42677 10.4837C7.52727 10.5235 7.63549 10.5438 7.74476 10.5433C7.85404 10.5428 7.96203 10.5214 8.06209 10.4807C8.16215 10.4399 8.25215 10.3805 8.32652 10.3062C8.4009 10.2318 8.45808 10.1441 8.49453 10.0485C8.53098 9.95281 8.54593 9.85123 8.53846 9.75V5.25C8.53846 5.05109 8.62356 4.86032 8.77503 4.71967C8.9265 4.57902 9.13194 4.5 9.34615 4.5C9.56037 4.5 9.76581 4.57902 9.91728 4.71967C10.0687 4.86032 10.1538 5.05109 10.1538 5.25V9.789C10.1583 9.98592 10.2469 10.1731 10.4 10.3094C10.5532 10.4457 10.7584 10.5199 10.9704 10.5158C11.1825 10.5116 11.3841 10.4293 11.5309 10.2871C11.6776 10.1449 11.7576 9.95442 11.7531 9.7575V5.2575C11.7531 4.839 12.1182 4.5 12.5705 4.5C12.606 4.5 12.7643 4.5 12.9372 4.581Z" fill="url(#paint0_linear_14708_6893)"/>
<path d="M23.4616 4.5C21.5337 4.5 19.6847 5.21116 18.3215 6.47703C16.9582 7.7429 16.1924 9.45979 16.1924 11.25V13.5C16.1924 13.8978 16.3626 14.2794 16.6655 14.5607C16.9685 14.842 17.3793 15 17.8078 15H19.3327L19.3004 15.2865C19.2261 15.9645 19.1243 16.8795 19.0225 17.8365C18.8238 19.719 18.6155 21.831 18.6155 22.5C18.6155 23.2956 18.9558 24.0587 19.5617 24.6213C20.1676 25.1839 20.9894 25.5 21.8462 25.5C22.7031 25.5 23.5248 25.1839 24.1307 24.6213C24.7366 24.0587 25.077 23.2956 25.077 22.5C25.077 21.831 24.8686 19.719 24.6699 17.835C24.5505 16.7146 24.4267 15.5946 24.2984 14.475L24.2693 14.2095V5.25C24.2693 5.05109 24.1842 4.86032 24.0327 4.71967C23.8813 4.57902 23.6758 4.5 23.4616 4.5Z" fill="url(#paint1_linear_14708_6893)"/>
<defs>
<linearGradient id="paint0_linear_14708_6893" x1="3.009" y1="5.8125" x2="24.9726" y2="15.4534" gradientUnits="userSpaceOnUse">
<stop stop-color="#6CE0FF"/>
<stop offset="1" stop-color="#0067BF"/>
</linearGradient>
<linearGradient id="paint1_linear_14708_6893" x1="14.8258" y1="5.8125" x2="35.4923" y2="14.1288" gradientUnits="userSpaceOnUse">
<stop stop-color="#6CE0FF"/>
<stop offset="1" stop-color="#0067BF"/>
</linearGradient>
</defs>
</svg>
