<svg width="22" height="22" viewBox="0 0 22 22" fill="none" xmlns="http://www.w3.org/2000/svg">
<path d="M10.9993 20.6236C17.4164 20.6236 20.6236 16.3144 20.6236 10.9986C20.6236 5.68425 17.4164 1.375 10.9986 1.375C4.58219 1.375 1.375 5.68425 1.375 10.9993C1.375 16.3144 4.5815 20.6236 10.9993 20.6236Z" fill="#FFB02E"/>
<path d="M5.29842 11.2018C5.16875 11.0765 4.99509 11.0072 4.81483 11.0088C4.63457 11.0104 4.46213 11.0827 4.33467 11.2102C4.2072 11.3376 4.13489 11.5101 4.13333 11.6903C4.13176 11.8706 4.20106 12.0442 4.32629 12.1739C4.68723 12.5348 5.5961 13.0628 6.87485 13.0628C8.1536 13.0628 9.06248 12.5348 9.42342 12.1739C9.54865 12.0442 9.61794 11.8706 9.61638 11.6903C9.61481 11.5101 9.54251 11.3376 9.41504 11.2102C9.28757 11.0827 9.11514 11.0104 8.93488 11.0088C8.75462 11.0072 8.58095 11.0765 8.45129 11.2018C8.35298 11.2994 7.7961 11.6878 6.87485 11.6878C5.9536 11.6878 5.39673 11.2994 5.29842 11.2018ZM13.5484 11.2018C13.4188 11.0765 13.2451 11.0072 13.0648 11.0088C12.8846 11.0104 12.7121 11.0827 12.5847 11.2102C12.4572 11.3376 12.3849 11.5101 12.3833 11.6903C12.3818 11.8706 12.4511 12.0442 12.5763 12.1739C12.9372 12.5348 13.8461 13.0628 15.1249 13.0628C16.4036 13.0628 17.3125 12.5348 17.6734 12.1739C17.7986 12.0442 17.8679 11.8706 17.8664 11.6903C17.8648 11.5101 17.7925 11.3376 17.665 11.2102C17.5376 11.0827 17.3651 11.0104 17.1849 11.0088C17.0046 11.0072 16.831 11.0765 16.7013 11.2018C16.603 11.2994 16.0461 11.6878 15.1249 11.6878C14.2036 11.6878 13.6467 11.2994 13.5484 11.2018Z" fill="#402A32"/>
<path d="M9.625 16.5C9.625 16.1353 9.76987 15.7856 10.0277 15.5277C10.2856 15.2699 10.6353 15.125 11 15.125C11.3647 15.125 11.7144 15.2699 11.9723 15.5277C12.2301 15.7856 12.375 16.1353 12.375 16.5C12.375 16.8647 12.2301 17.2144 11.9723 17.4723C11.7144 17.7301 11.3647 17.875 11 17.875C10.6353 17.875 10.2856 17.7301 10.0277 17.4723C9.76987 17.2144 9.625 16.8647 9.625 16.5Z" fill="#BB1D80"/>
<path d="M19.786 1.63199C19.8683 1.73458 19.9194 1.85861 19.9333 1.98936C19.9472 2.12011 19.9233 2.2521 19.8644 2.36968L18.4709 5.15818L19.7702 4.83299C19.8584 4.80934 19.9504 4.80348 20.0408 4.81575C20.1313 4.82802 20.2184 4.85819 20.297 4.90447C20.3757 4.95076 20.4444 5.01225 20.499 5.08536C20.5537 5.15846 20.5932 5.24172 20.6153 5.33027C20.6375 5.41882 20.6418 5.51089 20.6279 5.60111C20.6141 5.69133 20.5825 5.7779 20.5348 5.85576C20.4872 5.93363 20.4246 6.00123 20.3505 6.05462C20.2765 6.10801 20.1926 6.14613 20.1037 6.16674L17.3537 6.85424C17.2262 6.88593 17.0923 6.88043 16.9678 6.8384C16.8434 6.79637 16.7336 6.71957 16.6514 6.61708C16.5692 6.51459 16.5182 6.3907 16.5042 6.26009C16.4903 6.12947 16.514 5.99759 16.5727 5.88005L17.9662 3.09155L16.6669 3.41674C16.5787 3.44039 16.4867 3.44625 16.3963 3.43398C16.3058 3.42171 16.2187 3.39155 16.1401 3.34526C16.0614 3.29897 15.9927 3.23748 15.9381 3.16438C15.8834 3.09127 15.8439 3.00802 15.8217 2.91947C15.7996 2.83092 15.7953 2.73885 15.8091 2.64862C15.8229 2.5584 15.8546 2.47183 15.9022 2.39397C15.9499 2.31611 16.0125 2.24851 16.0865 2.19512C16.1606 2.14172 16.2445 2.10361 16.3334 2.08299L19.0834 1.39549C19.2109 1.36365 19.3448 1.36901 19.4693 1.41092C19.5939 1.45283 19.7038 1.52955 19.786 1.63199ZM13.0623 4.46862C13.0623 4.37745 13.0985 4.29001 13.163 4.22555C13.2274 4.16108 13.3149 4.12487 13.406 4.12487H15.4685C15.5324 4.12487 15.595 4.14264 15.6493 4.17621C15.7036 4.20977 15.7474 4.25779 15.776 4.31489C15.8045 4.37199 15.8166 4.43591 15.8109 4.49949C15.8052 4.56307 15.7818 4.6238 15.7435 4.67487L14.0935 6.87487H15.4685C15.5597 6.87487 15.6471 6.91108 15.7116 6.97555C15.7761 7.04001 15.8123 7.12745 15.8123 7.21862C15.8123 7.30978 15.7761 7.39722 15.7116 7.46169C15.6471 7.52615 15.5597 7.56237 15.4685 7.56237H13.406C13.3422 7.56237 13.2796 7.54459 13.2253 7.51103C13.171 7.47747 13.1271 7.42945 13.0986 7.37235C13.07 7.31525 13.0579 7.25133 13.0637 7.18775C13.0694 7.12417 13.0927 7.06344 13.131 7.01237L14.781 4.81237H13.406C13.3149 4.81237 13.2274 4.77615 13.163 4.71169C13.0985 4.64722 13.0623 4.55979 13.0623 4.46862ZM10.0772 5.51774C9.99181 5.49285 9.90013 5.50199 9.82138 5.54326C9.74262 5.58452 9.68292 5.65469 9.6548 5.73904C9.62669 5.82339 9.63235 5.91535 9.67059 5.99561C9.70884 6.07587 9.77669 6.1382 9.85991 6.16949L11.193 6.61431L9.4536 7.60774C9.39608 7.64071 9.34932 7.6896 9.31895 7.74853C9.28858 7.80747 9.2759 7.87392 9.28244 7.9399C9.28898 8.00587 9.31446 8.06855 9.3558 8.12038C9.39715 8.1722 9.4526 8.21096 9.51548 8.23199L11.578 8.91949C11.6636 8.94545 11.756 8.93699 11.8355 8.89591C11.915 8.85484 11.9753 8.78439 12.0037 8.69953C12.0321 8.61467 12.0262 8.5221 11.9874 8.44147C11.9486 8.36084 11.8799 8.29852 11.7959 8.26774L10.4629 7.82293L12.2022 6.82949C12.2597 6.79653 12.3065 6.74764 12.3369 6.6887C12.3673 6.62977 12.3799 6.56331 12.3734 6.49734C12.3669 6.43136 12.3414 6.36868 12.3 6.31686C12.2587 6.26503 12.2032 6.22627 12.1404 6.20524L10.0772 5.51774Z" fill="#00A6ED"/>
</svg>
