<svg width="25" height="25" viewBox="0 0 25 25" fill="none" xmlns="http://www.w3.org/2000/svg">
<path d="M3.83594 6.9001C3.85352 6.84932 3.81836 5.9587 4.31445 5.25753C4.81055 4.55635 5.46094 4.45284 5.94141 4.3669C6.52344 4.26339 7.92773 4.09346 8.15039 4.57198C8.37305 5.05049 8.20117 5.30831 8.56055 5.44503C8.91992 5.58174 8.26953 6.38643 8.26953 6.38643L3.83594 6.9001ZM21.0723 6.88253C21.0723 6.88253 21.2129 6.01729 20.7188 5.43331C19.9766 4.55245 18.8145 4.26729 17.7148 4.26729C17.3613 4.26729 16.9375 4.33565 16.8008 4.75753C16.7227 5.00167 16.668 5.29854 16.4961 5.33174C16.3262 5.3669 19.959 6.48995 21.0723 6.88253Z" fill="#464C4F"/>
<path d="M7.62509 15.877C7.04111 16.3301 6.26572 19.4551 5.05283 20.2813C3.83994 21.1075 1.09189 20.6661 0.884859 18.9805C0.703218 17.4942 1.0333 14.3692 1.86142 11.1758C2.68955 7.98249 3.32627 6.40045 5.26181 5.88288C6.81455 5.46686 9.85752 5.17389 12.8126 5.20319C15.7696 5.23249 18.3575 5.23249 19.9845 5.85358C21.4435 6.41022 22.4376 7.92389 23.1192 10.879C23.7989 13.836 24.3243 17.3907 24.2423 18.5665C24.1231 20.2813 21.6993 21.3751 19.8966 20.045C18.461 18.9864 18.1817 16.2911 17.4435 15.9063C16.7052 15.5215 8.15634 15.463 7.62509 15.877Z" fill="#5E6268"/>
<path d="M18.2127 15.0725C18.0721 15.2483 18.3963 15.51 18.6268 16.0823C18.8573 16.6546 19.451 18.5491 20.0272 19.0784C20.7459 19.7366 21.3065 19.6135 21.4159 19.4065C21.5252 19.1995 20.9042 18.6643 20.1737 17.471C19.4432 16.2776 18.5057 14.7073 18.2127 15.0725ZM2.05454 14.5862C1.83774 14.6253 1.26353 17.5081 1.68931 18.7268C2.04478 19.7424 3.4061 19.7991 3.91782 19.6526C4.93735 19.3616 5.25767 18.3733 5.02524 18.2639C4.79478 18.1546 3.98618 18.928 3.22251 18.5686C2.37095 18.1663 2.38267 17.0335 2.27329 15.8889C2.17564 14.8577 2.26157 14.5491 2.05454 14.5862ZM7.42368 8.19362C7.3436 8.19362 6.64048 8.18972 6.64048 8.18972L6.64439 7.34011C6.64439 7.34011 6.66001 6.65456 5.92564 6.67018C5.26743 6.68386 5.2811 7.23269 5.2811 7.34011C5.2811 7.44753 5.2772 8.18386 5.2772 8.18386C5.2772 8.18386 4.5311 8.17604 4.39243 8.17995C4.25376 8.18386 3.73423 8.19167 3.73423 8.86159C3.73423 9.4944 4.27134 9.53933 4.39243 9.54323C4.51353 9.54714 5.27329 9.54714 5.27329 9.54714C5.27329 9.54714 5.26743 10.2561 5.26939 10.3714C5.27134 10.4866 5.29282 11.0296 5.95103 11.0296C6.66978 11.0296 6.63267 10.3714 6.63267 10.3714L6.63657 9.553C6.63657 9.553 7.30845 9.55886 7.42564 9.5569C7.5936 9.553 8.08775 9.50808 8.09556 8.83815C8.10142 8.17604 7.50571 8.19362 7.42368 8.19362Z" fill="#9E9E9E"/>
<path d="M9.45313 13.8594C10.3743 13.8594 11.1211 13.1126 11.1211 12.1914C11.1211 11.2702 10.3743 10.5234 9.45313 10.5234C8.53193 10.5234 7.78516 11.2702 7.78516 12.1914C7.78516 13.1126 8.53193 13.8594 9.45313 13.8594Z" fill="#AFAFAF"/>
<path d="M15.1855 13.8848C16.1067 13.8848 16.8535 13.138 16.8535 12.2168C16.8535 11.2956 16.1067 10.5488 15.1855 10.5488C14.2644 10.5488 13.5176 11.2956 13.5176 12.2168C13.5176 13.138 14.2644 13.8848 15.1855 13.8848Z" fill="#AFAFAF"/>
<path d="M9.45117 13.2656C10.0671 13.2656 10.5664 12.7663 10.5664 12.1504C10.5664 11.5345 10.0671 11.0352 9.45117 11.0352C8.83524 11.0352 8.33594 11.5345 8.33594 12.1504C8.33594 12.7663 8.83524 13.2656 9.45117 13.2656Z" fill="#C8C8C8"/>
<path d="M15.1855 13.3027C15.8015 13.3027 16.3008 12.8034 16.3008 12.1875C16.3008 11.5716 15.8015 11.0723 15.1855 11.0723C14.5696 11.0723 14.0703 11.5716 14.0703 12.1875C14.0703 12.8034 14.5696 13.3027 15.1855 13.3027Z" fill="#C8C8C8"/>
<path d="M16.7617 9.81836C17.2579 9.81836 17.6602 9.41611 17.6602 8.91992C17.6602 8.42373 17.2579 8.02148 16.7617 8.02148C16.2655 8.02148 15.8633 8.42373 15.8633 8.91992C15.8633 9.41611 16.2655 9.81836 16.7617 9.81836Z" fill="#2086FA"/>
<path d="M18.543 11.5391C19.0392 11.5391 19.4414 11.1368 19.4414 10.6406C19.4414 10.1444 19.0392 9.74219 18.543 9.74219C18.0468 9.74219 17.6445 10.1444 17.6445 10.6406C17.6445 11.1368 18.0468 11.5391 18.543 11.5391Z" fill="#06AC48"/>
<path d="M20.3359 9.96094C20.8321 9.96094 21.2344 9.55869 21.2344 9.0625C21.2344 8.56631 20.8321 8.16406 20.3359 8.16406C19.8397 8.16406 19.4375 8.56631 19.4375 9.0625C19.4375 9.55869 19.8397 9.96094 20.3359 9.96094Z" fill="#F72E26"/>
<path d="M18.5586 8.12695C19.0548 8.12695 19.457 7.72471 19.457 7.22852C19.457 6.73232 19.0548 6.33008 18.5586 6.33008C18.0624 6.33008 17.6602 6.73232 17.6602 7.22852C17.6602 7.72471 18.0624 8.12695 18.5586 8.12695Z" fill="#FDB700"/>
</svg>
