<svg width="25" height="25" viewBox="0 0 25 25" fill="none" xmlns="http://www.w3.org/2000/svg">
<path d="M13.7188 19.6855L23.2012 20.5879C24.0938 20.6738 24.3223 20.1758 24.3223 19.7539L24.3125 19.2422L12.6504 17.5977C12.6504 18.1816 13.125 19.6855 13.7188 19.6855Z" fill="#C62828"/>
<path d="M14.0645 19.2402L15.5566 19.3711L23.5469 20.1426C23.9766 20.1426 24.3223 19.8008 24.3223 19.3789L23.8984 6.4375C23.8984 6.01562 23.5508 5.67383 23.123 5.67383L14.0645 4.81836C13.4707 4.81836 12.9883 5.29297 12.9883 5.87695V18.1816C12.9883 18.7656 13.4688 19.2402 14.0645 19.2402Z" fill="#F44336"/>
<path d="M11.2812 19.6855L1.79883 20.5879C0.90625 20.6738 0.677734 20.1758 0.677734 19.7539L0.6875 19.2422L12.3496 17.5957C12.3496 18.1816 11.875 19.6855 11.2812 19.6855Z" fill="#C62828"/>
<path d="M10.9355 19.2402L9.45508 19.3711L1.45312 20.1445C1.02344 20.1445 0.677734 19.8027 0.677734 19.3809L1.10156 6.43945C1.10156 6.01758 1.44922 5.67578 1.87695 5.67578L10.9355 4.82031C11.5293 4.82031 12.0117 5.29492 12.0117 5.87891V18.1836C12.0117 18.7656 11.5312 19.2402 10.9355 19.2402Z" fill="#F44336"/>
<path d="M15.3809 16.3438H9.62305L9.44727 19.377L11.2441 19.5449C11.2441 19.5449 11.6289 20.5059 12.5 20.5059C13.3711 20.5059 13.7559 19.5449 13.7559 19.5449L15.5527 19.377L15.3809 16.3438Z" fill="#424242"/>
<path d="M15.5352 19.6152L13.8613 19.4707M9.46484 19.6152L11.1387 19.4707" stroke="#616161" stroke-width="0.3125" stroke-miterlimit="10"/>
<path d="M23.3691 6.41016L22.5879 5.33594L12.5 16.8008L2.41211 5.33594L1.63086 6.41016L1.52148 19.1738C1.52148 19.1738 3.5957 19.4336 6.36719 19.1523C8.78125 18.9082 9.91797 18.2832 10.7246 18.4453C11.6934 18.6406 11.8691 19.2363 11.9004 19.3379C11.9883 19.6191 12.1621 19.8379 12.5 19.8379C12.8379 19.8379 12.9883 19.7207 13.0918 19.373C13.123 19.2715 13.3066 18.6426 14.2754 18.4473C15.082 18.2852 16.2188 18.9102 18.6328 19.1543C21.4043 19.4355 23.4785 19.1758 23.4785 19.1758L23.3691 6.41016Z" fill="#94C6D6"/>
<path d="M22.3242 17.9434L22.3555 12.7891H23.4238L23.4785 19.1738C23.4785 19.1738 22.6289 18.8438 22.3242 17.9434Z" fill="url(#paint0_linear_14708_6897)"/>
<path d="M22.373 14.9395L22.3242 17.9453C22.3242 17.9453 19.9883 17.8242 16.2676 17.1797C13.834 16.7578 12.5 18.1094 12.5 18.1094L12.4785 14.9395H22.373Z" fill="url(#paint1_linear_14708_6897)"/>
<path d="M2.62695 14.9395L2.67578 17.9453C2.67578 17.9453 5.01172 17.8242 8.73242 17.1797C11.166 16.7578 12.5 18.1094 12.5 18.1094L12.4785 14.9395H2.62695Z" fill="url(#paint2_linear_14708_6897)"/>
<path d="M2.67578 17.9434L2.64453 12.7891H1.57422L1.52148 19.1738C1.52148 19.1738 2.36914 18.8438 2.67578 17.9434Z" fill="url(#paint3_linear_14708_6897)"/>
<path d="M22.5879 5.33623C22.5879 5.33623 17.4043 4.36162 15.1289 4.23467C12.9883 4.11553 12.5488 5.20537 12.5059 5.33623H12.498C12.4531 5.20537 12.0137 4.11748 9.87305 4.23467C7.59766 4.36162 2.41406 5.33623 2.41406 5.33623L2.18359 17.9144C2.18359 17.9144 8.35547 16.6214 9.84961 16.7894C11.3438 16.9573 12.5 18.1097 12.5 18.1097C12.5 18.1097 13.6582 16.9573 15.1523 16.7894C16.6465 16.6214 22.8184 17.9144 22.8184 17.9144L22.5879 5.33623Z" fill="#F5F5F5"/>
<path opacity="0.26" d="M10.4727 4.23633L9.41797 16.7754C9.58398 16.7715 9.73047 16.7754 9.84766 16.7891C11.3398 16.9551 12.5 18.1094 12.5 18.1094L12.4668 5.33594C12.4668 5.33594 12.2129 4.33594 10.4727 4.23633Z" fill="#94C6D6"/>
<path opacity="0.5" d="M4.94336 5.89423C4.41602 5.98603 3.98437 6.06415 3.73828 6.10712C3.73828 6.22821 3.73828 6.36103 3.73633 6.50361C3.95312 6.46454 4.39453 6.38446 4.94336 6.28876V5.89423ZM9.69727 5.26532V5.654C10.7383 5.65204 11.3145 5.91376 11.5039 6.01923C11.5039 5.85712 11.5059 5.71259 11.5059 5.58564C11.1836 5.44111 10.5938 5.26337 9.69727 5.26532ZM8.84961 5.31415C8.00391 5.40009 6.82617 5.57978 5.79102 5.75165V6.14814C6.81836 5.97821 7.99805 5.79657 8.84961 5.70673V5.31415ZM6.76953 6.9997C5.50781 7.19501 4.24219 7.42157 3.73438 7.51337V7.90986C4.17578 7.82978 5.4707 7.5954 6.76953 7.39423V6.9997ZM9.11914 6.69501C8.70703 6.72821 8.18164 6.79462 7.61719 6.87275V7.26728C8.19336 7.18525 8.73242 7.11884 9.15039 7.08368C10.5527 6.96845 11.293 7.3122 11.5 7.42939V6.99384C11.1172 6.82392 10.3496 6.59345 9.11914 6.69501ZM5.15234 8.66962C4.53516 8.77509 4.01953 8.86689 3.73438 8.91962V9.31611C3.99023 9.26923 4.51367 9.17548 5.15234 9.0661V8.66962ZM11.5 8.40595C11.1191 8.23407 10.3496 7.9997 9.10742 8.10321C8.3125 8.16767 7.0957 8.34931 6 8.529V8.92548C7.10547 8.74384 8.33984 8.56025 9.14062 8.49384C10.5664 8.37665 11.3086 8.73407 11.5 8.8454V8.40595ZM11.502 9.81806C11.125 9.64618 10.3516 9.40595 9.09961 9.50946C8.97266 9.51923 8.83594 9.5329 8.69141 9.54853V9.94111C8.84961 9.92353 8.99609 9.90986 9.13281 9.89814C10.5859 9.779 11.3281 10.152 11.5039 10.2575C11.502 10.111 11.502 9.96454 11.502 9.81806ZM7.8418 9.654C6.31445 9.86298 4.41211 10.2009 3.73633 10.3239V10.7204C4.33203 10.611 6.2793 10.2614 7.8418 10.0466V9.654ZM5.51758 11.4196C4.75 11.5485 4.08594 11.6677 3.73633 11.7302V12.1267C4.05273 12.0681 4.72656 11.947 5.51758 11.8142V11.4196ZM11.5039 11.2321C11.1309 11.0602 10.3535 10.8142 9.08984 10.9177C8.38672 10.9763 7.35547 11.1227 6.36719 11.2809V11.6755C7.36523 11.5153 8.41406 11.3649 9.12109 11.3063C10.6113 11.1833 11.3555 11.5817 11.5039 11.6716V11.2321ZM11.5078 14.0583C11.1523 13.8884 10.3828 13.6325 9.11328 13.7282V14.1208C10.7324 13.9899 11.4668 14.4743 11.5078 14.5036V14.0583ZM5.15234 14.2927C4.55078 14.3962 4.03906 14.486 3.74023 14.5407V14.9372C4.01562 14.8864 4.53125 14.7946 5.15234 14.6872V14.2927ZM6 14.152V14.5485C6.75781 14.4255 7.57227 14.3005 8.26562 14.2126V13.8181C7.57617 13.904 6.76172 14.027 6 14.152ZM7.35742 15.3474C5.95898 15.5505 4.38672 15.8298 3.74219 15.947V16.3434C4.32617 16.236 5.92773 15.9509 7.35742 15.7419V15.3474ZM11.5098 15.4724C11.1562 15.3005 10.3691 15.0329 9.05664 15.1403C8.80859 15.1599 8.51953 15.1931 8.20508 15.2321V15.6247C8.53125 15.5837 8.83203 15.5505 9.08789 15.529C10.7598 15.3903 11.4941 15.9099 11.502 15.9138L11.5117 15.902C11.5117 15.7673 11.5117 15.6247 11.5098 15.4724ZM7.06641 12.5778C5.73438 12.777 4.32227 13.029 3.73828 13.1364V13.5329C4.26172 13.4372 5.70117 13.1794 7.06641 12.9724V12.5778ZM11.5059 12.6442C11.1387 12.4724 10.3594 12.2184 9.07812 12.3239C8.75 12.3513 8.34961 12.3981 7.91602 12.4567V12.8513C8.36328 12.7907 8.77539 12.7419 9.11133 12.7145C10.6504 12.5876 11.3945 13.0153 11.5078 13.0876C11.5059 12.9431 11.5059 12.7946 11.5059 12.6442ZM17.2676 5.80243C18.8848 6.01728 20.998 6.40009 21.5723 6.50361C21.5723 6.35907 21.5723 6.22821 21.5703 6.10712C20.8984 5.98407 18.8418 5.61689 17.2656 5.4079V5.80243H17.2676ZM16.418 5.31025C16.334 5.30243 16.2539 5.29462 16.1777 5.28876C14.9531 5.1872 14.1875 5.41571 13.8027 5.58564C13.8027 5.71259 13.8047 5.85907 13.8047 6.01923C14.0234 5.89814 14.7637 5.56415 16.1465 5.67743C16.2324 5.68525 16.3242 5.69306 16.418 5.70282V5.31025ZM19.9922 7.63251C20.5201 7.72239 21.0474 7.81549 21.5742 7.91181V7.51532C21.2676 7.45868 20.6855 7.35517 19.9922 7.23798V7.63251ZM19.1445 7.0954C18.0879 6.92548 16.9473 6.75751 16.1895 6.69501C14.959 6.59345 14.1914 6.82392 13.8066 6.99384V7.42939C14.0137 7.3122 14.7539 6.96845 16.1563 7.08368C16.9199 7.14618 18.0781 7.31806 19.1426 7.48993V7.0954H19.1445ZM18.9805 8.47431V8.86884C20.1152 9.05048 21.1719 9.24189 21.5742 9.31611V8.91962C21.1191 8.83759 20.082 8.65204 18.9805 8.47431ZM17.2656 9.6286C16.873 9.57782 16.5098 9.53486 16.209 9.51142C14.957 9.4079 14.1836 9.64814 13.8066 9.82001V10.2595C13.9824 10.1559 14.7266 9.78095 16.1777 9.90009C16.4863 9.92548 16.8613 9.96845 17.2656 10.0231V9.6286ZM18.1152 9.74775V10.1423C19.5313 10.3532 21.0566 10.6286 21.5723 10.7224V10.3259C20.9902 10.2184 19.4961 9.95282 18.1152 9.74775ZM18.2871 11.1794C17.5156 11.0622 16.7676 10.9626 16.2207 10.9177C14.9551 10.8142 14.1777 11.0602 13.8066 11.2321V11.6735C13.9551 11.5817 14.6992 11.1852 16.1895 11.3083C16.7422 11.3532 17.5059 11.4567 18.2891 11.5759V11.1794H18.2871ZM19.1348 11.3122V11.7087C20.1973 11.8806 21.1699 12.0563 21.5703 12.1286V11.7321C21.125 11.6501 20.168 11.4782 19.1348 11.3122ZM20.5156 12.9489V13.3454C20.9766 13.4255 21.3535 13.4938 21.5684 13.5329V13.1364C21.334 13.0934 20.9629 13.027 20.5156 12.9489ZM17.4395 13.8688C16.9922 13.8083 16.5781 13.7595 16.2422 13.7321C14.9453 13.6247 14.1621 13.8864 13.8027 14.0583V14.5036C13.8438 14.4743 14.582 13.986 16.2129 14.1208C16.5566 14.1481 16.9824 14.1989 17.4434 14.2614V13.8688H17.4395ZM18.2871 13.9899V14.3845C19.6309 14.5876 21.041 14.8415 21.5684 14.9372V14.5407C20.9824 14.4352 19.5996 14.1892 18.2871 13.9899ZM18.9805 15.5036C17.9902 15.3454 16.9551 15.197 16.252 15.1384C14.9375 15.0309 14.1523 15.3005 13.7988 15.4704V15.9001L13.8086 15.9118C13.8145 15.9079 14.5488 15.3884 16.2227 15.527C16.9316 15.5856 17.9844 15.738 18.9844 15.8981V15.5036H18.9805ZM19.8301 15.6442V16.0407C20.5898 16.1677 21.2383 16.2849 21.5664 16.3454V15.9489C21.209 15.8825 20.5684 15.7673 19.8301 15.6442ZM16.1973 12.322C14.9355 12.2224 14.166 12.4743 13.8027 12.6442V13.0876C13.916 13.0153 14.6582 12.5876 16.1973 12.7145V12.322ZM17.0469 12.4118V12.8044C17.8516 12.9059 18.8184 13.0583 19.668 13.1989V12.8024C18.8125 12.6618 17.8457 12.5114 17.0469 12.4118ZM15.5703 8.07978C14.6953 8.08564 14.1191 8.26532 13.8086 8.40595V8.84345C13.9727 8.7497 14.5332 8.47821 15.5703 8.46845V8.07978ZM16.418 8.12275V8.51532C16.9043 8.56415 17.5078 8.64618 18.1309 8.73798V8.34345C17.5059 8.2497 16.9043 8.16962 16.418 8.12275Z" fill="#757575"/>
<path d="M13.8984 19.2284C13.6797 19.2089 13.4785 19.3437 13.4082 19.5527C13.3027 19.871 13.0566 20.287 12.5 20.287C11.9375 20.287 11.6895 19.8691 11.582 19.5507C11.5486 19.4509 11.4827 19.3652 11.395 19.3072C11.3072 19.2491 11.2026 19.2221 11.0977 19.2304L11.0215 19.2363L11.0234 19.2988C11.0234 19.6898 11.1788 20.0649 11.4553 20.3415C11.7319 20.618 12.107 20.7734 12.498 20.7734C12.8891 20.7734 13.2642 20.618 13.5408 20.3415C13.8173 20.0649 13.9727 19.6898 13.9727 19.2988C13.9727 19.2792 13.9707 19.2343 13.9707 19.2343L13.8984 19.2284Z" fill="#616161"/>
<defs>
<linearGradient id="paint0_linear_14708_6897" x1="22.899" y1="17.2268" x2="22.9473" y2="13.8473" gradientUnits="userSpaceOnUse">
<stop offset="0.267" stop-color="#82AEC0"/>
<stop offset="1" stop-color="#82AEC0" stop-opacity="0"/>
</linearGradient>
<linearGradient id="paint1_linear_14708_6897" x1="13.6557" y1="16.5236" x2="22.0172" y2="16.5236" gradientUnits="userSpaceOnUse">
<stop stop-color="#2F7889"/>
<stop offset="1" stop-color="#82AEC0"/>
</linearGradient>
<linearGradient id="paint2_linear_14708_6897" x1="11.324" y1="16.5236" x2="2.98106" y2="16.5236" gradientUnits="userSpaceOnUse">
<stop stop-color="#2F7889"/>
<stop offset="1" stop-color="#82AEC0"/>
</linearGradient>
<linearGradient id="paint3_linear_14708_6897" x1="2.1002" y1="17.2268" x2="2.05176" y2="13.8473" gradientUnits="userSpaceOnUse">
<stop offset="0.267" stop-color="#82AEC0"/>
<stop offset="1" stop-color="#82AEC0" stop-opacity="0"/>
</linearGradient>
</defs>
</svg>
