<svg width="20" height="20" viewBox="0 0 20 20" fill="none" xmlns="http://www.w3.org/2000/svg">
<path d="M17.5 9.58336C17.5029 10.6832 17.2459 11.7683 16.75 12.75C15.5508 15.1495 13.0991 16.6657 10.4167 16.6667C9.31678 16.6696 8.23177 16.4126 7.25 15.9167C7.25 15.9167 3 17.5 2.5 17.5C2 17.5 4.08334 12.75 4.08334 12.75C3.58745 11.7683 3.33047 10.6832 3.33334 9.58336C3.33437 6.90093 4.85056 4.44922 7.25 3.25002C8.23177 2.75413 9.31678 2.49716 10.4167 2.50002H10.8333C14.4298 2.69844 17.3016 5.57018 17.5 9.16669V9.58336Z" stroke="black" stroke-width="1.66667" stroke-linecap="round"/>
</svg>
