<svg width="207" height="126" viewBox="0 0 207 126" fill="none" xmlns="http://www.w3.org/2000/svg">
<path d="M35.3824 49.3159C35.3824 38.0957 44.4781 29 55.6982 29C66.9182 29 76.0139 38.0957 76.0139 49.3159V65.3449C76.0139 76.5651 66.9182 85.6608 55.6982 85.6608C44.4781 85.6608 35.3824 76.5651 35.3824 65.3449V49.3159Z" fill="#FE4401"/>
<path d="M15 39.2511C15 33.5896 19.5896 29 25.2511 29C30.9126 29 35.5022 33.5896 35.5022 39.2511V87.7111C35.5022 93.3726 30.9126 97.9622 25.2511 97.9622C19.5896 97.9622 15 93.3726 15 87.7111V39.2511Z" fill="#FE4401"/>
<path d="M15 69.9114C15 58.6397 24.2306 49.5023 35.5022 49.5023C46.7737 49.5023 56.0043 58.6397 56.0043 69.9114V90.2272C56.0043 101.499 46.7737 110.636 35.5022 110.636C24.2306 110.636 15 101.499 15 90.2272V69.9114Z" fill="#FE4401"/>
<path d="M76.1337 39.2511C76.1337 33.5896 80.7233 29 86.3848 29C92.0463 29 96.6358 33.5896 96.6358 39.2511V87.7111C96.6358 93.3726 92.0463 97.9622 86.3848 97.9622C80.7233 97.9622 76.1337 93.3726 76.1337 87.7111V39.2511Z" fill="#FE4401"/>
<path d="M56.0043 69.8182C56.0043 58.598 65.1 49.5023 76.3201 49.5023C87.5402 49.5023 96.6358 58.598 96.6358 69.8182V90.3204C96.6358 101.541 87.5402 110.636 76.3201 110.636C65.1 110.636 56.0043 101.541 56.0043 90.3204V69.8182Z" fill="#FE4401"/>
<path d="M100.364 58.7283C100.364 47.4567 109.595 38.3192 120.866 38.3192C132.138 38.3192 141.369 47.4567 141.369 58.7283V90.2272C141.369 101.499 132.138 110.636 120.866 110.636C109.595 110.636 100.364 101.499 100.364 90.2272V58.7283Z" fill="#FE4401"/>
<path d="M141.369 58.6351C141.369 47.4149 150.464 38.3192 161.684 38.3192C172.904 38.3192 182 47.4149 182 58.6351V90.3204C182 101.541 172.904 110.636 161.684 110.636C150.464 110.636 141.369 101.541 141.369 90.3204V58.6351Z" fill="#FE4401"/>
<path d="M100.364 59.1943C100.364 42.5184 113.883 29 130.558 29H151.806C168.482 29 182 42.5184 182 59.1943C182 75.8701 168.482 89.3885 151.806 89.3885H130.558C113.883 89.3885 100.364 75.8701 100.364 59.1943Z" fill="#FE4401"/>
<rect x="23.5732" y="43.9102" width="18.6383" height="28.703" rx="9.31916" fill="white"/>
<rect x="42.2114" y="43.9102" width="18.6383" height="28.703" rx="9.31916" fill="white"/>
<rect x="112.664" y="43.9102" width="18.6383" height="28.703" rx="9.31916" fill="white"/>
<rect x="131.302" y="43.9102" width="18.6383" height="28.703" rx="9.31916" fill="white"/>
<rect x="23.5732" y="52.4844" width="10.4375" height="16.4017" rx="5.21873" fill="#4351EC"/>
<rect x="42.2114" y="52.4844" width="10.4375" height="16.4017" rx="5.21873" fill="#4351EC"/>
<rect x="118.628" y="48.0117" width="10.4375" height="16.4017" rx="5.21873" fill="#4351EC"/>
<rect x="137.267" y="48.0117" width="10.4375" height="16.4017" rx="5.21873" fill="#4351EC"/>
<rect x="22.3562" y="43.9297" width="39.8137" height="0.0995347" fill="#FE4401"/>
<rect x="23.3516" y="72.7949" width="18.9115" height="12.9395" rx="6.46976" fill="#FE4401"/>
<rect x="42.2629" y="72.7949" width="18.9115" height="12.9395" rx="6.46976" fill="#FE4401"/>
<rect x="111.937" y="43.9297" width="39.8137" height="0.0995347" fill="#FE4401"/>
<rect x="112.933" y="72.7949" width="18.9115" height="12.9395" rx="6.46976" fill="#FE4401"/>
<rect x="131.844" y="72.7949" width="18.9115" height="12.9395" rx="6.46976" fill="#FE4401"/>
<path d="M207 96.8327C207 98.3061 206.415 99.7192 205.373 100.761C204.331 101.803 202.918 102.388 201.444 102.388H162.556C161.082 102.388 159.669 101.803 158.627 100.761C157.585 99.7192 157 98.3061 157 96.8327V85.7216C157 84.2481 157.585 82.8351 158.627 81.7932C159.669 80.7513 161.082 80.166 162.556 80.166H201.444C202.918 80.166 204.331 80.7513 205.373 81.7932C206.415 82.8351 207 84.2481 207 85.7216V96.8327Z" fill="#FFCC4D"/>
<path d="M165.333 80.166H162.556C161.082 80.166 159.669 80.7513 158.627 81.7932C157.585 82.8351 157 84.2481 157 85.7216V88.4993L165.333 80.166ZM173.667 80.166L157 96.8327C157 98.7216 157.947 100.385 159.389 101.388L180.611 80.166H173.667ZM166.722 102.388H173.667L195.889 80.166H188.944L166.722 102.388ZM188.944 102.388L206.85 84.4827C206.658 83.6485 206.276 82.8701 205.733 82.208C205.191 81.546 204.502 81.0182 203.722 80.666L182 102.388H188.944ZM207 96.8327V92.666L197.278 102.388H201.444C202.918 102.388 204.331 101.803 205.373 100.761C206.415 99.7192 207 98.3061 207 96.8327Z" fill="#292F33"/>
<path d="M162.556 102.389H169.5V121.833H162.556V102.389ZM194.5 102.389H201.445V121.833H194.5V102.389Z" fill="#9EA3A7"/>
<path d="M180.093 35.5292C170.32 29.0693 176.809 22.0636 170.32 12.9197C164.218 4.31841 154.031 0 140.993 0C124.711 0 117.785 4.31841 111.68 12.9197C105.191 22.0636 111.68 29.0693 101.907 35.5292C95.844 39.5343 121.453 43 141 43C160.547 43 186.156 39.5343 180.093 35.5292Z" fill="#FFF75F"/>
<path d="M134.482 37.1431V0.283203C133.342 0.386561 132.256 0.520064 131.224 0.683714V33.8906C124.415 33.7291 114.531 32.6115 106.292 31.1355C105.652 32.1959 104.85 33.1515 103.914 33.9681C113.394 35.7962 125.402 37.1431 132.853 37.1431H134.482ZM176.36 32.127C167.066 33.1089 157.338 33.7969 150.771 33.9003V0.942108C149.718 0.728933 148.621 0.580356 147.513 0.441469V37.1431H149.142C155.716 37.1431 168.024 36.3001 179.403 35.0211C178.251 34.2104 177.225 33.2351 176.36 32.127Z" fill="#FFAC33"/>
<path fill-rule="evenodd" clip-rule="evenodd" d="M20.9884 114.762L20.97 114.765L20.8517 114.824L20.8184 114.83L20.795 114.824L20.6767 114.765C20.6589 114.76 20.6456 114.763 20.6367 114.774L20.63 114.79L20.6017 115.504L20.61 115.537L20.6267 115.559L20.8 115.682L20.825 115.689L20.845 115.682L21.0184 115.559L21.0384 115.532L21.045 115.504L21.0167 114.792C21.0123 114.774 21.0028 114.764 20.9884 114.762ZM21.43 114.574L21.4084 114.577L21.1 114.732L21.0834 114.749L21.0784 114.767L21.1084 115.484L21.1167 115.504L21.13 115.515L21.465 115.67C21.4862 115.676 21.5023 115.672 21.5134 115.657L21.52 115.634L21.4634 114.61C21.4578 114.59 21.4467 114.578 21.43 114.574ZM20.2384 114.577C20.231 114.573 20.2223 114.571 20.2139 114.573C20.2055 114.575 20.1981 114.58 20.1934 114.587L20.1834 114.61L20.1267 115.634C20.1278 115.654 20.1373 115.667 20.155 115.674L20.18 115.67L20.515 115.515L20.5317 115.502L20.5384 115.484L20.5667 114.767L20.5617 114.747L20.545 114.73L20.2384 114.577Z" fill="#9EA3A7"/>
<path fill-rule="evenodd" clip-rule="evenodd" d="M12.545 80.4276C14.6282 79.8909 16.8193 79.9405 18.876 80.571C20.9328 81.2015 22.7752 82.3883 24.1998 84.0003C25.6243 85.6122 26.5755 87.5867 26.9482 89.7054C27.3209 91.8241 27.1006 94.0046 26.3117 96.0059L33.9767 102.494C34.558 102.986 35.031 103.592 35.3659 104.276C35.7007 104.959 35.89 105.705 35.9218 106.465C35.9536 107.226 35.8273 107.984 35.5508 108.693C35.2742 109.403 34.8535 110.046 34.3153 110.585C33.7771 111.123 33.133 111.543 32.4238 111.82C31.7147 112.096 30.9559 112.222 30.1955 112.19C29.435 112.158 28.6895 111.969 28.0061 111.634C27.3226 111.299 26.7162 110.826 26.225 110.244L19.74 102.583C17.7384 103.373 15.5573 103.594 13.4378 103.222C11.3182 102.85 9.34291 101.899 7.73016 100.474C6.11742 99.0494 4.93008 97.2064 4.29943 95.1489C3.66878 93.0915 3.61938 90.8997 4.15669 88.8159C4.23245 88.5232 4.38569 88.2562 4.6003 88.0431C4.81492 87.83 5.08297 87.6787 5.3763 87.605C5.66962 87.5313 5.97737 87.538 6.2672 87.6244C6.55704 87.7108 6.81824 87.8737 7.02336 88.0959L12.0984 93.6076L15.9267 92.1993L17.3384 88.3659L11.8234 83.2993C11.5998 83.0942 11.4358 82.8326 11.3487 82.542C11.2616 82.2514 11.2546 81.9426 11.3286 81.6484C11.4025 81.3542 11.5546 81.0854 11.7687 80.8705C11.9828 80.6556 12.2511 80.5026 12.545 80.4276Z" fill="#9EA3A7"/>
</svg>
