<svg width="24" height="25" viewBox="0 0 24 25" fill="none" xmlns="http://www.w3.org/2000/svg">
<g id="jam:delete-f">
<path id="Vector" d="M16.4138 12.333L17.8278 10.919C18.01 10.7304 18.1108 10.4778 18.1085 10.2156C18.1062 9.95341 18.0011 9.7026 17.8157 9.51719C17.6303 9.33178 17.3794 9.22661 17.1173 9.22433C16.8551 9.22206 16.6025 9.32285 16.4138 9.50501L14.9998 10.919L13.5858 9.50501C13.4936 9.4095 13.3833 9.33332 13.2613 9.28091C13.1392 9.2285 13.008 9.20091 12.8753 9.19976C12.7425 9.1986 12.6108 9.22391 12.4879 9.27419C12.365 9.32447 12.2533 9.39872 12.1595 9.49261C12.0656 9.58651 11.9913 9.69816 11.941 9.82105C11.8907 9.94395 11.8654 10.0756 11.8666 10.2084C11.8678 10.3412 11.8953 10.4724 11.9477 10.5944C12.0002 10.7164 12.0763 10.8268 12.1718 10.919L13.5858 12.333L12.1718 13.747C12.0763 13.8393 12.0002 13.9496 11.9477 14.0716C11.8953 14.1936 11.8678 14.3248 11.8666 14.4576C11.8654 14.5904 11.8907 14.7221 11.941 14.845C11.9913 14.9679 12.0656 15.0795 12.1595 15.1734C12.2533 15.2673 12.365 15.3415 12.4879 15.3918C12.6108 15.4421 12.7425 15.4674 12.8753 15.4663C13.008 15.4651 13.1392 15.4375 13.2613 15.3851C13.3833 15.3327 13.4936 15.2565 13.5858 15.161L14.9998 13.747L16.4138 15.161C16.5061 15.2565 16.6164 15.3327 16.7384 15.3851C16.8604 15.4375 16.9917 15.4651 17.1244 15.4663C17.2572 15.4674 17.3889 15.4421 17.5118 15.3918C17.6347 15.3415 17.7464 15.2673 17.8402 15.1734C17.9341 15.0795 18.0084 14.9679 18.0587 14.845C18.109 14.7221 18.1343 14.5904 18.1331 14.4576C18.1319 14.3248 18.1044 14.1936 18.052 14.0716C17.9995 13.9496 17.9234 13.8393 17.8278 13.747L16.4138 12.333ZM9.82785 5.33301H19.9998C20.5303 5.33301 21.039 5.54372 21.4141 5.91879C21.7891 6.29387 21.9998 6.80257 21.9998 7.33301V17.333C21.9998 17.8634 21.7891 18.3721 21.4141 18.7472C21.039 19.1223 20.5303 19.333 19.9998 19.333H9.82785C9.29746 19.3329 8.78883 19.1221 8.41385 18.747L2.70685 13.04C2.51938 12.8525 2.41406 12.5982 2.41406 12.333C2.41406 12.0678 2.51938 11.8135 2.70685 11.626L8.41385 5.91901C8.78883 5.54391 9.29746 5.33312 9.82785 5.33301Z" fill="#747D8F"/>
</g>
</svg>
