<svg width="24" height="24" viewBox="0 0 24 24" fill="none" xmlns="http://www.w3.org/2000/svg">
<path d="M23.7293 12.6527L12.653 23.7293C12.5673 23.8151 12.4655 23.8832 12.3535 23.9296C12.2414 23.9761 12.1213 24 12 24C11.8787 24 11.7586 23.9761 11.6465 23.9296C11.5345 23.8832 11.4327 23.8151 11.347 23.7293L0.270711 12.6527C0.141477 12.5236 0.0534509 12.3591 0.0177758 12.1799C-0.0178993 12.0008 0.000380741 11.8151 0.0703019 11.6463C0.140223 11.4775 0.258641 11.3333 0.410565 11.2319C0.562488 11.1305 0.741086 11.0764 0.923748 11.0766H5.53885V1.8461C5.53885 1.35648 5.73335 0.88692 6.07955 0.54071C6.42575 0.194499 6.89529 0 7.3849 0H16.6151C17.1047 0 17.5743 0.194499 17.9205 0.54071C18.2667 0.88692 18.4611 1.35648 18.4611 1.8461V11.0766H23.0763C23.2589 11.0764 23.4375 11.1305 23.5894 11.2319C23.7414 11.3333 23.8598 11.4775 23.9297 11.6463C23.9996 11.8151 24.0179 12.0008 23.9822 12.1799C23.9465 12.3591 23.8585 12.5236 23.7293 12.6527Z" fill="#FE4401"/>
<path d="M9.32422 12.377C8.99544 12.377 8.71387 12.3021 8.47949 12.1523C8.24837 11.9993 8.07259 11.7861 7.95215 11.5127C7.83171 11.236 7.77148 10.9154 7.77148 10.5508C7.77148 10.1927 7.83171 9.87695 7.95215 9.60352C8.07585 9.32682 8.25488 9.11361 8.48926 8.96387C8.72363 8.81087 9.00195 8.73438 9.32422 8.73438C9.65951 8.73438 9.94434 8.81087 10.1787 8.96387C10.4131 9.11361 10.5889 9.3252 10.7061 9.59863C10.8265 9.87207 10.8867 10.1895 10.8867 10.5508C10.8867 10.9154 10.8249 11.236 10.7012 11.5127C10.5807 11.7861 10.4033 11.9993 10.1689 12.1523C9.93457 12.3021 9.65299 12.377 9.32422 12.377ZM9.32422 11.5957C9.53906 11.5957 9.70182 11.5029 9.8125 11.3174C9.92318 11.1318 9.97852 10.8763 9.97852 10.5508C9.97852 10.2285 9.9248 9.97461 9.81738 9.78906C9.70996 9.60352 9.54557 9.51237 9.32422 9.51562C9.11263 9.51562 8.94987 9.61003 8.83594 9.79883C8.72526 9.98438 8.66992 10.235 8.66992 10.5508C8.66992 10.873 8.72526 11.1286 8.83594 11.3174C8.94987 11.5029 9.11263 11.5957 9.32422 11.5957ZM13.9434 16.1855C13.6146 16.1888 13.333 16.1156 13.0986 15.9658C12.8675 15.8128 12.6917 15.5996 12.5713 15.3262C12.4508 15.0495 12.3906 14.7305 12.3906 14.3691C12.3906 14.0078 12.4508 13.6904 12.5713 13.417C12.695 13.1403 12.874 12.9255 13.1084 12.7725C13.3428 12.6195 13.6211 12.543 13.9434 12.543C14.2754 12.543 14.5586 12.6195 14.793 12.7725C15.0273 12.9222 15.2048 13.1354 15.3252 13.4121C15.4456 13.6855 15.5059 14.0046 15.5059 14.3691C15.5059 14.7337 15.444 15.0527 15.3203 15.3262C15.1999 15.5996 15.0225 15.8128 14.7881 15.9658C14.5537 16.1156 14.2721 16.1888 13.9434 16.1855ZM13.9434 15.4043C14.1615 15.4043 14.3242 15.3132 14.4316 15.1309C14.5423 14.9453 14.5977 14.6914 14.5977 14.3691C14.5977 14.0404 14.5439 13.7832 14.4365 13.5977C14.3291 13.4121 14.1647 13.321 13.9434 13.3242C13.735 13.3242 13.5739 13.4202 13.46 13.6123C13.346 13.8011 13.2891 14.0534 13.2891 14.3691C13.2891 14.6882 13.3444 14.9404 13.4551 15.126C13.569 15.3115 13.7318 15.4043 13.9434 15.4043ZM13.543 8.92969H14.5293L9.66602 16H8.67969L13.543 8.92969Z" fill="white"/>
</svg>
