<svg width="20" height="20" viewBox="0 0 20 20" fill="none" xmlns="http://www.w3.org/2000/svg">
<path d="M9.6875 12.9274C9.59028 12.8924 9.5 12.8333 9.41667 12.7499L6.41667 9.74992C6.25 9.58325 6.17 9.38881 6.17667 9.16659C6.18334 8.94437 6.26334 8.74992 6.41667 8.58325C6.58334 8.41659 6.78139 8.32992 7.01084 8.32325C7.24028 8.31659 7.43806 8.39631 7.60417 8.56242L9.16667 10.1249V4.16659C9.16667 3.93048 9.24667 3.7327 9.40667 3.57325C9.56667 3.41381 9.76445 3.33381 10 3.33325C10.2356 3.3327 10.4336 3.4127 10.5942 3.57325C10.7547 3.73381 10.8344 3.93159 10.8333 4.16659V10.1249L12.3958 8.56242C12.5625 8.39575 12.7606 8.31575 12.99 8.32242C13.2194 8.32909 13.4172 8.41603 13.5833 8.58325C13.7361 8.74992 13.8161 8.94437 13.8233 9.16659C13.8306 9.38881 13.7506 9.58325 13.5833 9.74992L10.5833 12.7499C10.5 12.8333 10.4097 12.8924 10.3125 12.9274C10.2153 12.9624 10.1111 12.9796 10 12.9791C9.88889 12.9785 9.78472 12.9613 9.6875 12.9274ZM5 16.6666C4.54167 16.6666 4.14945 16.5035 3.82334 16.1774C3.49722 15.8513 3.33389 15.4588 3.33334 14.9999V13.3333C3.33334 13.0971 3.41334 12.8994 3.57334 12.7399C3.73334 12.5805 3.93111 12.5005 4.16667 12.4999C4.40222 12.4994 4.60028 12.5794 4.76084 12.7399C4.92139 12.9005 5.00111 13.0983 5 13.3333V14.9999H15V13.3333C15 13.0971 15.08 12.8994 15.24 12.7399C15.4 12.5805 15.5978 12.5005 15.8333 12.4999C16.0689 12.4994 16.2669 12.5794 16.4275 12.7399C16.5881 12.9005 16.6678 13.0983 16.6667 13.3333V14.9999C16.6667 15.4583 16.5036 15.8508 16.1775 16.1774C15.8514 16.5041 15.4589 16.6671 15 16.6666H5Z" fill="black"/>
</svg>
