<svg width="20" height="20" viewBox="0 0 20 20" fill="none" xmlns="http://www.w3.org/2000/svg">
<path d="M13.764 0C14.3211 1.8928e-05 14.8671 0.155134 15.341 0.447969C15.8148 0.740804 16.1978 1.15979 16.447 1.658L17.83 4.423C18.074 4.323 18.317 4.222 18.553 4.105C18.7904 3.98645 19.0651 3.96705 19.3168 4.05106C19.5685 4.13508 19.7765 4.31563 19.895 4.553C20.0136 4.79037 20.033 5.06511 19.9489 5.31678C19.8649 5.56846 19.6844 5.77645 19.447 5.895C18.953 6.141 18.727 6.217 18.727 6.217L19.683 8.13C19.892 8.547 20 9.006 20 9.472V12C20 12.4221 19.9109 12.8394 19.7386 13.2247C19.5663 13.61 19.3146 13.9546 19 14.236V15.5C19 15.8978 18.842 16.2794 18.5607 16.5607C18.2794 16.842 17.8978 17 17.5 17C17.1022 17 16.7207 16.842 16.4394 16.5607C16.158 16.2794 16 15.8978 16 15.5V15H4.00001V15.5C4.00001 15.8978 3.84198 16.2794 3.56067 16.5607C3.27937 16.842 2.89784 17 2.50001 17C2.10219 17 1.72066 16.842 1.43935 16.5607C1.15805 16.2794 1.00001 15.8978 1.00001 15.5V14.236C0.386012 13.686 1.20336e-05 12.888 1.20336e-05 12V9.472C0.000198912 9.00646 0.108728 8.54735 0.317012 8.131L1.27301 6.217C1.03072 6.11674 0.791292 6.0097 0.555012 5.896C0.437141 5.83752 0.33197 5.75635 0.245526 5.65715C0.159083 5.55795 0.0930672 5.44266 0.0512627 5.3179C0.00945826 5.19314 -0.00731281 5.06135 0.00191056 4.93009C0.0111339 4.79884 0.0461704 4.67069 0.105012 4.553C0.225988 4.31668 0.435148 4.13749 0.687235 4.05421C0.939323 3.97093 1.21406 3.99025 1.45201 4.108C1.68801 4.22133 1.92735 4.32633 2.17001 4.423L3.55301 1.658C3.8022 1.15979 4.18518 0.740804 4.65905 0.447969C5.13292 0.155134 5.67896 1.8928e-05 6.23601 0H13.764ZM16.834 6.904C15.134 7.441 12.715 8 10 8C7.28501 8 4.86601 7.44 3.16601 6.904L2.10601 9.024C2.03632 9.16306 2.00002 9.31645 2.00001 9.472V12C2.00001 12.2652 2.10537 12.5196 2.29291 12.7071C2.48044 12.8946 2.7348 13 3.00001 13H17C17.2652 13 17.5196 12.8946 17.7071 12.7071C17.8947 12.5196 18 12.2652 18 12V9.472C17.9998 9.31679 17.9636 9.16375 17.894 9.025L16.834 6.904ZM5.50001 9C5.89784 9 6.27937 9.15804 6.56067 9.43934C6.84198 9.72064 7.00001 10.1022 7.00001 10.5C7.00001 10.8978 6.84198 11.2794 6.56067 11.5607C6.27937 11.842 5.89784 12 5.50001 12C5.10219 12 4.72066 11.842 4.43935 11.5607C4.15805 11.2794 4.00001 10.8978 4.00001 10.5C4.00001 10.1022 4.15805 9.72064 4.43935 9.43934C4.72066 9.15804 5.10219 9 5.50001 9ZM14.5 9C14.8978 9 15.2794 9.15804 15.5607 9.43934C15.842 9.72064 16 10.1022 16 10.5C16 10.8978 15.842 11.2794 15.5607 11.5607C15.2794 11.842 14.8978 12 14.5 12C14.1022 12 13.7207 11.842 13.4394 11.5607C13.158 11.2794 13 10.8978 13 10.5C13 10.1022 13.158 9.72064 13.4394 9.43934C13.7207 9.15804 14.1022 9 14.5 9ZM13.764 2H6.23601C6.05035 2.0001 5.86838 2.05188 5.71049 2.14955C5.55259 2.24722 5.425 2.38692 5.34201 2.553L4.07201 5.09C5.62001 5.555 7.70601 6 10 6C12.294 6 14.38 5.555 15.927 5.09L14.658 2.553C14.575 2.38692 14.4474 2.24722 14.2895 2.14955C14.1316 2.05188 13.9497 2.0001 13.764 2Z" fill="#1C1D1F"/>
</svg>
