<svg width="20" height="21" viewBox="0 0 20 21" fill="none" xmlns="http://www.w3.org/2000/svg">
<g id="Image Add">
<path id="Icon" d="M5.16428 18.0849L12.7131 10.9802L16.2655 14.5326M5.16428 18.0849H14.0452C15.5167 18.0849 16.7095 16.8921 16.7095 15.4206V10.9802M5.16428 18.0849C3.69284 18.0849 2.5 16.8921 2.5 15.4206V6.5397C2.5 5.06826 3.69284 3.87542 5.16428 3.87542H10.9369M15.8214 8.16352L15.8214 5.6516M15.8214 5.6516L15.8214 3.13969M15.8214 5.6516L13.3095 5.65161M15.8214 5.6516L18.3333 5.65161M7.82857 7.87184C7.82857 8.60756 7.23215 9.20398 6.49643 9.20398C5.7607 9.20398 5.16428 8.60756 5.16428 7.87184C5.16428 7.13612 5.7607 6.5397 6.49643 6.5397C7.23215 6.5397 7.82857 7.13612 7.82857 7.87184Z" stroke="#747D8F" stroke-width="0.688288" stroke-linecap="round" stroke-linejoin="round"/>
</g>
</svg>
