<svg width="158" height="211" viewBox="0 0 158 211" fill="none" xmlns="http://www.w3.org/2000/svg">
<rect x="0.870117" y="0.00439453" width="114.87" height="161.756" rx="57.4351" fill="#EAEBED"/>
<rect x="12.8701" y="16.8071" width="91.226" height="128.151" rx="45.613" fill="url(#paint0_linear_6016_14956)"/>
<path d="M63.9582 106.232C65.7819 94.1265 77.0739 85.7913 89.1796 87.615C101.285 89.4386 109.621 100.731 107.797 112.836L105.192 130.131C103.368 142.236 92.0759 150.571 79.9702 148.748C67.8645 146.924 59.5292 135.632 61.3529 123.526L63.9582 106.232Z" fill="#FE4401"/>
<path d="M43.6029 92.0602C44.5231 85.9518 50.2209 81.746 56.3293 82.6662C62.4377 83.5864 66.6435 89.2842 65.7233 95.3926L57.8468 147.677C56.9266 153.786 51.2288 157.991 45.1204 157.071C39.012 156.151 34.8062 150.453 35.7264 144.345L43.6029 92.0602Z" fill="#FE4401"/>
<path d="M38.6195 125.14C40.4515 112.979 51.8959 104.621 64.0571 106.453C76.2184 108.285 84.6924 119.644 82.8603 131.805L79.5583 153.724C77.7262 165.886 66.2819 174.244 54.1206 172.412C41.9594 170.58 33.4854 159.221 35.3174 147.06L38.6195 125.14Z" fill="#FE4401"/>
<path d="M109.562 101.997C110.482 95.8883 116.18 91.6825 122.288 92.6027C128.397 93.5229 132.603 99.2207 131.682 105.329L123.806 157.614C122.886 163.722 117.188 167.928 111.08 167.008C104.971 166.088 100.765 160.39 101.685 154.281L109.562 101.997Z" fill="#FE4401"/>
<path d="M82.8755 131.704C84.6992 119.599 95.9912 111.264 108.097 113.087C120.203 114.911 128.538 126.203 126.714 138.309L123.382 160.429C121.558 172.535 110.266 180.87 98.1604 179.046C86.0547 177.223 77.7194 165.931 79.5431 153.825L82.8755 131.704Z" fill="#FE4401"/>
<rect x="52.0947" y="98.4812" width="20.3364" height="31.318" rx="10.1682" transform="rotate(8.56697 52.0947 98.4812)" fill="white"/>
<rect x="72.2051" y="101.51" width="20.3364" height="31.318" rx="10.1682" transform="rotate(8.56697 72.2051 101.51)" fill="white"/>
<rect x="53.8042" y="100.418" width="11.3884" height="17.896" rx="5.69419" transform="rotate(8.56697 53.8042 100.418)" fill="#4351EC"/>
<rect x="73.9141" y="103.447" width="11.3884" height="17.896" rx="5.69419" transform="rotate(8.56697 73.9141 103.447)" fill="#4351EC"/>
<rect x="50.7788" y="98.3047" width="43.4409" height="0.108602" transform="rotate(8.56697 50.7788 98.3047)" fill="#FE4401"/>
<rect x="49.1089" y="113.035" width="22.8065" height="16.2904" rx="8.14518" transform="rotate(15.567 49.1089 113.035)" fill="#FE4401"/>
<rect x="68.7285" y="118.814" width="22.8065" height="16.2904" rx="8.14518" transform="rotate(1.56697 68.7285 118.814)" fill="#FE4401"/>
<rect x="133" y="83.5" width="24" height="110" rx="12" fill="#EAEBED"/>
<rect x="38" y="210.5" width="31" height="119" rx="10" transform="rotate(-90 38 210.5)" fill="#EAEBED"/>
<path d="M47.8287 83.9765C48.0514 82.8946 49.109 82.1981 50.1909 82.4208L71.5037 86.8077C73.6675 87.2531 75.0606 89.3682 74.6152 91.532C73.5017 96.9415 68.2139 100.424 62.8044 99.3106L55.2041 97.7462C49.7946 96.6327 46.3121 91.3449 47.4255 85.9354L47.8287 83.9765Z" fill="black"/>
<path d="M101.24 95.0507C101.463 93.9688 100.767 92.9113 99.6846 92.6886L78.3717 88.3017C76.208 87.8563 74.0928 89.2493 73.6474 91.4131C72.534 96.8225 76.0166 102.11 81.426 103.224L89.0264 104.788C94.4358 105.902 99.7237 102.419 100.837 97.0097L101.24 95.0507Z" fill="black"/>
<path d="M55.3745 104.33L55.0766 106.308" stroke="white" stroke-width="2" stroke-linecap="round"/>
<path d="M75.1514 107.31L74.8534 109.287" stroke="white" stroke-width="2" stroke-linecap="round"/>
<defs>
<linearGradient id="paint0_linear_6016_14956" x1="58.4831" y1="144.958" x2="58.4831" y2="16.8071" gradientUnits="userSpaceOnUse">
<stop stop-color="#DAE5FF"/>
<stop offset="1" stop-color="#7FA5FF"/>
</linearGradient>
</defs>
</svg>
