<svg width="91" height="60" viewBox="0 0 91 60" fill="none" xmlns="http://www.w3.org/2000/svg">
<rect x="0.5" width="90" height="60" rx="20" fill="#1C1D1F"/>
<g opacity="0.4">
<path d="M14.8112 19.9543C14.8112 14.4567 19.2679 10 24.7655 10C30.2632 10 34.7199 14.4567 34.7199 19.9543V27.8082C34.7199 33.3058 30.2632 37.7626 24.7655 37.7626C19.2679 37.7626 14.8112 33.3058 14.8112 27.8082V19.9543Z" fill="#FE4401"/>
<path d="M4.82422 15.0228C4.82422 12.2488 7.07302 10 9.84705 10C12.6211 10 14.8699 12.2488 14.8699 15.0228V38.7671C14.8699 41.5412 12.6211 43.79 9.84705 43.79C7.07302 43.79 4.82422 41.5412 4.82422 38.7671V15.0228Z" fill="#FE4401"/>
<path d="M4.82422 30.0457C4.82422 24.5228 9.34703 20.0457 14.8699 20.0457C20.3927 20.0457 24.9155 24.5228 24.9155 30.0457V40C24.9155 45.5228 20.3927 50 14.8699 50C9.34703 50 4.82422 45.5228 4.82422 40V30.0457Z" fill="#FE4401"/>
<path d="M34.7786 15.0228C34.7786 12.2488 37.0274 10 39.8014 10C42.5754 10 44.8242 12.2488 44.8242 15.0228V38.7671C44.8242 41.5412 42.5754 43.79 39.8014 43.79C37.0274 43.79 34.7786 41.5412 34.7786 38.7671V15.0228Z" fill="#FE4401"/>
<path d="M24.9155 30C24.9155 24.5024 29.3723 20.0457 34.8699 20.0457C40.3675 20.0457 44.8242 24.5024 44.8242 30V40.0457C44.8242 45.5433 40.3675 50 34.8699 50C29.3723 50 24.9155 45.5433 24.9155 40.0457V30Z" fill="#FE4401"/>
<path d="M46.6504 24.5662C46.6504 19.0434 51.1732 14.5662 56.6961 14.5662C62.2189 14.5662 66.7417 19.0434 66.7417 24.5662V40C66.7417 45.5228 62.2189 50 56.6961 50C51.1732 50 46.6504 45.5228 46.6504 40V24.5662Z" fill="#FE4401"/>
<path d="M66.7417 24.5205C66.7417 19.0229 71.1984 14.5662 76.6961 14.5662C82.1937 14.5662 86.6504 19.0229 86.6504 24.5205V40.0457C86.6504 45.5433 82.1937 50 76.6961 50C71.1984 50 66.7417 45.5433 66.7417 40.0457V24.5205Z" fill="#FE4401"/>
<path d="M46.6504 24.7945C46.6504 16.6237 53.2741 10 61.4449 10H71.8559C80.0267 10 86.6504 16.6237 86.6504 24.7945C86.6504 32.9653 80.0267 39.589 71.8559 39.589H61.4449C53.2741 39.589 46.6504 32.9653 46.6504 24.7945Z" fill="#FE4401"/>
<path d="M46.8223 24.5662C46.8223 19.0434 51.3451 14.5662 56.8679 14.5662C62.3908 14.5662 66.9136 19.0434 66.9136 24.5662V40C66.9136 45.5228 62.3908 50 56.8679 50C51.3451 50 46.8223 45.5228 46.8223 40V24.5662Z" fill="#FE4401"/>
<path d="M66.9136 24.5205C66.9136 19.0229 71.3703 14.5662 76.8679 14.5662C82.3656 14.5662 86.8223 19.0229 86.8223 24.5205V40.0457C86.8223 45.5433 82.3656 50 76.8679 50C71.3703 50 66.9136 45.5433 66.9136 40.0457V24.5205Z" fill="#FE4401"/>
<path d="M46.8223 24.7945C46.8223 16.6237 53.446 10 61.6168 10H72.0277C80.1985 10 86.8223 16.6237 86.8223 24.7945C86.8223 32.9653 80.1985 39.589 72.0277 39.589H61.6168C53.446 39.589 46.8223 32.9653 46.8223 24.7945Z" fill="#FE4401"/>
<rect x="9.02344" y="18.5365" width="7.53425" height="11.6027" rx="3.76712" fill="white"/>
<rect x="16.5586" y="18.5365" width="7.53425" height="11.6027" rx="3.76712" fill="white"/>
<rect x="52.6777" y="18.5365" width="7.53425" height="11.6027" rx="3.76712" fill="white"/>
<rect x="60.2129" y="18.5365" width="7.53425" height="11.6027" rx="3.76712" fill="white"/>
<rect x="9.02344" y="22.2101" width="4.21918" height="6.63014" rx="2.10959" fill="#4351EC"/>
<rect x="16.5586" y="22.2101" width="4.21918" height="6.63014" rx="2.10959" fill="#4351EC"/>
<rect x="55.6016" y="20.0184" width="4.21918" height="6.63014" rx="2.10959" fill="#4351EC"/>
<rect x="63.1367" y="20.0184" width="4.21918" height="6.63014" rx="2.10959" fill="#4351EC"/>
</g>
</svg>
