<svg width="91" height="60" viewBox="0 0 91 60" fill="none" xmlns="http://www.w3.org/2000/svg">
<g clip-path="url(#clip0_6253_10066)">
<rect x="0.5" width="90" height="60" rx="20" fill="#1C1D1F"/>
<circle opacity="0.4" cx="33.5" cy="23.5" r="2.5" fill="#ADC4FA"/>
<circle opacity="0.4" cx="26" cy="17" r="5" fill="#ADC4FA"/>
<circle opacity="0.4" cx="32" cy="19.5" r="1.5" fill="#ADC4FA"/>
<g opacity="0.4">
<path d="M44.7766 29.7599C49.5052 24.5428 57.6109 24.1859 62.828 28.9146C68.0451 33.6432 68.4843 41.7449 63.7557 46.962L50.5414 61.5413C45.8128 66.7584 37.707 67.1153 32.4899 62.3867C27.2728 57.6581 26.8337 49.5564 31.5623 44.3393L44.7766 29.7599Z" fill="#4351EC"/>
<path d="M63.7948 46.9188C68.5018 41.7255 76.5276 41.3314 81.7208 46.0384C86.9141 50.7454 87.3083 58.7712 82.6013 63.9645L69.3088 78.6301C64.6018 83.8234 56.576 84.2176 51.3827 79.5106C46.1895 74.8035 45.7953 66.7778 50.5023 61.5845L63.7948 46.9188Z" fill="#4351EC"/>
<path d="M44.5811 29.9756C51.5769 22.2572 63.5051 21.6713 71.2235 28.6671L81.0582 37.5808C88.7766 44.5766 89.3625 56.5048 82.3667 64.2233C75.371 71.9417 63.4427 72.5276 55.7243 65.5318L45.8897 56.6181C38.1712 49.6223 37.5854 37.6941 44.5811 29.9756Z" fill="#4351EC"/>
<rect width="23.2861" height="17.9303" transform="translate(56.6855 28.0624) rotate(42.1881)" fill="#4351EC"/>
<rect x="56.6855" y="28.0624" width="11.6431" height="17.9303" rx="5.82153" transform="rotate(42.1881 56.6855 28.0624)" fill="#ADC4FA"/>
<rect x="65.3125" y="35.8815" width="11.6431" height="17.9303" rx="5.82153" transform="rotate(42.1881 65.3125 35.8815)" fill="#ADC4FA"/>
<path d="M65.7942 52.1348C66.055 52.3712 66.4582 52.3514 66.6946 52.0905C66.931 51.8297 66.9112 51.4266 66.6504 51.1901L65.7942 52.1348ZM49.2188 36.251L48.7907 36.7233L65.7942 52.1348L66.2223 51.6624L66.6504 51.1901L49.6468 35.7787L49.2188 36.251Z" fill="#4351EC"/>
</g>
</g>
<defs>
<clipPath id="clip0_6253_10066">
<rect x="0.5" width="90" height="60" rx="20" fill="white"/>
</clipPath>
</defs>
</svg>
