<svg width="140" height="63" viewBox="0 0 140 63" fill="none" xmlns="http://www.w3.org/2000/svg">
<path d="M2.27273 23.8864V15.7728H40.5V23.8864H26.25V62.3182H16.5227V23.8864H2.27273ZM42.5806 62.3182V27.4091H51.967V33.5001H52.3306C52.967 31.3334 54.0352 29.697 55.5352 28.591C57.0352 27.4698 58.7625 26.9091 60.717 26.9091C61.2018 26.9091 61.7246 26.9394 62.2852 27.0001C62.8458 27.0607 63.3382 27.144 63.7625 27.2501V35.841C63.3079 35.7046 62.6791 35.5834 61.8761 35.4773C61.0731 35.3713 60.3382 35.3182 59.6715 35.3182C58.2473 35.3182 56.9746 35.6288 55.8534 36.2501C54.7473 36.8561 53.8685 37.7046 53.217 38.7955C52.5806 39.8864 52.2625 41.144 52.2625 42.5682V62.3182H42.5806ZM68.3601 62.3182V27.4091H78.042V62.3182H68.3601ZM73.2238 22.9091C71.7844 22.9091 70.5495 22.4319 69.5192 21.4773C68.5041 20.5076 67.9965 19.3485 67.9965 18.0001C67.9965 16.6667 68.5041 15.5228 69.5192 14.5682C70.5495 13.5985 71.7844 13.1137 73.2238 13.1137C74.6632 13.1137 75.8904 13.5985 76.9056 14.5682C77.9359 15.5228 78.451 16.6667 78.451 18.0001C78.451 19.3485 77.9359 20.5076 76.9056 21.4773C75.8904 22.4319 74.6632 22.9091 73.2238 22.9091ZM128.344 39.0455C128.344 44.1213 127.382 48.4394 125.458 52.0001C123.549 55.5607 120.943 58.2804 117.64 60.1591C114.352 62.0228 110.655 62.9546 106.549 62.9546C102.412 62.9546 98.7002 62.0152 95.4124 60.1364C92.1245 58.2576 89.526 55.5379 87.6169 51.9773C85.7078 48.4167 84.7533 44.1061 84.7533 39.0455C84.7533 33.9698 85.7078 29.6516 87.6169 26.091C89.526 22.5304 92.1245 19.8182 95.4124 17.9546C98.7002 16.0758 102.412 15.1364 106.549 15.1364C110.655 15.1364 114.352 16.0758 117.64 17.9546C120.943 19.8182 123.549 22.5304 125.458 26.091C127.382 29.6516 128.344 33.9698 128.344 39.0455ZM118.367 39.0455C118.367 35.7576 117.874 32.9849 116.89 30.7273C115.92 28.4698 114.549 26.7576 112.776 25.591C111.003 24.4243 108.928 23.841 106.549 23.841C104.17 23.841 102.094 24.4243 100.321 25.591C98.5487 26.7576 97.1699 28.4698 96.1851 30.7273C95.2154 32.9849 94.7305 35.7576 94.7305 39.0455C94.7305 42.3334 95.2154 45.1061 96.1851 47.3637C97.1699 49.6213 98.5487 51.3334 100.321 52.5001C102.094 53.6667 104.17 54.2501 106.549 54.2501C108.928 54.2501 111.003 53.6667 112.776 52.5001C114.549 51.3334 115.92 49.6213 116.89 47.3637C117.874 45.1061 118.367 42.3334 118.367 39.0455Z" fill="#FF6637"/>
<path d="M119.189 20.5069C118.086 19.9832 117.298 19.2841 116.827 18.4095C116.36 17.537 116.221 16.5258 116.409 15.3761C116.603 14.2284 117.136 12.9889 118.008 11.6577C118.873 10.3285 119.823 9.29541 120.857 8.5584C121.895 7.82341 122.97 7.3982 124.08 7.28278C125.198 7.16541 126.307 7.36554 127.408 7.88318C128.51 8.40083 129.296 9.09197 129.769 9.9566C130.245 10.8232 130.393 11.8255 130.212 12.9633C130.033 14.0972 129.509 15.3277 128.639 16.6549C127.769 17.9921 126.81 19.0341 125.764 19.781C124.723 20.5299 123.643 20.968 122.524 21.0954C121.406 21.2227 120.294 21.0265 119.189 20.5069ZM120.58 18.3702C121.334 18.7247 122.165 18.6565 123.072 18.1657C123.979 17.6749 124.888 16.7261 125.798 15.3195C126.4 14.395 126.799 13.5769 126.993 12.8652C127.192 12.1555 127.206 11.5583 127.035 11.0736C126.868 10.5909 126.534 10.2317 126.033 9.99606C125.283 9.64358 124.457 9.70878 123.555 10.1917C122.653 10.6745 121.748 11.6074 120.843 12.9901C120.233 13.9265 119.825 14.7555 119.618 15.4771C119.418 16.1967 119.402 16.8009 119.571 17.2896C119.742 17.7743 120.078 18.1345 120.58 18.3702Z" fill="#FF6637"/>
<path d="M111.128 16.7637C110.211 16.7537 109.425 16.5227 108.769 16.0707C108.117 15.6187 107.617 14.9671 107.27 14.1159C106.927 13.2648 106.762 12.2427 106.778 11.0496C106.789 9.85998 106.975 8.8474 107.334 8.01183C107.698 7.17629 108.21 6.54243 108.871 6.11026C109.536 5.67456 110.324 5.4599 111.237 5.46629C112.15 5.47267 112.932 5.69832 113.585 6.14324C114.241 6.58818 114.743 7.23091 115.09 8.07142C115.437 8.90838 115.603 9.92164 115.588 11.1112C115.576 12.3079 115.389 13.3293 115.025 14.1755C114.666 15.0217 114.155 15.6662 113.494 16.1091C112.833 16.5519 112.044 16.7701 111.128 16.7637ZM111.146 14.8515C111.771 14.8559 112.273 14.5451 112.652 13.9192C113.031 13.2933 113.225 12.3518 113.233 11.0947C113.241 10.2673 113.163 9.57786 112.998 9.02626C112.836 8.47469 112.602 8.05934 112.296 7.7802C111.993 7.50109 111.634 7.36008 111.219 7.35718C110.597 7.35283 110.097 7.66006 109.718 8.27887C109.339 8.89768 109.142 9.82672 109.127 11.066C109.119 11.904 109.195 12.6041 109.357 13.1664C109.522 13.7251 109.757 14.1457 110.064 14.4284C110.37 14.7076 110.731 14.8486 111.146 14.8515Z" fill="#FF6637"/>
</svg>
