<svg width="60" height="30" viewBox="0 0 60 30" fill="none" xmlns="http://www.w3.org/2000/svg">
<path d="M7.32301 7.29908C7.32301 3.26791 10.5909 0 14.6221 0C18.6533 0 21.9212 3.26791 21.9212 7.29908V13.058C21.9212 17.0892 18.6533 20.3571 14.6221 20.3571C10.5909 20.3571 7.32301 17.0892 7.32301 13.058V7.29908Z" fill="#4351EC"/>
<path d="M0 3.68302C0 1.64894 1.64895 0 3.68302 0C5.7171 0 7.36604 1.64895 7.36604 3.68302V21.0937C7.36604 23.1277 5.7171 24.7767 3.68302 24.7767C1.64895 24.7767 0 23.1277 0 21.0937V3.68302Z" fill="#4351EC"/>
<path d="M0 14.6986C0 10.6489 3.31638 7.36604 7.36604 7.36604C11.4157 7.36604 14.7321 10.6489 14.7321 14.6986V21.9977C14.7321 26.0473 11.4157 29.3302 7.36604 29.3302C3.31638 29.3302 0 26.0473 0 21.9977V14.6986Z" fill="#4351EC"/>
<path d="M21.9642 3.68302C21.9642 1.64894 23.6131 0 25.6472 0C27.6813 0 29.3302 1.64895 29.3302 3.68302V21.0937C29.3302 23.1277 27.6813 24.7767 25.6472 24.7767C23.6131 24.7767 21.9642 23.1277 21.9642 21.0937V3.68302Z" fill="#4351EC"/>
<path d="M14.7321 14.6651C14.7321 10.634 18 7.36604 22.0312 7.36604C26.0623 7.36604 29.3302 10.634 29.3302 14.6651V22.0312C29.3302 26.0623 26.0623 29.3302 22.0312 29.3302C18 29.3302 14.7321 26.0623 14.7321 22.0312V14.6651Z" fill="#4351EC"/>
<path d="M30.332 10.6808C30.332 6.6311 33.6484 3.3482 37.6981 3.3482C41.7477 3.3482 45.0641 6.6311 45.0641 10.6808V21.9977C45.0641 26.0473 41.7477 29.3302 37.6981 29.3302C33.6484 29.3302 30.332 26.0473 30.332 21.9977V10.6808Z" fill="#4351EC"/>
<path d="M45.0641 10.6473C45.0641 6.61611 48.332 3.3482 52.3632 3.3482C56.3944 3.3482 59.6623 6.61611 59.6623 10.6473V22.0312C59.6623 26.0623 56.3944 29.3302 52.3632 29.3302C48.332 29.3302 45.0641 26.0623 45.0641 22.0312V10.6473Z" fill="#4351EC"/>
<path d="M30.332 10.8482C30.332 4.85689 35.1889 0 41.1802 0H48.8141C54.8054 0 59.6623 4.85689 59.6623 10.8482C59.6623 16.8395 54.8054 21.6963 48.8141 21.6963H41.1802C35.1889 21.6963 30.332 16.8395 30.332 10.8482Z" fill="#4351EC"/>
<rect x="3.08203" y="5.35938" width="6.6964" height="10.3125" rx="3.3482" fill="white"/>
<rect x="9.77734" y="5.35938" width="6.6964" height="10.3125" rx="3.3482" fill="white"/>
<rect x="35.0898" y="5.35938" width="6.6964" height="10.3125" rx="3.3482" fill="white"/>
<rect x="41.7852" y="5.35938" width="6.6964" height="10.3125" rx="3.3482" fill="white"/>
<rect x="3.08203" y="8.4375" width="3.74999" height="5.89283" rx="1.87499" fill="black"/>
<rect x="9.77734" y="8.4375" width="3.74999" height="5.89283" rx="1.87499" fill="black"/>
<rect x="37.2344" y="6.82812" width="3.74999" height="5.89283" rx="1.87499" fill="black"/>
<rect x="43.9297" y="6.82812" width="3.74999" height="5.89283" rx="1.87499" fill="black"/>
</svg>
