<svg width="143" height="87" viewBox="0 0 143 87" fill="none" xmlns="http://www.w3.org/2000/svg">
<path d="M36.2701 12.276C36.2701 6.01345 41.3469 0.936646 47.6095 0.936646C53.872 0.936646 58.9488 6.01345 58.9488 12.276V21.2227C58.9488 27.4852 53.872 32.562 47.6095 32.562C41.3469 32.562 36.2701 27.4852 36.2701 21.2227V12.276Z" fill="#FE4401"/>
<path d="M24.8936 6.65834C24.8936 3.49834 27.4552 0.936646 30.6153 0.936646C33.7753 0.936646 36.3369 3.49834 36.3369 6.65834V33.7064C36.3369 36.8664 33.7753 39.4281 30.6153 39.4281C27.4552 39.4281 24.8936 36.8664 24.8936 33.7064V6.65834Z" fill="#FE4401"/>
<path d="M24.8936 23.7714C24.8936 17.4801 30.0457 12.38 36.3369 12.38C42.6282 12.38 47.7803 17.4801 47.7803 23.7714V35.1108C47.7803 41.4021 42.6282 46.5022 36.3369 46.5022C30.0457 46.5022 24.8936 41.4021 24.8936 35.1108V23.7714Z" fill="#FE4401"/>
<path d="M59.0157 6.65834C59.0157 3.49834 61.5774 0.936646 64.7374 0.936646C67.8974 0.936646 70.4591 3.49834 70.4591 6.65834V33.7064C70.4591 36.8664 67.8974 39.4281 64.7374 39.4281C61.5774 39.4281 59.0157 36.8664 59.0157 33.7064V6.65834Z" fill="#FE4401"/>
<path d="M47.7803 23.7194C47.7803 17.4568 52.8571 12.38 59.1197 12.38C65.3823 12.38 70.4591 17.4568 70.4591 23.7194V35.1628C70.4591 41.4254 65.3823 46.5022 59.1197 46.5022C52.8571 46.5022 47.7803 41.4254 47.7803 35.1628V23.7194Z" fill="#FE4401"/>
<path d="M72.54 17.5296C72.54 11.2383 77.6921 6.13819 83.9834 6.13819C90.2747 6.13819 95.4268 11.2383 95.4268 17.5296V35.1108C95.4268 41.4021 90.2747 46.5022 83.9834 46.5022C77.6921 46.5022 72.54 41.4021 72.54 35.1108V17.5296Z" fill="#FE4401"/>
<path d="M95.4268 17.4776C95.4268 11.215 100.504 6.13819 106.766 6.13819C113.029 6.13819 118.106 11.215 118.106 17.4776V35.1628C118.106 41.4254 113.029 46.5022 106.766 46.5022C100.504 46.5022 95.4268 41.4254 95.4268 35.1628V17.4776Z" fill="#FE4401"/>
<path d="M72.54 17.7896C72.54 8.48199 80.0854 0.936646 89.393 0.936646H101.253C110.56 0.936646 118.106 8.48199 118.106 17.7896C118.106 27.0973 110.56 34.6426 101.253 34.6426H89.393C80.0854 34.6426 72.54 27.0973 72.54 17.7896Z" fill="#FE4401"/>
<rect x="29.6787" y="9.25903" width="10.4031" height="16.0207" rx="5.20154" fill="white"/>
<rect x="40.082" y="9.25903" width="10.4031" height="16.0207" rx="5.20154" fill="white"/>
<rect x="79.4053" y="9.25903" width="10.4031" height="16.0207" rx="5.20154" fill="white"/>
<rect x="89.8086" y="9.25903" width="10.4031" height="16.0207" rx="5.20154" fill="white"/>
<rect x="29.6787" y="14.0444" width="5.82573" height="9.15471" rx="2.91286" fill="#4351EC"/>
<rect x="40.082" y="14.0444" width="5.82573" height="9.15471" rx="2.91286" fill="#4351EC"/>
<rect x="82.7354" y="11.5479" width="5.82573" height="9.15471" rx="2.91286" fill="#4351EC"/>
<rect x="93.1387" y="11.5479" width="5.82573" height="9.15471" rx="2.91286" fill="#4351EC"/>
<path d="M4.85887 75.0416C4.7005 75.0704 4.46296 75.1064 4.14623 75.1496C3.8439 75.2072 3.53438 75.236 3.21765 75.236C2.90092 75.236 2.61299 75.2144 2.35385 75.1712C2.10911 75.128 1.90036 75.0416 1.7276 74.9121C1.55484 74.7825 1.41807 74.6097 1.31729 74.3938C1.23091 74.1634 1.18772 73.8683 1.18772 73.5084V60.9833C1.34609 60.9545 1.57643 60.9185 1.87876 60.8753C2.19549 60.8178 2.51221 60.789 2.82894 60.789C3.14567 60.789 3.4264 60.8106 3.67114 60.8537C3.93028 60.8969 4.14623 60.9833 4.31899 61.1129C4.49175 61.2425 4.62132 61.4224 4.7077 61.6528C4.80848 61.8687 4.85887 62.1566 4.85887 62.5166V75.0416ZM12.2934 75.4088C11.444 75.4088 10.6522 75.2936 9.91799 75.0632C9.19816 74.8185 8.56471 74.4586 8.01764 73.9835C7.48496 73.5084 7.06026 72.9109 6.74353 72.1911C6.4412 71.4713 6.29004 70.6291 6.29004 69.6645C6.29004 68.7143 6.4412 67.9009 6.74353 67.2243C7.06026 66.5332 7.47056 65.9718 7.97445 65.5399C8.47833 65.0936 9.0542 64.7696 9.70204 64.5681C10.3499 64.3521 11.0121 64.2442 11.6888 64.2442C12.4518 64.2442 13.1428 64.3593 13.7619 64.5897C14.3954 64.82 14.9352 65.1367 15.3815 65.5399C15.8422 65.943 16.1949 66.4252 16.4397 66.9867C16.6988 67.5482 16.8284 68.16 16.8284 68.8223C16.8284 69.3118 16.6916 69.6861 16.4181 69.9452C16.1445 70.2044 15.763 70.3699 15.2735 70.4419L9.93959 71.2409C10.098 71.716 10.4219 72.0759 10.9114 72.3207C11.4008 72.551 11.9623 72.6662 12.5958 72.6662C13.186 72.6662 13.7403 72.5942 14.2586 72.4502C14.7913 72.2919 15.2232 72.1119 15.5543 71.9104C15.7846 72.0543 15.979 72.2559 16.1373 72.515C16.2957 72.7742 16.3749 73.0477 16.3749 73.3356C16.3749 73.9835 16.0726 74.4658 15.4679 74.7825C15.0072 75.0272 14.4889 75.1928 13.9131 75.2792C13.3372 75.3656 12.7973 75.4088 12.2934 75.4088ZM11.6888 66.9219C11.3433 66.9219 11.0409 66.9795 10.7818 67.0947C10.537 67.2099 10.3355 67.361 10.1771 67.5482C10.0188 67.7209 9.8964 67.9225 9.81002 68.1528C9.73804 68.3688 9.69485 68.5919 9.68045 68.8223L13.3732 68.2176C13.33 67.9297 13.1716 67.6418 12.8981 67.3538C12.6246 67.0659 12.2215 66.9219 11.6888 66.9219ZM21.8347 71.4569C21.8347 71.8312 21.9499 72.0975 22.1802 72.2559C22.425 72.4142 22.7633 72.4934 23.1952 72.4934C23.4111 72.4934 23.6343 72.479 23.8646 72.4502C24.095 72.4071 24.2965 72.3567 24.4693 72.2991C24.5989 72.4574 24.7068 72.6374 24.7932 72.839C24.894 73.0261 24.9444 73.2565 24.9444 73.53C24.9444 74.0771 24.7356 74.5234 24.3181 74.8689C23.915 75.2144 23.1952 75.3872 22.1586 75.3872C20.8917 75.3872 19.9128 75.0992 19.2217 74.5234C18.5451 73.9475 18.2067 73.0117 18.2067 71.716V62.4734C18.3651 62.4302 18.5883 62.387 18.8762 62.3438C19.1785 62.2862 19.4952 62.2574 19.8264 62.2574C20.4598 62.2574 20.9493 62.3726 21.2948 62.6029C21.6547 62.8189 21.8347 63.2868 21.8347 64.0066V65.3887H24.6636C24.75 65.5471 24.8292 65.7486 24.9012 65.9933C24.9876 66.2237 25.0308 66.4828 25.0308 66.7708C25.0308 67.2746 24.9156 67.6418 24.6852 67.8721C24.4693 68.0881 24.1742 68.196 23.7998 68.196H21.8347V71.4569ZM28.7485 65.9502C28.5901 66.1949 28.4029 66.3749 28.187 66.49C27.971 66.6052 27.6975 66.6628 27.3664 66.6628C27.0929 66.6628 26.8409 66.634 26.6106 66.5764C26.3802 66.5188 26.1571 66.4396 25.9411 66.3389C26.0131 65.4607 26.0851 64.5825 26.1571 63.7043C26.2291 62.8261 26.2794 62.0127 26.3082 61.264C26.5098 61.1489 26.7689 61.0409 27.0857 60.9401C27.4168 60.8393 27.7335 60.789 28.0358 60.789C28.2662 60.789 28.4893 60.8106 28.7053 60.8537C28.9356 60.8969 29.1372 60.9761 29.3099 61.0913C29.4827 61.1921 29.6195 61.336 29.7202 61.5232C29.821 61.6959 29.8714 61.9119 29.8714 62.171C29.8714 62.459 29.8426 62.7757 29.785 63.1212C29.7274 63.4667 29.6411 63.8123 29.5259 64.1578C29.4251 64.5033 29.3027 64.8344 29.1588 65.1511C29.0292 65.4679 28.8924 65.7342 28.7485 65.9502ZM39.1866 71.932C39.1866 73.0261 38.7763 73.8827 37.9557 74.5018C37.1351 75.1208 35.9258 75.4303 34.3277 75.4303C33.7231 75.4303 33.1616 75.3872 32.6433 75.3008C32.125 75.2144 31.6787 75.0848 31.3044 74.9121C30.9445 74.7249 30.6566 74.4946 30.4406 74.221C30.2391 73.9475 30.1383 73.6236 30.1383 73.2493C30.1383 72.9037 30.2103 72.6158 30.3543 72.3855C30.4982 72.1407 30.671 71.9392 30.8725 71.7808C31.29 72.0111 31.7651 72.2199 32.2978 72.4071C32.8449 72.5798 33.4711 72.6662 34.1766 72.6662C34.6229 72.6662 34.9612 72.6014 35.1915 72.4718C35.4363 72.3423 35.5586 72.1695 35.5586 71.9536C35.5586 71.752 35.4723 71.5936 35.2995 71.4785C35.1267 71.3633 34.8388 71.2697 34.4357 71.1977L33.7879 71.0682C32.5353 70.8234 31.5996 70.4419 30.9805 69.9236C30.3758 69.391 30.0735 68.6351 30.0735 67.6562C30.0735 67.1235 30.1887 66.6412 30.419 66.2093C30.6494 65.7774 30.9733 65.4175 31.3908 65.1295C31.8083 64.8416 32.305 64.6185 32.8809 64.4601C33.4711 64.3017 34.119 64.2226 34.8244 64.2226C35.3571 64.2226 35.8538 64.2657 36.3145 64.3521C36.7896 64.4241 37.1999 64.5393 37.5454 64.6976C37.8909 64.856 38.1644 65.0648 38.366 65.3239C38.5675 65.5686 38.6683 65.8638 38.6683 66.2093C38.6683 66.5404 38.6035 66.8284 38.474 67.0731C38.3588 67.3034 38.2076 67.4978 38.0205 67.6562C37.9053 67.5842 37.7325 67.5122 37.5022 67.4402C37.2718 67.3538 37.0199 67.2818 36.7464 67.2243C36.4728 67.1523 36.1921 67.0947 35.9042 67.0515C35.6306 67.0083 35.3787 66.9867 35.1483 66.9867C34.6732 66.9867 34.3061 67.0443 34.047 67.1595C33.7879 67.2603 33.6583 67.4258 33.6583 67.6562C33.6583 67.8145 33.7303 67.9441 33.8742 68.0449C34.0182 68.1456 34.2917 68.2392 34.6948 68.3256L35.3643 68.4768C36.7464 68.7935 37.7253 69.2326 38.3012 69.7941C38.8915 70.3411 39.1866 71.0538 39.1866 71.932ZM50.4026 74.7393C50.2011 74.9121 49.9276 75.0488 49.582 75.1496C49.2365 75.2648 48.8262 75.3224 48.3511 75.3224C47.7609 75.3224 47.2498 75.236 46.8179 75.0632C46.386 74.9049 46.0981 74.6745 45.9541 74.3722C45.7957 74.0267 45.6086 73.4796 45.3926 72.731C45.1911 71.9824 44.9895 71.1617 44.788 70.2691C44.5864 69.3766 44.392 68.4696 44.2049 67.5482C44.0321 66.6268 43.8954 65.8134 43.7946 65.108C43.9961 64.9064 44.2625 64.7336 44.5936 64.5897C44.9391 64.4313 45.3134 64.3521 45.7165 64.3521C46.2204 64.3521 46.6307 64.4673 46.9475 64.6976C47.2786 64.9136 47.4801 65.2951 47.5521 65.8422C47.6961 66.9363 47.8185 67.8433 47.9192 68.5631C48.02 69.2686 48.0992 69.8516 48.1568 70.3123C48.2288 70.7586 48.2791 71.1042 48.3079 71.3489C48.3511 71.5792 48.3871 71.7664 48.4159 71.9104H48.5023C48.5455 71.68 48.6175 71.3489 48.7182 70.917C48.8334 70.4707 48.963 69.9668 49.107 69.4054C49.2509 68.8439 49.4021 68.2392 49.5604 67.5914C49.7188 66.9291 49.8772 66.2741 50.0355 65.6262C50.3235 65.4679 50.6042 65.3455 50.8777 65.2591C51.1657 65.1727 51.5184 65.1295 51.9359 65.1295C52.4398 65.1295 52.8717 65.2087 53.2316 65.3671C53.5915 65.5255 53.8219 65.7702 53.9226 66.1013C54.0954 66.7348 54.2609 67.3538 54.4193 67.9585C54.5777 68.5488 54.7216 69.103 54.8512 69.6213C54.9808 70.1252 55.096 70.5787 55.1967 70.9818C55.2975 71.3705 55.3695 71.68 55.4127 71.9104H55.5207C55.679 70.8018 55.8302 69.6501 55.9741 68.4552C56.1325 67.2603 56.2765 66.0437 56.406 64.8056C56.6652 64.6473 56.9387 64.5321 57.2267 64.4601C57.5146 64.3881 57.8025 64.3521 58.0905 64.3521C58.5943 64.3521 59.0118 64.4601 59.343 64.6761C59.6741 64.892 59.8396 65.2663 59.8396 65.799C59.8396 66.0293 59.8037 66.3749 59.7317 66.8356C59.6597 67.2962 59.5661 67.8145 59.4509 68.3904C59.3358 68.9663 59.199 69.5709 59.0406 70.2044C58.8967 70.8378 58.7455 71.4497 58.5871 72.0399C58.4432 72.6302 58.2992 73.1629 58.1552 73.638C58.0257 74.1131 57.9105 74.4802 57.8097 74.7393C57.6082 74.9121 57.2986 75.0488 56.8811 75.1496C56.4636 75.2648 56.0173 75.3224 55.5423 75.3224C54.3329 75.3224 53.6203 75.02 53.4043 74.4154C53.318 74.1562 53.21 73.8323 53.0804 73.4436C52.9509 73.0405 52.8141 72.6014 52.6701 72.1263C52.5262 71.6512 52.3894 71.1617 52.2598 70.6579C52.1302 70.1396 52.0223 69.6429 51.9359 69.1678C51.8351 69.6717 51.7127 70.1972 51.5688 70.7442C51.4248 71.2769 51.2736 71.8024 51.1153 72.3207C50.9713 72.8246 50.8345 73.2924 50.705 73.7243C50.5754 74.1418 50.4746 74.4802 50.4026 74.7393ZM71.9332 69.8157C71.9332 70.7082 71.7964 71.5073 71.5229 72.2127C71.2493 72.9037 70.8606 73.4868 70.3567 73.9619C69.8672 74.437 69.277 74.7969 68.5859 75.0416C67.8949 75.2864 67.1247 75.4088 66.2753 75.4088C65.4259 75.4088 64.6557 75.2792 63.9646 75.02C63.2736 74.7609 62.6761 74.3938 62.1722 73.9187C61.6828 73.4292 61.3012 72.839 61.0277 72.1479C60.7542 71.4569 60.6174 70.6795 60.6174 69.8157C60.6174 68.9663 60.7542 68.196 61.0277 67.505C61.3012 66.814 61.6828 66.2309 62.1722 65.7558C62.6761 65.2663 63.2736 64.892 63.9646 64.6329C64.6557 64.3737 65.4259 64.2442 66.2753 64.2442C67.1247 64.2442 67.8949 64.3809 68.5859 64.6545C69.277 64.9136 69.8672 65.2879 70.3567 65.7774C70.8606 66.2525 71.2493 66.8356 71.5229 67.5266C71.7964 68.2176 71.9332 68.9807 71.9332 69.8157ZM64.3749 69.8157C64.3749 70.6939 64.5405 71.3705 64.8716 71.8456C65.2171 72.3063 65.6922 72.5366 66.2969 72.5366C66.9015 72.5366 67.3622 72.2991 67.679 71.824C68.0101 71.3489 68.1756 70.6795 68.1756 69.8157C68.1756 68.9519 68.0101 68.2896 67.679 67.8289C67.3478 67.3538 66.8799 67.1163 66.2753 67.1163C65.6706 67.1163 65.2027 67.3538 64.8716 67.8289C64.5405 68.2896 64.3749 68.9519 64.3749 69.8157ZM76.9634 75.0416C76.8195 75.0848 76.5891 75.128 76.2724 75.1712C75.9701 75.2144 75.6533 75.236 75.3222 75.236C75.0055 75.236 74.7176 75.2144 74.4584 75.1712C74.2137 75.128 74.0049 75.0416 73.8322 74.9121C73.6594 74.7825 73.5226 74.6097 73.4219 74.3938C73.3355 74.1634 73.2923 73.8683 73.2923 73.5084V67.0299C73.2923 66.6988 73.3499 66.418 73.4651 66.1877C73.5946 65.943 73.7746 65.727 74.0049 65.5399C74.2353 65.3527 74.516 65.1871 74.8471 65.0432C75.1927 64.8848 75.5598 64.748 75.9485 64.6329C76.3372 64.5177 76.7403 64.4313 77.1578 64.3737C77.5753 64.3017 77.9928 64.2657 78.4103 64.2657C79.1013 64.2657 79.6484 64.4025 80.0515 64.6761C80.4546 64.9352 80.6562 65.3671 80.6562 65.9718C80.6562 66.1733 80.6274 66.3749 80.5698 66.5764C80.5122 66.7636 80.4402 66.9363 80.3538 67.0947C80.0515 67.0947 79.742 67.1091 79.4253 67.1379C79.1085 67.1667 78.799 67.2099 78.4967 67.2674C78.1944 67.325 77.9064 67.3898 77.6329 67.4618C77.3737 67.5194 77.1506 67.5914 76.9634 67.6778V75.0416ZM91.9964 73.1629C91.9244 73.8395 91.7229 74.3578 91.3917 74.7177C91.075 75.0776 90.6071 75.2576 89.9881 75.2576C89.5274 75.2576 89.1171 75.1496 88.7572 74.9337C88.3972 74.7033 88.0085 74.3218 87.591 73.7891L85.4531 71.1114V75.0416C85.2948 75.0704 85.0572 75.1064 84.7405 75.1496C84.4382 75.2072 84.1286 75.236 83.8119 75.236C83.4952 75.236 83.2073 75.2144 82.9481 75.1712C82.7034 75.128 82.4946 75.0416 82.3219 74.9121C82.1491 74.7825 82.0123 74.6097 81.9116 74.3938C81.8252 74.1634 81.782 73.8683 81.782 73.5084V61.0049C81.9404 60.9617 82.1707 60.9185 82.473 60.8753C82.7898 60.8178 83.1065 60.789 83.4232 60.789C83.7399 60.789 84.0207 60.8106 84.2654 60.8537C84.5245 60.8969 84.7405 60.9833 84.9133 61.1129C85.086 61.2425 85.2156 61.4224 85.302 61.6528C85.4027 61.8687 85.4531 62.1566 85.4531 62.5166V68.2176L89.1675 64.4169C89.9161 64.4169 90.5136 64.5825 90.9598 64.9136C91.4205 65.2447 91.6509 65.6622 91.6509 66.1661C91.6509 66.3821 91.6149 66.5836 91.5429 66.7708C91.4709 66.9435 91.3558 67.1235 91.1974 67.3106C91.0534 67.4978 90.8591 67.6993 90.6143 67.9153C90.384 68.1169 90.1104 68.3544 89.7937 68.6279L88.5412 69.7077L91.9964 73.1629ZM97.8193 72.731C98.064 72.731 98.3304 72.7094 98.6183 72.6662C98.9206 72.6086 99.1438 72.5366 99.2877 72.4502V70.7226L97.7329 70.8522C97.3298 70.881 96.9987 70.9674 96.7395 71.1114C96.4804 71.2553 96.3508 71.4713 96.3508 71.7592C96.3508 72.0471 96.4588 72.2847 96.6748 72.4718C96.9051 72.6446 97.2866 72.731 97.8193 72.731ZM97.6465 64.2442C98.4239 64.2442 99.1294 64.3233 99.7628 64.4817C100.411 64.6401 100.958 64.8848 101.404 65.2159C101.865 65.5327 102.217 65.943 102.462 66.4468C102.707 66.9363 102.829 67.5194 102.829 68.196V73.0333C102.829 73.4076 102.721 73.7171 102.505 73.9619C102.304 74.1922 102.059 74.3938 101.771 74.5665C100.835 75.128 99.5181 75.4088 97.8193 75.4088C97.0563 75.4088 96.3652 75.3368 95.7462 75.1928C95.1415 75.0488 94.616 74.8329 94.1697 74.545C93.7378 74.257 93.3995 73.8899 93.1548 73.4436C92.9244 72.9973 92.8093 72.479 92.8093 71.8888C92.8093 70.8954 93.1044 70.1324 93.6947 69.5997C94.2849 69.067 95.1991 68.7359 96.4372 68.6063L99.2662 68.304V68.1528C99.2662 67.7353 99.079 67.4402 98.7047 67.2674C98.3448 67.0803 97.8193 66.9867 97.1282 66.9867C96.5812 66.9867 96.0485 67.0443 95.5302 67.1595C95.0119 67.2746 94.5441 67.4186 94.1265 67.5914C93.9394 67.4618 93.781 67.2674 93.6515 67.0083C93.5219 66.7348 93.4571 66.454 93.4571 66.1661C93.4571 65.7918 93.5435 65.4967 93.7162 65.2807C93.9034 65.0504 94.1841 64.856 94.5584 64.6976C94.976 64.5393 95.4654 64.4241 96.0269 64.3521C96.6028 64.2801 97.1426 64.2442 97.6465 64.2442ZM110.476 74.7393C110.275 74.9121 110.001 75.0488 109.656 75.1496C109.31 75.2648 108.9 75.3224 108.425 75.3224C107.835 75.3224 107.323 75.236 106.892 75.0632C106.46 74.9049 106.172 74.6745 106.028 74.3722C105.869 74.0267 105.682 73.4796 105.466 72.731C105.265 71.9824 105.063 71.1617 104.862 70.2691C104.66 69.3766 104.466 68.4696 104.279 67.5482C104.106 66.6268 103.969 65.8134 103.868 65.108C104.07 64.9064 104.336 64.7336 104.667 64.5897C105.013 64.4313 105.387 64.3521 105.79 64.3521C106.294 64.3521 106.704 64.4673 107.021 64.6976C107.352 64.9136 107.554 65.2951 107.626 65.8422C107.77 66.9363 107.892 67.8433 107.993 68.5631C108.094 69.2686 108.173 69.8516 108.23 70.3123C108.302 70.7586 108.353 71.1042 108.382 71.3489C108.425 71.5792 108.461 71.7664 108.49 71.9104H108.576C108.619 71.68 108.691 71.3489 108.792 70.917C108.907 70.4707 109.037 69.9668 109.181 69.4054C109.325 68.8439 109.476 68.2392 109.634 67.5914C109.792 66.9291 109.951 66.2741 110.109 65.6262C110.397 65.4679 110.678 65.3455 110.951 65.2591C111.239 65.1727 111.592 65.1295 112.01 65.1295C112.513 65.1295 112.945 65.2087 113.305 65.3671C113.665 65.5255 113.895 65.7702 113.996 66.1013C114.169 66.7348 114.335 67.3538 114.493 67.9585C114.651 68.5488 114.795 69.103 114.925 69.6213C115.054 70.1252 115.17 70.5787 115.27 70.9818C115.371 71.3705 115.443 71.68 115.486 71.9104H115.594C115.753 70.8018 115.904 69.6501 116.048 68.4552C116.206 67.2603 116.35 66.0437 116.48 64.8056C116.739 64.6473 117.012 64.5321 117.3 64.4601C117.588 64.3881 117.876 64.3521 118.164 64.3521C118.668 64.3521 119.085 64.4601 119.417 64.6761C119.748 64.892 119.913 65.2663 119.913 65.799C119.913 66.0293 119.877 66.3749 119.805 66.8356C119.733 67.2962 119.64 67.8145 119.525 68.3904C119.409 68.9663 119.273 69.5709 119.114 70.2044C118.97 70.8378 118.819 71.4497 118.661 72.0399C118.517 72.6302 118.373 73.1629 118.229 73.638C118.099 74.1131 117.984 74.4802 117.883 74.7393C117.682 74.9121 117.372 75.0488 116.955 75.1496C116.537 75.2648 116.091 75.3224 115.616 75.3224C114.407 75.3224 113.694 75.02 113.478 74.4154C113.392 74.1562 113.284 73.8323 113.154 73.4436C113.025 73.0405 112.888 72.6014 112.744 72.1263C112.6 71.6512 112.463 71.1617 112.333 70.6579C112.204 70.1396 112.096 69.6429 112.01 69.1678C111.909 69.6717 111.786 70.1972 111.642 70.7442C111.498 71.2769 111.347 71.8024 111.189 72.3207C111.045 72.8246 110.908 73.2924 110.779 73.7243C110.649 74.1418 110.548 74.4802 110.476 74.7393ZM125.636 72.731C125.881 72.731 126.147 72.7094 126.435 72.6662C126.738 72.6086 126.961 72.5366 127.105 72.4502V70.7226L125.55 70.8522C125.147 70.881 124.816 70.9674 124.557 71.1114C124.297 71.2553 124.168 71.4713 124.168 71.7592C124.168 72.0471 124.276 72.2847 124.492 72.4718C124.722 72.6446 125.104 72.731 125.636 72.731ZM125.464 64.2442C126.241 64.2442 126.946 64.3233 127.58 64.4817C128.228 64.6401 128.775 64.8848 129.221 65.2159C129.682 65.5327 130.034 65.943 130.279 66.4468C130.524 66.9363 130.646 67.5194 130.646 68.196V73.0333C130.646 73.4076 130.538 73.7171 130.322 73.9619C130.121 74.1922 129.876 74.3938 129.588 74.5665C128.652 75.128 127.335 75.4088 125.636 75.4088C124.873 75.4088 124.182 75.3368 123.563 75.1928C122.959 75.0488 122.433 74.8329 121.987 74.545C121.555 74.257 121.217 73.8899 120.972 73.4436C120.741 72.9973 120.626 72.479 120.626 71.8888C120.626 70.8954 120.921 70.1324 121.512 69.5997C122.102 69.067 123.016 68.7359 124.254 68.6063L127.083 68.304V68.1528C127.083 67.7353 126.896 67.4402 126.522 67.2674C126.162 67.0803 125.636 66.9867 124.945 66.9867C124.398 66.9867 123.866 67.0443 123.347 67.1595C122.829 67.2746 122.361 67.4186 121.944 67.5914C121.756 67.4618 121.598 67.2674 121.468 67.0083C121.339 66.7348 121.274 66.454 121.274 66.1661C121.274 65.7918 121.36 65.4967 121.533 65.2807C121.72 65.0504 122.001 64.856 122.375 64.6976C122.793 64.5393 123.282 64.4241 123.844 64.3521C124.42 64.2801 124.96 64.2442 125.464 64.2442ZM133.847 72.3855C133.689 72.0255 133.516 71.6224 133.329 71.1761C133.156 70.7298 132.969 70.2188 132.768 69.6429C132.58 69.067 132.379 68.412 132.163 67.6778C131.961 66.9291 131.745 66.0725 131.515 65.108C131.717 64.9064 131.983 64.7336 132.314 64.5897C132.66 64.4313 133.034 64.3521 133.437 64.3521C133.941 64.3521 134.358 64.4601 134.689 64.6761C135.021 64.8776 135.265 65.2663 135.424 65.8422L137.13 71.7808H137.216C137.389 71.2913 137.554 70.7586 137.713 70.1828C137.886 69.6069 138.051 69.0166 138.209 68.412C138.368 67.7929 138.512 67.1811 138.641 66.5764C138.785 65.9574 138.908 65.3527 139.008 64.7624C139.527 64.4889 140.095 64.3521 140.714 64.3521C141.218 64.3521 141.636 64.4601 141.967 64.6761C142.298 64.892 142.464 65.2663 142.464 65.799C142.464 66.1877 142.413 66.6412 142.313 67.1595C142.212 67.6634 142.075 68.2032 141.902 68.7791C141.744 69.355 141.549 69.9524 141.319 70.5715C141.103 71.1761 140.873 71.7736 140.628 72.3639C140.383 72.9541 140.131 73.5156 139.872 74.0483C139.613 74.5665 139.361 75.0344 139.116 75.4519C138.713 76.1574 138.339 76.7332 137.994 77.1795C137.648 77.6258 137.317 77.9714 137 78.2161C136.683 78.4752 136.367 78.648 136.05 78.7344C135.733 78.8352 135.402 78.8855 135.057 78.8855C134.452 78.8855 133.962 78.7056 133.588 78.3457C133.214 77.9858 132.991 77.5179 132.919 76.942C133.379 76.5821 133.84 76.179 134.301 75.7327C134.761 75.3008 135.179 74.8545 135.553 74.3938C135.309 74.3218 135.042 74.1562 134.754 73.8971C134.481 73.6236 134.178 73.1197 133.847 72.3855Z" fill="black"/>
</svg>
