<svg width="24" height="24" viewBox="0 0 24 24" fill="none" xmlns="http://www.w3.org/2000/svg">
<path d="M11.9999 1.99023C16.4099 1.99023 19.9999 5.58023 19.9999 9.99023C20.0297 16.4386 12.883 21.5874 12.58 21.8096C12.41 21.9395 12.1999 22 11.9999 22C11.7999 22 11.5898 21.9295 11.4198 21.8096C11.1149 21.586 3.97007 16.4277 3.99988 9.99023C3.99988 5.58028 7.58994 1.9903 11.9999 1.99023ZM11.9999 6C9.78992 6.00005 7.99988 7.79003 7.99988 10C7.99988 12.21 9.78992 13.9999 11.9999 14C14.2099 14 15.9999 12.21 15.9999 10C15.9999 7.79 14.2099 6 11.9999 6Z" fill="black"/>
</svg>
