<svg width="24" height="24" viewBox="0 0 24 24" fill="none" xmlns="http://www.w3.org/2000/svg">
<path d="M12 1.99023C16.41 1.99023 20 5.58023 20 9.99023C20.0298 16.4386 12.8831 21.5874 12.58 21.8096C12.4101 21.9395 12.2 22 12 22C11.8 22 11.5899 21.9295 11.4199 21.8096C11.115 21.586 3.97016 16.4277 3.99997 9.99023C3.99997 5.58028 7.59003 1.9903 12 1.99023ZM12 6C9.79001 6.00005 7.99997 7.79003 7.99997 10C7.99997 12.21 9.79001 13.9999 12 14C14.21 14 16 12.21 16 10C16 7.79 14.21 6 12 6Z" fill="#FE4401"/>
</svg>
