<svg width="24" height="24" viewBox="0 0 24 24" fill="none" xmlns="http://www.w3.org/2000/svg">
<path d="M18 8.00014H19C20.0609 8.00014 21.0783 8.42156 21.8284 9.17171C22.5786 9.92186 23 10.9393 23 12.0001C23 13.061 22.5786 14.0784 21.8284 14.8286C21.0783 15.5787 20.0609 16.0001 19 16.0001H18" stroke="#4351EC" stroke-width="2" stroke-linecap="round" stroke-linejoin="round"/>
<path d="M2.00055 8.00014H18.0005V17.0001C18.0005 18.061 17.5791 19.0784 16.829 19.8286C16.0788 20.5787 15.0614 21.0001 14.0005 21.0001H6.00055C4.93968 21.0001 3.92227 20.5787 3.17212 19.8286C2.42198 19.0784 2.00055 18.061 2.00055 17.0001V8.00014Z" stroke="#4351EC" stroke-width="2" stroke-linecap="round" stroke-linejoin="round"/>
<path d="M6 0.999863V3.99986" stroke="#4351EC" stroke-width="2" stroke-linecap="round" stroke-linejoin="round"/>
<path d="M10.0011 0.999863V3.99986" stroke="#4351EC" stroke-width="2" stroke-linecap="round" stroke-linejoin="round"/>
<path d="M14.0005 0.999863V3.99986" stroke="#4351EC" stroke-width="2" stroke-linecap="round" stroke-linejoin="round"/>
</svg>
