<svg width="187" height="145" viewBox="0 0 187 145" fill="none" xmlns="http://www.w3.org/2000/svg">
<path d="M66.6942 75.387C64.9908 63.2638 73.4378 52.0551 85.561 50.3517C97.6842 48.6484 108.893 57.0954 110.596 69.2186L113.03 86.5378C114.733 98.661 106.286 109.87 94.1628 111.573C82.0396 113.276 70.8309 104.829 69.1276 92.7062L66.6942 75.387Z" fill="#FE4401"/>
<path d="M43.1432 67.6065C42.2837 61.4893 46.5459 55.8335 52.6631 54.974C58.7804 54.1145 64.4361 58.3768 65.2956 64.494L72.6524 116.854C73.5119 122.972 69.2497 128.627 63.1325 129.487C57.0152 130.346 51.3595 126.084 50.5 119.967L43.1432 67.6065Z" fill="#FE4401"/>
<path d="M47.7978 100.734C46.0866 88.5556 54.673 77.2814 66.8519 75.5702C79.0307 73.859 90.3915 82.3306 92.1027 94.5095L95.1869 116.461C96.898 128.639 88.3116 139.914 76.1328 141.625C63.9539 143.336 52.5931 134.864 50.882 122.686L47.7978 100.734Z" fill="#FE4401"/>
<path d="M109.198 58.3256C108.338 52.2084 112.6 46.5526 118.718 45.6931C124.835 44.8336 130.491 49.0959 131.35 55.2131L138.707 107.573C139.566 113.691 135.304 119.346 129.187 120.206C123.07 121.065 117.414 116.803 116.555 110.686L109.198 58.3256Z" fill="#FE4401"/>
<path d="M92.0885 94.4088C90.3851 82.2855 98.8321 71.0769 110.955 69.3735C123.079 67.6701 134.287 76.1171 135.991 88.2404L139.103 110.393C140.806 122.516 132.359 133.725 120.236 135.428C108.113 137.131 96.9044 128.684 95.201 116.561L92.0885 94.4088Z" fill="#FE4401"/>
<rect x="53.1143" y="71.3398" width="20.3364" height="31.318" rx="10.1682" transform="rotate(-7.99791 53.1143 71.3398)" fill="white"/>
<rect x="73.2539" y="68.5098" width="20.3364" height="31.318" rx="10.1682" transform="rotate(-7.99791 73.2539 68.5098)" fill="white"/>
<rect x="55.3047" y="72.709" width="11.3884" height="17.896" rx="5.69419" transform="rotate(-7.99791 55.3047 72.709)" fill="#4351EC"/>
<rect x="75.4443" y="69.8789" width="11.3884" height="17.896" rx="5.69419" transform="rotate(-7.99791 75.4443 69.8789)" fill="#4351EC"/>
<rect x="54.4004" y="86.1406" width="22.8065" height="16.2904" rx="8.14518" transform="rotate(-0.997914 54.4004 86.1406)" fill="#FE4401"/>
<rect x="74.8535" y="86.0869" width="22.8065" height="16.2904" rx="8.14518" transform="rotate(-14.9979 74.8535 86.0869)" fill="#FE4401"/>
<path d="M57.9248 76.0107L58.2031 77.9913" stroke="white" stroke-width="2" stroke-linecap="round"/>
<path d="M77.7314 73.2285L78.0097 75.2091" stroke="white" stroke-width="2" stroke-linecap="round"/>
<rect x="20.2139" y="72.0605" width="4" height="9" transform="rotate(-44.3793 20.2139 72.0605)" fill="#FE4401"/>
<rect x="125" y="31.7607" width="4" height="9" transform="rotate(-70.0768 125 31.7607)" fill="#87986C"/>
<rect x="119.091" y="20.4941" width="4" height="9" transform="rotate(-140.605 119.091 20.4941)" fill="#87986C"/>
<rect x="133.046" y="37" width="4" height="9" transform="rotate(13.1382 133.046 37)" fill="#ADC4FA"/>
<rect x="162.717" y="41" width="4" height="9" transform="rotate(75.5973 162.717 41)" fill="#ADC4FA"/>
<rect x="164.624" y="55.29" width="4" height="9" transform="rotate(117.991 164.624 55.29)" fill="#87986C"/>
<rect x="147.239" y="60.2627" width="4" height="9" transform="rotate(42.0293 147.239 60.2627)" fill="#87986C"/>
<rect x="159.239" y="73.2627" width="4" height="9" transform="rotate(42.0293 159.239 73.2627)" fill="#ADC4FA"/>
<rect x="17.2393" y="76.2627" width="4" height="9" transform="rotate(42.0293 17.2393 76.2627)" fill="#87986C"/>
<rect x="29.2393" y="84.2627" width="4" height="9" transform="rotate(42.0293 29.2393 84.2627)" fill="#ADC4FA"/>
<rect x="31.5537" y="50.2627" width="4" height="9" transform="rotate(15.0683 31.5537 50.2627)" fill="#87986C"/>
<rect x="148.214" y="3.54785" width="4" height="9" transform="rotate(-55.214 148.214 3.54785)" fill="#ADC4FA"/>
<rect x="183.239" y="57.2627" width="4" height="9" transform="rotate(42.0293 183.239 57.2627)" fill="#87986C"/>
<rect x="159.725" y="11.2627" width="4" height="9" transform="rotate(71.0217 159.725 11.2627)" fill="#FE4401"/>
<rect x="95.8721" y="27.2627" width="4" height="9" transform="rotate(74.1653 95.8721 27.2627)" fill="#ADC4FA"/>
<rect x="133.826" y="18.084" width="4" height="9" transform="rotate(110.042 133.826 18.084)" fill="#ADC4FA"/>
<rect x="56.2393" y="29.2627" width="4" height="9" transform="rotate(42.0293 56.2393 29.2627)" fill="#ADC4FA"/>
<rect x="64.8701" y="43.8438" width="4" height="9" transform="rotate(-76.5627 64.8701 43.8438)" fill="#ADC4FA"/>
<rect x="58" y="21.7715" width="4" height="9" transform="rotate(-43.8596 58 21.7715)" fill="#87986C"/>
<rect x="16.8584" y="33.1123" width="4" height="9" transform="rotate(-56.306 16.8584 33.1123)" fill="#87986C"/>
<rect x="26.2393" y="13.2627" width="4" height="9" transform="rotate(42.0293 26.2393 13.2627)" fill="#FE4401"/>
<rect x="9.12012" y="62.3896" width="4" height="9" transform="rotate(67.7575 9.12012 62.3896)" fill="#ADC4FA"/>
</svg>
