<svg width="186" height="145" viewBox="0 0 186 145" fill="none" xmlns="http://www.w3.org/2000/svg">
<g opacity="0.4">
<path d="M65.9041 75.1243C64.2008 63.0011 72.6477 51.7924 84.771 50.0891C96.8942 48.3857 108.103 56.8327 109.806 68.9559L112.24 86.2751C113.943 98.3983 105.496 109.607 93.3728 111.31C81.2496 113.014 70.0409 104.567 68.3375 92.4435L65.9041 75.1243Z" fill="#FE4401"/>
<path d="M42.3531 67.3438C41.4936 61.2266 45.7559 55.5708 51.8731 54.7113C57.9903 53.8518 63.6461 58.1141 64.5056 64.2313L71.8624 116.592C72.7219 122.709 68.4596 128.365 62.3424 129.224C56.2252 130.084 50.5694 125.821 49.7099 119.704L42.3531 67.3438Z" fill="#FE4401"/>
<path d="M47.0077 100.472C45.2966 88.2929 53.883 77.0187 66.0618 75.3075C78.2407 73.5963 89.6014 82.0679 91.3126 94.2468L94.3968 116.198C96.108 128.377 87.5216 139.651 75.3427 141.362C63.1639 143.073 51.8031 134.602 50.0919 122.423L47.0077 100.472Z" fill="#FE4401"/>
<path d="M108.408 58.0629C107.548 51.9457 111.81 46.2899 117.928 45.4304C124.045 44.5709 129.701 48.8332 130.56 54.9504L137.917 107.311C138.776 113.428 134.514 119.084 128.397 119.943C122.28 120.803 116.624 116.54 115.765 110.423L108.408 58.0629Z" fill="#FE4401"/>
<path d="M91.2985 94.1461C89.5951 82.0228 98.0421 70.8142 110.165 69.1108C122.289 67.4075 133.497 75.8544 135.201 87.9777L138.313 110.13C140.016 122.253 131.569 133.462 119.446 135.165C107.323 136.869 96.1143 128.422 94.411 116.299L91.2985 94.1461Z" fill="#FE4401"/>
<rect x="52.3242" y="71.0771" width="20.3364" height="31.318" rx="10.1682" transform="rotate(-7.99791 52.3242 71.0771)" fill="white"/>
<rect x="72.4639" y="68.2471" width="20.3364" height="31.318" rx="10.1682" transform="rotate(-7.99791 72.4639 68.2471)" fill="white"/>
<rect x="54.5146" y="72.4463" width="11.3884" height="17.896" rx="5.69419" transform="rotate(-7.99791 54.5146 72.4463)" fill="#4351EC"/>
<rect x="74.6543" y="69.6162" width="11.3884" height="17.896" rx="5.69419" transform="rotate(-7.99791 74.6543 69.6162)" fill="#4351EC"/>
<rect x="53.6104" y="85.8782" width="22.8065" height="16.2904" rx="8.14518" transform="rotate(-0.997914 53.6104 85.8782)" fill="#FE4401"/>
<rect x="74.0635" y="85.8241" width="22.8065" height="16.2904" rx="8.14518" transform="rotate(-14.9979 74.0635 85.8241)" fill="#FE4401"/>
<path d="M57.1348 75.748L57.413 77.7286" stroke="white" stroke-width="2" stroke-linecap="round"/>
<path d="M76.9414 72.9658L77.2197 74.9464" stroke="white" stroke-width="2" stroke-linecap="round"/>
<rect x="19.4238" y="71.7979" width="4" height="9" transform="rotate(-44.3793 19.4238 71.7979)" fill="#FE4401"/>
<rect x="124.21" y="31.498" width="4" height="9" transform="rotate(-70.0768 124.21 31.498)" fill="#87986C"/>
<rect x="118.301" y="20.231" width="4" height="9" transform="rotate(-140.605 118.301 20.231)" fill="#87986C"/>
<rect x="132.256" y="36.7373" width="4" height="9" transform="rotate(13.1382 132.256 36.7373)" fill="#ADC4FA"/>
<rect x="161.927" y="40.7373" width="4" height="9" transform="rotate(75.5973 161.927 40.7373)" fill="#ADC4FA"/>
<rect x="163.834" y="55.0273" width="4" height="9" transform="rotate(117.991 163.834 55.0273)" fill="#87986C"/>
<rect x="146.449" y="60" width="4" height="9" transform="rotate(42.0293 146.449 60)" fill="#87986C"/>
<rect x="158.449" y="73" width="4" height="9" transform="rotate(42.0293 158.449 73)" fill="#ADC4FA"/>
<rect x="16.4492" y="76" width="4" height="9" transform="rotate(42.0293 16.4492 76)" fill="#87986C"/>
<rect x="28.4492" y="84" width="4" height="9" transform="rotate(42.0293 28.4492 84)" fill="#ADC4FA"/>
<rect x="30.7637" y="50" width="4" height="9" transform="rotate(15.0683 30.7637 50)" fill="#87986C"/>
<rect x="147.424" y="3.28516" width="4" height="9" transform="rotate(-55.214 147.424 3.28516)" fill="#ADC4FA"/>
<rect x="182.449" y="57" width="4" height="9" transform="rotate(42.0293 182.449 57)" fill="#87986C"/>
<rect x="158.935" y="11" width="4" height="9" transform="rotate(71.0217 158.935 11)" fill="#FE4401"/>
<rect x="95.082" y="27" width="4" height="9" transform="rotate(74.1653 95.082 27)" fill="#ADC4FA"/>
<rect x="133.036" y="17.8216" width="4" height="9" transform="rotate(110.042 133.036 17.8216)" fill="#ADC4FA"/>
<rect x="55.4492" y="29" width="4" height="9" transform="rotate(42.0293 55.4492 29)" fill="#ADC4FA"/>
<rect x="64.0801" y="43.5811" width="4" height="9" transform="rotate(-76.5627 64.0801 43.5811)" fill="#ADC4FA"/>
<rect x="57.21" y="21.5089" width="4" height="9" transform="rotate(-43.8596 57.21 21.5089)" fill="#87986C"/>
<rect x="16.0684" y="32.8496" width="4" height="9" transform="rotate(-56.306 16.0684 32.8496)" fill="#87986C"/>
<rect x="25.4492" y="13" width="4" height="9" transform="rotate(42.0293 25.4492 13)" fill="#FE4401"/>
<rect x="8.33008" y="62.127" width="4" height="9" transform="rotate(67.7575 8.33008 62.127)" fill="#ADC4FA"/>
</g>
</svg>
