<svg width="24" height="24" viewBox="0 0 24 24" fill="none" xmlns="http://www.w3.org/2000/svg">
<path d="M20.1748 3.43262L20.209 3.43848L20.2725 3.45703L20.3145 3.47461L20.3623 3.50195L20.4043 3.5332L20.4443 3.56934L20.458 3.58496L20.5059 3.65234L20.5293 3.69531C20.5488 3.73819 20.5617 3.78295 20.5684 3.83105L20.5713 3.88281C20.5713 3.91686 20.5668 3.94864 20.5605 3.97852L20.5361 4.0625L14.7676 20.0293C14.692 20.1898 14.5732 20.326 14.4238 20.4219C14.2716 20.5194 14.0938 20.5713 13.9131 20.5713H13.9121C13.7496 20.5716 13.5899 20.5298 13.4482 20.4502C13.3084 20.3716 13.1905 20.2586 13.1064 20.1221L13.0596 20.0303L10.0928 14.0977L10.0283 13.9697L9.90137 13.9053L3.99219 10.9502L3.98535 10.9473L3.97949 10.9443L3.87012 10.8857C3.76572 10.8203 3.67454 10.7347 3.60254 10.6338C3.50804 10.5013 3.44973 10.3464 3.43262 10.1846L3.42871 10.0801C3.43097 9.75286 3.60276 9.44352 3.94434 9.25195L4.03906 9.2041L19.9668 3.45312L20.0117 3.44043L20.0625 3.43164L20.1104 3.42871L20.1748 3.43262Z" fill="black" stroke="black" stroke-width="0.857143"/>
</svg>
