<svg width="24" height="24" viewBox="0 0 24 24" fill="none" xmlns="http://www.w3.org/2000/svg">
<path d="M15.4266 8.66021C15.1381 8.3316 14.8415 8.00299 14.529 7.69042L14.2965 7.47402L14.4087 7.37784C14.8007 7.04139 15.08 6.5928 15.209 6.09262C15.338 5.59243 15.3104 5.06472 15.1301 4.58068C14.8687 4.03484 14.4549 3.57637 13.9386 3.26062C13.4223 2.94488 12.8257 2.78538 12.2207 2.80139V4.40435C12.5059 4.40038 12.7869 4.47256 13.0349 4.61345C13.2829 4.75434 13.4887 4.95883 13.6313 5.20583C13.7676 5.52642 13.6313 5.87907 13.2546 6.25577C13.1985 6.31989 13.1344 6.35996 13.0783 6.41606C10.6739 4.4845 8.03698 3.39449 6.7466 4.68487C6.61189 4.82342 6.50088 4.98318 6.41799 5.15774V5.23789L6.27373 5.66267L2.7392 16.1621C2.60551 16.5577 2.568 16.9795 2.6298 17.3926C2.69159 17.8056 2.8509 18.198 3.09453 18.5372C3.33817 18.8764 3.65911 19.1527 4.03079 19.3432C4.40246 19.5336 4.81417 19.6328 5.2318 19.6325C5.50451 19.63 5.77507 19.584 6.03328 19.4962L17.0296 15.8495C17.1647 15.7992 17.2838 15.7133 17.3742 15.601L17.5425 15.4568C18.6887 14.3026 17.9513 12.0825 16.4124 9.92655C17.3262 9.39329 18.3783 9.14491 19.434 9.21323V7.61027C18.0213 7.53254 16.6198 7.89975 15.4266 8.66021ZM5.56843 17.9734C5.38649 18.0336 5.19141 18.0421 5.00495 17.9979C4.81848 17.9536 4.64798 17.8585 4.51247 17.7229C4.37697 17.5874 4.28179 17.4169 4.23756 17.2305C4.19333 17.044 4.2018 16.8489 4.26201 16.667L5.35203 13.3809C6.12993 14.8644 7.32524 16.0876 8.79038 16.8994L5.56843 17.9734ZM11.1788 16.106C9.96753 15.7852 8.86257 15.15 7.97586 14.2646C7.08914 13.3793 6.45217 12.2754 6.12946 11.0646L6.93094 8.66021L6.97903 8.73234C7.06719 8.90867 7.1794 9.09301 7.29161 9.27735C7.40381 9.46169 7.41984 9.50978 7.49999 9.63C7.58014 9.75022 7.76448 10.0147 7.90875 10.2151C8.05301 10.4154 8.06103 10.4395 8.14919 10.5517C8.23735 10.6639 8.49383 10.9925 8.67817 11.2089L8.9106 11.4894C9.1831 11.802 9.47163 12.1066 9.7762 12.4191C10.0808 12.7317 10.3212 12.9321 10.5777 13.2206L10.8422 13.445L11.4673 13.95L11.7639 14.1744C11.9883 14.3347 12.2047 14.495 12.4291 14.6392L12.6776 14.7995C12.9661 14.9759 13.2546 15.1442 13.5351 15.2884H13.5752L11.1788 16.106ZM16.3964 14.3187H16.3483C15.7953 14.6232 13.4951 13.8618 10.9063 11.265C10.6338 10.9925 10.3773 10.728 10.1449 10.4635L9.91245 10.183L9.48766 9.67007L9.25523 9.34948C9.15104 9.1972 9.03883 9.05293 8.94266 8.90867L8.73427 8.57205L8.50184 8.19535C8.43772 8.08314 8.38963 7.97895 8.33353 7.87476C8.27743 7.77057 8.21331 7.66637 8.16522 7.55417C8.12166 7.4605 8.08418 7.36412 8.05301 7.26563C8.01294 7.16144 7.96485 7.05725 7.93279 6.96107C7.90073 6.86489 7.89272 6.80879 7.86867 6.71261C7.84463 6.61643 7.8286 6.53629 7.81257 6.45614C7.80805 6.38675 7.80805 6.31714 7.81257 6.24775C7.80485 6.18387 7.80485 6.11928 7.81257 6.0554L7.90073 5.80694C8.18926 5.51841 9.68803 5.80694 11.6917 7.32975C11.3522 7.48348 10.9891 7.57834 10.6177 7.61027V9.21323C11.4691 9.16426 12.2951 8.90544 13.0222 8.45984L13.4069 8.82852C13.7435 9.16514 14.0561 9.50978 14.3526 9.85441C13.8939 10.684 13.7247 11.6429 13.8718 12.5794L15.4747 12.2669C15.4279 11.9695 15.4279 11.6666 15.4747 11.3692C15.7201 11.7397 15.9371 12.1282 16.1239 12.5314C16.5727 13.5893 16.5407 14.1824 16.3964 14.3187Z" fill="#27282C"/>
<circle cx="17.3896" cy="17.228" r="5.61036" fill="#FF3030"/>
<path d="M19.2906 15.8232C19.3241 15.7909 19.3508 15.7522 19.3692 15.7094C19.3876 15.6667 19.3973 15.6207 19.3977 15.5741C19.3982 15.5276 19.3893 15.4814 19.3717 15.4383C19.3541 15.3952 19.3281 15.356 19.2952 15.3231C19.2623 15.2901 19.2231 15.2641 19.18 15.2464C19.137 15.2288 19.0908 15.2199 19.0442 15.2203C18.9977 15.2206 18.9517 15.2303 18.9089 15.2487C18.8661 15.267 18.8274 15.2937 18.795 15.3272L17.3896 16.7321L15.9847 15.3272C15.9526 15.2927 15.9139 15.2651 15.8709 15.2459C15.8278 15.2268 15.7814 15.2165 15.7343 15.2156C15.6873 15.2148 15.6405 15.2235 15.5968 15.2411C15.5532 15.2587 15.5135 15.285 15.4802 15.3183C15.4469 15.3516 15.4207 15.3912 15.403 15.4349C15.3854 15.4786 15.3767 15.5253 15.3776 15.5724C15.3784 15.6195 15.3887 15.6659 15.4079 15.7089C15.427 15.7519 15.4547 15.7907 15.4891 15.8228L16.8931 17.2282L15.4882 18.6331C15.4262 18.6996 15.3925 18.7875 15.3941 18.8783C15.3957 18.9692 15.4325 19.0558 15.4968 19.1201C15.561 19.1843 15.6477 19.2211 15.7385 19.2227C15.8294 19.2243 15.9173 19.1906 15.9838 19.1287L17.3896 17.7237L18.7945 19.1291C18.861 19.1911 18.9489 19.2248 19.0398 19.2232C19.1306 19.2216 19.2173 19.1848 19.2815 19.1205C19.3458 19.0563 19.3826 18.9696 19.3842 18.8788C19.3858 18.7879 19.3521 18.7 19.2901 18.6336L17.8861 17.2282L19.2906 15.8232Z" fill="white"/>
</svg>
