<svg width="24" height="24" viewBox="0 0 24 24" fill="none" xmlns="http://www.w3.org/2000/svg">
<path d="M11.9849 19.8311C12.324 19.8311 12.6406 19.6881 12.9418 19.1683L14.3355 16.8405H16.8516C19.0965 16.8405 20.3019 15.5973 20.3019 13.39V7.6194C20.3019 5.41215 19.0965 4.16919 16.8516 4.16919H7.14836C4.91122 4.16919 3.69815 5.40476 3.69815 7.6194V13.39C3.69815 15.6047 4.9109 16.8405 7.14836 16.8405H9.63461L11.0283 19.1683C11.3295 19.6881 11.6458 19.8311 11.9849 19.8311Z" fill="#FE4401"/>
<path d="M12.5518 12.72H11.4482L11.3311 7.72974H12.6592L12.5518 12.72ZM12.0049 14.8782C11.8682 14.8782 11.7412 14.844 11.624 14.7756C11.5068 14.7073 11.4141 14.6145 11.3457 14.4973C11.2773 14.3801 11.2432 14.2532 11.2432 14.1165C11.2432 13.983 11.2773 13.8593 11.3457 13.7454C11.4141 13.6282 11.5068 13.5354 11.624 13.467C11.7412 13.3987 11.8682 13.3645 12.0049 13.3645C12.1351 13.3645 12.2572 13.3987 12.3711 13.467C12.4883 13.5354 12.5811 13.6282 12.6494 13.7454C12.721 13.8593 12.7568 13.983 12.7568 14.1165C12.7568 14.2532 12.721 14.3801 12.6494 14.4973C12.5811 14.6145 12.4883 14.7073 12.3711 14.7756C12.2572 14.844 12.1351 14.8782 12.0049 14.8782Z" fill="white"/>
</svg>
