<svg width="20" height="21" viewBox="0 0 20 21" fill="none" xmlns="http://www.w3.org/2000/svg">
<g id="ic:round-plus">
<path id="Vector" d="M15.0003 11.1652H10.8337V15.3319C10.8337 15.5529 10.7459 15.7648 10.5896 15.9211C10.4333 16.0774 10.2213 16.1652 10.0003 16.1652C9.77931 16.1652 9.56735 16.0774 9.41107 15.9211C9.25479 15.7648 9.16699 15.5529 9.16699 15.3319V11.1652H5.00033C4.77931 11.1652 4.56735 11.0774 4.41107 10.9211C4.25479 10.7648 4.16699 10.5529 4.16699 10.3319C4.16699 10.1109 4.25479 9.89889 4.41107 9.74261C4.56735 9.58633 4.77931 9.49853 5.00033 9.49853H9.16699V5.33187C9.16699 5.11085 9.25479 4.89889 9.41107 4.74261C9.56735 4.58633 9.77931 4.49854 10.0003 4.49854C10.2213 4.49854 10.4333 4.58633 10.5896 4.74261C10.7459 4.89889 10.8337 5.11085 10.8337 5.33187V9.49853H15.0003C15.2213 9.49853 15.4333 9.58633 15.5896 9.74261C15.7459 9.89889 15.8337 10.1109 15.8337 10.3319C15.8337 10.5529 15.7459 10.7648 15.5896 10.9211C15.4333 11.0774 15.2213 11.1652 15.0003 11.1652Z" fill="black"/>
</g>
</svg>
