<svg width="24" height="24" viewBox="0 0 24 24" fill="none" xmlns="http://www.w3.org/2000/svg">
<path d="M11.3824 14.1484V16.9961C11.3824 17.248 11.3736 17.4941 11.3561 17.7344C11.3443 17.9746 11.2945 18.1885 11.2066 18.376C11.1246 18.5635 10.9928 18.7158 10.8111 18.833C10.6295 18.9443 10.3688 19 10.0289 19C9.70079 19 9.44591 18.9443 9.26427 18.833C9.08849 18.7158 8.95958 18.5635 8.87755 18.376C8.79552 18.1885 8.74571 17.9746 8.72813 17.7344C8.71641 17.4941 8.71056 17.248 8.71056 16.9961V8.69922C8.71056 8.44727 8.71641 8.20117 8.72813 7.96094C8.74571 7.7207 8.79552 7.50684 8.87755 7.31934C8.95958 7.13184 9.08849 6.98242 9.26427 6.87109C9.44591 6.75391 9.70079 6.69531 10.0289 6.69531H12.9293C13.6559 6.73047 14.3063 6.88281 14.8805 7.15234C15.1266 7.26953 15.3639 7.41602 15.5924 7.5918C15.8268 7.76758 16.0348 7.98438 16.2164 8.24219C16.4039 8.49414 16.5533 8.7959 16.6647 9.14746C16.776 9.49316 16.8316 9.89453 16.8316 10.3516C16.8316 10.9785 16.732 11.5293 16.5328 12.0039C16.3395 12.4727 16.0553 12.8682 15.6803 13.1904C15.3111 13.5068 14.857 13.7471 14.318 13.9111C13.7848 14.0693 13.1813 14.1484 12.5074 14.1484H11.3824ZM12.5777 12.0566C12.8707 12.0391 13.1344 11.9688 13.3688 11.8457C13.4684 11.793 13.565 11.7256 13.6588 11.6436C13.7525 11.5615 13.8375 11.4619 13.9137 11.3447C13.9899 11.2217 14.0484 11.0781 14.0895 10.9141C14.1363 10.75 14.1598 10.5625 14.1598 10.3516C14.1598 10.1523 14.1363 9.97949 14.0895 9.83301C14.0484 9.68066 13.9928 9.55176 13.9225 9.44629C13.8522 9.33496 13.7731 9.24121 13.6852 9.16504C13.5973 9.08887 13.5065 9.02441 13.4127 8.97168C13.19 8.86035 12.941 8.79297 12.6656 8.76953H11.3824V12.0566H12.5777Z" fill="#1C1D1F"/>
<circle cx="12" cy="12" r="10.75" stroke="#1C1D1F" stroke-width="2.5"/>
</svg>
