<svg width="20" height="20" viewBox="0 0 20 20" fill="none" xmlns="http://www.w3.org/2000/svg">
<path d="M5.83332 11.6667H7.20832C7.31944 11.6667 7.42721 11.6459 7.53166 11.6042C7.6361 11.5626 7.72971 11.5001 7.81249 11.4167L11.7083 7.50008C11.8333 7.37508 11.9272 7.23258 11.99 7.07258C12.0528 6.91258 12.0839 6.75647 12.0833 6.60425C12.0828 6.45203 12.0517 6.30286 11.99 6.15675C11.9283 6.01064 11.8414 5.87508 11.7292 5.75008L10.9583 4.95841C10.8333 4.83341 10.6944 4.7398 10.5417 4.67758C10.3889 4.61536 10.2292 4.58397 10.0625 4.58341C9.90971 4.58341 9.75694 4.6148 9.60416 4.67758C9.45138 4.74036 9.31249 4.83397 9.18749 4.95841L5.24999 8.85425C5.16666 8.93758 5.10416 9.03147 5.06249 9.13591C5.02082 9.24036 4.99999 9.34786 4.99999 9.45841V10.8334C4.99999 11.0695 5.07999 11.2676 5.23999 11.4276C5.39999 11.5876 5.59777 11.6673 5.83332 11.6667ZM10.0417 7.41675L9.24999 6.64591L10.0625 5.83341L10.8333 6.62508L10.0417 7.41675ZM9.33332 11.6667H14.1667C14.4028 11.6667 14.6008 11.5867 14.7608 11.4267C14.9208 11.2667 15.0005 11.069 15 10.8334C14.9994 10.5979 14.9194 10.4001 14.76 10.2401C14.6005 10.0801 14.4028 10.0001 14.1667 10.0001H11L9.33332 11.6667ZM4.99999 15.0001L3.08332 16.9167C2.81944 17.1806 2.51721 17.2398 2.17666 17.0942C1.8361 16.9487 1.6661 16.6881 1.66666 16.3126V3.33341C1.66666 2.87508 1.82999 2.48286 2.15666 2.15675C2.48332 1.83064 2.87555 1.6673 3.33332 1.66675H16.6667C17.125 1.66675 17.5175 1.83008 17.8442 2.15675C18.1708 2.48341 18.3339 2.87564 18.3333 3.33341V13.3334C18.3333 13.7917 18.1703 14.1842 17.8442 14.5109C17.518 14.8376 17.1255 15.0006 16.6667 15.0001H4.99999Z" fill="#FE4401"/>
</svg>
