<svg width="20" height="17" viewBox="0 0 20 17" fill="none" xmlns="http://www.w3.org/2000/svg">
<path d="M16.5 12C17.5252 12 18.4062 12.617 18.792 13.5H19C19.5523 13.5 20 13.9477 20 14.5C20 15.0523 19.5523 15.5 19 15.5L18.792 15.501C18.406 16.3835 17.5248 17 16.5 17C15.4752 17 14.594 16.3835 14.208 15.501L1 15.5C0.447715 15.5 0 15.0523 0 14.5C0 13.9477 0.447715 13.5 1 13.5H14.208C14.5938 12.617 15.4748 12 16.5 12ZM16.5 13.5C15.9477 13.5 15.5 13.9477 15.5 14.5C15.5 15.0128 15.8865 15.4354 16.3838 15.4932L16.5 15.5C17.0523 15.5 17.5 15.0523 17.5 14.5C17.5 13.9872 17.1135 13.5646 16.6162 13.5068L16.5 13.5ZM10.5 6C11.5252 6 12.4062 6.61704 12.792 7.5H19C19.5523 7.5 20 7.94772 20 8.5C20 9.05228 19.5523 9.5 19 9.5L12.792 9.50098C12.406 10.3835 11.5248 11 10.5 11C9.47516 11 8.59398 10.3835 8.20801 9.50098L1 9.5C0.447715 9.5 0 9.05228 0 8.5C0 7.94772 0.447715 7.5 1 7.5H8.20801C8.59378 6.61704 9.47484 6 10.5 6ZM10.5 7.5C9.94772 7.5 9.5 7.94772 9.5 8.5C9.5 9.01284 9.88645 9.4354 10.3838 9.49316L10.5 9.5C11.0523 9.5 11.5 9.05228 11.5 8.5C11.5 7.98716 11.1135 7.5646 10.6162 7.50684L10.5 7.5ZM3.5 0C4.52516 0 5.40622 0.617045 5.79199 1.5H19C19.5523 1.5 20 1.94772 20 2.5C20 3.05228 19.5523 3.5 19 3.5L5.79199 3.50098C5.40602 4.38349 4.52484 5 3.5 5C2.47516 5 1.59398 4.38349 1.20801 3.50098L1 3.5C0.447715 3.5 0 3.05228 0 2.5C0 1.94772 0.447715 1.5 1 1.5H1.20801C1.59378 0.617045 2.47484 0 3.5 0ZM3.5 1.5C2.94772 1.5 2.5 1.94772 2.5 2.5C2.5 3.01284 2.88645 3.4354 3.38379 3.49316L3.5 3.5C4.05228 3.5 4.5 3.05228 4.5 2.5C4.5 1.98716 4.11355 1.5646 3.61621 1.50684L3.5 1.5Z" fill="#FF6F61"/>
</svg>
