<svg width="115" height="93" viewBox="0 0 115 93" fill="none" xmlns="http://www.w3.org/2000/svg">
<path d="M47.4498 22.8044C47.4498 10.5621 57.3742 0.637695 69.6165 0.637695C81.8588 0.637695 91.7831 10.5621 91.7831 22.8044V40.2937C91.7831 52.536 81.8588 62.4603 69.6165 62.4603C57.3742 62.4603 47.4498 52.536 47.4498 40.2937V22.8044Z" fill="#FE4401"/>
<path d="M25.2104 11.8227C25.2104 5.6454 30.2182 0.637695 36.3955 0.637695C42.5728 0.637695 47.5805 5.6454 47.5805 11.8227V64.6973C47.5805 70.8746 42.5728 75.8823 36.3955 75.8823C30.2182 75.8823 25.2104 70.8746 25.2104 64.6973L25.2104 11.8227Z" fill="#FE4401"/>
<path d="M25.2104 45.2761C25.2104 32.9776 35.282 23.0077 47.5805 23.0077C59.879 23.0077 69.9505 32.9776 69.9505 45.2761V67.4427C69.9505 79.7412 59.879 89.7111 47.5805 89.7111C35.282 89.7111 25.2104 79.7412 25.2104 67.4427L25.2104 45.2761Z" fill="#FE4401"/>
<path d="M91.9138 11.8227C91.9138 5.6454 96.9215 0.637695 103.099 0.637695C109.276 0.637695 114.284 5.6454 114.284 11.8227V64.6973C114.284 70.8746 109.276 75.8823 103.099 75.8823C96.9215 75.8823 91.9138 70.8746 91.9138 64.6973V11.8227Z" fill="#FE4401"/>
<path d="M69.9505 45.1744C69.9505 32.9321 79.8749 23.0077 92.1172 23.0077C104.359 23.0077 114.284 32.9321 114.284 45.1744V67.5444C114.284 79.7867 104.359 89.7111 92.1172 89.7111C79.8749 89.7111 69.9505 79.7867 69.9505 67.5444V45.1744Z" fill="#FE4401"/>
<rect x="49.2202" y="26.0889" width="20.3364" height="31.318" rx="10.1682" transform="rotate(0.0172161 49.2202 26.0889)" fill="white"/>
<rect x="69.5581" y="26.0947" width="20.3364" height="31.318" rx="10.1682" transform="rotate(0.0172161 69.5581 26.0947)" fill="white"/>
<rect x="52.2764" y="35" width="11.3884" height="17.896" rx="5.69419" transform="rotate(0.209929 52.2764 35)" fill="#4351EC"/>
<rect x="72.6133" y="35.0742" width="11.3884" height="17.896" rx="5.69419" transform="rotate(0.209929 72.6133 35.0742)" fill="#4351EC"/>
<path d="M56.2183 45.2373L56.2109 47.2373" stroke="white" stroke-width="2" stroke-linecap="round"/>
<path d="M76.2183 45.3105L76.2109 47.3105" stroke="white" stroke-width="2" stroke-linecap="round"/>
<circle cx="32.0308" cy="60.6985" r="21" transform="rotate(45 32.0308 60.6985)" fill="#4351EC"/>
<circle cx="32.0308" cy="60.6987" r="16" transform="rotate(45 32.0308 60.6987)" fill="#ADC4FA"/>
<rect x="15.0601" y="69.1836" width="12" height="21" rx="2" transform="rotate(45 15.0601 69.1836)" fill="#4351EC"/>
<path d="M31.2112 69.5943L42.0347 60.0627" stroke="white" stroke-width="4" stroke-linecap="round" stroke-linejoin="round"/>
<path d="M39.7386 69.6077L40.3779 69.0447" stroke="white" stroke-width="4" stroke-linecap="round" stroke-linejoin="round"/>
<path d="M69.2109 34.015C69.2109 37.4515 71.9968 40.2373 75.4333 40.2373H88.0174C90.2266 40.2373 92.0174 38.4464 92.0174 36.2373V23.2033C92.0174 21.0128 90.2416 19.237 88.0511 19.237H83.9889C75.8273 19.237 69.2109 25.8533 69.2109 34.015V34.015Z" fill="#FE4401"/>
</svg>
