<svg width="119" height="93" viewBox="0 0 119 93" fill="none" xmlns="http://www.w3.org/2000/svg">
<path d="M51.4493 22.8044C51.4493 10.5621 61.3737 0.637695 73.616 0.637695C85.8583 0.637695 95.7827 10.5621 95.7827 22.8044V40.2937C95.7827 52.536 85.8583 62.4603 73.616 62.4603C61.3737 62.4603 51.4493 52.536 51.4493 40.2937V22.8044Z" fill="#FE4401"/>
<path d="M29.21 11.8227C29.21 5.6454 34.2177 0.637695 40.395 0.637695C46.5723 0.637695 51.58 5.6454 51.58 11.8227V64.6973C51.58 70.8746 46.5723 75.8823 40.395 75.8823C34.2177 75.8823 29.21 70.8746 29.21 64.6973L29.21 11.8227Z" fill="#FE4401"/>
<path d="M29.21 45.2761C29.21 32.9776 39.2815 23.0077 51.58 23.0077C63.8785 23.0077 73.95 32.9776 73.95 45.2761V67.4427C73.95 79.7412 63.8785 89.7111 51.58 89.7111C39.2815 89.7111 29.21 79.7412 29.21 67.4427L29.21 45.2761Z" fill="#FE4401"/>
<path d="M95.9133 11.8227C95.9133 5.6454 100.921 0.637695 107.098 0.637695C113.276 0.637695 118.283 5.6454 118.283 11.8227V64.6973C118.283 70.8746 113.276 75.8823 107.098 75.8823C100.921 75.8823 95.9133 70.8746 95.9133 64.6973V11.8227Z" fill="#FE4401"/>
<path d="M73.95 45.1744C73.95 32.9321 83.8744 23.0077 96.1167 23.0077C108.359 23.0077 118.283 32.9321 118.283 45.1744V67.5444C118.283 79.7867 108.359 89.7111 96.1167 89.7111C83.8744 89.7111 73.95 79.7867 73.95 67.5444V45.1744Z" fill="#FE4401"/>
<rect x="53.2188" y="26.0889" width="20.3364" height="31.318" rx="10.1682" transform="rotate(0.0172161 53.2188 26.0889)" fill="white"/>
<rect x="73.5566" y="26.0947" width="20.3364" height="31.318" rx="10.1682" transform="rotate(0.0172161 73.5566 26.0947)" fill="white"/>
<rect x="54.2754" y="35" width="11.3884" height="17.896" rx="5.69419" transform="rotate(0.209929 54.2754 35)" fill="#4351EC"/>
<rect x="74.6123" y="35.0742" width="11.3884" height="17.896" rx="5.69419" transform="rotate(0.209929 74.6123 35.0742)" fill="#4351EC"/>
<rect width="22.8065" height="16.2904" rx="8.14518" transform="matrix(0.992546 -0.121869 -0.121869 -0.992546 52.1953 42.9619)" fill="#FE4401"/>
<rect width="22.8065" height="16.2904" rx="8.14518" transform="matrix(0.992546 0.121869 0.121869 -0.992546 72.457 40.1689)" fill="#FE4401"/>
<path d="M57.2178 47L57.2104 49" stroke="white" stroke-width="2" stroke-linecap="round"/>
<path d="M77.2178 47.0732L77.2104 49.0732" stroke="white" stroke-width="2" stroke-linecap="round"/>
<circle cx="32.0303" cy="60.6985" r="21" transform="rotate(45 32.0303 60.6985)" fill="#4351EC"/>
<circle cx="32.0303" cy="60.6987" r="16" transform="rotate(45 32.0303 60.6987)" fill="#ADC4FA"/>
<rect x="15.0596" y="69.1836" width="12" height="21" rx="2" transform="rotate(45 15.0596 69.1836)" fill="#4351EC"/>
<path d="M31.2097 69.5943L42.0332 60.0627" stroke="white" stroke-width="4" stroke-linecap="round" stroke-linejoin="round"/>
<path d="M39.7372 69.6077L40.3765 69.0447" stroke="white" stroke-width="4" stroke-linecap="round" stroke-linejoin="round"/>
</svg>
