<svg width="209" height="112" viewBox="0 0 209 112" fill="none" xmlns="http://www.w3.org/2000/svg">
<path d="M76.9717 22.5604C76.9895 10.3181 86.9283 0.408174 99.1706 0.426005C111.413 0.443836 121.323 10.3826 121.305 22.6249L121.28 40.1142C121.262 52.3565 111.323 62.2664 99.0806 62.2486C86.8383 62.2307 76.9284 52.2919 76.9462 40.0496L76.9717 22.5604Z" fill="#FE4401"/>
<path d="M54.7484 11.5463C54.7574 5.36902 59.7723 0.368622 65.9497 0.377619C72.127 0.386616 77.1274 5.40161 77.1184 11.5789L77.0414 64.4535C77.0324 70.6308 72.0174 75.6312 65.8401 75.6222C59.6628 75.6132 54.6623 70.5982 54.6713 64.4209L54.7484 11.5463Z" fill="#FE4401"/>
<path d="M54.6996 44.9997C54.7175 32.7012 64.8036 22.746 77.1021 22.7639C89.4005 22.7818 99.4576 32.7664 99.4397 45.0648L99.4074 67.2315C99.3895 79.5299 89.3034 89.4851 77.0049 89.4672C64.7065 89.4493 54.6494 79.4648 54.6673 67.1663L54.6996 44.9997Z" fill="#FE4401"/>
<path d="M121.452 11.6435C121.461 5.46618 126.476 0.465774 132.653 0.474771C138.83 0.483769 143.831 5.49876 143.822 11.6761L143.745 64.5506C143.736 70.7279 138.721 75.7283 132.543 75.7193C126.366 75.7103 121.366 70.6954 121.375 64.5181L121.452 11.6435Z" fill="#FE4401"/>
<path d="M99.4398 44.9631C99.4576 32.7208 109.396 22.811 121.639 22.8288C133.881 22.8466 143.791 32.7854 143.773 45.0277L143.741 67.3977C143.723 79.64 133.784 89.5499 121.542 89.5321C109.299 89.5142 99.3894 79.5754 99.4072 67.3332L99.4398 44.9631Z" fill="#FE4401"/>
<rect x="64.0957" y="33.5254" width="20.3364" height="31.318" rx="10.1682" transform="rotate(0.0834505 64.0957 33.5254)" fill="white"/>
<rect x="84.4336" y="33.5527" width="20.3364" height="31.318" rx="10.1682" transform="rotate(0.0834505 84.4336 33.5527)" fill="white"/>
<rect x="71.376" y="45.4082" width="11.3884" height="17.896" rx="5.69419" transform="rotate(0.0834505 71.376 45.4082)" fill="#4351EC"/>
<rect x="91.7129" y="45.4395" width="11.3884" height="17.896" rx="5.69419" transform="rotate(0.0834505 91.7129 45.4395)" fill="#4351EC"/>
<path d="M80.0029 53L80 55" stroke="white" stroke-width="2" stroke-linecap="round"/>
<path d="M100.004 53.0273L100.001 55.0273" stroke="white" stroke-width="2" stroke-linecap="round"/>
<rect x="0.517578" y="84.7969" width="4" height="9" transform="rotate(-44.3793 0.517578 84.7969)" fill="#FE4401"/>
<rect x="140.44" y="91.7578" width="4" height="9" transform="rotate(-140.605 140.44 91.7578)" fill="#87986C"/>
<rect x="63.0664" y="105.525" width="4" height="9" transform="rotate(75.5973 63.0664 105.525)" fill="#ADC4FA"/>
<rect x="208.481" y="88.2246" width="4" height="9" transform="rotate(117.991 208.481 88.2246)" fill="#87986C"/>
<rect x="173.375" y="86.7227" width="4" height="9" transform="rotate(42.0293 173.375 86.7227)" fill="#87986C"/>
<rect x="185.375" y="99.7227" width="4" height="9" transform="rotate(42.0293 185.375 99.7227)" fill="#ADC4FA"/>
<rect x="43.9521" y="85.3965" width="4" height="9" transform="rotate(42.0293 43.9521 85.3965)" fill="#87986C"/>
<rect x="57.5801" y="85.1035" width="4" height="9" transform="rotate(42.0293 57.5801 85.1035)" fill="#ADC4FA"/>
<rect x="76.6895" y="100.525" width="4" height="9" transform="rotate(15.0683 76.6895 100.525)" fill="#87986C"/>
<rect x="147.657" y="102.285" width="4" height="9" transform="rotate(-55.214 147.657 102.285)" fill="#ADC4FA"/>
<rect x="167.86" y="74.5254" width="4" height="9" transform="rotate(71.0217 167.86 74.5254)" fill="#FE4401"/>
<rect x="136.008" y="92.7871" width="4" height="9" transform="rotate(74.1653 136.008 92.7871)" fill="#ADC4FA"/>
<rect x="155.176" y="89.3477" width="4" height="9" transform="rotate(110.042 155.176 89.3477)" fill="#ADC4FA"/>
<rect x="96.375" y="94.7871" width="4" height="9" transform="rotate(42.0293 96.375 94.7871)" fill="#ADC4FA"/>
<rect x="105.006" y="109.369" width="4" height="9" transform="rotate(-76.5627 105.006 109.369)" fill="#ADC4FA"/>
<rect x="98.1357" y="87.2969" width="4" height="9" transform="rotate(-43.8596 98.1357 87.2969)" fill="#87986C"/>
<rect x="13.5547" y="99.3281" width="4" height="9" transform="rotate(-56.306 13.5547 99.3281)" fill="#87986C"/>
<rect x="61.375" y="93.5254" width="4" height="9" transform="rotate(42.0293 61.375 93.5254)" fill="#FE4401"/>
<rect x="26.6797" y="71.5254" width="4" height="9" transform="rotate(67.7575 26.6797 71.5254)" fill="#ADC4FA"/>
<rect x="62" y="32" width="47" height="17" fill="#FE4401"/>
</svg>
