<svg width="12" height="15" viewBox="0 0 12 15" fill="none" xmlns="http://www.w3.org/2000/svg">
<path id="Vector" d="M8.5 5.8335H9.75C10.0815 5.8335 10.3995 5.96519 10.6339 6.19961C10.8683 6.43403 11 6.75198 11 7.0835V13.0835C11 13.415 10.8683 13.733 10.6339 13.9674C10.3995 14.2018 10.0815 14.3335 9.75 14.3335H2.25C1.91848 14.3335 1.60054 14.2018 1.36612 13.9674C1.1317 13.733 1 13.415 1 13.0835V7.0835C1 6.75198 1.1317 6.43403 1.36612 6.19961C1.60054 5.96519 1.91848 5.8335 2.25 5.8335H3.5M8.5 3.8335L6 1.3335M6 1.3335L3.5 3.8335M6 1.3335V9.86475" stroke="black" stroke-linecap="round" stroke-linejoin="round"/>
</svg>
