<svg width="40" height="40" viewBox="0 0 40 40" fill="none" xmlns="http://www.w3.org/2000/svg">
<path d="M19.6667 4L24.8167 14.4333L36.3333 16.1167L28 24.2333L29.9667 35.7L19.6667 30.2833L9.36667 35.7L11.3333 24.2333L3 16.1167L14.5167 14.4333L19.6667 4Z" fill="#FE4401" stroke="#FE4401" stroke-width="3.33333" stroke-linecap="round" stroke-linejoin="round"/>
<path d="M19.6666 2.33303C20.3008 2.33316 20.88 2.69406 21.1608 3.26272L25.9235 12.9102L36.5739 14.4678C37.2014 14.5595 37.7229 14.9993 37.9186 15.6026C38.1142 16.2059 37.9501 16.868 37.4957 17.3106L29.7897 24.8155L31.609 35.418C31.7163 36.0433 31.4592 36.676 30.9459 37.0489C30.4327 37.4215 29.7515 37.4701 29.1901 37.1748L19.6656 32.166L19.65 32.1739V2.33303C19.6556 2.33298 19.6611 2.33303 19.6666 2.33303Z" fill="#EAEBED"/>
</svg>
