<svg width="24" height="24" viewBox="0 0 24 24" fill="none" xmlns="http://www.w3.org/2000/svg">
<path fill-rule="evenodd" clip-rule="evenodd" d="M11.2987 3.61253V2.18188H12.7013V3.61253C14.6844 3.7781 16.5447 4.64107 17.9518 6.04822C19.359 7.45538 20.222 9.31565 20.3875 11.2988H21.8182V12.7014H20.3875C20.222 14.6845 19.359 16.5448 17.9518 17.9519C16.5447 19.3591 14.6844 20.222 12.7013 20.3876V21.8182H11.2987V20.3876C9.31559 20.222 7.45531 19.3591 6.04816 17.9519C4.64101 16.5448 3.77804 14.6845 3.61247 12.7014H2.18182V11.2988H3.61247C3.77804 9.31565 4.64101 7.45538 6.04816 6.04822C7.45531 4.64107 9.31559 3.7781 11.2987 3.61253ZM11.2987 5.02214C9.68909 5.1839 8.1849 5.89715 7.04099 7.04106C5.89709 8.18496 5.18384 9.68915 5.02208 11.2988H6.38962V12.7014H5.02208C5.18384 14.311 5.89709 15.8152 7.04099 16.9591C8.1849 18.103 9.68909 18.8162 11.2987 18.978V17.6105H12.7013V18.978C14.3109 18.8162 15.8151 18.103 16.959 16.9591C18.1029 15.8152 18.8162 14.311 18.9779 12.7014H17.6104V11.2988H18.9779C18.8162 9.68915 18.1029 8.18496 16.959 7.04106C15.8151 5.89715 14.3109 5.1839 12.7013 5.02214V6.38968H11.2987V5.02214Z" fill="black"/>
<path d="M10 12C10 11.4696 10.2107 10.9609 10.5858 10.5858C10.9609 10.2107 11.4696 10 12 10C12.5304 10 13.0391 10.2107 13.4142 10.5858C13.7893 10.9609 14 11.4696 14 12C14 12.5304 13.7893 13.0391 13.4142 13.4142C13.0391 13.7893 12.5304 14 12 14C11.4696 14 10.9609 13.7893 10.5858 13.4142C10.2107 13.0391 10 12.5304 10 12Z" fill="black"/>
</svg>
