<svg width="25" height="24" viewBox="0 0 25 24" fill="none" xmlns="http://www.w3.org/2000/svg">
<path d="M6.4922 5.9726C6.4922 2.67403 9.16623 0 12.4648 0C15.7634 0 18.4374 2.67403 18.4374 5.9726V10.6849C18.4374 13.9835 15.7634 16.6575 12.4648 16.6575C9.16623 16.6575 6.4922 13.9835 6.4922 10.6849V5.9726Z" fill="#FE4401"/>
<path d="M0.500015 3.0137C0.500015 1.34928 1.84929 0 3.51371 0C5.17813 0 6.52741 1.34928 6.52741 3.0137V17.2603C6.52741 18.9247 5.17813 20.274 3.51371 20.274C1.84929 20.274 0.500015 18.9247 0.500015 17.2603V3.0137Z" fill="#FE4401"/>
<path d="M0.500015 12.0274C0.500015 8.71369 3.2137 6.0274 6.52741 6.0274C9.84112 6.0274 12.5548 8.71369 12.5548 12.0274V18C12.5548 21.3137 9.84112 24 6.52741 24C3.2137 24 0.500015 21.3137 0.500015 18V12.0274Z" fill="#FE4401"/>
<path d="M18.4726 3.0137C18.4726 1.34928 19.8219 0 21.4863 0C23.1507 0 24.5 1.34928 24.5 3.0137V17.2603C24.5 18.9247 23.1507 20.274 21.4863 20.274C19.8219 20.274 18.4726 18.9247 18.4726 17.2603V3.0137Z" fill="#FE4401"/>
<path d="M12.5548 12C12.5548 8.70142 15.2288 6.0274 18.5274 6.0274C21.826 6.0274 24.5 8.70142 24.5 12V18.0274C24.5 21.326 21.826 24 18.5274 24C15.2288 24 12.5548 21.326 12.5548 18.0274V12Z" fill="#FE4401"/>
<rect x="3.0204" y="4.38353" width="5.47945" height="8.43836" rx="2.73973" fill="white"/>
<rect x="8.49985" y="4.38353" width="5.47945" height="8.43836" rx="2.73973" fill="white"/>
<rect x="3.0204" y="6.90409" width="3.06849" height="4.82192" rx="1.53425" fill="#4351EC"/>
<rect x="8.49985" y="6.90405" width="3.06849" height="4.82192" rx="1.53425" fill="#4351EC"/>
</svg>
