<svg width="36" height="36" viewBox="0 0 36 36" fill="none" xmlns="http://www.w3.org/2000/svg">
<path d="M8.98828 8.9589C8.98828 4.01104 12.9993 0 17.9472 0C22.8951 0 26.9061 4.01104 26.9061 8.9589V16.0274C26.9061 20.9753 22.8951 24.9863 17.9472 24.9863C12.9993 24.9863 8.98828 20.9753 8.98828 16.0274V8.9589Z" fill="#4351EC"/>
<path d="M0 4.52055C0 2.02392 2.02392 0 4.52055 0C7.01718 0 9.0411 2.02392 9.0411 4.52055V25.8904C9.0411 28.387 7.01718 30.411 4.52055 30.411C2.02392 30.411 0 28.387 0 25.8904V4.52055Z" fill="#4351EC"/>
<path d="M0 18.0411C0 13.0705 4.07053 9.0411 9.0411 9.0411C14.0117 9.0411 18.0822 13.0705 18.0822 18.0411V27C18.0822 31.9706 14.0117 36 9.0411 36C4.07053 36 0 31.9706 0 27V18.0411Z" fill="#4351EC"/>
<path d="M26.9589 4.52055C26.9589 2.02392 28.9828 0 31.4795 0C33.9761 0 36 2.02392 36 4.52055V25.8904C36 28.387 33.9761 30.411 31.4795 30.411C28.9828 30.411 26.9589 28.387 26.9589 25.8904V4.52055Z" fill="#4351EC"/>
<path d="M18.0822 18C18.0822 13.0521 22.0932 9.0411 27.0411 9.0411C31.989 9.0411 36 13.0521 36 18V27.0411C36 31.989 31.989 36 27.0411 36C22.0932 36 18.0822 31.989 18.0822 27.0411V18Z" fill="#4351EC"/>
<rect x="3.78027" y="6.57617" width="8.21918" height="12.6575" rx="4.10959" fill="white"/>
<rect x="11.999" y="6.57617" width="8.21918" height="12.6575" rx="4.10959" fill="white"/>
<rect x="3.78027" y="10.3555" width="4.60274" height="7.23288" rx="2.30137" fill="black"/>
<rect x="12" y="10.3557" width="4.60274" height="7.23288" rx="2.30137" fill="black"/>
</svg>
