<svg width="24" height="24" viewBox="0 0 24 24" fill="none" xmlns="http://www.w3.org/2000/svg">
<path d="M19.9989 6.99985H3.99889C2.89432 6.99985 1.99889 7.89528 1.99889 8.99985V18.9998C1.99889 20.1044 2.89432 20.9998 3.99889 20.9998H19.9989C21.1035 20.9998 21.9989 20.1044 21.9989 18.9998V8.99985C21.9989 7.89528 21.1035 6.99985 19.9989 6.99985Z" stroke="#1C1D1F" stroke-width="2" stroke-linecap="round" stroke-linejoin="round"/>
<path d="M15.9989 21V5C15.9989 4.46957 15.7882 3.96086 15.4131 3.58579C15.038 3.21071 14.5293 3 13.9989 3H9.99889C9.46845 3 8.95975 3.21071 8.58467 3.58579C8.2096 3.96086 7.99889 4.46957 7.99889 5V21" stroke="#1C1D1F" stroke-width="2" stroke-linecap="round" stroke-linejoin="round"/>
</svg>
