<svg width="109" height="18" viewBox="0 0 109 18" fill="none" xmlns="http://www.w3.org/2000/svg">
<path d="M6.58 13.7C6.39333 13.86 6.14 13.9867 5.82 14.08C5.5 14.1867 5.12 14.24 4.68 14.24C4.13333 14.24 3.66 14.16 3.26 14C2.86 13.8533 2.59333 13.64 2.46 13.36C2.31333 13.04 2.14 12.5333 1.94 11.84C1.75333 11.1467 1.56667 10.3867 1.38 9.56C1.19333 8.73333 1.01333 7.89333 0.84 7.04C0.68 6.18667 0.553333 5.43333 0.46 4.78C0.646667 4.59333 0.893333 4.43333 1.2 4.3C1.52 4.15333 1.86667 4.08 2.24 4.08C2.70667 4.08 3.08667 4.18667 3.38 4.4C3.68667 4.6 3.87333 4.95333 3.94 5.46C4.07333 6.47333 4.18667 7.31333 4.28 7.98C4.37333 8.63333 4.44667 9.17333 4.5 9.6C4.56667 10.0133 4.61333 10.3333 4.64 10.56C4.68 10.7733 4.71333 10.9467 4.74 11.08H4.82C4.86 10.8667 4.92667 10.56 5.02 10.16C5.12667 9.74667 5.24667 9.28 5.38 8.76C5.51333 8.24 5.65333 7.68 5.8 7.08C5.94667 6.46667 6.09333 5.86 6.24 5.26C6.50667 5.11333 6.76667 5 7.02 4.92C7.28667 4.84 7.61333 4.8 8 4.8C8.46667 4.8 8.86667 4.87333 9.2 5.02C9.53333 5.16667 9.74667 5.39333 9.84 5.7C10 6.28667 10.1533 6.86 10.3 7.42C10.4467 7.96667 10.58 8.48 10.7 8.96C10.82 9.42667 10.9267 9.84667 11.02 10.22C11.1133 10.58 11.18 10.8667 11.22 11.08H11.32C11.4667 10.0533 11.6067 8.98667 11.74 7.88C11.8867 6.77333 12.02 5.64667 12.14 4.5C12.38 4.35333 12.6333 4.24667 12.9 4.18C13.1667 4.11333 13.4333 4.08 13.7 4.08C14.1667 4.08 14.5533 4.18 14.86 4.38C15.1667 4.58 15.32 4.92667 15.32 5.42C15.32 5.63333 15.2867 5.95333 15.22 6.38C15.1533 6.80667 15.0667 7.28667 14.96 7.82C14.8533 8.35333 14.7267 8.91333 14.58 9.5C14.4467 10.0867 14.3067 10.6533 14.16 11.2C14.0267 11.7467 13.8933 12.24 13.76 12.68C13.64 13.12 13.5333 13.46 13.44 13.7C13.2533 13.86 12.9667 13.9867 12.58 14.08C12.1933 14.1867 11.78 14.24 11.34 14.24C10.22 14.24 9.56 13.96 9.36 13.4C9.28 13.16 9.18 12.86 9.06 12.5C8.94 12.1267 8.81333 11.72 8.68 11.28C8.54667 10.84 8.42 10.3867 8.3 9.92C8.18 9.44 8.08 8.98 8 8.54C7.90667 9.00667 7.79333 9.49333 7.66 10C7.52667 10.4933 7.38667 10.98 7.24 11.46C7.10667 11.9267 6.98 12.36 6.86 12.76C6.74 13.1467 6.64667 13.46 6.58 13.7ZM26.5203 9.14C26.5203 9.96667 26.3936 10.7067 26.1403 11.36C25.887 12 25.527 12.54 25.0603 12.98C24.607 13.42 24.0603 13.7533 23.4203 13.98C22.7803 14.2067 22.067 14.32 21.2803 14.32C20.4936 14.32 19.7803 14.2 19.1403 13.96C18.5003 13.72 17.947 13.38 17.4803 12.94C17.027 12.4867 16.6736 11.94 16.4203 11.3C16.167 10.66 16.0403 9.94 16.0403 9.14C16.0403 8.35333 16.167 7.64 16.4203 7C16.6736 6.36 17.027 5.82 17.4803 5.38C17.947 4.92667 18.5003 4.58 19.1403 4.34C19.7803 4.1 20.4936 3.98 21.2803 3.98C22.067 3.98 22.7803 4.10667 23.4203 4.36C24.0603 4.6 24.607 4.94667 25.0603 5.4C25.527 5.84 25.887 6.38 26.1403 7.02C26.3936 7.66 26.5203 8.36667 26.5203 9.14ZM19.5203 9.14C19.5203 9.95333 19.6736 10.58 19.9803 11.02C20.3003 11.4467 20.7403 11.66 21.3003 11.66C21.8603 11.66 22.287 11.44 22.5803 11C22.887 10.56 23.0403 9.94 23.0403 9.14C23.0403 8.34 22.887 7.72667 22.5803 7.3C22.2736 6.86 21.8403 6.64 21.2803 6.64C20.7203 6.64 20.287 6.86 19.9803 7.3C19.6736 7.72667 19.5203 8.34 19.5203 9.14ZM31.1791 13.98C31.0457 14.02 30.8324 14.06 30.5391 14.1C30.2591 14.14 29.9657 14.16 29.6591 14.16C29.3657 14.16 29.0991 14.14 28.8591 14.1C28.6324 14.06 28.4391 13.98 28.2791 13.86C28.1191 13.74 27.9924 13.58 27.8991 13.38C27.8191 13.1667 27.7791 12.8933 27.7791 12.56V6.56C27.7791 6.25333 27.8324 5.99333 27.9391 5.78C28.0591 5.55333 28.2257 5.35333 28.4391 5.18C28.6524 5.00667 28.9124 4.85333 29.2191 4.72C29.5391 4.57333 29.8791 4.44667 30.2391 4.34C30.5991 4.23333 30.9724 4.15333 31.3591 4.1C31.7457 4.03333 32.1324 4 32.5191 4C33.1591 4 33.6657 4.12667 34.0391 4.38C34.4124 4.62 34.5991 5.02 34.5991 5.58C34.5991 5.76667 34.5724 5.95333 34.5191 6.14C34.4657 6.31333 34.3991 6.47333 34.3191 6.62C34.0391 6.62 33.7524 6.63333 33.4591 6.66C33.1657 6.68667 32.8791 6.72667 32.5991 6.78C32.3191 6.83333 32.0524 6.89333 31.7991 6.96C31.5591 7.01333 31.3524 7.08 31.1791 7.16V13.98ZM45.1017 12.24C45.0351 12.8667 44.8484 13.3467 44.5417 13.68C44.2484 14.0133 43.8151 14.18 43.2417 14.18C42.8151 14.18 42.4351 14.08 42.1017 13.88C41.7684 13.6667 41.4084 13.3133 41.0217 12.82L39.0417 10.34V13.98C38.8951 14.0067 38.6751 14.04 38.3817 14.08C38.1017 14.1333 37.8151 14.16 37.5217 14.16C37.2284 14.16 36.9617 14.14 36.7217 14.1C36.4951 14.06 36.3017 13.98 36.1417 13.86C35.9817 13.74 35.8551 13.58 35.7617 13.38C35.6817 13.1667 35.6417 12.8933 35.6417 12.56V0.98C35.7884 0.939999 36.0017 0.899999 36.2817 0.86C36.5751 0.806666 36.8684 0.78 37.1617 0.78C37.4551 0.78 37.7151 0.799999 37.9417 0.839999C38.1817 0.879999 38.3817 0.959999 38.5417 1.08C38.7017 1.2 38.8217 1.36667 38.9017 1.58C38.9951 1.78 39.0417 2.04667 39.0417 2.38V7.66L42.4817 4.14C43.1751 4.14 43.7284 4.29333 44.1417 4.6C44.5684 4.90667 44.7817 5.29333 44.7817 5.76C44.7817 5.96 44.7484 6.14667 44.6817 6.32C44.6151 6.48 44.5084 6.64667 44.3617 6.82C44.2284 6.99333 44.0484 7.18 43.8217 7.38C43.6084 7.56667 43.3551 7.78667 43.0617 8.04L41.9017 9.04L45.1017 12.24ZM50.4945 11.84C50.7212 11.84 50.9679 11.82 51.2345 11.78C51.5145 11.7267 51.7212 11.66 51.8545 11.58V9.98L50.4145 10.1C50.0412 10.1267 49.7345 10.2067 49.4945 10.34C49.2545 10.4733 49.1345 10.6733 49.1345 10.94C49.1345 11.2067 49.2345 11.4267 49.4345 11.6C49.6479 11.76 50.0012 11.84 50.4945 11.84ZM50.3345 3.98C51.0545 3.98 51.7079 4.05333 52.2945 4.2C52.8945 4.34667 53.4012 4.57333 53.8145 4.88C54.2412 5.17333 54.5679 5.55333 54.7945 6.02C55.0212 6.47333 55.1345 7.01333 55.1345 7.64V12.12C55.1345 12.4667 55.0345 12.7533 54.8345 12.98C54.6479 13.1933 54.4212 13.38 54.1545 13.54C53.2879 14.06 52.0679 14.32 50.4945 14.32C49.7879 14.32 49.1479 14.2533 48.5745 14.12C48.0145 13.9867 47.5279 13.7867 47.1145 13.52C46.7145 13.2533 46.4012 12.9133 46.1745 12.5C45.9612 12.0867 45.8545 11.6067 45.8545 11.06C45.8545 10.14 46.1279 9.43333 46.6745 8.94C47.2212 8.44667 48.0679 8.14 49.2145 8.02L51.8345 7.74V7.6C51.8345 7.21333 51.6612 6.94 51.3145 6.78C50.9812 6.60667 50.4945 6.52 49.8545 6.52C49.3479 6.52 48.8545 6.57333 48.3745 6.68C47.8945 6.78667 47.4612 6.92 47.0745 7.08C46.9012 6.96 46.7545 6.78 46.6345 6.54C46.5145 6.28667 46.4545 6.02667 46.4545 5.76C46.4545 5.41333 46.5345 5.14 46.6945 4.94C46.8679 4.72667 47.1279 4.54667 47.4745 4.4C47.8612 4.25333 48.3145 4.14667 48.8345 4.08C49.3679 4.01333 49.8679 3.98 50.3345 3.98ZM62.2167 13.7C62.0301 13.86 61.7767 13.9867 61.4567 14.08C61.1367 14.1867 60.7567 14.24 60.3167 14.24C59.7701 14.24 59.2967 14.16 58.8967 14C58.4967 13.8533 58.2301 13.64 58.0967 13.36C57.9501 13.04 57.7767 12.5333 57.5767 11.84C57.3901 11.1467 57.2034 10.3867 57.0167 9.56C56.8301 8.73333 56.6501 7.89333 56.4767 7.04C56.3167 6.18667 56.1901 5.43333 56.0967 4.78C56.2834 4.59333 56.5301 4.43333 56.8367 4.3C57.1567 4.15333 57.5034 4.08 57.8767 4.08C58.3434 4.08 58.7234 4.18667 59.0167 4.4C59.3234 4.6 59.5101 4.95333 59.5767 5.46C59.7101 6.47333 59.8234 7.31333 59.9167 7.98C60.0101 8.63333 60.0834 9.17333 60.1367 9.6C60.2034 10.0133 60.2501 10.3333 60.2767 10.56C60.3167 10.7733 60.3501 10.9467 60.3767 11.08H60.4567C60.4967 10.8667 60.5634 10.56 60.6567 10.16C60.7634 9.74667 60.8834 9.28 61.0167 8.76C61.1501 8.24 61.2901 7.68 61.4367 7.08C61.5834 6.46667 61.7301 5.86 61.8767 5.26C62.1434 5.11333 62.4034 5 62.6567 4.92C62.9234 4.84 63.2501 4.8 63.6367 4.8C64.1034 4.8 64.5034 4.87333 64.8367 5.02C65.1701 5.16667 65.3834 5.39333 65.4767 5.7C65.6367 6.28667 65.7901 6.86 65.9367 7.42C66.0834 7.96667 66.2167 8.48 66.3367 8.96C66.4567 9.42667 66.5634 9.84667 66.6567 10.22C66.7501 10.58 66.8167 10.8667 66.8567 11.08H66.9567C67.1034 10.0533 67.2434 8.98667 67.3767 7.88C67.5234 6.77333 67.6567 5.64667 67.7767 4.5C68.0167 4.35333 68.2701 4.24667 68.5367 4.18C68.8034 4.11333 69.0701 4.08 69.3367 4.08C69.8034 4.08 70.1901 4.18 70.4967 4.38C70.8034 4.58 70.9567 4.92667 70.9567 5.42C70.9567 5.63333 70.9234 5.95333 70.8567 6.38C70.7901 6.80667 70.7034 7.28667 70.5967 7.82C70.4901 8.35333 70.3634 8.91333 70.2167 9.5C70.0834 10.0867 69.9434 10.6533 69.7967 11.2C69.6634 11.7467 69.5301 12.24 69.3967 12.68C69.2767 13.12 69.1701 13.46 69.0767 13.7C68.8901 13.86 68.6034 13.9867 68.2167 14.08C67.8301 14.1867 67.4167 14.24 66.9767 14.24C65.8567 14.24 65.1967 13.96 64.9967 13.4C64.9167 13.16 64.8167 12.86 64.6967 12.5C64.5767 12.1267 64.4501 11.72 64.3167 11.28C64.1834 10.84 64.0567 10.3867 63.9367 9.92C63.8167 9.44 63.7167 8.98 63.6367 8.54C63.5434 9.00667 63.4301 9.49333 63.2967 10C63.1634 10.4933 63.0234 10.98 62.8767 11.46C62.7434 11.9267 62.6167 12.36 62.4967 12.76C62.3767 13.1467 62.2834 13.46 62.2167 13.7ZM76.257 11.84C76.4837 11.84 76.7304 11.82 76.997 11.78C77.277 11.7267 77.4837 11.66 77.617 11.58V9.98L76.177 10.1C75.8037 10.1267 75.497 10.2067 75.257 10.34C75.017 10.4733 74.897 10.6733 74.897 10.94C74.897 11.2067 74.997 11.4267 75.197 11.6C75.4104 11.76 75.7637 11.84 76.257 11.84ZM76.097 3.98C76.817 3.98 77.4704 4.05333 78.057 4.2C78.657 4.34667 79.1637 4.57333 79.577 4.88C80.0037 5.17333 80.3304 5.55333 80.557 6.02C80.7837 6.47333 80.897 7.01333 80.897 7.64V12.12C80.897 12.4667 80.797 12.7533 80.597 12.98C80.4104 13.1933 80.1837 13.38 79.917 13.54C79.0504 14.06 77.8304 14.32 76.257 14.32C75.5504 14.32 74.9104 14.2533 74.337 14.12C73.777 13.9867 73.2904 13.7867 72.877 13.52C72.477 13.2533 72.1637 12.9133 71.937 12.5C71.7237 12.0867 71.617 11.6067 71.617 11.06C71.617 10.14 71.8904 9.43333 72.437 8.94C72.9837 8.44667 73.8304 8.14 74.977 8.02L77.597 7.74V7.6C77.597 7.21333 77.4237 6.94 77.077 6.78C76.7437 6.60667 76.257 6.52 75.617 6.52C75.1104 6.52 74.617 6.57333 74.137 6.68C73.657 6.78667 73.2237 6.92 72.837 7.08C72.6637 6.96 72.517 6.78 72.397 6.54C72.277 6.28667 72.217 6.02667 72.217 5.76C72.217 5.41333 72.297 5.14 72.457 4.94C72.6304 4.72667 72.8904 4.54667 73.237 4.4C73.6237 4.25333 74.077 4.14667 74.597 4.08C75.1304 4.01333 75.6304 3.98 76.097 3.98ZM83.8616 11.52C83.7149 11.1867 83.5549 10.8133 83.3816 10.4C83.2216 9.98667 83.0482 9.51333 82.8616 8.98C82.6882 8.44667 82.5016 7.84 82.3016 7.16C82.1149 6.46667 81.9149 5.67333 81.7016 4.78C81.8882 4.59333 82.1349 4.43333 82.4416 4.3C82.7616 4.15333 83.1082 4.08 83.4816 4.08C83.9482 4.08 84.3349 4.18 84.6416 4.38C84.9482 4.56667 85.1749 4.92667 85.3216 5.46L86.9016 10.96H86.9816C87.1416 10.5067 87.2949 10.0133 87.4416 9.48C87.6016 8.94667 87.7549 8.4 87.9016 7.84C88.0482 7.26667 88.1816 6.7 88.3016 6.14C88.4349 5.56667 88.5482 5.00667 88.6416 4.46C89.1216 4.20667 89.6482 4.08 90.2216 4.08C90.6882 4.08 91.0749 4.18 91.3816 4.38C91.6882 4.58 91.8416 4.92667 91.8416 5.42C91.8416 5.78 91.7949 6.2 91.7016 6.68C91.6082 7.14667 91.4816 7.64667 91.3216 8.18C91.1749 8.71333 90.9949 9.26667 90.7816 9.84C90.5816 10.4 90.3682 10.9533 90.1416 11.5C89.9149 12.0467 89.6816 12.5667 89.4416 13.06C89.2016 13.54 88.9682 13.9733 88.7416 14.36C88.3682 15.0133 88.0216 15.5467 87.7016 15.96C87.3816 16.3733 87.0749 16.6933 86.7816 16.92C86.4882 17.16 86.1949 17.32 85.9016 17.4C85.6082 17.4933 85.3016 17.54 84.9816 17.54C84.4216 17.54 83.9682 17.3733 83.6216 17.04C83.2749 16.7067 83.0682 16.2733 83.0016 15.74C83.4282 15.4067 83.8549 15.0333 84.2816 14.62C84.7082 14.22 85.0949 13.8067 85.4416 13.38C85.2149 13.3133 84.9682 13.16 84.7016 12.92C84.4482 12.6667 84.1682 12.2 83.8616 11.52ZM98.5611 5.56C98.4144 5.78667 98.2411 5.95333 98.0411 6.06C97.8411 6.16667 97.5878 6.22 97.2811 6.22C97.0278 6.22 96.7944 6.19333 96.5811 6.14C96.3678 6.08667 96.1611 6.01333 95.9611 5.92C96.0278 5.10667 96.0944 4.29333 96.1611 3.48C96.2278 2.66667 96.2744 1.91333 96.3011 1.22C96.4878 1.11333 96.7278 1.01333 97.0211 0.919999C97.3278 0.826666 97.6211 0.78 97.9011 0.78C98.1144 0.78 98.3211 0.799999 98.5211 0.839999C98.7344 0.879999 98.9211 0.953333 99.0811 1.06C99.2411 1.15333 99.3678 1.28667 99.4611 1.46C99.5544 1.62 99.6011 1.82 99.6011 2.06C99.6011 2.32667 99.5744 2.62 99.5211 2.94C99.4678 3.26 99.3878 3.58 99.2811 3.9C99.1878 4.22 99.0744 4.52667 98.9411 4.82C98.8211 5.11333 98.6944 5.36 98.5611 5.56ZM108.228 11.1C108.228 12.1133 107.848 12.9067 107.088 13.48C106.328 14.0533 105.208 14.34 103.728 14.34C103.168 14.34 102.648 14.3 102.168 14.22C101.688 14.14 101.275 14.02 100.928 13.86C100.595 13.6867 100.328 13.4733 100.128 13.22C99.9416 12.9667 99.8483 12.6667 99.8483 12.32C99.8483 12 99.9149 11.7333 100.048 11.52C100.182 11.2933 100.342 11.1067 100.528 10.96C100.915 11.1733 101.355 11.3667 101.848 11.54C102.355 11.7 102.935 11.78 103.588 11.78C104.002 11.78 104.315 11.72 104.528 11.6C104.755 11.48 104.868 11.32 104.868 11.12C104.868 10.9333 104.788 10.7867 104.628 10.68C104.468 10.5733 104.202 10.4867 103.828 10.42L103.228 10.3C102.068 10.0733 101.202 9.72 100.628 9.24C100.068 8.74667 99.7883 8.04667 99.7883 7.14C99.7883 6.64667 99.8949 6.2 100.108 5.8C100.322 5.4 100.622 5.06667 101.008 4.8C101.395 4.53333 101.855 4.32667 102.388 4.18C102.935 4.03333 103.535 3.96 104.188 3.96C104.682 3.96 105.142 4 105.568 4.08C106.008 4.14667 106.388 4.25333 106.708 4.4C107.028 4.54667 107.282 4.74 107.468 4.98C107.655 5.20667 107.748 5.48 107.748 5.8C107.748 6.10667 107.688 6.37333 107.568 6.6C107.462 6.81333 107.322 6.99333 107.148 7.14C107.042 7.07333 106.882 7.00667 106.668 6.94C106.455 6.86 106.222 6.79333 105.968 6.74C105.715 6.67333 105.455 6.62 105.188 6.58C104.935 6.54 104.702 6.52 104.488 6.52C104.048 6.52 103.708 6.57333 103.468 6.68C103.228 6.77333 103.108 6.92667 103.108 7.14C103.108 7.28667 103.175 7.40667 103.308 7.5C103.442 7.59333 103.695 7.68 104.068 7.76L104.688 7.9C105.968 8.19333 106.875 8.6 107.408 9.12C107.955 9.62667 108.228 10.2867 108.228 11.1Z" fill="white"/>
</svg>
